M48
;Layer_Color=9474304
;FILE_FORMAT=4:4
METRIC
T4F00S00C2.0000
%
G90
G05
T04
G00X01267718Y00594374
M15
G01X01270240Y00595050
G01X01273411Y00596364
G01X01275672Y00597669
G01X01278395Y00599759
G01X01280241Y00601604
G01X01282330Y00604328
G01X01283636Y00606588
G01X01284949Y00609760
G01X01285625Y00612281
G01X01286073Y00615684
G01X01286035Y00617013
G01X01286035Y01013958
G01X01286004Y01013958
G01X01286110Y01015263
G01X01285628Y01018927
G01X01284952Y01021448
G01X01283538Y01024863
G01X01282233Y01027123
G01X01279984Y01030055
G01X01278138Y01031901
G01X01275206Y01034151
G01X01272945Y01035456
G01X01269531Y01036870
G01X01267009Y01037546
G01X01263346Y01038028
G01X01262040Y01037991
G01X01262040Y01037999
G01X00734000Y01037999
G01X00734000Y01037963
G01X00732695Y01038070
G01X00729031Y01037588
G01X00726509Y01036912
G01X00723095Y01035498
G01X00720834Y01034193
G01X00717903Y01031943
G01X00716057Y01030097
G01X00713807Y01027166
G01X00712502Y01024905
G01X00711088Y01021491
G01X00710412Y01018969
G01X00709930Y01015305
G01X00710000Y01012848
G01X00710000Y00618000
G01X00710037Y00618000
G01X00709930Y00616695
G01X00710412Y00613031
G01X00711088Y00610509
G01X00712502Y00607095
G01X00713807Y00604834
G01X00716057Y00601903
G01X00717903Y00600057
G01X00720834Y00597807
G01X00723095Y00596502
G01X00726509Y00595088
G01X00729031Y00594412
G01X00732695Y00593930
G01X00735178Y00594001
G01X01263010Y00594001
G01X01263010Y00594033
G01X01264315Y00593926
G01X01267718Y00594374
M16
M17
M30
