M48
;Layer_Color=9474304
;FILE_FORMAT=4:4
METRIC
;TYPE=PLATED
T1F00S00C0.3000
T2F00S00C0.5000
T4F00S00C0.8000
T5F00S00C0.8500
T6F00S00C1.0000
%
T01
X00334654Y00021000
X00288680Y00077650
X00471968Y00086000
X00083568Y00116000
X00041005Y00089000
X00061840Y00211715
X00071914Y00389000
X00155000Y00385000
X00135000Y00295565
X00222753Y00301065
X00241587Y00262477
X00306999Y00249999
X00310500Y00223917
Y00212917
X00321500
Y00223917
X00347608Y00248846
X00375999Y00254000
X00391594Y00257150
X00438286Y00270286
X00432000Y00301065
X00479818Y00299008
X00471000Y00323390
X00472232Y00136350
X00437369Y00139000
X00434000Y00101674
X00410583Y00100800
X00399932Y00122100
X00385000Y00161000
X00356498Y00193093
X00365134Y00206555
X00277404Y00202000
X00261802Y00201000
X00179769Y00230800
X00150283Y00185324
X00135712Y00197652
X00157256Y00158000
X00183000Y00133056
X00304999Y00278999
X00518000Y00298640
X00537000Y00313640
X00530618Y00160454
X00542980Y00136000
X00509000Y00088439
T02
X00099600Y00283200
X00352000Y00289040
T04
X00052550Y00271387
Y00296786
Y00322187
T05
X00042500Y00119385
Y00169385
T06
X00497368Y00040800
X00522768
X00548168
X00573568
X00471968
X00446568
X00421168
X00395768
X00370368
X00344968
X00319568
X00294168
X00268768
X00243368
X00217968
X00192568
X00167168
X00141768
X00116368
X00090968
X00065568
X00017502Y00058149
Y00083549
X00066168Y00348000
X00091568
X00116968
X00142368
X00167768
X00193168
X00218568
X00243968
X00269368
X00294768
X00320168
X00345568
X00370968
X00396368
X00421768
X00447168
X00472568
X00258568Y00233000
X00497968Y00348000
X00523368
X00548768
X00574168
M30
