M48
;Layer_Color=9474304
;FILE_FORMAT=4:4
METRIC
T7F00S00C2.0000
%
G90
G05
T07
G00X00593705Y-00009495
M15
G01X00596526Y-00008032
G01X00598744Y-00005758
G01X00600138Y-00002902
G01X00600568Y00000000
G01X00600568Y00401000
G01X00600064Y00404137
G01X00598600Y00406957
G01X00596326Y00409176
G01X00593470Y00410569
G01X00590568Y00411000
G01X00000000Y00411000
G01X-00003137Y00410495
G01X-00005957Y00409032
G01X-00008176Y00406757
G01X-00009570Y00403902
G01X-00010000Y00401000
G01X-00010000Y00000000
G01X-00009495Y-00003137
G01X-00008032Y-00005957
G01X-00005758Y-00008176
G01X-00002902Y-00009570
G01X00000000Y-00010000
G01X00590568Y-00010000
G01X00593705Y-00009495
M16
M17
M30
