G04*
G04 #@! TF.GenerationSoftware,Altium Limited,Altium Designer,18.1.6 (161)*
G04*
G04 Layer_Color=16711935*
%FSAX44Y44*%
%MOMM*%
G71*
G01*
G75*
%ADD13C,0.1000*%
%ADD14R,1.6000X1.6000*%
%ADD15C,1.6240*%
%ADD16C,1.1000*%
D13*
X01263010Y00603953D02*
G03*
X01276046Y00616990I00000000J00013036D01*
G01*
X01276075Y01013958D02*
G03*
X01262040Y01027993I-00014035J00000000D01*
G01*
X00734000Y01028035D02*
G03*
X00719965Y01014000I00000000J-00014035D01*
G01*
Y00618000D02*
G03*
X00734000Y00603965I00014035J00000000D01*
G01*
X01276035Y00616990D02*
X01276035Y01013958D01*
X00734000Y01027999D02*
X01262040Y01027999D01*
X00734000Y00604001D02*
X01263010Y00604001D01*
X00720000Y00618000D02*
X00720000Y01014000D01*
D14*
X01000000Y00615550D02*
D03*
X01242000Y01017000D02*
D03*
X01250650Y00615550D02*
D03*
X00989000Y01017200D02*
D03*
X00934000D02*
D03*
X00883000Y01017000D02*
D03*
X00833000Y00614600D02*
D03*
X00831000Y01017200D02*
D03*
X00769000Y00614600D02*
D03*
X00780000Y01017200D02*
D03*
X00956000Y00614600D02*
D03*
X00894000Y00614850D02*
D03*
X01048000D02*
D03*
X01189000Y01017200D02*
D03*
X01137000D02*
D03*
X01093000Y00614850D02*
D03*
X01087000Y01017000D02*
D03*
X01145000Y00614850D02*
D03*
X01037000Y01017000D02*
D03*
X01193400Y00615350D02*
D03*
D15*
X00844250Y00656000D02*
D03*
X00818850D02*
D03*
X00742650D02*
D03*
X00793450D02*
D03*
X00768050D02*
D03*
X00920450D02*
D03*
X00945850D02*
D03*
X00895050D02*
D03*
X00869650D02*
D03*
X00971250D02*
D03*
X00996650D02*
D03*
X01047450D02*
D03*
X01022050D02*
D03*
X01225250D02*
D03*
X01250650D02*
D03*
X01199850D02*
D03*
X01174450D02*
D03*
X01072850D02*
D03*
X01098250D02*
D03*
X01149050D02*
D03*
X01123650D02*
D03*
X00844250Y00963150D02*
D03*
X00818850D02*
D03*
X00742650D02*
D03*
X00793450D02*
D03*
X00768050D02*
D03*
X00920450D02*
D03*
X00945850D02*
D03*
X00895050D02*
D03*
X00869650D02*
D03*
X00971250D02*
D03*
X00996650D02*
D03*
X01047450D02*
D03*
X01022050D02*
D03*
X01225250D02*
D03*
X01250650D02*
D03*
X01199850D02*
D03*
X01174450D02*
D03*
X01072850D02*
D03*
X01098250D02*
D03*
X01149050D02*
D03*
X01123650D02*
D03*
D16*
X01088000Y00682000D02*
D03*
X01023000Y00920000D02*
D03*
M02*
