G04*
G04 #@! TF.GenerationSoftware,Altium Limited,Altium Designer,18.1.6 (161)*
G04*
G04 Layer_Physical_Order=2*
G04 Layer_Color=16711680*
%FSAX44Y44*%
%MOMM*%
G71*
G01*
G75*
%ADD11C,0.2000*%
%ADD13C,0.1000*%
%ADD17R,1.5000X1.5000*%
%ADD18C,1.5240*%
%ADD19C,1.0000*%
G36*
X00733921Y01024941D02*
X00733961Y01024948D01*
X00734000Y01024940D01*
X00771000Y01024940D01*
Y01008200D01*
X00789000D01*
Y01024042D01*
X00789898Y01024940D01*
X00822000Y01024939D01*
Y01008200D01*
X00840000D01*
Y01024041D01*
X00840898Y01024939D01*
X00874000Y01024939D01*
Y01008000D01*
X00892000D01*
Y01024041D01*
X00892898Y01024939D01*
X00925000Y01024938D01*
Y01008200D01*
X00943000D01*
Y01024040D01*
X00943898Y01024938D01*
X00980000Y01024938D01*
Y01008200D01*
X00998000D01*
Y01024039D01*
X00998898Y01024937D01*
X01028000Y01024937D01*
Y01008000D01*
X01046000D01*
Y01024039D01*
X01046898Y01024937D01*
X01078000Y01024936D01*
Y01008000D01*
X01096000D01*
Y01024038D01*
X01096898Y01024936D01*
X01128000Y01024936D01*
Y01008200D01*
X01146000D01*
Y01024037D01*
X01146898Y01024935D01*
X01180000Y01024935D01*
Y01008200D01*
X01198000D01*
Y01024037D01*
X01198898Y01024935D01*
X01233000Y01024934D01*
Y01008000D01*
X01251000D01*
Y01024036D01*
X01251898Y01024934D01*
X01262040Y01024934D01*
X01263121D01*
X01265242Y01024512D01*
X01267239Y01023685D01*
X01269037Y01022484D01*
X01270566Y01020955D01*
X01271767Y01019157D01*
X01272595Y01017160D01*
X01273008Y01015083D01*
X01272978Y01014047D01*
X01272985Y01014002D01*
X01272976Y01013958D01*
X01272987Y00616990D01*
Y00616007D01*
X01272604Y00614079D01*
X01271852Y00612263D01*
X01270760Y00610629D01*
X01269370Y00609240D01*
X01267736Y00608148D01*
X01265920Y00607396D01*
X01264048Y00607023D01*
X01263123Y00607057D01*
X01263066Y00607048D01*
X01263009Y00607060D01*
X01261588Y00607059D01*
X01260690Y00607957D01*
Y00614280D01*
X01240610D01*
Y00607058D01*
X01203298Y00607056D01*
X01202400Y00607953D01*
Y00624350D01*
X01184400D01*
Y00607054D01*
X01154898Y00607052D01*
X01154000Y00607950D01*
Y00623850D01*
X01136000D01*
Y00607051D01*
X01102898Y00607049D01*
X01102000Y00607947D01*
Y00623850D01*
X01084000D01*
Y00607047D01*
X01058938Y00607046D01*
X01058040Y00607944D01*
Y00613580D01*
X01037960D01*
Y00607044D01*
X01009898Y00607042D01*
X01009000Y00607940D01*
Y00624550D01*
X00991000D01*
Y00607041D01*
X00965898Y00607039D01*
X00965000Y00607938D01*
Y00623600D01*
X00947000D01*
Y00607038D01*
X00903898Y00607035D01*
X00903000Y00607933D01*
Y00623850D01*
X00885000D01*
Y00607034D01*
X00842898Y00607031D01*
X00842000Y00607929D01*
Y00623600D01*
X00824000D01*
Y00607030D01*
X00778898Y00607027D01*
X00778000Y00607925D01*
Y00623600D01*
X00760000D01*
Y00607026D01*
X00734000Y00607024D01*
X00732919D01*
X00730798Y00607446D01*
X00728801Y00608273D01*
X00727003Y00609474D01*
X00725474Y00611003D01*
X00724273Y00612801D01*
X00723446Y00614798D01*
X00723031Y00616881D01*
X00723058Y00617923D01*
X00723051Y00617962D01*
X00723059Y00618000D01*
X00723024Y01014000D01*
Y01015081D01*
X00723446Y01017202D01*
X00724273Y01019199D01*
X00725474Y01020997D01*
X00727003Y01022526D01*
X00728801Y01023727D01*
X00730798Y01024554D01*
X00732880Y01024968D01*
X00733921Y01024941D01*
D02*
G37*
%LPC*%
G36*
X01250650Y00972349D02*
X01248269Y00972035D01*
X01246051Y00971116D01*
X01244146Y00969655D01*
X01242684Y00967749D01*
X01241765Y00965531D01*
X01241451Y00963150D01*
X01241765Y00960769D01*
X01242684Y00958551D01*
X01244146Y00956646D01*
X01246051Y00955184D01*
X01248269Y00954265D01*
X01250650Y00953951D01*
X01253031Y00954265D01*
X01255249Y00955184D01*
X01257154Y00956646D01*
X01258616Y00958551D01*
X01259535Y00960769D01*
X01259849Y00963150D01*
X01259535Y00965531D01*
X01258616Y00967749D01*
X01257154Y00969655D01*
X01255249Y00971116D01*
X01253031Y00972035D01*
X01250650Y00972349D01*
D02*
G37*
G36*
X01225250D02*
X01222869Y00972035D01*
X01220651Y00971116D01*
X01218745Y00969655D01*
X01217284Y00967749D01*
X01216365Y00965531D01*
X01216051Y00963150D01*
X01216365Y00960769D01*
X01217284Y00958551D01*
X01218745Y00956646D01*
X01220651Y00955184D01*
X01222869Y00954265D01*
X01225250Y00953951D01*
X01227631Y00954265D01*
X01229849Y00955184D01*
X01231755Y00956646D01*
X01233216Y00958551D01*
X01234135Y00960769D01*
X01234449Y00963150D01*
X01234135Y00965531D01*
X01233216Y00967749D01*
X01231755Y00969655D01*
X01229849Y00971116D01*
X01227631Y00972035D01*
X01225250Y00972349D01*
D02*
G37*
G36*
X01174450D02*
X01172069Y00972035D01*
X01169851Y00971116D01*
X01167945Y00969655D01*
X01166484Y00967749D01*
X01165565Y00965531D01*
X01165251Y00963150D01*
X01165565Y00960769D01*
X01166484Y00958551D01*
X01167945Y00956646D01*
X01169851Y00955184D01*
X01172069Y00954265D01*
X01174450Y00953951D01*
X01176831Y00954265D01*
X01179049Y00955184D01*
X01180955Y00956646D01*
X01182416Y00958551D01*
X01183335Y00960769D01*
X01183649Y00963150D01*
X01183335Y00965531D01*
X01182416Y00967749D01*
X01180955Y00969655D01*
X01179049Y00971116D01*
X01176831Y00972035D01*
X01174450Y00972349D01*
D02*
G37*
G36*
X01149050D02*
X01146669Y00972035D01*
X01144451Y00971116D01*
X01142545Y00969655D01*
X01141084Y00967749D01*
X01140165Y00965531D01*
X01139851Y00963150D01*
X01140165Y00960769D01*
X01141084Y00958551D01*
X01142545Y00956646D01*
X01144451Y00955184D01*
X01146669Y00954265D01*
X01149050Y00953951D01*
X01151431Y00954265D01*
X01153649Y00955184D01*
X01155555Y00956646D01*
X01157016Y00958551D01*
X01157935Y00960769D01*
X01158249Y00963150D01*
X01157935Y00965531D01*
X01157016Y00967749D01*
X01155555Y00969655D01*
X01153649Y00971116D01*
X01151431Y00972035D01*
X01149050Y00972349D01*
D02*
G37*
G36*
X01123650D02*
X01121269Y00972035D01*
X01119051Y00971116D01*
X01117145Y00969655D01*
X01115684Y00967749D01*
X01114765Y00965531D01*
X01114451Y00963150D01*
X01114765Y00960769D01*
X01115684Y00958551D01*
X01117145Y00956646D01*
X01119051Y00955184D01*
X01121269Y00954265D01*
X01123650Y00953951D01*
X01126031Y00954265D01*
X01128249Y00955184D01*
X01130154Y00956646D01*
X01131616Y00958551D01*
X01132535Y00960769D01*
X01132849Y00963150D01*
X01132535Y00965531D01*
X01131616Y00967749D01*
X01130154Y00969655D01*
X01128249Y00971116D01*
X01126031Y00972035D01*
X01123650Y00972349D01*
D02*
G37*
G36*
X01098250D02*
X01095869Y00972035D01*
X01093651Y00971116D01*
X01091746Y00969655D01*
X01090284Y00967749D01*
X01089365Y00965531D01*
X01089051Y00963150D01*
X01089365Y00960769D01*
X01090284Y00958551D01*
X01091746Y00956646D01*
X01093651Y00955184D01*
X01095869Y00954265D01*
X01098250Y00953951D01*
X01100631Y00954265D01*
X01102849Y00955184D01*
X01104754Y00956646D01*
X01106216Y00958551D01*
X01107135Y00960769D01*
X01107449Y00963150D01*
X01107135Y00965531D01*
X01106216Y00967749D01*
X01104754Y00969655D01*
X01102849Y00971116D01*
X01100631Y00972035D01*
X01098250Y00972349D01*
D02*
G37*
G36*
X01072850D02*
X01070469Y00972035D01*
X01068251Y00971116D01*
X01066346Y00969655D01*
X01064884Y00967749D01*
X01063965Y00965531D01*
X01063651Y00963150D01*
X01063965Y00960769D01*
X01064884Y00958551D01*
X01066346Y00956646D01*
X01068251Y00955184D01*
X01070469Y00954265D01*
X01072850Y00953951D01*
X01075231Y00954265D01*
X01077449Y00955184D01*
X01079354Y00956646D01*
X01080816Y00958551D01*
X01081735Y00960769D01*
X01082049Y00963150D01*
X01081735Y00965531D01*
X01080816Y00967749D01*
X01079354Y00969655D01*
X01077449Y00971116D01*
X01075231Y00972035D01*
X01072850Y00972349D01*
D02*
G37*
G36*
X01047450D02*
X01045069Y00972035D01*
X01042851Y00971116D01*
X01040946Y00969655D01*
X01039484Y00967749D01*
X01038565Y00965531D01*
X01038251Y00963150D01*
X01038565Y00960769D01*
X01039484Y00958551D01*
X01040946Y00956646D01*
X01042851Y00955184D01*
X01045069Y00954265D01*
X01047450Y00953951D01*
X01049831Y00954265D01*
X01052049Y00955184D01*
X01053954Y00956646D01*
X01055416Y00958551D01*
X01056335Y00960769D01*
X01056649Y00963150D01*
X01056335Y00965531D01*
X01055416Y00967749D01*
X01053954Y00969655D01*
X01052049Y00971116D01*
X01049831Y00972035D01*
X01047450Y00972349D01*
D02*
G37*
G36*
X01022050D02*
X01019669Y00972035D01*
X01017451Y00971116D01*
X01015546Y00969655D01*
X01014084Y00967749D01*
X01013165Y00965531D01*
X01012851Y00963150D01*
X01013165Y00960769D01*
X01014084Y00958551D01*
X01015546Y00956646D01*
X01017451Y00955184D01*
X01019669Y00954265D01*
X01022050Y00953951D01*
X01024431Y00954265D01*
X01026649Y00955184D01*
X01028555Y00956646D01*
X01030016Y00958551D01*
X01030935Y00960769D01*
X01031249Y00963150D01*
X01030935Y00965531D01*
X01030016Y00967749D01*
X01028555Y00969655D01*
X01026649Y00971116D01*
X01024431Y00972035D01*
X01022050Y00972349D01*
D02*
G37*
G36*
X00996650D02*
X00994269Y00972035D01*
X00992051Y00971116D01*
X00990145Y00969655D01*
X00988684Y00967749D01*
X00987765Y00965531D01*
X00987451Y00963150D01*
X00987765Y00960769D01*
X00988684Y00958551D01*
X00990145Y00956646D01*
X00992051Y00955184D01*
X00994269Y00954265D01*
X00996650Y00953951D01*
X00999031Y00954265D01*
X01001249Y00955184D01*
X01003155Y00956646D01*
X01004616Y00958551D01*
X01005535Y00960769D01*
X01005849Y00963150D01*
X01005535Y00965531D01*
X01004616Y00967749D01*
X01003155Y00969655D01*
X01001249Y00971116D01*
X00999031Y00972035D01*
X00996650Y00972349D01*
D02*
G37*
G36*
X00971250D02*
X00968869Y00972035D01*
X00966651Y00971116D01*
X00964745Y00969655D01*
X00963284Y00967749D01*
X00962365Y00965531D01*
X00962051Y00963150D01*
X00962365Y00960769D01*
X00963284Y00958551D01*
X00964745Y00956646D01*
X00966651Y00955184D01*
X00968869Y00954265D01*
X00971250Y00953951D01*
X00973631Y00954265D01*
X00975849Y00955184D01*
X00977755Y00956646D01*
X00979216Y00958551D01*
X00980135Y00960769D01*
X00980449Y00963150D01*
X00980135Y00965531D01*
X00979216Y00967749D01*
X00977755Y00969655D01*
X00975849Y00971116D01*
X00973631Y00972035D01*
X00971250Y00972349D01*
D02*
G37*
G36*
X00945850D02*
X00943469Y00972035D01*
X00941251Y00971116D01*
X00939345Y00969655D01*
X00937884Y00967749D01*
X00936965Y00965531D01*
X00936651Y00963150D01*
X00936965Y00960769D01*
X00937884Y00958551D01*
X00939345Y00956646D01*
X00941251Y00955184D01*
X00943469Y00954265D01*
X00945850Y00953951D01*
X00948231Y00954265D01*
X00950449Y00955184D01*
X00952355Y00956646D01*
X00953816Y00958551D01*
X00954735Y00960769D01*
X00955049Y00963150D01*
X00954735Y00965531D01*
X00953816Y00967749D01*
X00952355Y00969655D01*
X00950449Y00971116D01*
X00948231Y00972035D01*
X00945850Y00972349D01*
D02*
G37*
G36*
X00920450D02*
X00918069Y00972035D01*
X00915851Y00971116D01*
X00913945Y00969655D01*
X00912484Y00967749D01*
X00911565Y00965531D01*
X00911251Y00963150D01*
X00911565Y00960769D01*
X00912484Y00958551D01*
X00913945Y00956646D01*
X00915851Y00955184D01*
X00918069Y00954265D01*
X00920450Y00953951D01*
X00922831Y00954265D01*
X00925049Y00955184D01*
X00926954Y00956646D01*
X00928416Y00958551D01*
X00929335Y00960769D01*
X00929649Y00963150D01*
X00929335Y00965531D01*
X00928416Y00967749D01*
X00926954Y00969655D01*
X00925049Y00971116D01*
X00922831Y00972035D01*
X00920450Y00972349D01*
D02*
G37*
G36*
X00895050D02*
X00892669Y00972035D01*
X00890451Y00971116D01*
X00888546Y00969655D01*
X00887084Y00967749D01*
X00886165Y00965531D01*
X00885851Y00963150D01*
X00886165Y00960769D01*
X00887084Y00958551D01*
X00888546Y00956646D01*
X00890451Y00955184D01*
X00892669Y00954265D01*
X00895050Y00953951D01*
X00897431Y00954265D01*
X00899649Y00955184D01*
X00901554Y00956646D01*
X00903016Y00958551D01*
X00903935Y00960769D01*
X00904249Y00963150D01*
X00903935Y00965531D01*
X00903016Y00967749D01*
X00901554Y00969655D01*
X00899649Y00971116D01*
X00897431Y00972035D01*
X00895050Y00972349D01*
D02*
G37*
G36*
X00869650D02*
X00867269Y00972035D01*
X00865051Y00971116D01*
X00863146Y00969655D01*
X00861684Y00967749D01*
X00860765Y00965531D01*
X00860451Y00963150D01*
X00860765Y00960769D01*
X00861684Y00958551D01*
X00863146Y00956646D01*
X00865051Y00955184D01*
X00867269Y00954265D01*
X00869650Y00953951D01*
X00872031Y00954265D01*
X00874249Y00955184D01*
X00876154Y00956646D01*
X00877616Y00958551D01*
X00878535Y00960769D01*
X00878849Y00963150D01*
X00878535Y00965531D01*
X00877616Y00967749D01*
X00876154Y00969655D01*
X00874249Y00971116D01*
X00872031Y00972035D01*
X00869650Y00972349D01*
D02*
G37*
G36*
X00844250D02*
X00841869Y00972035D01*
X00839651Y00971116D01*
X00837746Y00969655D01*
X00836284Y00967749D01*
X00835365Y00965531D01*
X00835051Y00963150D01*
X00835365Y00960769D01*
X00836284Y00958551D01*
X00837746Y00956646D01*
X00839651Y00955184D01*
X00841869Y00954265D01*
X00844250Y00953951D01*
X00846631Y00954265D01*
X00848849Y00955184D01*
X00850754Y00956646D01*
X00852216Y00958551D01*
X00853135Y00960769D01*
X00853449Y00963150D01*
X00853135Y00965531D01*
X00852216Y00967749D01*
X00850754Y00969655D01*
X00848849Y00971116D01*
X00846631Y00972035D01*
X00844250Y00972349D01*
D02*
G37*
G36*
X00818850D02*
X00816469Y00972035D01*
X00814251Y00971116D01*
X00812346Y00969655D01*
X00810884Y00967749D01*
X00809965Y00965531D01*
X00809651Y00963150D01*
X00809965Y00960769D01*
X00810884Y00958551D01*
X00812346Y00956646D01*
X00814251Y00955184D01*
X00816469Y00954265D01*
X00818850Y00953951D01*
X00821231Y00954265D01*
X00823449Y00955184D01*
X00825355Y00956646D01*
X00826816Y00958551D01*
X00827735Y00960769D01*
X00828049Y00963150D01*
X00827735Y00965531D01*
X00826816Y00967749D01*
X00825355Y00969655D01*
X00823449Y00971116D01*
X00821231Y00972035D01*
X00818850Y00972349D01*
D02*
G37*
G36*
X00793450D02*
X00791069Y00972035D01*
X00788851Y00971116D01*
X00786945Y00969655D01*
X00785484Y00967749D01*
X00784565Y00965531D01*
X00784251Y00963150D01*
X00784565Y00960769D01*
X00785484Y00958551D01*
X00786945Y00956646D01*
X00788851Y00955184D01*
X00791069Y00954265D01*
X00793450Y00953951D01*
X00795831Y00954265D01*
X00798049Y00955184D01*
X00799955Y00956646D01*
X00801416Y00958551D01*
X00802335Y00960769D01*
X00802649Y00963150D01*
X00802335Y00965531D01*
X00801416Y00967749D01*
X00799955Y00969655D01*
X00798049Y00971116D01*
X00795831Y00972035D01*
X00793450Y00972349D01*
D02*
G37*
G36*
X00768050D02*
X00765669Y00972035D01*
X00763451Y00971116D01*
X00761545Y00969655D01*
X00760084Y00967749D01*
X00759165Y00965531D01*
X00758851Y00963150D01*
X00759165Y00960769D01*
X00760084Y00958551D01*
X00761545Y00956646D01*
X00763451Y00955184D01*
X00765669Y00954265D01*
X00768050Y00953951D01*
X00770431Y00954265D01*
X00772649Y00955184D01*
X00774555Y00956646D01*
X00776016Y00958551D01*
X00776935Y00960769D01*
X00777249Y00963150D01*
X00776935Y00965531D01*
X00776016Y00967749D01*
X00774555Y00969655D01*
X00772649Y00971116D01*
X00770431Y00972035D01*
X00768050Y00972349D01*
D02*
G37*
G36*
X00742650D02*
X00740269Y00972035D01*
X00738051Y00971116D01*
X00736145Y00969655D01*
X00734684Y00967749D01*
X00733765Y00965531D01*
X00733451Y00963150D01*
X00733765Y00960769D01*
X00734684Y00958551D01*
X00736145Y00956646D01*
X00738051Y00955184D01*
X00740269Y00954265D01*
X00742650Y00953951D01*
X00745031Y00954265D01*
X00747249Y00955184D01*
X00749155Y00956646D01*
X00750616Y00958551D01*
X00751535Y00960769D01*
X00751849Y00963150D01*
X00751535Y00965531D01*
X00750616Y00967749D01*
X00749155Y00969655D01*
X00747249Y00971116D01*
X00745031Y00972035D01*
X00742650Y00972349D01*
D02*
G37*
G36*
X01199850D02*
X01197469Y00972035D01*
X01195251Y00971116D01*
X01193345Y00969655D01*
X01191884Y00967749D01*
X01190965Y00965531D01*
X01190651Y00963150D01*
X01190965Y00960769D01*
X01191884Y00958551D01*
X01193345Y00956646D01*
X01195251Y00955184D01*
X01197301Y00954334D01*
Y00941506D01*
X01188344Y00932549D01*
X01033000D01*
X01032025Y00932355D01*
X01031198Y00931802D01*
X01025426Y00926031D01*
X01024697Y00926333D01*
X01023000Y00926556D01*
X01021303Y00926333D01*
X01019722Y00925678D01*
X01018364Y00924636D01*
X01017322Y00923278D01*
X01016667Y00921697D01*
X01016444Y00920000D01*
X01016667Y00918303D01*
X01017322Y00916722D01*
X01018364Y00915364D01*
X01019722Y00914322D01*
X01021303Y00913667D01*
X01023000Y00913444D01*
X01024697Y00913667D01*
X01026278Y00914322D01*
X01027636Y00915364D01*
X01028678Y00916722D01*
X01029333Y00918303D01*
X01029556Y00920000D01*
X01029333Y00921697D01*
X01029031Y00922426D01*
X01034056Y00927451D01*
X01189400D01*
X01190376Y00927645D01*
X01191202Y00928198D01*
X01201652Y00938648D01*
X01202205Y00939474D01*
X01202399Y00940450D01*
Y00954334D01*
X01204449Y00955184D01*
X01206355Y00956646D01*
X01207816Y00958551D01*
X01208735Y00960769D01*
X01209049Y00963150D01*
X01208735Y00965531D01*
X01207816Y00967749D01*
X01206355Y00969655D01*
X01204449Y00971116D01*
X01202231Y00972035D01*
X01199850Y00972349D01*
D02*
G37*
G36*
X01099520Y00666080D02*
Y00657270D01*
X01108331D01*
X01108148Y00658652D01*
X01107125Y00661124D01*
X01105496Y00663246D01*
X01103374Y00664875D01*
X01100902Y00665899D01*
X01099520Y00666080D01*
D02*
G37*
G36*
X01096980Y00666080D02*
X01095598Y00665899D01*
X01093126Y00664875D01*
X01091004Y00663246D01*
X01089375Y00661124D01*
X01088352Y00658652D01*
X01088169Y00657270D01*
X01096980D01*
Y00666080D01*
D02*
G37*
G36*
X01088000Y00688556D02*
X01086303Y00688333D01*
X01084722Y00687678D01*
X01083364Y00686636D01*
X01082322Y00685278D01*
X01081667Y00683697D01*
X01081444Y00682000D01*
X01081667Y00680303D01*
X01082322Y00678722D01*
X01083364Y00677364D01*
X01084722Y00676322D01*
X01086303Y00675667D01*
X01088000Y00675444D01*
X01089697Y00675667D01*
X01091278Y00676322D01*
X01092636Y00677364D01*
X01093678Y00678722D01*
X01093980Y00679451D01*
X01239944D01*
X01248101Y00671294D01*
Y00664816D01*
X01246051Y00663966D01*
X01244146Y00662505D01*
X01242684Y00660599D01*
X01241765Y00658381D01*
X01241451Y00656000D01*
X01241765Y00653619D01*
X01242684Y00651401D01*
X01244146Y00649496D01*
X01246051Y00648034D01*
X01248269Y00647115D01*
X01250650Y00646801D01*
X01253031Y00647115D01*
X01255249Y00648034D01*
X01257154Y00649496D01*
X01258616Y00651401D01*
X01259535Y00653619D01*
X01259849Y00656000D01*
X01259535Y00658381D01*
X01258616Y00660599D01*
X01257154Y00662505D01*
X01255249Y00663966D01*
X01253199Y00664816D01*
Y00672350D01*
X01253005Y00673326D01*
X01252452Y00674152D01*
X01242802Y00683802D01*
X01241975Y00684355D01*
X01241000Y00684549D01*
X01093980D01*
X01093678Y00685278D01*
X01092636Y00686636D01*
X01091278Y00687678D01*
X01089697Y00688333D01*
X01088000Y00688556D01*
D02*
G37*
G36*
X01225250Y00665199D02*
X01222869Y00664885D01*
X01220651Y00663966D01*
X01218745Y00662505D01*
X01217284Y00660599D01*
X01216365Y00658381D01*
X01216051Y00656000D01*
X01216365Y00653619D01*
X01217284Y00651401D01*
X01218745Y00649496D01*
X01220651Y00648034D01*
X01222869Y00647115D01*
X01225250Y00646801D01*
X01227631Y00647115D01*
X01229849Y00648034D01*
X01231755Y00649496D01*
X01233216Y00651401D01*
X01234135Y00653619D01*
X01234449Y00656000D01*
X01234135Y00658381D01*
X01233216Y00660599D01*
X01231755Y00662505D01*
X01229849Y00663966D01*
X01227631Y00664885D01*
X01225250Y00665199D01*
D02*
G37*
G36*
X01199850D02*
X01197469Y00664885D01*
X01195251Y00663966D01*
X01193345Y00662505D01*
X01191884Y00660599D01*
X01190965Y00658381D01*
X01190651Y00656000D01*
X01190965Y00653619D01*
X01191884Y00651401D01*
X01193345Y00649496D01*
X01195251Y00648034D01*
X01197469Y00647115D01*
X01199850Y00646801D01*
X01202231Y00647115D01*
X01204449Y00648034D01*
X01206355Y00649496D01*
X01207816Y00651401D01*
X01208735Y00653619D01*
X01209049Y00656000D01*
X01208735Y00658381D01*
X01207816Y00660599D01*
X01206355Y00662505D01*
X01204449Y00663966D01*
X01202231Y00664885D01*
X01199850Y00665199D01*
D02*
G37*
G36*
X01174450D02*
X01172069Y00664885D01*
X01169851Y00663966D01*
X01167945Y00662505D01*
X01166484Y00660599D01*
X01165565Y00658381D01*
X01165251Y00656000D01*
X01165565Y00653619D01*
X01166484Y00651401D01*
X01167945Y00649496D01*
X01169851Y00648034D01*
X01172069Y00647115D01*
X01174450Y00646801D01*
X01176831Y00647115D01*
X01179049Y00648034D01*
X01180955Y00649496D01*
X01182416Y00651401D01*
X01183335Y00653619D01*
X01183649Y00656000D01*
X01183335Y00658381D01*
X01182416Y00660599D01*
X01180955Y00662505D01*
X01179049Y00663966D01*
X01176831Y00664885D01*
X01174450Y00665199D01*
D02*
G37*
G36*
X01149050D02*
X01146669Y00664885D01*
X01144451Y00663966D01*
X01142545Y00662505D01*
X01141084Y00660599D01*
X01140165Y00658381D01*
X01139851Y00656000D01*
X01140165Y00653619D01*
X01141084Y00651401D01*
X01142545Y00649496D01*
X01144451Y00648034D01*
X01146669Y00647115D01*
X01149050Y00646801D01*
X01151431Y00647115D01*
X01153649Y00648034D01*
X01155555Y00649496D01*
X01157016Y00651401D01*
X01157935Y00653619D01*
X01158249Y00656000D01*
X01157935Y00658381D01*
X01157016Y00660599D01*
X01155555Y00662505D01*
X01153649Y00663966D01*
X01151431Y00664885D01*
X01149050Y00665199D01*
D02*
G37*
G36*
X01123650D02*
X01121269Y00664885D01*
X01119051Y00663966D01*
X01117145Y00662505D01*
X01115684Y00660599D01*
X01114765Y00658381D01*
X01114451Y00656000D01*
X01114765Y00653619D01*
X01115684Y00651401D01*
X01117145Y00649496D01*
X01119051Y00648034D01*
X01121269Y00647115D01*
X01123650Y00646801D01*
X01126031Y00647115D01*
X01128249Y00648034D01*
X01130154Y00649496D01*
X01131616Y00651401D01*
X01132535Y00653619D01*
X01132849Y00656000D01*
X01132535Y00658381D01*
X01131616Y00660599D01*
X01130154Y00662505D01*
X01128249Y00663966D01*
X01126031Y00664885D01*
X01123650Y00665199D01*
D02*
G37*
G36*
X01072850D02*
X01070469Y00664885D01*
X01068251Y00663966D01*
X01066346Y00662505D01*
X01064884Y00660599D01*
X01063965Y00658381D01*
X01063651Y00656000D01*
X01063965Y00653619D01*
X01064884Y00651401D01*
X01066346Y00649496D01*
X01068251Y00648034D01*
X01070469Y00647115D01*
X01072850Y00646801D01*
X01075231Y00647115D01*
X01077449Y00648034D01*
X01079354Y00649496D01*
X01080816Y00651401D01*
X01081735Y00653619D01*
X01082049Y00656000D01*
X01081735Y00658381D01*
X01080816Y00660599D01*
X01079354Y00662505D01*
X01077449Y00663966D01*
X01075231Y00664885D01*
X01072850Y00665199D01*
D02*
G37*
G36*
X01047450D02*
X01045069Y00664885D01*
X01042851Y00663966D01*
X01040946Y00662505D01*
X01039484Y00660599D01*
X01038565Y00658381D01*
X01038251Y00656000D01*
X01038565Y00653619D01*
X01039484Y00651401D01*
X01040946Y00649496D01*
X01042851Y00648034D01*
X01045069Y00647115D01*
X01047450Y00646801D01*
X01049831Y00647115D01*
X01052049Y00648034D01*
X01053954Y00649496D01*
X01055416Y00651401D01*
X01056335Y00653619D01*
X01056649Y00656000D01*
X01056335Y00658381D01*
X01055416Y00660599D01*
X01053954Y00662505D01*
X01052049Y00663966D01*
X01049831Y00664885D01*
X01047450Y00665199D01*
D02*
G37*
G36*
X01022050D02*
X01019669Y00664885D01*
X01017451Y00663966D01*
X01015546Y00662505D01*
X01014084Y00660599D01*
X01013165Y00658381D01*
X01012851Y00656000D01*
X01013165Y00653619D01*
X01014084Y00651401D01*
X01015546Y00649496D01*
X01017451Y00648034D01*
X01019669Y00647115D01*
X01022050Y00646801D01*
X01024431Y00647115D01*
X01026649Y00648034D01*
X01028555Y00649496D01*
X01030016Y00651401D01*
X01030935Y00653619D01*
X01031249Y00656000D01*
X01030935Y00658381D01*
X01030016Y00660599D01*
X01028555Y00662505D01*
X01026649Y00663966D01*
X01024431Y00664885D01*
X01022050Y00665199D01*
D02*
G37*
G36*
X00996650D02*
X00994269Y00664885D01*
X00992051Y00663966D01*
X00990145Y00662505D01*
X00988684Y00660599D01*
X00987765Y00658381D01*
X00987451Y00656000D01*
X00987765Y00653619D01*
X00988684Y00651401D01*
X00990145Y00649496D01*
X00992051Y00648034D01*
X00994269Y00647115D01*
X00996650Y00646801D01*
X00999031Y00647115D01*
X01001249Y00648034D01*
X01003155Y00649496D01*
X01004616Y00651401D01*
X01005535Y00653619D01*
X01005849Y00656000D01*
X01005535Y00658381D01*
X01004616Y00660599D01*
X01003155Y00662505D01*
X01001249Y00663966D01*
X00999031Y00664885D01*
X00996650Y00665199D01*
D02*
G37*
G36*
X00971250D02*
X00968869Y00664885D01*
X00966651Y00663966D01*
X00964745Y00662505D01*
X00963284Y00660599D01*
X00962365Y00658381D01*
X00962051Y00656000D01*
X00962365Y00653619D01*
X00963284Y00651401D01*
X00964745Y00649496D01*
X00966651Y00648034D01*
X00968869Y00647115D01*
X00971250Y00646801D01*
X00973631Y00647115D01*
X00975849Y00648034D01*
X00977755Y00649496D01*
X00979216Y00651401D01*
X00980135Y00653619D01*
X00980449Y00656000D01*
X00980135Y00658381D01*
X00979216Y00660599D01*
X00977755Y00662505D01*
X00975849Y00663966D01*
X00973631Y00664885D01*
X00971250Y00665199D01*
D02*
G37*
G36*
X00945850D02*
X00943469Y00664885D01*
X00941251Y00663966D01*
X00939345Y00662505D01*
X00937884Y00660599D01*
X00936965Y00658381D01*
X00936651Y00656000D01*
X00936965Y00653619D01*
X00937884Y00651401D01*
X00939345Y00649496D01*
X00941251Y00648034D01*
X00943469Y00647115D01*
X00945850Y00646801D01*
X00948231Y00647115D01*
X00950449Y00648034D01*
X00952355Y00649496D01*
X00953816Y00651401D01*
X00954735Y00653619D01*
X00955049Y00656000D01*
X00954735Y00658381D01*
X00953816Y00660599D01*
X00952355Y00662505D01*
X00950449Y00663966D01*
X00948231Y00664885D01*
X00945850Y00665199D01*
D02*
G37*
G36*
X00920450D02*
X00918069Y00664885D01*
X00915851Y00663966D01*
X00913945Y00662505D01*
X00912484Y00660599D01*
X00911565Y00658381D01*
X00911251Y00656000D01*
X00911565Y00653619D01*
X00912484Y00651401D01*
X00913945Y00649496D01*
X00915851Y00648034D01*
X00918069Y00647115D01*
X00920450Y00646801D01*
X00922831Y00647115D01*
X00925049Y00648034D01*
X00926954Y00649496D01*
X00928416Y00651401D01*
X00929335Y00653619D01*
X00929649Y00656000D01*
X00929335Y00658381D01*
X00928416Y00660599D01*
X00926954Y00662505D01*
X00925049Y00663966D01*
X00922831Y00664885D01*
X00920450Y00665199D01*
D02*
G37*
G36*
X00895050D02*
X00892669Y00664885D01*
X00890451Y00663966D01*
X00888546Y00662505D01*
X00887084Y00660599D01*
X00886165Y00658381D01*
X00885851Y00656000D01*
X00886165Y00653619D01*
X00887084Y00651401D01*
X00888546Y00649496D01*
X00890451Y00648034D01*
X00892669Y00647115D01*
X00895050Y00646801D01*
X00897431Y00647115D01*
X00899649Y00648034D01*
X00901554Y00649496D01*
X00903016Y00651401D01*
X00903935Y00653619D01*
X00904249Y00656000D01*
X00903935Y00658381D01*
X00903016Y00660599D01*
X00901554Y00662505D01*
X00899649Y00663966D01*
X00897431Y00664885D01*
X00895050Y00665199D01*
D02*
G37*
G36*
X00869650D02*
X00867269Y00664885D01*
X00865051Y00663966D01*
X00863146Y00662505D01*
X00861684Y00660599D01*
X00860765Y00658381D01*
X00860451Y00656000D01*
X00860765Y00653619D01*
X00861684Y00651401D01*
X00863146Y00649496D01*
X00865051Y00648034D01*
X00867269Y00647115D01*
X00869650Y00646801D01*
X00872031Y00647115D01*
X00874249Y00648034D01*
X00876154Y00649496D01*
X00877616Y00651401D01*
X00878535Y00653619D01*
X00878849Y00656000D01*
X00878535Y00658381D01*
X00877616Y00660599D01*
X00876154Y00662505D01*
X00874249Y00663966D01*
X00872031Y00664885D01*
X00869650Y00665199D01*
D02*
G37*
G36*
X00844250D02*
X00841869Y00664885D01*
X00839651Y00663966D01*
X00837746Y00662505D01*
X00836284Y00660599D01*
X00835365Y00658381D01*
X00835051Y00656000D01*
X00835365Y00653619D01*
X00836284Y00651401D01*
X00837746Y00649496D01*
X00839651Y00648034D01*
X00841869Y00647115D01*
X00844250Y00646801D01*
X00846631Y00647115D01*
X00848849Y00648034D01*
X00850754Y00649496D01*
X00852216Y00651401D01*
X00853135Y00653619D01*
X00853449Y00656000D01*
X00853135Y00658381D01*
X00852216Y00660599D01*
X00850754Y00662505D01*
X00848849Y00663966D01*
X00846631Y00664885D01*
X00844250Y00665199D01*
D02*
G37*
G36*
X00818850D02*
X00816469Y00664885D01*
X00814251Y00663966D01*
X00812346Y00662505D01*
X00810884Y00660599D01*
X00809965Y00658381D01*
X00809651Y00656000D01*
X00809965Y00653619D01*
X00810884Y00651401D01*
X00812346Y00649496D01*
X00814251Y00648034D01*
X00816469Y00647115D01*
X00818850Y00646801D01*
X00821231Y00647115D01*
X00823449Y00648034D01*
X00825355Y00649496D01*
X00826816Y00651401D01*
X00827735Y00653619D01*
X00828049Y00656000D01*
X00827735Y00658381D01*
X00826816Y00660599D01*
X00825355Y00662505D01*
X00823449Y00663966D01*
X00821231Y00664885D01*
X00818850Y00665199D01*
D02*
G37*
G36*
X00793450D02*
X00791069Y00664885D01*
X00788851Y00663966D01*
X00786945Y00662505D01*
X00785484Y00660599D01*
X00784565Y00658381D01*
X00784251Y00656000D01*
X00784565Y00653619D01*
X00785484Y00651401D01*
X00786945Y00649496D01*
X00788851Y00648034D01*
X00791069Y00647115D01*
X00793450Y00646801D01*
X00795831Y00647115D01*
X00798049Y00648034D01*
X00799955Y00649496D01*
X00801416Y00651401D01*
X00802335Y00653619D01*
X00802649Y00656000D01*
X00802335Y00658381D01*
X00801416Y00660599D01*
X00799955Y00662505D01*
X00798049Y00663966D01*
X00795831Y00664885D01*
X00793450Y00665199D01*
D02*
G37*
G36*
X00768050D02*
X00765669Y00664885D01*
X00763451Y00663966D01*
X00761545Y00662505D01*
X00760084Y00660599D01*
X00759165Y00658381D01*
X00758851Y00656000D01*
X00759165Y00653619D01*
X00760084Y00651401D01*
X00761545Y00649496D01*
X00763451Y00648034D01*
X00765669Y00647115D01*
X00768050Y00646801D01*
X00770431Y00647115D01*
X00772649Y00648034D01*
X00774555Y00649496D01*
X00776016Y00651401D01*
X00776935Y00653619D01*
X00777249Y00656000D01*
X00776935Y00658381D01*
X00776016Y00660599D01*
X00774555Y00662505D01*
X00772649Y00663966D01*
X00770431Y00664885D01*
X00768050Y00665199D01*
D02*
G37*
G36*
X00742650D02*
X00740269Y00664885D01*
X00738051Y00663966D01*
X00736145Y00662505D01*
X00734684Y00660599D01*
X00733765Y00658381D01*
X00733451Y00656000D01*
X00733765Y00653619D01*
X00734684Y00651401D01*
X00736145Y00649496D01*
X00738051Y00648034D01*
X00740269Y00647115D01*
X00742650Y00646801D01*
X00745031Y00647115D01*
X00747249Y00648034D01*
X00749155Y00649496D01*
X00750616Y00651401D01*
X00751535Y00653619D01*
X00751849Y00656000D01*
X00751535Y00658381D01*
X00750616Y00660599D01*
X00749155Y00662505D01*
X00747249Y00663966D01*
X00745031Y00664885D01*
X00742650Y00665199D01*
D02*
G37*
G36*
X01096980Y00654730D02*
X01088169D01*
X01088352Y00653348D01*
X01089375Y00650876D01*
X01091004Y00648754D01*
X01093126Y00647125D01*
X01095598Y00646102D01*
X01096980Y00645919D01*
Y00654730D01*
D02*
G37*
G36*
X01108331D02*
X01099520D01*
Y00645919D01*
X01100902Y00646102D01*
X01103374Y00647125D01*
X01105496Y00648754D01*
X01107125Y00650876D01*
X01108148Y00653348D01*
X01108331Y00654730D01*
D02*
G37*
G36*
X01260690Y00625590D02*
X01251920D01*
Y00616820D01*
X01260690D01*
Y00625590D01*
D02*
G37*
G36*
X01249380D02*
X01240610D01*
Y00616820D01*
X01249380D01*
Y00625590D01*
D02*
G37*
G36*
X01058040Y00624890D02*
X01049270D01*
Y00616120D01*
X01058040D01*
Y00624890D01*
D02*
G37*
G36*
X01046730D02*
X01037960D01*
Y00616120D01*
X01046730D01*
Y00624890D01*
D02*
G37*
%LPD*%
D11*
X01088000Y00682000D02*
X01241000D01*
X01250650Y00672350D01*
Y00656000D02*
Y00672350D01*
X01199850Y00940450D02*
Y00963150D01*
X01189400Y00930000D02*
X01199850Y00940450D01*
X01033000Y00930000D02*
X01189400D01*
X01023000Y00920000D02*
X01033000Y00930000D01*
D13*
X01263010Y00603953D02*
G03*
X01276046Y00616990I00000000J00013036D01*
G01*
X01276075Y01013958D02*
G03*
X01262040Y01027993I-00014035J00000000D01*
G01*
X00734000Y01028035D02*
G03*
X00719965Y01014000I00000000J-00014035D01*
G01*
Y00618000D02*
G03*
X00734000Y00603965I00014035J00000000D01*
G01*
X01276035Y00616990D02*
X01276035Y01013958D01*
X00734000Y01027999D02*
X01262040Y01027999D01*
X00734000Y00604001D02*
X01263010Y00604001D01*
X00720000Y00618000D02*
X00720000Y01014000D01*
D17*
X01000000Y00615550D02*
D03*
X01242000Y01017000D02*
D03*
X01250650Y00615550D02*
D03*
X00989000Y01017200D02*
D03*
X00934000D02*
D03*
X00883000Y01017000D02*
D03*
X00833000Y00614600D02*
D03*
X00831000Y01017200D02*
D03*
X00769000Y00614600D02*
D03*
X00780000Y01017200D02*
D03*
X00956000Y00614600D02*
D03*
X00894000Y00614850D02*
D03*
X01048000D02*
D03*
X01189000Y01017200D02*
D03*
X01137000D02*
D03*
X01093000Y00614850D02*
D03*
X01087000Y01017000D02*
D03*
X01145000Y00614850D02*
D03*
X01037000Y01017000D02*
D03*
X01193400Y00615350D02*
D03*
D18*
X00844250Y00656000D02*
D03*
X00818850D02*
D03*
X00742650D02*
D03*
X00793450D02*
D03*
X00768050D02*
D03*
X00920450D02*
D03*
X00945850D02*
D03*
X00895050D02*
D03*
X00869650D02*
D03*
X00971250D02*
D03*
X00996650D02*
D03*
X01047450D02*
D03*
X01022050D02*
D03*
X01225250D02*
D03*
X01250650D02*
D03*
X01199850D02*
D03*
X01174450D02*
D03*
X01072850D02*
D03*
X01098250D02*
D03*
X01149050D02*
D03*
X01123650D02*
D03*
X00844250Y00963150D02*
D03*
X00818850D02*
D03*
X00742650D02*
D03*
X00793450D02*
D03*
X00768050D02*
D03*
X00920450D02*
D03*
X00945850D02*
D03*
X00895050D02*
D03*
X00869650D02*
D03*
X00971250D02*
D03*
X00996650D02*
D03*
X01047450D02*
D03*
X01022050D02*
D03*
X01225250D02*
D03*
X01250650D02*
D03*
X01199850D02*
D03*
X01174450D02*
D03*
X01072850D02*
D03*
X01098250D02*
D03*
X01149050D02*
D03*
X01123650D02*
D03*
D19*
X01088000Y00682000D02*
D03*
X01023000Y00920000D02*
D03*
M02*
