G04 Layer_Color=2752767*
%FSAX44Y44*%
%MOMM*%
G71*
G01*
G75*
%ADD36C,0.0100*%
%ADD109C,0.0508*%
%ADD110C,0.0677*%
D36*
X00367080Y00277893D02*
X00410830Y00245893D01*
X00446080Y00229893D01*
X00478330Y00221893D01*
X00519080Y00216643D01*
X00556330Y00217643D01*
X00589080Y00224393D01*
X00603330Y00228643D01*
X00629830Y00239643D01*
X00650830Y00250143D01*
X00691580Y00272393D01*
X00702080Y00276893D01*
X00754330Y00296893D01*
X00804830Y00309393D01*
X00844830Y00315393D01*
X00879080Y00317643D01*
X00916830Y00317893D01*
X00917580Y00797643D01*
X00865080D02*
X00917580D01*
X00822830Y00795143D02*
X00865080Y00797643D01*
X00750580Y00786393D02*
X00822830Y00795143D01*
X00660830Y00768643D02*
X00750580Y00786393D01*
X00572580Y00741393D02*
X00660830Y00768643D01*
X00557080Y00735643D02*
X00572580Y00741393D01*
X00538830Y00728643D02*
X00557080Y00735643D01*
X00520830Y00721143D02*
X00538830Y00728643D01*
X00512330Y00717393D02*
X00520830Y00721143D01*
X00488580Y00706893D02*
X00512330Y00717393D01*
X00478580Y00701893D02*
X00488580Y00706893D01*
X00460080Y00692893D02*
X00478580Y00701893D01*
X00436830Y00680643D02*
X00460080Y00692893D01*
X00420330Y00671393D02*
X00436830Y00680643D01*
X00404330Y00662143D02*
X00420330Y00671393D01*
X00400080Y00659393D02*
X00404330Y00662143D01*
X00390330Y00653143D02*
X00400080Y00659393D01*
X00379080Y00644893D02*
X00390330Y00653143D01*
X00367080Y00634643D02*
X00379080Y00644893D01*
X00367080Y00277893D02*
Y00634643D01*
D109*
X00660148Y00451561D02*
Y00455625D01*
X00664212D01*
Y00451561D01*
X00660148D01*
X00743902Y00741399D02*
X00741870Y00745463D01*
X00745934D01*
X00743902Y00741399D01*
X00694662Y00732716D02*
X00692630Y00736780D01*
X00696694D01*
X00694662Y00732716D01*
X00757963Y00732201D02*
X00758979Y00733217D01*
X00759995D01*
X00758979Y00734233D01*
X00759995Y00735249D01*
X00758979D01*
X00757963Y00736265D01*
X00756947Y00735249D01*
X00755931D01*
X00756947Y00734233D01*
X00755931Y00733217D01*
X00756947D01*
X00757963Y00732201D01*
X00684595Y00719264D02*
X00685611Y00720280D01*
X00686627D01*
X00685611Y00721296D01*
X00686627Y00722312D01*
X00685611D01*
X00684595Y00723328D01*
X00683579Y00722312D01*
X00682563D01*
X00683579Y00721296D01*
X00682563Y00720280D01*
X00683579D01*
X00684595Y00719264D01*
X00618048Y00620861D02*
Y00624925D01*
X00622112D01*
Y00620861D01*
X00618048D01*
X00643448D02*
Y00624925D01*
X00647512D01*
Y00620861D01*
X00643448D01*
X00668848D02*
Y00624925D01*
X00672912D01*
Y00620861D01*
X00668848D01*
X00694248D02*
Y00624925D01*
X00698312D01*
Y00620861D01*
X00694248D01*
X00719648D02*
Y00624925D01*
X00723712D01*
Y00620861D01*
X00719648D01*
X00745048D02*
Y00624925D01*
X00749112D01*
Y00620861D01*
X00745048D01*
X00719648Y00646261D02*
Y00650325D01*
X00723712D01*
Y00646261D01*
X00719648D01*
X00694248D02*
Y00650325D01*
X00698312D01*
Y00646261D01*
X00694248D01*
X00668848D02*
Y00650325D01*
X00672912D01*
Y00646261D01*
X00668848D01*
X00643448D02*
Y00650325D01*
X00647512D01*
Y00646261D01*
X00643448D01*
X00719648Y00595461D02*
Y00599525D01*
X00723712D01*
Y00595461D01*
X00719648D01*
X00694248D02*
Y00599525D01*
X00698312D01*
Y00595461D01*
X00694248D01*
X00668848D02*
Y00599525D01*
X00672912D01*
Y00595461D01*
X00668848D01*
X00643448D02*
Y00599525D01*
X00647512D01*
Y00595461D01*
X00643448D01*
X00455248Y00285061D02*
Y00289125D01*
X00459312D01*
Y00285061D01*
X00455248D01*
Y00310461D02*
Y00314525D01*
X00459312D01*
Y00310461D01*
X00455248D01*
Y00335861D02*
Y00339925D01*
X00459312D01*
Y00335861D01*
X00455248D01*
X00896048Y00615361D02*
Y00619425D01*
X00900112D01*
Y00615361D01*
X00896048D01*
Y00589961D02*
Y00594025D01*
X00900112D01*
Y00589961D01*
X00896048D01*
X00893848Y00420361D02*
Y00424425D01*
X00897912D01*
Y00420361D01*
X00893848D01*
Y00394961D02*
Y00399025D01*
X00897912D01*
Y00394961D01*
X00893848D01*
X00894348Y00476661D02*
Y00480725D01*
X00898412D01*
Y00476661D01*
X00894348D01*
Y00451261D02*
Y00455325D01*
X00898412D01*
Y00451261D01*
X00894348D01*
X00896548Y00726461D02*
Y00730525D01*
X00900612D01*
Y00726461D01*
X00896548D01*
Y00701061D02*
Y00705125D01*
X00900612D01*
Y00701061D01*
X00896548D01*
X00895748Y00672461D02*
Y00676525D01*
X00899812D01*
Y00672461D01*
X00895748D01*
Y00647061D02*
Y00651125D01*
X00899812D01*
Y00647061D01*
X00895748D01*
X00834948Y00721493D02*
X00835964Y00723525D01*
X00834948Y00725557D01*
X00836980Y00724541D01*
X00839012Y00725557D01*
X00837996Y00723525D01*
X00839012Y00721493D01*
X00836980Y00722509D01*
X00834948Y00721493D01*
X00784148D02*
X00785164Y00723525D01*
X00784148Y00725557D01*
X00786180Y00724541D01*
X00788212Y00725557D01*
X00787196Y00723525D01*
X00788212Y00721493D01*
X00786180Y00722509D01*
X00784148Y00721493D01*
X00834948Y00670693D02*
X00835964Y00672725D01*
X00834948Y00674757D01*
X00836980Y00673741D01*
X00839012Y00674757D01*
X00837996Y00672725D01*
X00839012Y00670693D01*
X00836980Y00671709D01*
X00834948Y00670693D01*
X00784148D02*
X00785164Y00672725D01*
X00784148Y00674757D01*
X00786180Y00673741D01*
X00788212Y00674757D01*
X00787196Y00672725D01*
X00788212Y00670693D01*
X00786180Y00671709D01*
X00784148Y00670693D01*
X00809548D02*
X00810564Y00672725D01*
X00809548Y00674757D01*
X00811580Y00673741D01*
X00813612Y00674757D01*
X00812596Y00672725D01*
X00813612Y00670693D01*
X00811580Y00671709D01*
X00809548Y00670693D01*
X00426648Y00335561D02*
Y00339625D01*
X00430712D01*
Y00335561D01*
X00426648D01*
Y00310161D02*
Y00314225D01*
X00430712D01*
Y00310161D01*
X00426648D01*
X00734648Y00336661D02*
Y00340725D01*
X00738712D01*
Y00336661D01*
X00734648D01*
X00709248D02*
Y00340725D01*
X00713312D01*
Y00336661D01*
X00709248D01*
X00524226Y00596352D02*
Y00600415D01*
X00528290D01*
Y00596352D01*
X00524226D01*
X00542202Y00605119D02*
Y00609183D01*
X00546266D01*
Y00605119D01*
X00542202D01*
X00488274Y00578817D02*
Y00582881D01*
X00492338D01*
Y00578817D01*
X00488274D01*
X00436465Y00665328D02*
Y00664312D01*
X00438497D01*
Y00665328D01*
X00439513D01*
Y00667360D01*
X00438497D01*
Y00668376D01*
X00436465D01*
Y00667360D01*
X00435449D01*
Y00665328D01*
X00436465D01*
X00506250Y00587584D02*
Y00591648D01*
X00510314D01*
Y00587584D01*
X00506250D01*
X00526344Y00709165D02*
Y00708149D01*
X00528377D01*
Y00709165D01*
X00529393D01*
Y00711197D01*
X00528377D01*
Y00712213D01*
X00526344D01*
Y00711197D01*
X00525328D01*
Y00709165D01*
X00526344D01*
X00491348Y00663761D02*
X00492364D01*
X00493380Y00664777D01*
X00494396Y00663761D01*
X00495412D01*
Y00664777D01*
X00494396Y00665793D01*
X00495412Y00666809D01*
Y00667825D01*
X00494396D01*
X00493380Y00666809D01*
X00492364Y00667825D01*
X00491348D01*
Y00666809D01*
X00492364Y00665793D01*
X00491348Y00664777D01*
Y00663761D01*
X00560178Y00613886D02*
Y00617950D01*
X00564242D01*
Y00613886D01*
X00560178D01*
X00885048Y00767893D02*
X00887080Y00769925D01*
X00889112Y00767893D01*
X00887080Y00765861D01*
X00885048Y00767893D01*
Y00347893D02*
X00887080Y00349925D01*
X00889112Y00347893D01*
X00887080Y00345861D01*
X00885048Y00347893D01*
X00395048Y00287893D02*
X00397080Y00289925D01*
X00399112Y00287893D01*
X00397080Y00285861D01*
X00395048Y00287893D01*
Y00627893D02*
X00397080Y00629925D01*
X00399112Y00627893D01*
X00397080Y00625861D01*
X00395048Y00627893D01*
X00494498Y00652061D02*
Y00656125D01*
X00498562D01*
Y00652061D01*
X00494498D01*
X00495514Y00653077D02*
Y00655109D01*
X00497546D01*
Y00653077D01*
X00495514D01*
X00690848Y00497861D02*
Y00501925D01*
X00694912D01*
Y00497861D01*
X00690848D01*
X00691864Y00498877D02*
Y00500909D01*
X00693896D01*
Y00498877D01*
X00691864D01*
X00690848Y00515861D02*
Y00519925D01*
X00694912D01*
Y00515861D01*
X00690848D01*
X00691864Y00516877D02*
Y00518909D01*
X00693896D01*
Y00516877D01*
X00691864D01*
X00672848Y00515861D02*
Y00519925D01*
X00676912D01*
Y00515861D01*
X00672848D01*
X00673864Y00516877D02*
Y00518909D01*
X00675896D01*
Y00516877D01*
X00673864D01*
X00672848Y00497861D02*
Y00501925D01*
X00676912D01*
Y00497861D01*
X00672848D01*
X00673864Y00498877D02*
Y00500909D01*
X00675896D01*
Y00498877D01*
X00673864D01*
X00549848Y00523961D02*
X00550864D01*
X00551880Y00524977D01*
X00552896Y00523961D01*
X00553912D01*
Y00524977D01*
X00552896Y00525993D01*
X00553912Y00527009D01*
Y00528025D01*
X00552896D01*
X00551880Y00527009D01*
X00550864Y00528025D01*
X00549848D01*
Y00527009D01*
X00550864Y00525993D01*
X00549848Y00524977D01*
Y00523961D01*
X00563248Y00516960D02*
X00564264D01*
X00565280Y00517976D01*
X00566296Y00516960D01*
X00567312D01*
Y00517976D01*
X00566296Y00518993D01*
X00567312Y00520009D01*
Y00521025D01*
X00566296D01*
X00565280Y00520009D01*
X00564264Y00521025D01*
X00563248D01*
Y00520009D01*
X00564264Y00518993D01*
X00563248Y00517976D01*
Y00516960D01*
X00479116Y00484916D02*
X00480132D01*
X00481148Y00485932D01*
X00482164Y00484916D01*
X00483180D01*
Y00485932D01*
X00482164Y00486948D01*
X00483180Y00487964D01*
Y00488980D01*
X00482164D01*
X00481148Y00487964D01*
X00480132Y00488980D01*
X00479116D01*
Y00487964D01*
X00480132Y00486948D01*
X00479116Y00485932D01*
Y00484916D01*
X00512855Y00409161D02*
X00513871D01*
X00514887Y00410177D01*
X00515903Y00409161D01*
X00516919D01*
Y00410177D01*
X00515903Y00411193D01*
X00516919Y00412209D01*
Y00413225D01*
X00515903D01*
X00514887Y00412209D01*
X00513871Y00413225D01*
X00512855D01*
Y00412209D01*
X00513871Y00411193D01*
X00512855Y00410177D01*
Y00409161D01*
X00414416Y00396497D02*
X00415432D01*
X00416448Y00397513D01*
X00417464Y00396497D01*
X00418480D01*
Y00397513D01*
X00417464Y00398529D01*
X00418480Y00399545D01*
Y00400561D01*
X00417464D01*
X00416448Y00399545D01*
X00415432Y00400561D01*
X00414416D01*
Y00399545D01*
X00415432Y00398529D01*
X00414416Y00397513D01*
Y00396497D01*
X00385848Y00356397D02*
X00386864D01*
X00387880Y00357413D01*
X00388896Y00356397D01*
X00389912D01*
Y00357413D01*
X00388896Y00358429D01*
X00389912Y00359445D01*
Y00360461D01*
X00388896D01*
X00387880Y00359445D01*
X00386864Y00360461D01*
X00385848D01*
Y00359445D01*
X00386864Y00358429D01*
X00385848Y00357413D01*
Y00356397D01*
X00631798Y00310461D02*
X00632814D01*
X00633830Y00311477D01*
X00634846Y00310461D01*
X00635862D01*
Y00311477D01*
X00634846Y00312493D01*
X00635862Y00313509D01*
Y00314525D01*
X00634846D01*
X00633830Y00313509D01*
X00632814Y00314525D01*
X00631798D01*
Y00313509D01*
X00632814Y00312493D01*
X00631798Y00311477D01*
Y00310461D01*
X00800148Y00638861D02*
X00801164D01*
X00802180Y00639877D01*
X00803196Y00638861D01*
X00804212D01*
Y00639877D01*
X00803196Y00640893D01*
X00804212Y00641909D01*
Y00642925D01*
X00803196D01*
X00802180Y00641909D01*
X00801164Y00642925D01*
X00800148D01*
Y00641909D01*
X00801164Y00640893D01*
X00800148Y00639877D01*
Y00638861D01*
X00621112Y00550322D02*
X00622128D01*
X00623144Y00551338D01*
X00624160Y00550322D01*
X00625176D01*
Y00551338D01*
X00624160Y00552354D01*
X00625176Y00553370D01*
Y00554386D01*
X00624160D01*
X00623144Y00553370D01*
X00622128Y00554386D01*
X00621112D01*
Y00553370D01*
X00622128Y00552354D01*
X00621112Y00551338D01*
Y00550322D01*
X00769350Y00641693D02*
X00770366D01*
X00771382Y00642709D01*
X00772398Y00641693D01*
X00773414D01*
Y00642709D01*
X00772398Y00643725D01*
X00773414Y00644741D01*
Y00645757D01*
X00772398D01*
X00771382Y00644741D01*
X00770366Y00645757D01*
X00769350D01*
Y00644741D01*
X00770366Y00643725D01*
X00769350Y00642709D01*
Y00641693D01*
X00747848Y00590917D02*
X00748864D01*
X00749880Y00591933D01*
X00750896Y00590917D01*
X00751912D01*
Y00591933D01*
X00750896Y00592949D01*
X00751912Y00593965D01*
Y00594981D01*
X00750896D01*
X00749880Y00593965D01*
X00748864Y00594981D01*
X00747848D01*
Y00593965D01*
X00748864Y00592949D01*
X00747848Y00591933D01*
Y00590917D01*
X00799370Y00502061D02*
X00800386D01*
X00801402Y00503077D01*
X00802418Y00502061D01*
X00803434D01*
Y00503077D01*
X00802418Y00504093D01*
X00803434Y00505109D01*
Y00506125D01*
X00802418D01*
X00801402Y00505109D01*
X00800386Y00506125D01*
X00799370D01*
Y00505109D01*
X00800386Y00504093D01*
X00799370Y00503077D01*
Y00502061D01*
X00808348Y00462139D02*
X00809364D01*
X00810380Y00463155D01*
X00811396Y00462139D01*
X00812412D01*
Y00463155D01*
X00811396Y00464171D01*
X00812412Y00465187D01*
Y00466203D01*
X00811396D01*
X00810380Y00465187D01*
X00809364Y00466203D01*
X00808348D01*
Y00465187D01*
X00809364Y00464171D01*
X00808348Y00463155D01*
Y00462139D01*
X00808909Y00478874D02*
X00809925D01*
X00810941Y00479890D01*
X00811957Y00478874D01*
X00812973D01*
Y00479890D01*
X00811957Y00480906D01*
X00812973Y00481922D01*
Y00482938D01*
X00811957D01*
X00810941Y00481922D01*
X00809925Y00482938D01*
X00808909D01*
Y00481922D01*
X00809925Y00480906D01*
X00808909Y00479890D01*
Y00478874D01*
X00799626Y00436716D02*
X00800642D01*
X00801658Y00437732D01*
X00802674Y00436716D01*
X00803690D01*
Y00437732D01*
X00802674Y00438748D01*
X00803690Y00439764D01*
Y00440780D01*
X00802674D01*
X00801658Y00439764D01*
X00800642Y00440780D01*
X00799626D01*
Y00439764D01*
X00800642Y00438748D01*
X00799626Y00437732D01*
Y00436716D01*
X00854418Y00662359D02*
X00855434D01*
X00856450Y00663375D01*
X00857466Y00662359D01*
X00858482D01*
Y00663375D01*
X00857466Y00664391D01*
X00858482Y00665407D01*
Y00666423D01*
X00857466D01*
X00856450Y00665407D01*
X00855434Y00666423D01*
X00854418D01*
Y00665407D01*
X00855434Y00664391D01*
X00854418Y00663375D01*
Y00662359D01*
X00640888Y00548625D02*
X00641904D01*
X00642920Y00549641D01*
X00643936Y00548625D01*
X00644952D01*
Y00549641D01*
X00643936Y00550658D01*
X00644952Y00551674D01*
Y00552690D01*
X00643936D01*
X00642920Y00551674D01*
X00641904Y00552690D01*
X00640888D01*
Y00551674D01*
X00641904Y00550658D01*
X00640888Y00549641D01*
Y00548625D01*
X00429248Y00393461D02*
X00430264D01*
X00431280Y00394477D01*
X00432296Y00393461D01*
X00433312D01*
Y00394477D01*
X00432296Y00395493D01*
X00433312Y00396509D01*
Y00397525D01*
X00432296D01*
X00431280Y00396509D01*
X00430264Y00397525D01*
X00429248D01*
Y00396509D01*
X00430264Y00395493D01*
X00429248Y00394477D01*
Y00393461D01*
X00762482Y00320917D02*
X00763498D01*
X00764514Y00321933D01*
X00765530Y00320917D01*
X00766546D01*
Y00321933D01*
X00765530Y00322949D01*
X00766546Y00323965D01*
Y00324981D01*
X00765530D01*
X00764514Y00323965D01*
X00763498Y00324981D01*
X00762482D01*
Y00323965D01*
X00763498Y00322949D01*
X00762482Y00321933D01*
Y00320917D01*
X00780204Y00314361D02*
X00781220D01*
X00782236Y00315377D01*
X00783252Y00314361D01*
X00784268D01*
Y00315377D01*
X00783252Y00316393D01*
X00784268Y00317409D01*
Y00318425D01*
X00783252D01*
X00782236Y00317409D01*
X00781220Y00318425D01*
X00780204D01*
Y00317409D01*
X00781220Y00316393D01*
X00780204Y00315377D01*
Y00314361D01*
X00525032Y00554576D02*
X00526048D01*
X00527064Y00555592D01*
X00528080Y00554576D01*
X00529096D01*
Y00555592D01*
X00528080Y00556608D01*
X00529096Y00557624D01*
Y00558640D01*
X00528080D01*
X00527064Y00557624D01*
X00526048Y00558640D01*
X00525032D01*
Y00557624D01*
X00526048Y00556608D01*
X00525032Y00555592D01*
Y00554576D01*
X00512428Y00531261D02*
X00513444D01*
X00514460Y00532277D01*
X00515476Y00531261D01*
X00516492D01*
Y00532277D01*
X00515476Y00533293D01*
X00516492Y00534309D01*
Y00535325D01*
X00515476D01*
X00514460Y00534309D01*
X00513444Y00535325D01*
X00512428D01*
Y00534309D01*
X00513444Y00533293D01*
X00512428Y00532277D01*
Y00531261D01*
X00538150Y00355161D02*
X00539166D01*
X00540182Y00356177D01*
X00541198Y00355161D01*
X00542214D01*
Y00356177D01*
X00541198Y00357193D01*
X00542214Y00358209D01*
Y00359225D01*
X00541198D01*
X00540182Y00358209D01*
X00539166Y00359225D01*
X00538150D01*
Y00358209D01*
X00539166Y00357193D01*
X00538150Y00356177D01*
Y00355161D01*
X00526197Y00377939D02*
X00527213D01*
X00528229Y00378955D01*
X00529245Y00377939D01*
X00530261D01*
Y00378955D01*
X00529245Y00379971D01*
X00530261Y00380987D01*
Y00382003D01*
X00529245D01*
X00528229Y00380987D01*
X00527213Y00382003D01*
X00526197D01*
Y00380987D01*
X00527213Y00379971D01*
X00526197Y00378955D01*
Y00377939D01*
X00511875Y00376861D02*
X00512891D01*
X00513907Y00377877D01*
X00514923Y00376861D01*
X00515939D01*
Y00377877D01*
X00514923Y00378893D01*
X00515939Y00379909D01*
Y00380925D01*
X00514923D01*
X00513907Y00379909D01*
X00512891Y00380925D01*
X00511875D01*
Y00379909D01*
X00512891Y00378893D01*
X00511875Y00377877D01*
Y00376861D01*
X00398548Y00377066D02*
X00399564D01*
X00400580Y00378082D01*
X00401596Y00377066D01*
X00402612D01*
Y00378082D01*
X00401596Y00379098D01*
X00402612Y00380114D01*
Y00381130D01*
X00401596D01*
X00400580Y00380114D01*
X00399564Y00381130D01*
X00398548D01*
Y00380114D01*
X00399564Y00379098D01*
X00398548Y00378082D01*
Y00377066D01*
X00464626Y00351583D02*
X00465642D01*
X00466657Y00352599D01*
X00467673Y00351583D01*
X00468689D01*
Y00352599D01*
X00467673Y00353615D01*
X00468689Y00354631D01*
Y00355647D01*
X00467673D01*
X00466657Y00354631D01*
X00465642Y00355647D01*
X00464626D01*
Y00354631D01*
X00465642Y00353615D01*
X00464626Y00352599D01*
Y00351583D01*
X00476499Y00470611D02*
X00477515D01*
X00478531Y00471628D01*
X00479547Y00470611D01*
X00480563D01*
Y00471628D01*
X00479547Y00472644D01*
X00480563Y00473660D01*
Y00474675D01*
X00479547D01*
X00478531Y00473660D01*
X00477515Y00474675D01*
X00476499D01*
Y00473660D01*
X00477515Y00472644D01*
X00476499Y00471628D01*
Y00470611D01*
X00490848Y00505761D02*
X00491864D01*
X00492880Y00506777D01*
X00493896Y00505761D01*
X00494912D01*
Y00506777D01*
X00493896Y00507793D01*
X00494912Y00508809D01*
Y00509825D01*
X00493896D01*
X00492880Y00508809D01*
X00491864Y00509825D01*
X00490848D01*
Y00508809D01*
X00491864Y00507793D01*
X00490848Y00506777D01*
Y00505761D01*
X00462494Y00381461D02*
X00463510D01*
X00464526Y00382477D01*
X00465542Y00381461D01*
X00466558D01*
Y00382477D01*
X00465542Y00383493D01*
X00466558Y00384509D01*
Y00385525D01*
X00465542D01*
X00464526Y00384509D01*
X00463510Y00385525D01*
X00462494D01*
Y00384509D01*
X00463510Y00383493D01*
X00462494Y00382477D01*
Y00381461D01*
X00586148Y00635560D02*
X00587164D01*
X00588180Y00636576D01*
X00589196Y00635560D01*
X00590212D01*
Y00636576D01*
X00589196Y00637592D01*
X00590212Y00638608D01*
Y00639624D01*
X00589196D01*
X00588180Y00638608D01*
X00587164Y00639624D01*
X00586148D01*
Y00638608D01*
X00587164Y00637592D01*
X00586148Y00636576D01*
Y00635560D01*
X00490526Y00627474D02*
X00491542D01*
X00492558Y00628490D01*
X00493574Y00627474D01*
X00494590D01*
Y00628490D01*
X00493574Y00629506D01*
X00494590Y00630522D01*
Y00631538D01*
X00493574D01*
X00492558Y00630522D01*
X00491542Y00631538D01*
X00490526D01*
Y00630522D01*
X00491542Y00629506D01*
X00490526Y00628490D01*
Y00627474D01*
X00530048Y00524761D02*
X00531064D01*
X00532080Y00525777D01*
X00533096Y00524761D01*
X00534112D01*
Y00525777D01*
X00533096Y00526793D01*
X00534112Y00527809D01*
Y00528825D01*
X00533096D01*
X00532080Y00527809D01*
X00531064Y00528825D01*
X00530048D01*
Y00527809D01*
X00531064Y00526793D01*
X00530048Y00525777D01*
Y00524761D01*
X00548248Y00511660D02*
X00549264D01*
X00550280Y00512677D01*
X00551296Y00511660D01*
X00552312D01*
Y00512677D01*
X00551296Y00513693D01*
X00552312Y00514709D01*
Y00515724D01*
X00551296D01*
X00550280Y00514709D01*
X00549264Y00515724D01*
X00548248D01*
Y00514709D01*
X00549264Y00513693D01*
X00548248Y00512677D01*
Y00511660D01*
X00530648Y00506661D02*
X00531664D01*
X00532680Y00507677D01*
X00533696Y00506661D01*
X00534712D01*
Y00507677D01*
X00533696Y00508693D01*
X00534712Y00509709D01*
Y00510725D01*
X00533696D01*
X00532680Y00509709D01*
X00531664Y00510725D01*
X00530648D01*
Y00509709D01*
X00531664Y00508693D01*
X00530648Y00507677D01*
Y00506661D01*
X00600048Y00568861D02*
X00601064D01*
X00602080Y00569877D01*
X00603096Y00568861D01*
X00604112D01*
Y00569877D01*
X00603096Y00570893D01*
X00604112Y00571909D01*
Y00572925D01*
X00603096D01*
X00602080Y00571909D01*
X00601064Y00572925D01*
X00600048D01*
Y00571909D01*
X00601064Y00570893D01*
X00600048Y00569877D01*
Y00568861D01*
X00557948Y00458461D02*
X00558964D01*
X00559980Y00459477D01*
X00560996Y00458461D01*
X00562012D01*
Y00459477D01*
X00560996Y00460493D01*
X00562012Y00461509D01*
Y00462525D01*
X00560996D01*
X00559980Y00461509D01*
X00558964Y00462525D01*
X00557948D01*
Y00461509D01*
X00558964Y00460493D01*
X00557948Y00459477D01*
Y00458461D01*
X00518848Y00449268D02*
X00519864D01*
X00520880Y00450284D01*
X00521896Y00449268D01*
X00522912D01*
Y00450284D01*
X00521896Y00451300D01*
X00522912Y00452316D01*
Y00453332D01*
X00521896D01*
X00520880Y00452316D01*
X00519864Y00453332D01*
X00518848D01*
Y00452316D01*
X00519864Y00451300D01*
X00518848Y00450284D01*
Y00449268D01*
X00532148Y00428961D02*
X00533164D01*
X00534180Y00429977D01*
X00535196Y00428961D01*
X00536212D01*
Y00429977D01*
X00535196Y00430993D01*
X00536212Y00432009D01*
Y00433025D01*
X00535196D01*
X00534180Y00432009D01*
X00533164Y00433025D01*
X00532148D01*
Y00432009D01*
X00533164Y00430993D01*
X00532148Y00429977D01*
Y00428961D01*
X00513148Y00427661D02*
X00514164D01*
X00515180Y00428677D01*
X00516196Y00427661D01*
X00517212D01*
Y00428677D01*
X00516196Y00429693D01*
X00517212Y00430709D01*
Y00431725D01*
X00516196D01*
X00515180Y00430709D01*
X00514164Y00431725D01*
X00513148D01*
Y00430709D01*
X00514164Y00429693D01*
X00513148Y00428677D01*
Y00427661D01*
X00512148Y00391861D02*
X00513164D01*
X00514180Y00392877D01*
X00515196Y00391861D01*
X00516212D01*
Y00392877D01*
X00515196Y00393893D01*
X00516212Y00394909D01*
Y00395925D01*
X00515196D01*
X00514180Y00394909D01*
X00513164Y00395925D01*
X00512148D01*
Y00394909D01*
X00513164Y00393893D01*
X00512148Y00392877D01*
Y00391861D01*
X00459201Y00443411D02*
X00460217D01*
X00461233Y00444427D01*
X00462249Y00443411D01*
X00463265D01*
Y00444427D01*
X00462249Y00445443D01*
X00463265Y00446459D01*
Y00447475D01*
X00462249D01*
X00461233Y00446459D01*
X00460217Y00447475D01*
X00459201D01*
Y00446459D01*
X00460217Y00445443D01*
X00459201Y00444427D01*
Y00443411D01*
X00589448Y00351761D02*
X00590464D01*
X00591480Y00352777D01*
X00592496Y00351761D01*
X00593512D01*
Y00352777D01*
X00592496Y00353793D01*
X00593512Y00354809D01*
Y00355825D01*
X00592496D01*
X00591480Y00354809D01*
X00590464Y00355825D01*
X00589448D01*
Y00354809D01*
X00590464Y00353793D01*
X00589448Y00352777D01*
Y00351761D01*
X00539948Y00401261D02*
X00540964D01*
X00541980Y00402277D01*
X00542996Y00401261D01*
X00544012D01*
Y00402277D01*
X00542996Y00403293D01*
X00544012Y00404309D01*
Y00405325D01*
X00542996D01*
X00541980Y00404309D01*
X00540964Y00405325D01*
X00539948D01*
Y00404309D01*
X00540964Y00403293D01*
X00539948Y00402277D01*
Y00401261D01*
X00588270Y00480461D02*
X00589286D01*
X00590302Y00481477D01*
X00591318Y00480461D01*
X00592334D01*
Y00481477D01*
X00591318Y00482493D01*
X00592334Y00483509D01*
Y00484525D01*
X00591318D01*
X00590302Y00483509D01*
X00589286Y00484525D01*
X00588270D01*
Y00483509D01*
X00589286Y00482493D01*
X00588270Y00481477D01*
Y00480461D01*
X00701647Y00368261D02*
X00702663D01*
X00703679Y00369277D01*
X00704695Y00368261D01*
X00705711D01*
Y00369277D01*
X00704695Y00370293D01*
X00705711Y00371309D01*
Y00372325D01*
X00704695D01*
X00703679Y00371309D01*
X00702663Y00372325D01*
X00701647D01*
Y00371309D01*
X00702663Y00370293D01*
X00701647Y00369277D01*
Y00368261D01*
X00639521Y00489411D02*
X00640537D01*
X00641553Y00490427D01*
X00642569Y00489411D01*
X00643585D01*
Y00490427D01*
X00642569Y00491443D01*
X00643585Y00492459D01*
Y00493475D01*
X00642569D01*
X00641553Y00492459D01*
X00640537Y00493475D01*
X00639521D01*
Y00492459D01*
X00640537Y00491443D01*
X00639521Y00490427D01*
Y00489411D01*
X00642247Y00470561D02*
X00643263D01*
X00644279Y00471577D01*
X00645295Y00470561D01*
X00646311D01*
Y00471577D01*
X00645295Y00472593D01*
X00646311Y00473609D01*
Y00474625D01*
X00645295D01*
X00644279Y00473609D01*
X00643263Y00474625D01*
X00642247D01*
Y00473609D01*
X00643263Y00472593D01*
X00642247Y00471577D01*
Y00470561D01*
X00622448Y00467261D02*
X00623464D01*
X00624479Y00468277D01*
X00625495Y00467261D01*
X00626511D01*
Y00468277D01*
X00625495Y00469293D01*
X00626511Y00470309D01*
Y00471325D01*
X00625495D01*
X00624479Y00470309D01*
X00623464Y00471325D01*
X00622448D01*
Y00470309D01*
X00623464Y00469293D01*
X00622448Y00468277D01*
Y00467261D01*
X00675248Y00560016D02*
X00676264D01*
X00677280Y00561032D01*
X00678296Y00560016D01*
X00679312D01*
Y00561032D01*
X00678296Y00562048D01*
X00679312Y00563064D01*
Y00564080D01*
X00678296D01*
X00677280Y00563064D01*
X00676264Y00564080D01*
X00675248D01*
Y00563064D01*
X00676264Y00562048D01*
X00675248Y00561032D01*
Y00560016D01*
X00657848Y00473761D02*
X00658864D01*
X00659880Y00474777D01*
X00660896Y00473761D01*
X00661912D01*
Y00474777D01*
X00660896Y00475793D01*
X00661912Y00476809D01*
Y00477825D01*
X00660896D01*
X00659880Y00476809D01*
X00658864Y00477825D01*
X00657848D01*
Y00476809D01*
X00658864Y00475793D01*
X00657848Y00474777D01*
Y00473761D01*
X00576548Y00430383D02*
X00577564D01*
X00578580Y00431399D01*
X00579596Y00430383D01*
X00580612D01*
Y00431399D01*
X00579596Y00432415D01*
X00580612Y00433431D01*
Y00434447D01*
X00579596D01*
X00578580Y00433431D01*
X00577564Y00434447D01*
X00576548D01*
Y00433431D01*
X00577564Y00432415D01*
X00576548Y00431399D01*
Y00430383D01*
X00595973Y00584461D02*
X00596989D01*
X00598005Y00585477D01*
X00599021Y00584461D01*
X00600037D01*
Y00585477D01*
X00599021Y00586493D01*
X00600037Y00587509D01*
Y00588525D01*
X00599021D01*
X00598005Y00587509D01*
X00596989Y00588525D01*
X00595973D01*
Y00587509D01*
X00596989Y00586493D01*
X00595973Y00585477D01*
Y00584461D01*
X00579748Y00570980D02*
X00580764D01*
X00581780Y00571996D01*
X00582796Y00570980D01*
X00583812D01*
Y00571996D01*
X00582796Y00573012D01*
X00583812Y00574028D01*
Y00575044D01*
X00582796D01*
X00581780Y00574028D01*
X00580764Y00575044D01*
X00579748D01*
Y00574028D01*
X00580764Y00573012D01*
X00579748Y00571996D01*
Y00570980D01*
X00378248Y00510160D02*
X00379264D01*
X00380280Y00511176D01*
X00381296Y00510160D01*
X00382312D01*
Y00511176D01*
X00381296Y00512192D01*
X00382312Y00513209D01*
Y00514225D01*
X00381296D01*
X00380280Y00513209D01*
X00379264Y00514225D01*
X00378248D01*
Y00513209D01*
X00379264Y00512192D01*
X00378248Y00511176D01*
Y00510160D01*
X00385848Y00524660D02*
X00386864D01*
X00387880Y00525676D01*
X00388896Y00524660D01*
X00389912D01*
Y00525676D01*
X00388896Y00526693D01*
X00389912Y00527709D01*
Y00528725D01*
X00388896D01*
X00387880Y00527709D01*
X00386864Y00528725D01*
X00385848D01*
Y00527709D01*
X00386864Y00526693D01*
X00385848Y00525676D01*
Y00524660D01*
X00572948Y00242861D02*
X00573964D01*
X00574980Y00243877D01*
X00575996Y00242861D01*
X00577012D01*
Y00243877D01*
X00575996Y00244893D01*
X00577012Y00245909D01*
Y00246925D01*
X00575996D01*
X00574980Y00245909D01*
X00573964Y00246925D01*
X00572948D01*
Y00245909D01*
X00573964Y00244893D01*
X00572948Y00243877D01*
Y00242861D01*
X00631798Y00276561D02*
X00632814D01*
X00633830Y00277577D01*
X00634846Y00276561D01*
X00635862D01*
Y00277577D01*
X00634846Y00278593D01*
X00635862Y00279609D01*
Y00280625D01*
X00634846D01*
X00633830Y00279609D01*
X00632814Y00280625D01*
X00631798D01*
Y00279609D01*
X00632814Y00278593D01*
X00631798Y00277577D01*
Y00276561D01*
X00841848Y00527861D02*
X00842864D01*
X00843880Y00528877D01*
X00844896Y00527861D01*
X00845912D01*
Y00528877D01*
X00844896Y00529893D01*
X00845912Y00530909D01*
Y00531925D01*
X00844896D01*
X00843880Y00530909D01*
X00842864Y00531925D01*
X00841848D01*
Y00530909D01*
X00842864Y00529893D01*
X00841848Y00528877D01*
Y00527861D01*
X00728448Y00708361D02*
X00729464D01*
X00730480Y00709377D01*
X00731496Y00708361D01*
X00732512D01*
Y00709377D01*
X00731496Y00710393D01*
X00732512Y00711409D01*
Y00712425D01*
X00731496D01*
X00730480Y00711409D01*
X00729464Y00712425D01*
X00728448D01*
Y00711409D01*
X00729464Y00710393D01*
X00728448Y00709377D01*
Y00708361D01*
X00401548Y00522861D02*
X00402564D01*
X00403580Y00523877D01*
X00404596Y00522861D01*
X00405612D01*
Y00523877D01*
X00404596Y00524893D01*
X00405612Y00525909D01*
Y00526925D01*
X00404596D01*
X00403580Y00525909D01*
X00402564Y00526925D01*
X00401548D01*
Y00525909D01*
X00402564Y00524893D01*
X00401548Y00523877D01*
Y00522861D01*
X00483248Y00602361D02*
X00484264D01*
X00485280Y00603377D01*
X00486296Y00602361D01*
X00487312D01*
Y00603377D01*
X00486296Y00604393D01*
X00487312Y00605409D01*
Y00606425D01*
X00486296D01*
X00485280Y00605409D01*
X00484264Y00606425D01*
X00483248D01*
Y00605409D01*
X00484264Y00604393D01*
X00483248Y00603377D01*
Y00602361D01*
X00456598Y00608411D02*
X00457614D01*
X00458630Y00609427D01*
X00459646Y00608411D01*
X00460662D01*
Y00609427D01*
X00459646Y00610443D01*
X00460662Y00611459D01*
Y00612475D01*
X00459646D01*
X00458630Y00611459D01*
X00457614Y00612475D01*
X00456598D01*
Y00611459D01*
X00457614Y00610443D01*
X00456598Y00609427D01*
Y00608411D01*
X00444948Y00393561D02*
X00445964D01*
X00446980Y00394577D01*
X00447996Y00393561D01*
X00449012D01*
Y00394577D01*
X00447996Y00395593D01*
X00449012Y00396609D01*
Y00397625D01*
X00447996D01*
X00446980Y00396609D01*
X00445964Y00397625D01*
X00444948D01*
Y00396609D01*
X00445964Y00395593D01*
X00444948Y00394577D01*
Y00393561D01*
X00652648Y00569461D02*
X00653664D01*
X00654680Y00570477D01*
X00655696Y00569461D01*
X00656712D01*
Y00570477D01*
X00655696Y00571493D01*
X00656712Y00572509D01*
Y00573525D01*
X00655696D01*
X00654680Y00572509D01*
X00653664Y00573525D01*
X00652648D01*
Y00572509D01*
X00653664Y00571493D01*
X00652648Y00570477D01*
Y00569461D01*
X00650248Y00695861D02*
X00651264D01*
X00652280Y00696877D01*
X00653296Y00695861D01*
X00654312D01*
Y00696877D01*
X00653296Y00697893D01*
X00654312Y00698909D01*
Y00699925D01*
X00653296D01*
X00652280Y00698909D01*
X00651264Y00699925D01*
X00650248D01*
Y00698909D01*
X00651264Y00697893D01*
X00650248Y00696877D01*
Y00695861D01*
X00854448Y00561861D02*
X00855464D01*
X00856480Y00562877D01*
X00857496Y00561861D01*
X00858512D01*
Y00562877D01*
X00857496Y00563893D01*
X00858512Y00564909D01*
Y00565925D01*
X00857496D01*
X00856480Y00564909D01*
X00855464Y00565925D01*
X00854448D01*
Y00564909D01*
X00855464Y00563893D01*
X00854448Y00562877D01*
Y00561861D01*
X00854748Y00544461D02*
X00855764D01*
X00856780Y00545477D01*
X00857796Y00544461D01*
X00858812D01*
Y00545477D01*
X00857796Y00546493D01*
X00858812Y00547509D01*
Y00548525D01*
X00857796D01*
X00856780Y00547509D01*
X00855764Y00548525D01*
X00854748D01*
Y00547509D01*
X00855764Y00546493D01*
X00854748Y00545477D01*
Y00544461D01*
X00400695Y00450761D02*
X00401711D01*
X00402727Y00451777D01*
X00403743Y00450761D01*
X00404759D01*
Y00451777D01*
X00403743Y00452793D01*
X00404759Y00453809D01*
Y00454825D01*
X00403743D01*
X00402727Y00453809D01*
X00401711Y00454825D01*
X00400695D01*
Y00453809D01*
X00401711Y00452793D01*
X00400695Y00451777D01*
Y00450761D01*
X00471748Y00411861D02*
X00472764D01*
X00473780Y00412877D01*
X00474796Y00411861D01*
X00475812D01*
Y00412877D01*
X00474796Y00413893D01*
X00475812Y00414909D01*
Y00415925D01*
X00474796D01*
X00473780Y00414909D01*
X00472764Y00415925D01*
X00471748D01*
Y00414909D01*
X00472764Y00413893D01*
X00471748Y00412877D01*
Y00411861D01*
X00593948Y00451961D02*
X00594964D01*
X00595980Y00452977D01*
X00596996Y00451961D01*
X00598012D01*
Y00452977D01*
X00596996Y00453993D01*
X00598012Y00455009D01*
Y00456025D01*
X00596996D01*
X00595980Y00455009D01*
X00594964Y00456025D01*
X00593948D01*
Y00455009D01*
X00594964Y00453993D01*
X00593948Y00452977D01*
Y00451961D01*
X00671548Y00676961D02*
X00672564D01*
X00673580Y00677977D01*
X00674596Y00676961D01*
X00675612D01*
Y00677977D01*
X00674596Y00678993D01*
X00675612Y00680009D01*
Y00681025D01*
X00674596D01*
X00673580Y00680009D01*
X00672564Y00681025D01*
X00671548D01*
Y00680009D01*
X00672564Y00678993D01*
X00671548Y00677977D01*
Y00676961D01*
X00442948Y00519061D02*
X00443964D01*
X00444980Y00520076D01*
X00445996Y00519061D01*
X00447012D01*
Y00520076D01*
X00445996Y00521092D01*
X00447012Y00522108D01*
Y00523125D01*
X00445996D01*
X00444980Y00522108D01*
X00443964Y00523125D01*
X00442948D01*
Y00522108D01*
X00443964Y00521092D01*
X00442948Y00520076D01*
Y00519061D01*
X00638448Y00681061D02*
X00639464D01*
X00640480Y00682077D01*
X00641496Y00681061D01*
X00642512D01*
Y00682077D01*
X00641496Y00683093D01*
X00642512Y00684109D01*
Y00685125D01*
X00641496D01*
X00640480Y00684109D01*
X00639464Y00685125D01*
X00638448D01*
Y00684109D01*
X00639464Y00683093D01*
X00638448Y00682077D01*
Y00681061D01*
X00875048Y00563361D02*
Y00567425D01*
X00879112D01*
Y00563361D01*
X00875048D01*
X00876064Y00564377D02*
Y00566409D01*
X00878096D01*
Y00564377D01*
X00876064D01*
X00875048Y00545861D02*
Y00549925D01*
X00879112D01*
Y00545861D01*
X00875048D01*
X00876064Y00546877D02*
Y00548909D01*
X00878096D01*
Y00546877D01*
X00876064D01*
X00875048Y00528361D02*
Y00532425D01*
X00879112D01*
Y00528361D01*
X00875048D01*
X00876064Y00529377D02*
Y00531409D01*
X00878096D01*
Y00529377D01*
X00876064D01*
X00620948Y00576761D02*
X00621964D01*
X00622980Y00577777D01*
X00623996Y00576761D01*
X00625012D01*
Y00577777D01*
X00623996Y00578793D01*
X00625012Y00579809D01*
Y00580825D01*
X00623996D01*
X00622980Y00579809D01*
X00621964Y00580825D01*
X00620948D01*
Y00579809D01*
X00621964Y00578793D01*
X00620948Y00577777D01*
Y00576761D01*
X00561348Y00387161D02*
X00562364D01*
X00563380Y00388177D01*
X00564396Y00387161D01*
X00565412D01*
Y00388177D01*
X00564396Y00389193D01*
X00565412Y00390209D01*
Y00391225D01*
X00564396D01*
X00563380Y00390209D01*
X00562364Y00391225D01*
X00561348D01*
Y00390209D01*
X00562364Y00389193D01*
X00561348Y00388177D01*
Y00387161D01*
X00599948Y00638561D02*
X00600964D01*
X00601980Y00639577D01*
X00602996Y00638561D01*
X00604012D01*
Y00639577D01*
X00602996Y00640593D01*
X00604012Y00641609D01*
Y00642625D01*
X00602996D01*
X00601980Y00641609D01*
X00600964Y00642625D01*
X00599948D01*
Y00641609D01*
X00600964Y00640593D01*
X00599948Y00639577D01*
Y00638561D01*
X00492094Y00686461D02*
X00493110D01*
X00494126Y00687477D01*
X00495142Y00686461D01*
X00496158D01*
Y00687477D01*
X00495142Y00688493D01*
X00496158Y00689509D01*
Y00690525D01*
X00495142D01*
X00494126Y00689509D01*
X00493110Y00690525D01*
X00492094D01*
Y00689509D01*
X00493110Y00688493D01*
X00492094Y00687477D01*
Y00686461D01*
X00598848Y00661561D02*
X00599864D01*
X00600880Y00662577D01*
X00601896Y00661561D01*
X00602912D01*
Y00662577D01*
X00601896Y00663593D01*
X00602912Y00664609D01*
Y00665625D01*
X00601896D01*
X00600880Y00664609D01*
X00599864Y00665625D01*
X00598848D01*
Y00664609D01*
X00599864Y00663593D01*
X00598848Y00662577D01*
Y00661561D01*
X00765248Y00710061D02*
X00766264D01*
X00767280Y00711077D01*
X00768296Y00710061D01*
X00769312D01*
Y00711077D01*
X00768296Y00712093D01*
X00769312Y00713109D01*
Y00714125D01*
X00768296D01*
X00767280Y00713109D01*
X00766264Y00714125D01*
X00765248D01*
Y00713109D01*
X00766264Y00712093D01*
X00765248Y00711077D01*
Y00710061D01*
X00413000Y00322261D02*
X00414016D01*
X00415032Y00323277D01*
X00416048Y00322261D01*
X00417064D01*
Y00323277D01*
X00416048Y00324293D01*
X00417064Y00325309D01*
Y00326325D01*
X00416048D01*
X00415032Y00325309D01*
X00414016Y00326325D01*
X00413000D01*
Y00325309D01*
X00414016Y00324293D01*
X00413000Y00323277D01*
Y00322261D01*
X00605548Y00741761D02*
X00606564D01*
X00607580Y00742777D01*
X00608596Y00741761D01*
X00609612D01*
Y00742777D01*
X00608596Y00743793D01*
X00609612Y00744809D01*
Y00745825D01*
X00608596D01*
X00607580Y00744809D01*
X00606564Y00745825D01*
X00605548D01*
Y00744809D01*
X00606564Y00743793D01*
X00605548Y00742777D01*
Y00741761D01*
X00402248Y00351061D02*
X00403264D01*
X00404280Y00352077D01*
X00405296Y00351061D01*
X00406312D01*
Y00352077D01*
X00405296Y00353093D01*
X00406312Y00354109D01*
Y00355125D01*
X00405296D01*
X00404280Y00354109D01*
X00403264Y00355125D01*
X00402248D01*
Y00354109D01*
X00403264Y00353093D01*
X00402248Y00352077D01*
Y00351061D01*
X00561034Y00409161D02*
X00562050D01*
X00563066Y00410177D01*
X00564082Y00409161D01*
X00565098D01*
Y00410177D01*
X00564082Y00411193D01*
X00565098Y00412209D01*
Y00413225D01*
X00564082D01*
X00563066Y00412209D01*
X00562050Y00413225D01*
X00561034D01*
Y00412209D01*
X00562050Y00411193D01*
X00561034Y00410177D01*
Y00409161D01*
X00403848Y00474361D02*
X00404864D01*
X00405880Y00475377D01*
X00406896Y00474361D01*
X00407912D01*
Y00475377D01*
X00406896Y00476393D01*
X00407912Y00477409D01*
Y00478425D01*
X00406896D01*
X00405880Y00477409D01*
X00404864Y00478425D01*
X00403848D01*
Y00477409D01*
X00404864Y00476393D01*
X00403848Y00475377D01*
Y00474361D01*
X00734748Y00605261D02*
X00735764D01*
X00736780Y00606277D01*
X00737796Y00605261D01*
X00738812D01*
Y00606277D01*
X00737796Y00607293D01*
X00738812Y00608309D01*
Y00609325D01*
X00737796D01*
X00736780Y00608309D01*
X00735764Y00609325D01*
X00734748D01*
Y00608309D01*
X00735764Y00607293D01*
X00734748Y00606277D01*
Y00605261D01*
X00496148Y00521261D02*
X00497164D01*
X00498180Y00522277D01*
X00499196Y00521261D01*
X00500212D01*
Y00522277D01*
X00499196Y00523293D01*
X00500212Y00524309D01*
Y00525325D01*
X00499196D01*
X00498180Y00524309D01*
X00497164Y00525325D01*
X00496148D01*
Y00524309D01*
X00497164Y00523293D01*
X00496148Y00522277D01*
Y00521261D01*
X00460148Y00505761D02*
X00461164D01*
X00462180Y00506777D01*
X00463196Y00505761D01*
X00464212D01*
Y00506777D01*
X00463196Y00507793D01*
X00464212Y00508809D01*
Y00509825D01*
X00463196D01*
X00462180Y00508809D01*
X00461164Y00509825D01*
X00460148D01*
Y00508809D01*
X00461164Y00507793D01*
X00460148Y00506777D01*
Y00505761D01*
X00615648Y00418661D02*
X00616664D01*
X00617680Y00419677D01*
X00618696Y00418661D01*
X00619712D01*
Y00419677D01*
X00618696Y00420693D01*
X00619712Y00421709D01*
Y00422725D01*
X00618696D01*
X00617680Y00421709D01*
X00616664Y00422725D01*
X00615648D01*
Y00421709D01*
X00616664Y00420693D01*
X00615648Y00419677D01*
Y00418661D01*
X00840248Y00326161D02*
X00841264D01*
X00842280Y00327177D01*
X00843296Y00326161D01*
X00844312D01*
Y00327177D01*
X00843296Y00328193D01*
X00844312Y00329209D01*
Y00330225D01*
X00843296D01*
X00842280Y00329209D01*
X00841264Y00330225D01*
X00840248D01*
Y00329209D01*
X00841264Y00328193D01*
X00840248Y00327177D01*
Y00326161D01*
X00826347Y00320161D02*
X00827363D01*
X00828379Y00321177D01*
X00829395Y00320161D01*
X00830411D01*
Y00321177D01*
X00829395Y00322193D01*
X00830411Y00323209D01*
Y00324225D01*
X00829395D01*
X00828379Y00323209D01*
X00827363Y00324225D01*
X00826347D01*
Y00323209D01*
X00827363Y00322193D01*
X00826347Y00321177D01*
Y00320161D01*
X00611048Y00456461D02*
X00612064D01*
X00613080Y00457477D01*
X00614096Y00456461D01*
X00615112D01*
Y00457477D01*
X00614096Y00458493D01*
X00615112Y00459509D01*
Y00460525D01*
X00614096D01*
X00613080Y00459509D01*
X00612064Y00460525D01*
X00611048D01*
Y00459509D01*
X00612064Y00458493D01*
X00611048Y00457477D01*
Y00456461D01*
X00423148Y00377361D02*
X00424164D01*
X00425180Y00378377D01*
X00426196Y00377361D01*
X00427212D01*
Y00378377D01*
X00426196Y00379393D01*
X00427212Y00380409D01*
Y00381425D01*
X00426196D01*
X00425180Y00380409D01*
X00424164Y00381425D01*
X00423148D01*
Y00380409D01*
X00424164Y00379393D01*
X00423148Y00378377D01*
Y00377361D01*
X00515798Y00630811D02*
X00516814D01*
X00517830Y00631827D01*
X00518846Y00630811D01*
X00519862D01*
Y00631827D01*
X00518846Y00632843D01*
X00519862Y00633859D01*
Y00634875D01*
X00518846D01*
X00517830Y00633859D01*
X00516814Y00634875D01*
X00515798D01*
Y00633859D01*
X00516814Y00632843D01*
X00515798Y00631827D01*
Y00630811D01*
X00574748Y00668361D02*
X00575764D01*
X00576780Y00669377D01*
X00577796Y00668361D01*
X00578812D01*
Y00669377D01*
X00577796Y00670393D01*
X00578812Y00671409D01*
Y00672425D01*
X00577796D01*
X00576780Y00671409D01*
X00575764Y00672425D01*
X00574748D01*
Y00671409D01*
X00575764Y00670393D01*
X00574748Y00669377D01*
Y00668361D01*
X00473948Y00521561D02*
X00474964D01*
X00475980Y00522577D01*
X00476996Y00521561D01*
X00478012D01*
Y00522577D01*
X00476996Y00523593D01*
X00478012Y00524609D01*
Y00525625D01*
X00476996D01*
X00475980Y00524609D01*
X00474964Y00525625D01*
X00473948D01*
Y00524609D01*
X00474964Y00523593D01*
X00473948Y00522577D01*
Y00521561D01*
X00458948Y00521861D02*
X00459964D01*
X00460980Y00522877D01*
X00461996Y00521861D01*
X00463012D01*
Y00522877D01*
X00461996Y00523893D01*
X00463012Y00524908D01*
Y00525924D01*
X00461996D01*
X00460980Y00524908D01*
X00459964Y00525924D01*
X00458948D01*
Y00524908D01*
X00459964Y00523893D01*
X00458948Y00522877D01*
Y00521861D01*
X00520648Y00576061D02*
X00521664D01*
X00522680Y00577077D01*
X00523696Y00576061D01*
X00524712D01*
Y00577077D01*
X00523696Y00578093D01*
X00524712Y00579109D01*
Y00580125D01*
X00523696D01*
X00522680Y00579109D01*
X00521664Y00580125D01*
X00520648D01*
Y00579109D01*
X00521664Y00578093D01*
X00520648Y00577077D01*
Y00576061D01*
X00792053Y00588356D02*
X00793069D01*
X00794085Y00589372D01*
X00795101Y00588356D01*
X00796117D01*
Y00589372D01*
X00795101Y00590388D01*
X00796117Y00591404D01*
Y00592420D01*
X00795101D01*
X00794085Y00591404D01*
X00793069Y00592420D01*
X00792053D01*
Y00591404D01*
X00793069Y00590388D01*
X00792053Y00589372D01*
Y00588356D01*
X00426348Y00591661D02*
X00427364D01*
X00428380Y00592677D01*
X00429396Y00591661D01*
X00430412D01*
Y00592677D01*
X00429396Y00593693D01*
X00430412Y00594709D01*
Y00595725D01*
X00429396D01*
X00428380Y00594709D01*
X00427364Y00595725D01*
X00426348D01*
Y00594709D01*
X00427364Y00593693D01*
X00426348Y00592677D01*
Y00591661D01*
X00426648Y00578061D02*
X00427664D01*
X00428680Y00579077D01*
X00429696Y00578061D01*
X00430712D01*
Y00579077D01*
X00429696Y00580093D01*
X00430712Y00581109D01*
Y00582125D01*
X00429696D01*
X00428680Y00581109D01*
X00427664Y00582125D01*
X00426648D01*
Y00581109D01*
X00427664Y00580093D01*
X00426648Y00579077D01*
Y00578061D01*
X00733348Y00634161D02*
X00734364D01*
X00735380Y00635177D01*
X00736396Y00634161D01*
X00737412D01*
Y00635177D01*
X00736396Y00636193D01*
X00737412Y00637209D01*
Y00638225D01*
X00736396D01*
X00735380Y00637209D01*
X00734364Y00638225D01*
X00733348D01*
Y00637209D01*
X00734364Y00636193D01*
X00733348Y00635177D01*
Y00634161D01*
X00683448Y00658961D02*
X00684464D01*
X00685480Y00659977D01*
X00686496Y00658961D01*
X00687512D01*
Y00659977D01*
X00686496Y00660993D01*
X00687512Y00662009D01*
Y00663025D01*
X00686496D01*
X00685480Y00662009D01*
X00684464Y00663025D01*
X00683448D01*
Y00662009D01*
X00684464Y00660993D01*
X00683448Y00659977D01*
Y00658961D01*
X00755647Y00553760D02*
X00756663D01*
X00757679Y00554776D01*
X00758695Y00553760D01*
X00759711D01*
Y00554776D01*
X00758695Y00555792D01*
X00759711Y00556808D01*
Y00557824D01*
X00758695D01*
X00757679Y00556808D01*
X00756663Y00557824D01*
X00755647D01*
Y00556808D01*
X00756663Y00555792D01*
X00755647Y00554776D01*
Y00553760D01*
X00741747Y00552260D02*
X00742763D01*
X00743779Y00553276D01*
X00744795Y00552260D01*
X00745811D01*
Y00553276D01*
X00744795Y00554292D01*
X00745811Y00555308D01*
Y00556324D01*
X00744795D01*
X00743779Y00555308D01*
X00742763Y00556324D01*
X00741747D01*
Y00555308D01*
X00742763Y00554292D01*
X00741747Y00553276D01*
Y00552260D01*
X00760848Y00523961D02*
X00761864D01*
X00762880Y00524977D01*
X00763896Y00523961D01*
X00764912D01*
Y00524977D01*
X00763896Y00525993D01*
X00764912Y00527009D01*
Y00528025D01*
X00763896D01*
X00762880Y00527009D01*
X00761864Y00528025D01*
X00760848D01*
Y00527009D01*
X00761864Y00525993D01*
X00760848Y00524977D01*
Y00523961D01*
X00758347Y00538661D02*
X00759363D01*
X00760379Y00539677D01*
X00761395Y00538661D01*
X00762411D01*
Y00539677D01*
X00761395Y00540692D01*
X00762411Y00541708D01*
Y00542724D01*
X00761395D01*
X00760379Y00541708D01*
X00759363Y00542724D01*
X00758347D01*
Y00541708D01*
X00759363Y00540692D01*
X00758347Y00539677D01*
Y00538661D01*
X00641948Y00421561D02*
X00642964D01*
X00643980Y00422577D01*
X00644996Y00421561D01*
X00646012D01*
Y00422577D01*
X00644996Y00423593D01*
X00646012Y00424609D01*
Y00425625D01*
X00644996D01*
X00643980Y00424609D01*
X00642964Y00425625D01*
X00641948D01*
Y00424609D01*
X00642964Y00423593D01*
X00641948Y00422577D01*
Y00421561D01*
X00647048Y00391861D02*
X00648064D01*
X00649080Y00392877D01*
X00650096Y00391861D01*
X00651112D01*
Y00392877D01*
X00650096Y00393893D01*
X00651112Y00394909D01*
Y00395925D01*
X00650096D01*
X00649080Y00394909D01*
X00648064Y00395925D01*
X00647048D01*
Y00394909D01*
X00648064Y00393893D01*
X00647048Y00392877D01*
Y00391861D01*
X00792921Y00611661D02*
X00793937D01*
X00794953Y00612677D01*
X00795969Y00611661D01*
X00796985D01*
Y00612677D01*
X00795969Y00613693D01*
X00796985Y00614709D01*
Y00615725D01*
X00795969D01*
X00794953Y00614709D01*
X00793937Y00615725D01*
X00792921D01*
Y00614709D01*
X00793937Y00613693D01*
X00792921Y00612677D01*
Y00611661D01*
X00561048Y00587161D02*
X00562064D01*
X00563080Y00588177D01*
X00564096Y00587161D01*
X00565112D01*
Y00588177D01*
X00564096Y00589193D01*
X00565112Y00590209D01*
Y00591225D01*
X00564096D01*
X00563080Y00590209D01*
X00562064Y00591225D01*
X00561048D01*
Y00590209D01*
X00562064Y00589193D01*
X00561048Y00588177D01*
Y00587161D01*
X00686498Y00320911D02*
X00687514D01*
X00688530Y00321927D01*
X00689546Y00320911D01*
X00690562D01*
Y00321927D01*
X00689546Y00322943D01*
X00690562Y00323959D01*
Y00324975D01*
X00689546D01*
X00688530Y00323959D01*
X00687514Y00324975D01*
X00686498D01*
Y00323959D01*
X00687514Y00322943D01*
X00686498Y00321927D01*
Y00320911D01*
X00704448Y00297861D02*
X00705464D01*
X00706480Y00298877D01*
X00707496Y00297861D01*
X00708512D01*
Y00298877D01*
X00707496Y00299893D01*
X00708512Y00300909D01*
Y00301925D01*
X00707496D01*
X00706480Y00300909D01*
X00705464Y00301925D01*
X00704448D01*
Y00300909D01*
X00705464Y00299893D01*
X00704448Y00298877D01*
Y00297861D01*
X00699948Y00323161D02*
X00700964D01*
X00701980Y00324177D01*
X00702996Y00323161D01*
X00704012D01*
Y00324177D01*
X00702996Y00325193D01*
X00704012Y00326209D01*
Y00327225D01*
X00702996D01*
X00701980Y00326209D01*
X00700964Y00327225D01*
X00699948D01*
Y00326209D01*
X00700964Y00325193D01*
X00699948Y00324177D01*
Y00323161D01*
X00723598Y00543766D02*
X00724614D01*
X00725630Y00544782D01*
X00726646Y00543766D01*
X00727662D01*
Y00544782D01*
X00726646Y00545798D01*
X00727662Y00546814D01*
Y00547830D01*
X00726646D01*
X00725630Y00546814D01*
X00724614Y00547830D01*
X00723598D01*
Y00546814D01*
X00724614Y00545798D01*
X00723598Y00544782D01*
Y00543766D01*
X00642348Y00532161D02*
X00643364D01*
X00644380Y00533177D01*
X00645396Y00532161D01*
X00646412D01*
Y00533177D01*
X00645396Y00534193D01*
X00646412Y00535209D01*
Y00536225D01*
X00645396D01*
X00644380Y00535209D01*
X00643364Y00536225D01*
X00642348D01*
Y00535209D01*
X00643364Y00534193D01*
X00642348Y00533177D01*
Y00532161D01*
X00717148Y00467786D02*
X00718164D01*
X00719180Y00468802D01*
X00720196Y00467786D01*
X00721212D01*
Y00468802D01*
X00720196Y00469818D01*
X00721212Y00470834D01*
Y00471850D01*
X00720196D01*
X00719180Y00470834D01*
X00718164Y00471850D01*
X00717148D01*
Y00470834D01*
X00718164Y00469818D01*
X00717148Y00468802D01*
Y00467786D01*
X00471748Y00577312D02*
X00472764D01*
X00473780Y00578328D01*
X00474796Y00577312D01*
X00475812D01*
Y00578328D01*
X00474796Y00579344D01*
X00475812Y00580360D01*
Y00581376D01*
X00474796D01*
X00473780Y00580360D01*
X00472764Y00581376D01*
X00471748D01*
Y00580360D01*
X00472764Y00579344D01*
X00471748Y00578328D01*
Y00577312D01*
X00674848Y00464561D02*
X00675864D01*
X00676880Y00465577D01*
X00677896Y00464561D01*
X00678912D01*
Y00465577D01*
X00677896Y00466593D01*
X00678912Y00467609D01*
Y00468625D01*
X00677896D01*
X00676880Y00467609D01*
X00675864Y00468625D01*
X00674848D01*
Y00467609D01*
X00675864Y00466593D01*
X00674848Y00465577D01*
Y00464561D01*
X00678448Y00446161D02*
X00679464D01*
X00680480Y00447177D01*
X00681496Y00446161D01*
X00682512D01*
Y00447177D01*
X00681496Y00448193D01*
X00682512Y00449209D01*
Y00450225D01*
X00681496D01*
X00680480Y00449209D01*
X00679464Y00450225D01*
X00678448D01*
Y00449209D01*
X00679464Y00448193D01*
X00678448Y00447177D01*
Y00446161D01*
X00511148Y00694461D02*
X00512164D01*
X00513180Y00695477D01*
X00514196Y00694461D01*
X00515212D01*
Y00695477D01*
X00514196Y00696493D01*
X00515212Y00697509D01*
Y00698525D01*
X00514196D01*
X00513180Y00697509D01*
X00512164Y00698525D01*
X00511148D01*
Y00697509D01*
X00512164Y00696493D01*
X00511148Y00695477D01*
Y00694461D01*
X00413648Y00426661D02*
X00414664D01*
X00415680Y00427677D01*
X00416696Y00426661D01*
X00417712D01*
Y00427677D01*
X00416696Y00428693D01*
X00417712Y00429709D01*
Y00430725D01*
X00416696D01*
X00415680Y00429709D01*
X00414664Y00430725D01*
X00413648D01*
Y00429709D01*
X00414664Y00428693D01*
X00413648Y00427677D01*
Y00426661D01*
X00848048Y00698661D02*
X00849064D01*
X00850080Y00699677D01*
X00851096Y00698661D01*
X00852112D01*
Y00699677D01*
X00851096Y00700693D01*
X00852112Y00701709D01*
Y00702725D01*
X00851096D01*
X00850080Y00701709D01*
X00849064Y00702725D01*
X00848048D01*
Y00701709D01*
X00849064Y00700693D01*
X00848048Y00699677D01*
Y00698661D01*
X00866748Y00626461D02*
X00867764D01*
X00868780Y00627477D01*
X00869796Y00626461D01*
X00870812D01*
Y00627477D01*
X00869796Y00628493D01*
X00870812Y00629509D01*
Y00630525D01*
X00869796D01*
X00868780Y00629509D01*
X00867764Y00630525D01*
X00866748D01*
Y00629509D01*
X00867764Y00628493D01*
X00866748Y00627477D01*
Y00626461D01*
X00500648Y00346061D02*
X00501664D01*
X00502680Y00347077D01*
X00503696Y00346061D01*
X00504712D01*
Y00347077D01*
X00503696Y00348093D01*
X00504712Y00349109D01*
Y00350125D01*
X00503696D01*
X00502680Y00349109D01*
X00501664Y00350125D01*
X00500648D01*
Y00349109D01*
X00501664Y00348093D01*
X00500648Y00347077D01*
Y00346061D01*
X00487248Y00376061D02*
X00488264D01*
X00489280Y00377077D01*
X00490296Y00376061D01*
X00491312D01*
Y00377077D01*
X00490296Y00378093D01*
X00491312Y00379109D01*
Y00380125D01*
X00490296D01*
X00489280Y00379109D01*
X00488264Y00380125D01*
X00487248D01*
Y00379109D01*
X00488264Y00378093D01*
X00487248Y00377077D01*
Y00376061D01*
X00398048Y00602861D02*
X00399064D01*
X00400080Y00603877D01*
X00401096Y00602861D01*
X00402112D01*
Y00603877D01*
X00401096Y00604893D01*
X00402112Y00605909D01*
Y00606925D01*
X00401096D01*
X00400080Y00605909D01*
X00399064Y00606925D01*
X00398048D01*
Y00605909D01*
X00399064Y00604893D01*
X00398048Y00603877D01*
Y00602861D01*
X00805048Y00361461D02*
X00806064D01*
X00807080Y00362477D01*
X00808096Y00361461D01*
X00809112D01*
Y00362477D01*
X00808096Y00363493D01*
X00809112Y00364509D01*
Y00365525D01*
X00808096D01*
X00807080Y00364509D01*
X00806064Y00365525D01*
X00805048D01*
Y00364509D01*
X00806064Y00363493D01*
X00805048Y00362477D01*
Y00361461D01*
X00441448Y00348761D02*
X00442464D01*
X00443480Y00349777D01*
X00444496Y00348761D01*
X00445512D01*
Y00349777D01*
X00444496Y00350793D01*
X00445512Y00351809D01*
Y00352825D01*
X00444496D01*
X00443480Y00351809D01*
X00442464Y00352825D01*
X00441448D01*
Y00351809D01*
X00442464Y00350793D01*
X00441448Y00349777D01*
Y00348761D01*
X00449348Y00377939D02*
X00450364D01*
X00451380Y00378955D01*
X00452396Y00377939D01*
X00453412D01*
Y00378955D01*
X00452396Y00379971D01*
X00453412Y00380987D01*
Y00382003D01*
X00452396D01*
X00451380Y00380987D01*
X00450364Y00382003D01*
X00449348D01*
Y00380987D01*
X00450364Y00379971D01*
X00449348Y00378955D01*
Y00377939D01*
X00615047Y00504961D02*
X00616063D01*
X00617080Y00505976D01*
X00618096Y00504961D01*
X00619112D01*
Y00505976D01*
X00618096Y00506992D01*
X00619112Y00508008D01*
Y00509025D01*
X00618096D01*
X00617080Y00508008D01*
X00616063Y00509025D01*
X00615047D01*
Y00508008D01*
X00616063Y00506992D01*
X00615047Y00505976D01*
Y00504961D01*
X00866048Y00502061D02*
X00867064D01*
X00868080Y00503077D01*
X00869096Y00502061D01*
X00870112D01*
Y00503077D01*
X00869096Y00504093D01*
X00870112Y00505109D01*
Y00506125D01*
X00869096D01*
X00868080Y00505109D01*
X00867064Y00506125D01*
X00866048D01*
Y00505109D01*
X00867064Y00504093D01*
X00866048Y00503077D01*
Y00502061D01*
D110*
X00678551Y00758458D02*
G03*
X00678551Y00758458I-00002032J00000000D01*
G01*
X00754873Y00771916D02*
G03*
X00754873Y00771916I-00002032J00000000D01*
G01*
M02*
