G04 Layer_Color=128*
%FSAX44Y44*%
%MOMM*%
G71*
G01*
G75*
%ADD36C,0.0100*%
%ADD109C,0.0508*%
D36*
X00367080Y00277893D02*
X00410830Y00245893D01*
X00446080Y00229893D01*
X00478330Y00221893D01*
X00519080Y00216643D01*
X00556330Y00217643D01*
X00589080Y00224393D01*
X00603330Y00228643D01*
X00629830Y00239643D01*
X00650830Y00250143D01*
X00691580Y00272393D01*
X00702080Y00276893D01*
X00754330Y00296893D01*
X00804830Y00309393D01*
X00844830Y00315393D01*
X00879080Y00317643D01*
X00916830Y00317893D01*
X00917580Y00797643D01*
X00865080D02*
X00917580D01*
X00822830Y00795143D02*
X00865080Y00797643D01*
X00750580Y00786393D02*
X00822830Y00795143D01*
X00660830Y00768643D02*
X00750580Y00786393D01*
X00572580Y00741393D02*
X00660830Y00768643D01*
X00557080Y00735643D02*
X00572580Y00741393D01*
X00538830Y00728643D02*
X00557080Y00735643D01*
X00520830Y00721143D02*
X00538830Y00728643D01*
X00512330Y00717393D02*
X00520830Y00721143D01*
X00488580Y00706893D02*
X00512330Y00717393D01*
X00478580Y00701893D02*
X00488580Y00706893D01*
X00460080Y00692893D02*
X00478580Y00701893D01*
X00436830Y00680643D02*
X00460080Y00692893D01*
X00420330Y00671393D02*
X00436830Y00680643D01*
X00404330Y00662143D02*
X00420330Y00671393D01*
X00400080Y00659393D02*
X00404330Y00662143D01*
X00390330Y00653143D02*
X00400080Y00659393D01*
X00379080Y00644893D02*
X00390330Y00653143D01*
X00367080Y00634643D02*
X00379080Y00644893D01*
X00367080Y00277893D02*
Y00634643D01*
D109*
X00657180Y00453593D02*
X00667180D01*
X00662180Y00448593D02*
Y00458593D01*
X00670519Y00758458D02*
X00682519D01*
X00676519Y00752458D02*
Y00764458D01*
X00746842Y00771916D02*
X00758841D01*
X00752841Y00765916D02*
Y00777916D01*
X00739902Y00743431D02*
X00747902D01*
X00743902Y00739431D02*
Y00747431D01*
X00690662Y00734748D02*
X00698662D01*
X00694662Y00730748D02*
Y00738748D01*
X00750963Y00734233D02*
X00764963D01*
X00757963Y00727233D02*
Y00741233D01*
X00677595Y00721296D02*
X00691595D01*
X00684595Y00714296D02*
Y00728296D01*
X00615080Y00622893D02*
X00625080D01*
X00620080Y00617893D02*
Y00627893D01*
X00640480Y00622893D02*
X00650480D01*
X00645480Y00617893D02*
Y00627893D01*
X00665880Y00622893D02*
X00675880D01*
X00670880Y00617893D02*
Y00627893D01*
X00691280Y00622893D02*
X00701280D01*
X00696280Y00617893D02*
Y00627893D01*
X00716680Y00622893D02*
X00726680D01*
X00721680Y00617893D02*
Y00627893D01*
X00742080Y00622893D02*
X00752080D01*
X00747080Y00617893D02*
Y00627893D01*
X00716680Y00648293D02*
X00726680D01*
X00721680Y00643293D02*
Y00653293D01*
X00691280Y00648293D02*
X00701280D01*
X00696280Y00643293D02*
Y00653293D01*
X00665880Y00648293D02*
X00675880D01*
X00670880Y00643293D02*
Y00653293D01*
X00640480Y00648293D02*
X00650480D01*
X00645480Y00643293D02*
Y00653293D01*
X00716680Y00597493D02*
X00726680D01*
X00721680Y00592493D02*
Y00602493D01*
X00691280Y00597493D02*
X00701280D01*
X00696280Y00592493D02*
Y00602493D01*
X00665880Y00597493D02*
X00675880D01*
X00670880Y00592493D02*
Y00602493D01*
X00640480Y00597493D02*
X00650480D01*
X00645480Y00592493D02*
Y00602493D01*
X00452280Y00287093D02*
X00462280D01*
X00457280Y00282093D02*
Y00292093D01*
X00452280Y00312493D02*
X00462280D01*
X00457280Y00307493D02*
Y00317493D01*
X00452280Y00337893D02*
X00462280D01*
X00457280Y00332893D02*
Y00342893D01*
X00893080Y00617393D02*
X00903080D01*
X00898080Y00612393D02*
Y00622393D01*
X00893080Y00591993D02*
X00903080D01*
X00898080Y00586993D02*
Y00596993D01*
X00890880Y00422393D02*
X00900880D01*
X00895880Y00417393D02*
Y00427393D01*
X00890880Y00396993D02*
X00900880D01*
X00895880Y00391993D02*
Y00401993D01*
X00891380Y00478693D02*
X00901380D01*
X00896380Y00473693D02*
Y00483693D01*
X00891380Y00453293D02*
X00901380D01*
X00896380Y00448293D02*
Y00458293D01*
X00893580Y00728493D02*
X00903580D01*
X00898580Y00723493D02*
Y00733493D01*
X00893580Y00703093D02*
X00903580D01*
X00898580Y00698093D02*
Y00708093D01*
X00892780Y00674493D02*
X00902780D01*
X00897780Y00669493D02*
Y00679493D01*
X00892780Y00649093D02*
X00902780D01*
X00897780Y00644093D02*
Y00654093D01*
X00831530Y00723525D02*
X00842430D01*
X00836980Y00718075D02*
Y00728975D01*
X00780730Y00723525D02*
X00791630D01*
X00786180Y00718075D02*
Y00728975D01*
X00831530Y00672725D02*
X00842430D01*
X00836980Y00667275D02*
Y00678175D01*
X00780730Y00672725D02*
X00791630D01*
X00786180Y00667275D02*
Y00678175D01*
X00806130Y00672725D02*
X00817030D01*
X00811580Y00667275D02*
Y00678175D01*
X00423680Y00337593D02*
X00433680D01*
X00428680Y00332593D02*
Y00342593D01*
X00423680Y00312193D02*
X00433680D01*
X00428680Y00307193D02*
Y00317193D01*
X00731680Y00338693D02*
X00741680D01*
X00736680Y00333693D02*
Y00343693D01*
X00706280Y00338693D02*
X00716280D01*
X00711280Y00333693D02*
Y00343693D01*
X00521258Y00598383D02*
X00531258D01*
X00526258Y00593383D02*
Y00603383D01*
X00539234Y00607151D02*
X00549234D01*
X00544234Y00602151D02*
Y00612151D01*
X00485306Y00580849D02*
X00495306D01*
X00490306Y00575849D02*
Y00585849D01*
X00431481Y00666344D02*
X00443481D01*
X00437481Y00660344D02*
Y00672344D01*
X00503282Y00589616D02*
X00513282D01*
X00508282Y00584616D02*
Y00594616D01*
X00521361Y00710181D02*
X00533360D01*
X00527360Y00704181D02*
Y00716181D01*
X00491880Y00665793D02*
X00494880D01*
X00493380Y00664293D02*
Y00667293D01*
X00557210Y00615918D02*
X00567210D01*
X00562210Y00610918D02*
Y00620918D01*
X00874580Y00767893D02*
X00899580D01*
X00887080Y00755393D02*
Y00780393D01*
X00874580Y00347893D02*
X00899580D01*
X00887080Y00335393D02*
Y00360393D01*
X00384580Y00287893D02*
X00409580D01*
X00397080Y00275393D02*
Y00300393D01*
X00384580Y00627893D02*
X00409580D01*
X00397080Y00615393D02*
Y00640393D01*
X00492974Y00654093D02*
X00500086D01*
X00496530Y00650537D02*
Y00657649D01*
X00689324Y00499893D02*
X00696436D01*
X00692880Y00496337D02*
Y00503449D01*
X00689324Y00517893D02*
X00696436D01*
X00692880Y00514337D02*
Y00521449D01*
X00671324Y00517893D02*
X00678436D01*
X00674880Y00514337D02*
Y00521449D01*
X00671324Y00499893D02*
X00678436D01*
X00674880Y00496337D02*
Y00503449D01*
X00550380Y00525993D02*
X00553380D01*
X00551880Y00524493D02*
Y00527493D01*
X00563780Y00518993D02*
X00566780D01*
X00565280Y00517492D02*
Y00520493D01*
X00479648Y00486948D02*
X00482648D01*
X00481148Y00485448D02*
Y00488448D01*
X00513387Y00411193D02*
X00516387D01*
X00514887Y00409693D02*
Y00412693D01*
X00414948Y00398529D02*
X00417948D01*
X00416448Y00397029D02*
Y00400029D01*
X00386380Y00358429D02*
X00389380D01*
X00387880Y00356929D02*
Y00359929D01*
X00632330Y00312493D02*
X00635330D01*
X00633830Y00310993D02*
Y00313993D01*
X00800680Y00640893D02*
X00803680D01*
X00802180Y00639393D02*
Y00642393D01*
X00621644Y00552354D02*
X00624644D01*
X00623144Y00550854D02*
Y00553854D01*
X00769882Y00643725D02*
X00772882D01*
X00771382Y00642225D02*
Y00645225D01*
X00748380Y00592949D02*
X00751380D01*
X00749880Y00591449D02*
Y00594449D01*
X00799902Y00504093D02*
X00802902D01*
X00801402Y00502593D02*
Y00505593D01*
X00808880Y00464171D02*
X00811880D01*
X00810380Y00462671D02*
Y00465671D01*
X00809441Y00480906D02*
X00812441D01*
X00810941Y00479406D02*
Y00482406D01*
X00800158Y00438748D02*
X00803158D01*
X00801658Y00437248D02*
Y00440248D01*
X00854950Y00664391D02*
X00857950D01*
X00856450Y00662891D02*
Y00665891D01*
X00641420Y00550658D02*
X00644420D01*
X00642920Y00549157D02*
Y00552158D01*
X00429780Y00395493D02*
X00432780D01*
X00431280Y00393993D02*
Y00396993D01*
X00763014Y00322949D02*
X00766014D01*
X00764514Y00321449D02*
Y00324449D01*
X00780736Y00316393D02*
X00783736D01*
X00782236Y00314893D02*
Y00317893D01*
X00525564Y00556608D02*
X00528564D01*
X00527064Y00555108D02*
Y00558108D01*
X00512960Y00533293D02*
X00515960D01*
X00514460Y00531793D02*
Y00534793D01*
X00538682Y00357193D02*
X00541682D01*
X00540182Y00355693D02*
Y00358693D01*
X00526729Y00379971D02*
X00529729D01*
X00528229Y00378471D02*
Y00381471D01*
X00512407Y00378893D02*
X00515407D01*
X00513907Y00377393D02*
Y00380393D01*
X00399080Y00379098D02*
X00402080D01*
X00400580Y00377598D02*
Y00380598D01*
X00465158Y00353615D02*
X00468158D01*
X00466657Y00352115D02*
Y00355115D01*
X00477031Y00472644D02*
X00480031D01*
X00478531Y00471143D02*
Y00474143D01*
X00491380Y00507793D02*
X00494380D01*
X00492880Y00506293D02*
Y00509293D01*
X00463026Y00383493D02*
X00466026D01*
X00464526Y00381993D02*
Y00384993D01*
X00586680Y00637592D02*
X00589680D01*
X00588180Y00636092D02*
Y00639092D01*
X00491058Y00629506D02*
X00494058D01*
X00492558Y00628006D02*
Y00631006D01*
X00530580Y00526793D02*
X00533580D01*
X00532080Y00525293D02*
Y00528293D01*
X00548780Y00513693D02*
X00551780D01*
X00550280Y00512192D02*
Y00515192D01*
X00531180Y00508693D02*
X00534180D01*
X00532680Y00507193D02*
Y00510193D01*
X00600580Y00570893D02*
X00603580D01*
X00602080Y00569393D02*
Y00572393D01*
X00558480Y00460493D02*
X00561480D01*
X00559980Y00458993D02*
Y00461993D01*
X00519380Y00451300D02*
X00522380D01*
X00520880Y00449800D02*
Y00452800D01*
X00532680Y00430993D02*
X00535680D01*
X00534180Y00429493D02*
Y00432493D01*
X00513680Y00429693D02*
X00516680D01*
X00515180Y00428193D02*
Y00431193D01*
X00512680Y00393893D02*
X00515680D01*
X00514180Y00392393D02*
Y00395393D01*
X00459733Y00445443D02*
X00462733D01*
X00461233Y00443943D02*
Y00446943D01*
X00589980Y00353793D02*
X00592980D01*
X00591480Y00352293D02*
Y00355293D01*
X00540480Y00403293D02*
X00543480D01*
X00541980Y00401793D02*
Y00404793D01*
X00588802Y00482493D02*
X00591802D01*
X00590302Y00480993D02*
Y00483993D01*
X00702179Y00370293D02*
X00705179D01*
X00703679Y00368793D02*
Y00371793D01*
X00640053Y00491443D02*
X00643053D01*
X00641553Y00489943D02*
Y00492943D01*
X00642779Y00472593D02*
X00645779D01*
X00644279Y00471093D02*
Y00474093D01*
X00622980Y00469293D02*
X00625979D01*
X00624479Y00467793D02*
Y00470793D01*
X00675780Y00562048D02*
X00678780D01*
X00677280Y00560548D02*
Y00563548D01*
X00658380Y00475793D02*
X00661380D01*
X00659880Y00474293D02*
Y00477293D01*
X00577080Y00432415D02*
X00580080D01*
X00578580Y00430915D02*
Y00433915D01*
X00596505Y00586493D02*
X00599505D01*
X00598005Y00584993D02*
Y00587993D01*
X00580280Y00573012D02*
X00583280D01*
X00581780Y00571512D02*
Y00574512D01*
X00378780Y00512192D02*
X00381780D01*
X00380280Y00510692D02*
Y00513693D01*
X00386380Y00526693D02*
X00389380D01*
X00387880Y00525192D02*
Y00528192D01*
X00573480Y00244893D02*
X00576480D01*
X00574980Y00243393D02*
Y00246393D01*
X00632330Y00278593D02*
X00635330D01*
X00633830Y00277093D02*
Y00280093D01*
X00842380Y00529893D02*
X00845380D01*
X00843880Y00528393D02*
Y00531393D01*
X00728980Y00710393D02*
X00731980D01*
X00730480Y00708893D02*
Y00711893D01*
X00402080Y00524893D02*
X00405080D01*
X00403580Y00523393D02*
Y00526393D01*
X00483780Y00604393D02*
X00486780D01*
X00485280Y00602893D02*
Y00605893D01*
X00457130Y00610443D02*
X00460130D01*
X00458630Y00608943D02*
Y00611943D01*
X00445480Y00395593D02*
X00448480D01*
X00446980Y00394093D02*
Y00397093D01*
X00653180Y00571493D02*
X00656180D01*
X00654680Y00569993D02*
Y00572993D01*
X00650780Y00697893D02*
X00653780D01*
X00652280Y00696393D02*
Y00699393D01*
X00854980Y00563893D02*
X00857980D01*
X00856480Y00562393D02*
Y00565393D01*
X00855280Y00546493D02*
X00858280D01*
X00856780Y00544993D02*
Y00547993D01*
X00401227Y00452793D02*
X00404227D01*
X00402727Y00451293D02*
Y00454293D01*
X00472280Y00413893D02*
X00475280D01*
X00473780Y00412393D02*
Y00415393D01*
X00594480Y00453993D02*
X00597480D01*
X00595980Y00452493D02*
Y00455493D01*
X00672080Y00678993D02*
X00675080D01*
X00673580Y00677493D02*
Y00680493D01*
X00443480Y00521092D02*
X00446480D01*
X00444980Y00519593D02*
Y00522593D01*
X00638980Y00683093D02*
X00641980D01*
X00640480Y00681593D02*
Y00684593D01*
X00873524Y00565393D02*
X00880636D01*
X00877080Y00561837D02*
Y00568949D01*
X00873524Y00547893D02*
X00880636D01*
X00877080Y00544337D02*
Y00551449D01*
X00873524Y00530393D02*
X00880636D01*
X00877080Y00526837D02*
Y00533949D01*
X00621480Y00578793D02*
X00624480D01*
X00622980Y00577293D02*
Y00580293D01*
X00561880Y00389193D02*
X00564880D01*
X00563380Y00387693D02*
Y00390693D01*
X00600480Y00640593D02*
X00603480D01*
X00601980Y00639093D02*
Y00642093D01*
X00492626Y00688493D02*
X00495626D01*
X00494126Y00686993D02*
Y00689993D01*
X00599380Y00663593D02*
X00602380D01*
X00600880Y00662093D02*
Y00665093D01*
X00765780Y00712093D02*
X00768780D01*
X00767280Y00710593D02*
Y00713593D01*
X00413532Y00324293D02*
X00416532D01*
X00415032Y00322793D02*
Y00325793D01*
X00606080Y00743793D02*
X00609080D01*
X00607580Y00742293D02*
Y00745293D01*
X00402780Y00353093D02*
X00405780D01*
X00404280Y00351593D02*
Y00354593D01*
X00561566Y00411193D02*
X00564566D01*
X00563066Y00409693D02*
Y00412693D01*
X00404380Y00476393D02*
X00407380D01*
X00405880Y00474893D02*
Y00477893D01*
X00735280Y00607293D02*
X00738280D01*
X00736780Y00605793D02*
Y00608793D01*
X00496680Y00523293D02*
X00499680D01*
X00498180Y00521793D02*
Y00524793D01*
X00460680Y00507793D02*
X00463680D01*
X00462180Y00506293D02*
Y00509293D01*
X00616180Y00420693D02*
X00619180D01*
X00617680Y00419193D02*
Y00422193D01*
X00840780Y00328193D02*
X00843780D01*
X00842280Y00326693D02*
Y00329693D01*
X00826879Y00322193D02*
X00829879D01*
X00828379Y00320693D02*
Y00323693D01*
X00611580Y00458493D02*
X00614580D01*
X00613080Y00456993D02*
Y00459993D01*
X00423680Y00379393D02*
X00426680D01*
X00425180Y00377893D02*
Y00380893D01*
X00516330Y00632843D02*
X00519330D01*
X00517830Y00631343D02*
Y00634343D01*
X00575280Y00670393D02*
X00578280D01*
X00576780Y00668893D02*
Y00671893D01*
X00474480Y00523593D02*
X00477480D01*
X00475980Y00522093D02*
Y00525093D01*
X00459480Y00523893D02*
X00462480D01*
X00460980Y00522393D02*
Y00525392D01*
X00521180Y00578093D02*
X00524180D01*
X00522680Y00576593D02*
Y00579593D01*
X00792585Y00590388D02*
X00795585D01*
X00794085Y00588888D02*
Y00591888D01*
X00426880Y00593693D02*
X00429880D01*
X00428380Y00592193D02*
Y00595193D01*
X00427180Y00580093D02*
X00430180D01*
X00428680Y00578593D02*
Y00581593D01*
X00733880Y00636193D02*
X00736880D01*
X00735380Y00634693D02*
Y00637693D01*
X00683980Y00660993D02*
X00686980D01*
X00685480Y00659493D02*
Y00662493D01*
X00756179Y00555792D02*
X00759179D01*
X00757679Y00554292D02*
Y00557292D01*
X00742279Y00554292D02*
X00745279D01*
X00743779Y00552792D02*
Y00555792D01*
X00761380Y00525993D02*
X00764380D01*
X00762880Y00524493D02*
Y00527493D01*
X00758879Y00540692D02*
X00761879D01*
X00760379Y00539193D02*
Y00542192D01*
X00642480Y00423593D02*
X00645480D01*
X00643980Y00422093D02*
Y00425093D01*
X00647580Y00393893D02*
X00650580D01*
X00649080Y00392393D02*
Y00395393D01*
X00793453Y00613693D02*
X00796453D01*
X00794953Y00612193D02*
Y00615193D01*
X00561580Y00589193D02*
X00564580D01*
X00563080Y00587693D02*
Y00590693D01*
X00687030Y00322943D02*
X00690030D01*
X00688530Y00321443D02*
Y00324443D01*
X00704980Y00299893D02*
X00707980D01*
X00706480Y00298393D02*
Y00301393D01*
X00700480Y00325193D02*
X00703480D01*
X00701980Y00323693D02*
Y00326693D01*
X00724130Y00545798D02*
X00727130D01*
X00725630Y00544298D02*
Y00547298D01*
X00642880Y00534193D02*
X00645880D01*
X00644380Y00532693D02*
Y00535693D01*
X00717680Y00469818D02*
X00720680D01*
X00719180Y00468318D02*
Y00471318D01*
X00472280Y00579344D02*
X00475280D01*
X00473780Y00577844D02*
Y00580844D01*
X00675380Y00466593D02*
X00678380D01*
X00676880Y00465093D02*
Y00468093D01*
X00678980Y00448193D02*
X00681980D01*
X00680480Y00446693D02*
Y00449693D01*
X00511680Y00696493D02*
X00514680D01*
X00513180Y00694993D02*
Y00697993D01*
X00414180Y00428693D02*
X00417180D01*
X00415680Y00427193D02*
Y00430193D01*
X00848580Y00700693D02*
X00851580D01*
X00850080Y00699193D02*
Y00702193D01*
X00867280Y00628493D02*
X00870280D01*
X00868780Y00626993D02*
Y00629993D01*
X00501180Y00348093D02*
X00504180D01*
X00502680Y00346593D02*
Y00349593D01*
X00487780Y00378093D02*
X00490780D01*
X00489280Y00376593D02*
Y00379593D01*
X00398580Y00604893D02*
X00401580D01*
X00400080Y00603393D02*
Y00606393D01*
X00805580Y00363493D02*
X00808580D01*
X00807080Y00361993D02*
Y00364993D01*
X00441980Y00350793D02*
X00444980D01*
X00443480Y00349293D02*
Y00352293D01*
X00449880Y00379971D02*
X00452880D01*
X00451380Y00378471D02*
Y00381471D01*
X00615579Y00506992D02*
X00618579D01*
X00617080Y00505493D02*
Y00508493D01*
X00866580Y00504093D02*
X00869580D01*
X00868080Y00502593D02*
Y00505593D01*
M02*
