G04 Layer_Color=8388736*
%FSAX44Y44*%
%MOMM*%
G71*
G01*
G75*
%ADD36C,0.0100*%
%ADD64R,1.0320X0.6220*%
%ADD65R,0.8500X0.9000*%
%ADD66R,1.7000X5.2000*%
%ADD67R,3.5500X2.5000*%
%ADD68R,2.5000X3.5500*%
%ADD69R,0.9500X0.9500*%
%ADD70R,0.9500X0.9500*%
%ADD71P,1.2728X4X335.0*%
%ADD72R,0.9000X0.9000*%
G04:AMPARAMS|DCode=73|XSize=0.55mm|YSize=1.4mm|CornerRadius=0mm|HoleSize=0mm|Usage=FLASHONLY|Rotation=10.000|XOffset=0mm|YOffset=0mm|HoleType=Round|Shape=Rectangle|*
%AMROTATEDRECTD73*
4,1,4,-0.1493,-0.7371,-0.3924,0.6416,0.1493,0.7371,0.3924,-0.6416,-0.1493,-0.7371,0.0*
%
%ADD73ROTATEDRECTD73*%

%ADD74R,6.2000X13.4000*%
%ADD75R,0.9500X1.0000*%
%ADD76R,1.0000X0.9500*%
%ADD77R,2.2000X1.5000*%
%ADD78R,4.1000X4.1000*%
%ADD79R,1.0300X1.5500*%
%ADD80R,2.2600X1.1700*%
%ADD81R,7.0900X8.4300*%
%ADD82R,2.0100X1.3350*%
%ADD83C,1.6240*%
G04:AMPARAMS|DCode=84|XSize=1.25mm|YSize=1.9mm|CornerRadius=0mm|HoleSize=0mm|Usage=FLASHONLY|Rotation=10.000|XOffset=0mm|YOffset=0mm|HoleType=Round|Shape=Round|*
%AMOVALD84*
21,1,0.6500,1.2500,0.0000,0.0000,100.0*
1,1,1.2500,0.0564,-0.3201*
1,1,1.2500,-0.0564,0.3201*
%
%ADD84OVALD84*%

%ADD85C,0.1000*%
G04:AMPARAMS|DCode=86|XSize=1.55mm|YSize=2.1mm|CornerRadius=0mm|HoleSize=0mm|Usage=FLASHONLY|Rotation=10.000|XOffset=0mm|YOffset=0mm|HoleType=Round|Shape=Round|*
%AMOVALD86*
21,1,0.5500,1.5500,0.0000,0.0000,100.0*
1,1,1.5500,0.0478,-0.2708*
1,1,1.5500,-0.0478,0.2708*
%
%ADD86OVALD86*%

%ADD87C,1.5000*%
%ADD88P,0.1414X4X71.0*%
%ADD89C,1.3700*%
%ADD90C,1.1000*%
D36*
X00367080Y00277893D02*
X00410830Y00245893D01*
X00446080Y00229893D01*
X00478330Y00221893D01*
X00519080Y00216643D01*
X00556330Y00217643D01*
X00589080Y00224393D01*
X00603330Y00228643D01*
X00629830Y00239643D01*
X00650830Y00250143D01*
X00691580Y00272393D01*
X00702080Y00276893D01*
X00754330Y00296893D01*
X00804830Y00309393D01*
X00844830Y00315393D01*
X00879080Y00317643D01*
X00916830Y00317893D01*
X00917580Y00797643D01*
X00865080D02*
X00917580D01*
X00822830Y00795143D02*
X00865080Y00797643D01*
X00750580Y00786393D02*
X00822830Y00795143D01*
X00660830Y00768643D02*
X00750580Y00786393D01*
X00572580Y00741393D02*
X00660830Y00768643D01*
X00557080Y00735643D02*
X00572580Y00741393D01*
X00538830Y00728643D02*
X00557080Y00735643D01*
X00520830Y00721143D02*
X00538830Y00728643D01*
X00512330Y00717393D02*
X00520830Y00721143D01*
X00488580Y00706893D02*
X00512330Y00717393D01*
X00478580Y00701893D02*
X00488580Y00706893D01*
X00460080Y00692893D02*
X00478580Y00701893D01*
X00436830Y00680643D02*
X00460080Y00692893D01*
X00420330Y00671393D02*
X00436830Y00680643D01*
X00404330Y00662143D02*
X00420330Y00671393D01*
X00400080Y00659393D02*
X00404330Y00662143D01*
X00390330Y00653143D02*
X00400080Y00659393D01*
X00379080Y00644893D02*
X00390330Y00653143D01*
X00367080Y00634643D02*
X00379080Y00644893D01*
X00367080Y00277893D02*
Y00634643D01*
D64*
X00858330Y00613693D02*
D03*
Y00600893D02*
D03*
Y00588093D02*
D03*
X00836230D02*
D03*
Y00600893D02*
D03*
Y00613693D02*
D03*
X00412930Y00566193D02*
D03*
Y00578993D02*
D03*
Y00591793D02*
D03*
X00390830D02*
D03*
Y00578993D02*
D03*
Y00566193D02*
D03*
D65*
X00855330Y00566393D02*
D03*
X00898830D02*
D03*
X00855330Y00529393D02*
D03*
X00898830D02*
D03*
X00855330Y00547893D02*
D03*
X00898830Y00548393D02*
D03*
D66*
X00877080Y00547893D02*
D03*
D67*
X00661580Y00285593D02*
D03*
Y00330593D02*
D03*
D68*
X00827380Y00543593D02*
D03*
X00782380D02*
D03*
D69*
X00803230Y00600893D02*
D03*
X00818730D02*
D03*
X00803230Y00588093D02*
D03*
X00818730D02*
D03*
X00803230Y00613693D02*
D03*
X00818730D02*
D03*
D70*
X00849980Y00645443D02*
D03*
Y00629943D02*
D03*
D71*
X00597228Y00730871D02*
D03*
X00612733Y00736515D02*
D03*
D72*
X00388481Y00338693D02*
D03*
X00404981D02*
D03*
X00388997Y00320793D02*
D03*
X00405497D02*
D03*
D73*
X00708476Y00725507D02*
D03*
X00714877Y00726636D02*
D03*
X00721279Y00727764D02*
D03*
X00727680Y00728893D02*
D03*
X00734081Y00730022D02*
D03*
D74*
X00850977Y00449893D02*
D03*
X00762977D02*
D03*
D75*
X00819130Y00627793D02*
D03*
X00801630D02*
D03*
D76*
X00833480Y00646443D02*
D03*
Y00628943D02*
D03*
D77*
X00623680Y00431593D02*
D03*
X00714680D02*
D03*
X00623680Y00386593D02*
D03*
X00714680D02*
D03*
X00623680Y00530593D02*
D03*
X00714680D02*
D03*
X00623680Y00485593D02*
D03*
X00714680D02*
D03*
D78*
X00453080Y00442993D02*
D03*
D79*
X00375180Y00544893D02*
D03*
X00387880D02*
D03*
X00400580D02*
D03*
X00413280D02*
D03*
X00425980D02*
D03*
X00438680D02*
D03*
X00451380D02*
D03*
X00464080D02*
D03*
X00476780D02*
D03*
X00489480D02*
D03*
X00502180D02*
D03*
X00514880D02*
D03*
X00527580D02*
D03*
X00540280D02*
D03*
X00552980D02*
D03*
X00565680D02*
D03*
X00578380D02*
D03*
X00591080D02*
D03*
X00603780D02*
D03*
Y00368693D02*
D03*
X00591080D02*
D03*
X00578380D02*
D03*
X00565680D02*
D03*
X00552980D02*
D03*
X00540280D02*
D03*
X00527580D02*
D03*
X00514880D02*
D03*
X00502180D02*
D03*
X00489480D02*
D03*
X00476780D02*
D03*
X00464080D02*
D03*
X00451380D02*
D03*
X00438680D02*
D03*
X00425980D02*
D03*
X00413280D02*
D03*
X00400580D02*
D03*
X00387880D02*
D03*
X00375180D02*
D03*
D80*
X00614761Y00262093D02*
D03*
Y00279093D02*
D03*
Y00296093D02*
D03*
Y00313093D02*
D03*
Y00330093D02*
D03*
D81*
X00508011Y00296093D02*
D03*
D82*
X00482611Y00343918D02*
D03*
Y00248268D02*
D03*
D83*
X00662180Y00453593D02*
D03*
X00620080Y00622893D02*
D03*
X00645480D02*
D03*
X00670880D02*
D03*
X00696280D02*
D03*
X00721680D02*
D03*
X00747080D02*
D03*
X00721680Y00648293D02*
D03*
X00696280D02*
D03*
X00670880D02*
D03*
X00645480D02*
D03*
X00721680Y00597493D02*
D03*
X00696280D02*
D03*
X00670880D02*
D03*
X00645480D02*
D03*
X00457280Y00287093D02*
D03*
Y00312493D02*
D03*
Y00337893D02*
D03*
X00898080Y00617393D02*
D03*
Y00591993D02*
D03*
X00895880Y00422393D02*
D03*
Y00396993D02*
D03*
X00896380Y00478693D02*
D03*
Y00453293D02*
D03*
X00898580Y00728493D02*
D03*
Y00703093D02*
D03*
X00897780Y00674493D02*
D03*
Y00649093D02*
D03*
X00428680Y00337593D02*
D03*
Y00312193D02*
D03*
X00736680Y00338693D02*
D03*
X00711280D02*
D03*
X00887080Y00767893D02*
D03*
Y00347893D02*
D03*
X00397080Y00287893D02*
D03*
Y00627893D02*
D03*
D84*
X00676519Y00758458D02*
D03*
X00752841Y00771916D02*
D03*
D85*
X00743902Y00743431D02*
D03*
X00694662Y00734748D02*
D03*
X00493380Y00665793D02*
D03*
D86*
X00757963Y00734233D02*
D03*
X00684595Y00721296D02*
D03*
D87*
X00836980Y00723525D02*
D03*
X00786180D02*
D03*
X00836980Y00672725D02*
D03*
X00786180D02*
D03*
X00811580D02*
D03*
X00526258Y00598383D02*
D03*
X00544234Y00607151D02*
D03*
X00490306Y00580849D02*
D03*
X00508282Y00589616D02*
D03*
X00562210Y00615918D02*
D03*
D88*
X00437481Y00666344D02*
D03*
X00527360Y00710181D02*
D03*
D89*
X00496530Y00654093D02*
D03*
X00692880Y00499893D02*
D03*
Y00517893D02*
D03*
X00674880D02*
D03*
Y00499893D02*
D03*
X00877080Y00565393D02*
D03*
Y00547893D02*
D03*
Y00530393D02*
D03*
D90*
X00551880Y00525993D02*
D03*
X00565280Y00518993D02*
D03*
X00481148Y00486948D02*
D03*
X00514887Y00411193D02*
D03*
X00416448Y00398529D02*
D03*
X00387880Y00358429D02*
D03*
X00633830Y00312493D02*
D03*
X00802180Y00640893D02*
D03*
X00623144Y00552354D02*
D03*
X00771382Y00643725D02*
D03*
X00749880Y00592949D02*
D03*
X00801402Y00504093D02*
D03*
X00810380Y00464171D02*
D03*
X00810941Y00480906D02*
D03*
X00801658Y00438748D02*
D03*
X00856450Y00664391D02*
D03*
X00642920Y00550658D02*
D03*
X00431280Y00395493D02*
D03*
X00764514Y00322949D02*
D03*
X00782236Y00316393D02*
D03*
X00527064Y00556608D02*
D03*
X00514460Y00533293D02*
D03*
X00540182Y00357193D02*
D03*
X00528229Y00379971D02*
D03*
X00513907Y00378893D02*
D03*
X00400580Y00379098D02*
D03*
X00466657Y00353615D02*
D03*
X00478531Y00472644D02*
D03*
X00492880Y00507793D02*
D03*
X00464526Y00383493D02*
D03*
X00588180Y00637592D02*
D03*
X00492558Y00629506D02*
D03*
X00532080Y00526793D02*
D03*
X00550280Y00513693D02*
D03*
X00532680Y00508693D02*
D03*
X00602080Y00570893D02*
D03*
X00559980Y00460493D02*
D03*
X00520880Y00451300D02*
D03*
X00534180Y00430993D02*
D03*
X00515180Y00429693D02*
D03*
X00514180Y00393893D02*
D03*
X00461233Y00445443D02*
D03*
X00591480Y00353793D02*
D03*
X00541980Y00403293D02*
D03*
X00590302Y00482493D02*
D03*
X00703679Y00370293D02*
D03*
X00641553Y00491443D02*
D03*
X00644279Y00472593D02*
D03*
X00624479Y00469293D02*
D03*
X00677280Y00562048D02*
D03*
X00659880Y00475793D02*
D03*
X00578580Y00432415D02*
D03*
X00598005Y00586493D02*
D03*
X00581780Y00573012D02*
D03*
X00380280Y00512192D02*
D03*
X00387880Y00526693D02*
D03*
X00574980Y00244893D02*
D03*
X00633830Y00278593D02*
D03*
X00843880Y00529893D02*
D03*
X00730480Y00710393D02*
D03*
X00403580Y00524893D02*
D03*
X00485280Y00604393D02*
D03*
X00458630Y00610443D02*
D03*
X00446980Y00395593D02*
D03*
X00654680Y00571493D02*
D03*
X00652280Y00697893D02*
D03*
X00856480Y00563893D02*
D03*
X00856780Y00546493D02*
D03*
X00402727Y00452793D02*
D03*
X00473780Y00413893D02*
D03*
X00595980Y00453993D02*
D03*
X00673580Y00678993D02*
D03*
X00444980Y00521092D02*
D03*
X00640480Y00683093D02*
D03*
X00622980Y00578793D02*
D03*
X00563380Y00389193D02*
D03*
X00601980Y00640593D02*
D03*
X00494126Y00688493D02*
D03*
X00600880Y00663593D02*
D03*
X00767280Y00712093D02*
D03*
X00415032Y00324293D02*
D03*
X00607580Y00743793D02*
D03*
X00404280Y00353093D02*
D03*
X00563066Y00411193D02*
D03*
X00405880Y00476393D02*
D03*
X00736780Y00607293D02*
D03*
X00498180Y00523293D02*
D03*
X00462180Y00507793D02*
D03*
X00617680Y00420693D02*
D03*
X00842280Y00328193D02*
D03*
X00828379Y00322193D02*
D03*
X00613080Y00458493D02*
D03*
X00425180Y00379393D02*
D03*
X00517830Y00632843D02*
D03*
X00576780Y00670393D02*
D03*
X00475980Y00523593D02*
D03*
X00460980Y00523893D02*
D03*
X00522680Y00578093D02*
D03*
X00794085Y00590388D02*
D03*
X00428380Y00593693D02*
D03*
X00428680Y00580093D02*
D03*
X00735380Y00636193D02*
D03*
X00685480Y00660993D02*
D03*
X00757679Y00555792D02*
D03*
X00743779Y00554292D02*
D03*
X00762880Y00525993D02*
D03*
X00760379Y00540692D02*
D03*
X00643980Y00423593D02*
D03*
X00649080Y00393893D02*
D03*
X00794953Y00613693D02*
D03*
X00563080Y00589193D02*
D03*
X00688530Y00322943D02*
D03*
X00706480Y00299893D02*
D03*
X00701980Y00325193D02*
D03*
X00725630Y00545798D02*
D03*
X00644380Y00534193D02*
D03*
X00719180Y00469818D02*
D03*
X00473780Y00579344D02*
D03*
X00676880Y00466593D02*
D03*
X00680480Y00448193D02*
D03*
X00513180Y00696493D02*
D03*
X00415680Y00428693D02*
D03*
X00850080Y00700693D02*
D03*
X00868780Y00628493D02*
D03*
X00502680Y00348093D02*
D03*
X00489280Y00378093D02*
D03*
X00400080Y00604893D02*
D03*
X00807080Y00363493D02*
D03*
X00443480Y00350793D02*
D03*
X00451380Y00379971D02*
D03*
X00617080Y00506992D02*
D03*
X00868080Y00504093D02*
D03*
M02*
