G04 Layer_Color=32896*
%FSAX44Y44*%
%MOMM*%
G71*
G01*
G75*
%ADD29C,0.2000*%
%ADD35C,0.2540*%
%ADD36C,0.0100*%
%ADD59C,0.2500*%
%ADD60C,0.1000*%
%ADD61C,0.1270*%
%ADD63C,0.1500*%
D29*
X00537580Y00268293D02*
Y00340293D01*
X00600580Y00268293D02*
Y00340293D01*
X00537580D02*
X00552580D01*
X00537580Y00268293D02*
X00552580D01*
X00585580Y00340293D02*
X00600580D01*
X00585580Y00268293D02*
X00600580D01*
X00629280Y00298593D02*
Y00370593D01*
X00692280Y00298593D02*
Y00370593D01*
X00629280D02*
X00644280D01*
X00629280Y00298593D02*
X00644280D01*
X00677280Y00370593D02*
X00692280D01*
X00677280Y00298593D02*
X00692280D01*
X00689170Y00709642D02*
X00715759Y00714331D01*
X00691601Y00695855D02*
X00718191Y00700544D01*
X00544277Y00724981D02*
X00611935Y00749606D01*
X00565825Y00665780D02*
X00633483Y00690405D01*
X00611935Y00749606D02*
X00617066Y00735511D01*
X00544277Y00724981D02*
X00549408Y00710885D01*
X00628352Y00704501D02*
X00633483Y00690405D01*
X00560694Y00679875D02*
X00565825Y00665780D01*
X00848280Y00382293D02*
X00856280D01*
X00870280D02*
X00878280D01*
Y00392673D01*
X00848280Y00382293D02*
Y00392673D01*
X00577280Y00426193D02*
Y00437193D01*
X00568780D02*
X00577280D01*
X00546280Y00426193D02*
Y00437193D01*
X00554780D01*
X00613580Y00426193D02*
Y00437193D01*
X00605080D02*
X00613580D01*
X00582580Y00426193D02*
Y00437193D01*
X00591080D01*
X00373880Y00479693D02*
Y00490693D01*
Y00479693D02*
X00382380D01*
X00404880D02*
Y00490693D01*
X00396380Y00479693D02*
X00404880D01*
X00410180D02*
Y00490693D01*
Y00479693D02*
X00418680D01*
X00441180D02*
Y00490693D01*
X00432680Y00479693D02*
X00441180D01*
X00446480D02*
Y00490693D01*
Y00479693D02*
X00454980D01*
X00477480D02*
Y00490693D01*
X00468980Y00479693D02*
X00477480D01*
X00484580D02*
Y00490693D01*
Y00479693D02*
X00493080D01*
X00515580D02*
Y00490693D01*
X00507080Y00479693D02*
X00515580D01*
X00522680D02*
Y00490693D01*
Y00479693D02*
X00531180D01*
X00553680D02*
Y00490693D01*
X00545180Y00479693D02*
X00553680D01*
X00563080Y00479493D02*
Y00490493D01*
Y00479493D02*
X00571580D01*
X00594080D02*
Y00490493D01*
X00585580Y00479493D02*
X00594080D01*
X00838680Y00398843D02*
X00849680D01*
Y00407343D01*
X00838680Y00429843D02*
X00849680D01*
Y00421343D02*
Y00429843D01*
X00778480Y00366893D02*
X00788980D01*
Y00433893D01*
X00778480D02*
X00788980D01*
X00792780Y00337093D02*
Y00348093D01*
Y00337093D02*
X00801280D01*
X00823780D02*
Y00348093D01*
X00815280Y00337093D02*
X00823780D01*
X00515880Y00684993D02*
X00516880D01*
X00515880Y00677993D02*
X00516880D01*
X00396680Y00325793D02*
X00397680D01*
X00396680Y00318793D02*
X00397680D01*
X00416080Y00348893D02*
X00417080D01*
X00416080Y00355893D02*
X00417080D01*
X00485080Y00420993D02*
Y00421993D01*
X00492080Y00420993D02*
Y00421993D01*
X00498680Y00420993D02*
Y00421993D01*
X00505680Y00420993D02*
Y00421993D01*
X00633670Y00455793D02*
X00634670D01*
X00633670Y00448793D02*
X00634670D01*
X00435680Y00544993D02*
X00436680D01*
X00435680Y00551993D02*
X00436680D01*
X00559580Y00568293D02*
Y00569293D01*
X00566580Y00568293D02*
Y00569293D01*
X00386280Y00456993D02*
Y00457993D01*
X00379280Y00456993D02*
Y00457993D01*
X00693580Y00552593D02*
X00694580D01*
X00693580Y00545593D02*
X00694580D01*
X00416080Y00409693D02*
X00417080D01*
X00416080Y00416693D02*
X00417080D01*
X00432380Y00527993D02*
Y00528993D01*
X00425380Y00527993D02*
Y00528993D01*
X00422080Y00452893D02*
Y00453893D01*
X00415080Y00452893D02*
Y00453893D01*
X00455580Y00453693D02*
Y00454693D01*
X00448580Y00453693D02*
Y00454693D01*
X00495180Y00453693D02*
Y00454693D01*
X00488180Y00453693D02*
Y00454693D01*
X00537680Y00453693D02*
Y00454693D01*
X00530680Y00453693D02*
Y00454693D01*
X00578780Y00453493D02*
Y00454493D01*
X00571780Y00453493D02*
Y00454493D01*
X00837480Y00436093D02*
X00838480D01*
X00837480Y00443093D02*
X00838480D01*
X00778780Y00344093D02*
Y00345093D01*
X00771780Y00344093D02*
Y00345093D01*
X00870780Y00650993D02*
X00871780D01*
X00870780Y00643993D02*
X00871780D01*
X00871180Y00704193D02*
X00872180D01*
X00871180Y00697193D02*
X00872180D01*
X00479530Y00671093D02*
X00484780D01*
X00479530Y00637093D02*
X00484780D01*
X00508280D02*
X00513530D01*
Y00669593D02*
Y00671093D01*
X00508280D02*
X00513530D01*
Y00637093D02*
Y00638593D01*
X00479530Y00637093D02*
Y00638593D01*
Y00669593D02*
Y00671093D01*
X00656880Y00481893D02*
Y00486143D01*
Y00481893D02*
X00661130D01*
X00656880Y00531643D02*
Y00535893D01*
X00661130D01*
X00706630D02*
X00710880D01*
Y00531643D02*
Y00535893D01*
Y00481893D02*
Y00486143D01*
X00706630Y00481893D02*
X00710880D01*
X00866880Y00496893D02*
X00877880D01*
X00863380Y00466643D02*
Y00496143D01*
X00842380Y00466643D02*
X00863380D01*
X00842380D02*
Y00496143D01*
X00863380D01*
D35*
X00899423Y00758889D02*
X00901963Y00761428D01*
X00907041D01*
X00909580Y00758889D01*
Y00756350D01*
X00907041Y00753811D01*
X00901963D01*
X00899423Y00751271D01*
Y00748732D01*
X00901963Y00746193D01*
X00907041D01*
X00909580Y00748732D01*
X00894345Y00746193D02*
X00889267D01*
X00891806D01*
Y00756350D01*
X00894345D01*
X00881649Y00746193D02*
Y00756350D01*
X00879110D01*
X00876571Y00753811D01*
Y00746193D01*
Y00753811D01*
X00874032Y00756350D01*
X00871492Y00753811D01*
Y00746193D01*
X00863875D02*
X00858796D01*
X00856257Y00748732D01*
Y00753811D01*
X00858796Y00756350D01*
X00863875D01*
X00866414Y00753811D01*
Y00748732D01*
X00863875Y00746193D01*
X00851179D02*
Y00756350D01*
X00843561D01*
X00841022Y00753811D01*
Y00746193D01*
X00828326D02*
X00833405D01*
X00835944Y00748732D01*
Y00753811D01*
X00833405Y00756350D01*
X00828326D01*
X00825787Y00753811D01*
Y00751271D01*
X00835944D01*
X00810552Y00758889D02*
X00813091Y00761428D01*
X00818170D01*
X00820709Y00758889D01*
Y00756350D01*
X00818170Y00753811D01*
X00813091D01*
X00810552Y00751271D01*
Y00748732D01*
X00813091Y00746193D01*
X00818170D01*
X00820709Y00748732D01*
X00802934Y00756350D02*
X00797856D01*
X00795317Y00753811D01*
Y00746193D01*
X00802934D01*
X00805474Y00748732D01*
X00802934Y00751271D01*
X00795317D01*
X00790239Y00746193D02*
Y00756350D01*
X00782621D01*
X00780082Y00753811D01*
Y00746193D01*
X00775004D02*
X00767386D01*
X00764847Y00748732D01*
X00767386Y00751271D01*
X00772464D01*
X00775004Y00753811D01*
X00772464Y00756350D01*
X00764847D01*
X00757229Y00746193D02*
X00752151D01*
X00749612Y00748732D01*
Y00753811D01*
X00752151Y00756350D01*
X00757229D01*
X00759769Y00753811D01*
Y00748732D01*
X00757229Y00746193D01*
X00863080Y00767393D02*
X00858002D01*
X00860541D01*
Y00782628D01*
X00863080Y00780089D01*
X00850384Y00767393D02*
X00845306D01*
X00847845D01*
Y00782628D01*
X00850384Y00780089D01*
X00837688Y00767393D02*
Y00769932D01*
X00835149D01*
Y00767393D01*
X00837688D01*
X00824992D02*
X00819914D01*
X00822453D01*
Y00782628D01*
X00824992Y00780089D01*
X00812297D02*
X00809757Y00782628D01*
X00804679D01*
X00802140Y00780089D01*
Y00777550D01*
X00804679Y00775011D01*
X00802140Y00772471D01*
Y00769932D01*
X00804679Y00767393D01*
X00809757D01*
X00812297Y00769932D01*
Y00772471D01*
X00809757Y00775011D01*
X00812297Y00777550D01*
Y00780089D01*
X00809757Y00775011D02*
X00804679D01*
D36*
X00367080Y00277893D02*
X00410830Y00245893D01*
X00446080Y00229893D01*
X00478330Y00221893D01*
X00519080Y00216643D01*
X00556330Y00217643D01*
X00589080Y00224393D01*
X00603330Y00228643D01*
X00629830Y00239643D01*
X00650830Y00250143D01*
X00691580Y00272393D01*
X00702080Y00276893D01*
X00754330Y00296893D01*
X00804830Y00309393D01*
X00844830Y00315393D01*
X00879080Y00317643D01*
X00916830Y00317893D01*
X00917580Y00797643D01*
X00865080D02*
X00917580D01*
X00822830Y00795143D02*
X00865080Y00797643D01*
X00750580Y00786393D02*
X00822830Y00795143D01*
X00660830Y00768643D02*
X00750580Y00786393D01*
X00572580Y00741393D02*
X00660830Y00768643D01*
X00557080Y00735643D02*
X00572580Y00741393D01*
X00538830Y00728643D02*
X00557080Y00735643D01*
X00520830Y00721143D02*
X00538830Y00728643D01*
X00512330Y00717393D02*
X00520830Y00721143D01*
X00488580Y00706893D02*
X00512330Y00717393D01*
X00478580Y00701893D02*
X00488580Y00706893D01*
X00460080Y00692893D02*
X00478580Y00701893D01*
X00436830Y00680643D02*
X00460080Y00692893D01*
X00420330Y00671393D02*
X00436830Y00680643D01*
X00404330Y00662143D02*
X00420330Y00671393D01*
X00400080Y00659393D02*
X00404330Y00662143D01*
X00390330Y00653143D02*
X00400080Y00659393D01*
X00379080Y00644893D02*
X00390330Y00653143D01*
X00367080Y00634643D02*
X00379080Y00644893D01*
X00367080Y00277893D02*
Y00634643D01*
D59*
X00911930Y00569193D02*
G03*
X00911930Y00569193I-00001250J00000000D01*
G01*
X00552330Y00353293D02*
G03*
X00552330Y00353293I-00001250J00000000D01*
G01*
X00644030Y00383593D02*
G03*
X00644030Y00383593I-00001250J00000000D01*
G01*
X00630019Y00741367D02*
G03*
X00630019Y00741367I-00001250J00000000D01*
G01*
X00846530Y00399293D02*
G03*
X00846530Y00399293I-00001250J00000000D01*
G01*
X00572430Y00412693D02*
G03*
X00572430Y00412693I-00001250J00000000D01*
G01*
X00608730D02*
G03*
X00608730Y00412693I-00001250J00000000D01*
G01*
X00381230Y00504193D02*
G03*
X00381230Y00504193I-00001250J00000000D01*
G01*
X00417530D02*
G03*
X00417530Y00504193I-00001250J00000000D01*
G01*
X00453830D02*
G03*
X00453830Y00504193I-00001250J00000000D01*
G01*
X00491930D02*
G03*
X00491930Y00504193I-00001250J00000000D01*
G01*
X00530030D02*
G03*
X00530030Y00504193I-00001250J00000000D01*
G01*
X00570430Y00503993D02*
G03*
X00570430Y00503993I-00001250J00000000D01*
G01*
X00826430Y00404943D02*
G03*
X00826430Y00404943I-00001250J00000000D01*
G01*
X00808730Y00433543D02*
G03*
X00808730Y00433543I-00001250J00000000D01*
G01*
X00800130Y00361593D02*
G03*
X00800130Y00361593I-00001250J00000000D01*
G01*
X00710630Y00475393D02*
G03*
X00710630Y00475393I-00001250J00000000D01*
G01*
D60*
X00687915Y00695117D02*
G03*
X00687915Y00695117I-00000500J00000000D01*
G01*
X00518030Y00671093D02*
G03*
X00518030Y00671093I-00000500J00000000D01*
G01*
X00575280Y00536493D02*
G03*
X00575280Y00536493I-00000500J00000000D01*
G01*
X00904780Y00520993D02*
Y00575493D01*
X00850080Y00520993D02*
X00904780D01*
X00850080D02*
Y00575493D01*
X00904780D01*
D61*
X00674980Y00441693D02*
Y00465393D01*
X00649780Y00441693D02*
X00674980D01*
X00649780D02*
Y00465393D01*
X00674980D01*
D63*
X00489083Y00614896D02*
X00487084Y00616895D01*
Y00620894D01*
X00489083Y00622893D01*
X00497081D01*
X00499080Y00620894D01*
Y00616895D01*
X00497081Y00614896D01*
X00499080Y00610897D02*
Y00606898D01*
Y00608898D01*
X00487084D01*
X00489083Y00610897D01*
X00639583Y00408526D02*
X00641582Y00410525D01*
X00645581D01*
X00647580Y00408526D01*
Y00400528D01*
X00645581Y00398529D01*
X00641582D01*
X00639583Y00400528D01*
X00627587Y00398529D02*
X00635584D01*
X00627587Y00406526D01*
Y00408526D01*
X00629586Y00410525D01*
X00633585D01*
X00635584Y00408526D01*
X00527683Y00622996D02*
X00525684Y00624995D01*
Y00628994D01*
X00527683Y00630993D01*
X00535681D01*
X00537680Y00628994D01*
Y00624995D01*
X00535681Y00622996D01*
X00527683Y00618997D02*
X00525684Y00616997D01*
Y00612999D01*
X00527683Y00610999D01*
X00529683D01*
X00531682Y00612999D01*
Y00614998D01*
Y00612999D01*
X00533681Y00610999D01*
X00535681D01*
X00537680Y00612999D01*
Y00616997D01*
X00535681Y00618997D01*
X00424683Y00568390D02*
X00426682Y00570389D01*
X00430681D01*
X00432680Y00568390D01*
Y00560392D01*
X00430681Y00558393D01*
X00426682D01*
X00424683Y00560392D01*
X00414686Y00558393D02*
Y00570389D01*
X00420684Y00564391D01*
X00412687D01*
X00424383Y00584890D02*
X00426382Y00586889D01*
X00430381D01*
X00432380Y00584890D01*
Y00576892D01*
X00430381Y00574893D01*
X00426382D01*
X00424383Y00576892D01*
X00420384Y00586889D02*
X00412387D01*
Y00584890D01*
X00420384Y00576892D01*
Y00574893D01*
X00425083Y00601390D02*
X00427082Y00603389D01*
X00431081D01*
X00433080Y00601390D01*
Y00593392D01*
X00431081Y00591393D01*
X00427082D01*
X00425083Y00593392D01*
X00421084Y00601390D02*
X00419085Y00603389D01*
X00415086D01*
X00413087Y00601390D01*
Y00599390D01*
X00415086Y00597391D01*
X00413087Y00595392D01*
Y00593392D01*
X00415086Y00591393D01*
X00419085D01*
X00421084Y00593392D01*
Y00595392D01*
X00419085Y00597391D01*
X00421084Y00599390D01*
Y00601390D01*
X00419085Y00597391D02*
X00415086D01*
X00383883Y00403390D02*
X00385882Y00405389D01*
X00389881D01*
X00391880Y00403390D01*
Y00395392D01*
X00389881Y00393393D01*
X00385882D01*
X00383883Y00395392D01*
X00379884D02*
X00377884Y00393393D01*
X00373886D01*
X00371886Y00395392D01*
Y00403390D01*
X00373886Y00405389D01*
X00377884D01*
X00379884Y00403390D01*
Y00401390D01*
X00377884Y00399391D01*
X00371886D01*
X00771583Y00502390D02*
X00773582Y00504389D01*
X00777581D01*
X00779580Y00502390D01*
Y00494392D01*
X00777581Y00492393D01*
X00773582D01*
X00771583Y00494392D01*
X00767584Y00492393D02*
X00763585D01*
X00765584D01*
Y00504389D01*
X00767584Y00502390D01*
X00757587D02*
X00755588Y00504389D01*
X00751589D01*
X00749590Y00502390D01*
Y00500390D01*
X00751589Y00498391D01*
X00753588D01*
X00751589D01*
X00749590Y00496392D01*
Y00494392D01*
X00751589Y00492393D01*
X00755588D01*
X00757587Y00494392D01*
X00771583Y00533290D02*
X00773582Y00535289D01*
X00777581D01*
X00779580Y00533290D01*
Y00525292D01*
X00777581Y00523293D01*
X00773582D01*
X00771583Y00525292D01*
X00767584Y00523293D02*
X00763585D01*
X00765584D01*
Y00535289D01*
X00767584Y00533290D01*
X00751589Y00523293D02*
Y00535289D01*
X00757587Y00529291D01*
X00749590D01*
X00643523Y00526545D02*
X00645522Y00528544D01*
X00649521D01*
X00651520Y00526545D01*
Y00518548D01*
X00649521Y00516548D01*
X00645522D01*
X00643523Y00518548D01*
X00639524Y00516548D02*
X00635525D01*
X00637524D01*
Y00528544D01*
X00639524Y00526545D01*
X00621530Y00528544D02*
X00629527D01*
Y00522546D01*
X00625528Y00524546D01*
X00623529D01*
X00621530Y00522546D01*
Y00518548D01*
X00623529Y00516548D01*
X00627528D01*
X00629527Y00518548D01*
X00644783Y00509990D02*
X00646782Y00511989D01*
X00650781D01*
X00652780Y00509990D01*
Y00501992D01*
X00650781Y00499993D01*
X00646782D01*
X00644783Y00501992D01*
X00640784Y00499993D02*
X00636785D01*
X00638784D01*
Y00511989D01*
X00640784Y00509990D01*
X00622790Y00511989D02*
X00626788Y00509990D01*
X00630787Y00505991D01*
Y00501992D01*
X00628788Y00499993D01*
X00624789D01*
X00622790Y00501992D01*
Y00503992D01*
X00624789Y00505991D01*
X00630787D01*
X00771583Y00517790D02*
X00773582Y00519789D01*
X00777581D01*
X00779580Y00517790D01*
Y00509792D01*
X00777581Y00507793D01*
X00773582D01*
X00771583Y00509792D01*
X00767584Y00507793D02*
X00763585D01*
X00765584D01*
Y00519789D01*
X00767584Y00517790D01*
X00757587Y00519789D02*
X00749590D01*
Y00517790D01*
X00757587Y00509792D01*
Y00507793D01*
X00771583Y00486389D02*
X00773582Y00488389D01*
X00777581D01*
X00779580Y00486389D01*
Y00478392D01*
X00777581Y00476393D01*
X00773582D01*
X00771583Y00478392D01*
X00767584Y00476393D02*
X00763585D01*
X00765584D01*
Y00488389D01*
X00767584Y00486389D01*
X00757587D02*
X00755588Y00488389D01*
X00751589D01*
X00749590Y00486389D01*
Y00484390D01*
X00751589Y00482391D01*
X00749590Y00480391D01*
Y00478392D01*
X00751589Y00476393D01*
X00755588D01*
X00757587Y00478392D01*
Y00480391D01*
X00755588Y00482391D01*
X00757587Y00484390D01*
Y00486389D01*
X00755588Y00482391D02*
X00751589D01*
X00396283Y00369590D02*
X00398282Y00371589D01*
X00402281D01*
X00404280Y00369590D01*
Y00361592D01*
X00402281Y00359593D01*
X00398282D01*
X00396283Y00361592D01*
X00384286Y00359593D02*
X00392284D01*
X00384286Y00367590D01*
Y00369590D01*
X00386286Y00371589D01*
X00390285D01*
X00392284Y00369590D01*
X00380288D02*
X00378288Y00371589D01*
X00374290D01*
X00372290Y00369590D01*
Y00361592D01*
X00374290Y00359593D01*
X00378288D01*
X00380288Y00361592D01*
Y00369590D01*
X00372383Y00319396D02*
X00370384Y00321395D01*
Y00325394D01*
X00372383Y00327393D01*
X00380381D01*
X00382380Y00325394D01*
Y00321395D01*
X00380381Y00319396D01*
X00382380Y00307400D02*
Y00315397D01*
X00374383Y00307400D01*
X00372383D01*
X00370384Y00309399D01*
Y00313398D01*
X00372383Y00315397D01*
X00382380Y00303401D02*
Y00299402D01*
Y00301401D01*
X00370384D01*
X00372383Y00303401D01*
X00745883Y00466090D02*
X00747882Y00468089D01*
X00751881D01*
X00753880Y00466090D01*
Y00458092D01*
X00751881Y00456093D01*
X00747882D01*
X00745883Y00458092D01*
X00733886Y00456093D02*
X00741884D01*
X00733886Y00464090D01*
Y00466090D01*
X00735886Y00468089D01*
X00739884D01*
X00741884Y00466090D01*
X00721890Y00456093D02*
X00729888D01*
X00721890Y00464090D01*
Y00466090D01*
X00723890Y00468089D01*
X00727888D01*
X00729888Y00466090D01*
X00745183Y00451690D02*
X00747182Y00453689D01*
X00751181D01*
X00753180Y00451690D01*
Y00443692D01*
X00751181Y00441693D01*
X00747182D01*
X00745183Y00443692D01*
X00733186Y00441693D02*
X00741184D01*
X00733186Y00449690D01*
Y00451690D01*
X00735186Y00453689D01*
X00739184D01*
X00741184Y00451690D01*
X00729188D02*
X00727188Y00453689D01*
X00723190D01*
X00721190Y00451690D01*
Y00449690D01*
X00723190Y00447691D01*
X00725189D01*
X00723190D01*
X00721190Y00445692D01*
Y00443692D01*
X00723190Y00441693D01*
X00727188D01*
X00729188Y00443692D01*
X00669283Y00566604D02*
X00671282Y00568604D01*
X00675281D01*
X00677280Y00566604D01*
Y00558607D01*
X00675281Y00556608D01*
X00671282D01*
X00669283Y00558607D01*
X00657287Y00556608D02*
X00665284D01*
X00657287Y00564605D01*
Y00566604D01*
X00659286Y00568604D01*
X00663285D01*
X00665284Y00566604D01*
X00647290Y00556608D02*
Y00568604D01*
X00653288Y00562606D01*
X00645290D01*
X00383483Y00546295D02*
X00381484Y00548294D01*
Y00552293D01*
X00383483Y00554292D01*
X00391481D01*
X00393480Y00552293D01*
Y00548294D01*
X00391481Y00546295D01*
X00393480Y00534299D02*
Y00542296D01*
X00385483Y00534299D01*
X00383483D01*
X00381484Y00536298D01*
Y00540297D01*
X00383483Y00542296D01*
X00381484Y00522303D02*
X00383483Y00526301D01*
X00387482Y00530300D01*
X00391481D01*
X00393480Y00528301D01*
Y00524302D01*
X00391481Y00522303D01*
X00389481D01*
X00387482Y00524302D01*
Y00530300D01*
X00582280Y00372389D02*
Y00360393D01*
X00576282D01*
X00574283Y00362392D01*
Y00370390D01*
X00576282Y00372389D01*
X00582280D01*
X00570284Y00370390D02*
X00568284Y00372389D01*
X00564286D01*
X00562286Y00370390D01*
Y00368390D01*
X00564286Y00366391D01*
X00566285D01*
X00564286D01*
X00562286Y00364392D01*
Y00362392D01*
X00564286Y00360393D01*
X00568284D01*
X00570284Y00362392D01*
X00697080Y00384989D02*
Y00372993D01*
X00691082D01*
X00689083Y00374992D01*
Y00382990D01*
X00691082Y00384989D01*
X00697080D01*
X00677086D02*
X00685084D01*
Y00378991D01*
X00681085Y00380990D01*
X00679086D01*
X00677086Y00378991D01*
Y00374992D01*
X00679086Y00372993D01*
X00683084D01*
X00685084Y00374992D01*
X00714797Y00695607D02*
X00716880Y00683793D01*
X00710973Y00682751D01*
X00708657Y00684373D01*
X00707268Y00692249D01*
X00708890Y00694565D01*
X00714797Y00695607D01*
X00695107Y00692135D02*
X00699392Y00690860D01*
X00704025Y00687617D01*
X00704719Y00683679D01*
X00703097Y00681363D01*
X00699159Y00680668D01*
X00696843Y00682290D01*
X00696496Y00684259D01*
X00698118Y00686575D01*
X00704025Y00687617D01*
X00648772Y00752424D02*
X00652080Y00740893D01*
X00646314Y00739239D01*
X00643841Y00740610D01*
X00641636Y00748297D01*
X00643007Y00750770D01*
X00648772Y00752424D01*
X00637241Y00749116D02*
X00629554Y00746911D01*
X00630105Y00744989D01*
X00639998Y00739507D01*
X00640549Y00737585D01*
X00881880Y00591340D02*
Y00579344D01*
X00875882D01*
X00873883Y00581344D01*
Y00589341D01*
X00875882Y00591340D01*
X00881880D01*
X00869884Y00589341D02*
X00867885Y00591340D01*
X00863886D01*
X00861887Y00589341D01*
Y00587342D01*
X00863886Y00585342D01*
X00861887Y00583343D01*
Y00581344D01*
X00863886Y00579344D01*
X00867885D01*
X00869884Y00581344D01*
Y00583343D01*
X00867885Y00585342D01*
X00869884Y00587342D01*
Y00589341D01*
X00867885Y00585342D02*
X00863886D01*
X00877080Y00372389D02*
Y00360393D01*
X00871082D01*
X00869083Y00362392D01*
Y00370390D01*
X00871082Y00372389D01*
X00877080D01*
X00865084Y00360393D02*
X00861085D01*
X00863084D01*
Y00372389D01*
X00865084Y00370390D01*
X00855087D02*
X00853088Y00372389D01*
X00849089D01*
X00847090Y00370390D01*
Y00362392D01*
X00849089Y00360393D01*
X00853088D01*
X00855087Y00362392D01*
Y00370390D01*
X00686683Y00472889D02*
X00690681D01*
X00688682D01*
Y00462892D01*
X00690681Y00460893D01*
X00692681D01*
X00694680Y00462892D01*
X00682684Y00472889D02*
X00674687D01*
Y00470890D01*
X00682684Y00462892D01*
Y00460893D01*
X00561183Y00401992D02*
Y00409990D01*
X00563182Y00411989D01*
X00567181D01*
X00569180Y00409990D01*
Y00401992D01*
X00567181Y00399993D01*
X00563182D01*
X00565181Y00403992D02*
X00561183Y00399993D01*
X00563182D02*
X00561183Y00401992D01*
X00557184Y00399993D02*
X00553185D01*
X00555185D01*
Y00411989D01*
X00557184Y00409990D01*
X00599583Y00401992D02*
Y00409990D01*
X00601582Y00411989D01*
X00605581D01*
X00607580Y00409990D01*
Y00401992D01*
X00605581Y00399993D01*
X00601582D01*
X00603581Y00403992D02*
X00599583Y00399993D01*
X00601582D02*
X00599583Y00401992D01*
X00587587Y00399993D02*
X00595584D01*
X00587587Y00407990D01*
Y00409990D01*
X00589586Y00411989D01*
X00593585D01*
X00595584Y00409990D01*
X00397882Y00504292D02*
Y00512290D01*
X00399882Y00514289D01*
X00403881D01*
X00405880Y00512290D01*
Y00504292D01*
X00403881Y00502293D01*
X00399882D01*
X00401881Y00506292D02*
X00397882Y00502293D01*
X00399882D02*
X00397882Y00504292D01*
X00393884Y00512290D02*
X00391884Y00514289D01*
X00387886D01*
X00385886Y00512290D01*
Y00510290D01*
X00387886Y00508291D01*
X00389885D01*
X00387886D01*
X00385886Y00506292D01*
Y00504292D01*
X00387886Y00502293D01*
X00391884D01*
X00393884Y00504292D01*
X00429484D02*
Y00512290D01*
X00431483Y00514289D01*
X00435482D01*
X00437481Y00512290D01*
Y00504292D01*
X00435482Y00502293D01*
X00431483D01*
X00433482Y00506292D02*
X00429484Y00502293D01*
X00431483D02*
X00429484Y00504292D01*
X00419487Y00502293D02*
Y00514289D01*
X00425485Y00508291D01*
X00417487D01*
X00470534Y00504292D02*
Y00512290D01*
X00472533Y00514289D01*
X00476532D01*
X00478531Y00512290D01*
Y00504292D01*
X00476532Y00502293D01*
X00472533D01*
X00474532Y00506292D02*
X00470534Y00502293D01*
X00472533D02*
X00470534Y00504292D01*
X00458537Y00514289D02*
X00466535D01*
Y00508291D01*
X00462536Y00510290D01*
X00460537D01*
X00458537Y00508291D01*
Y00504292D01*
X00460537Y00502293D01*
X00464536D01*
X00466535Y00504292D01*
X00506890Y00505992D02*
Y00513990D01*
X00508889Y00515989D01*
X00512888D01*
X00514887Y00513990D01*
Y00505992D01*
X00512888Y00503993D01*
X00508889D01*
X00510888Y00507992D02*
X00506890Y00503993D01*
X00508889D02*
X00506890Y00505992D01*
X00494893Y00515989D02*
X00498892Y00513990D01*
X00502891Y00509991D01*
Y00505992D01*
X00500891Y00503993D01*
X00496893D01*
X00494893Y00505992D01*
Y00507992D01*
X00496893Y00509991D01*
X00502891D01*
X00546783Y00505692D02*
Y00513690D01*
X00548782Y00515689D01*
X00552781D01*
X00554780Y00513690D01*
Y00505692D01*
X00552781Y00503693D01*
X00548782D01*
X00550781Y00507692D02*
X00546783Y00503693D01*
X00548782D02*
X00546783Y00505692D01*
X00542784Y00515689D02*
X00534786D01*
Y00513690D01*
X00542784Y00505692D01*
Y00503693D01*
X00609683Y00481692D02*
Y00489690D01*
X00611682Y00491689D01*
X00615681D01*
X00617680Y00489690D01*
Y00481692D01*
X00615681Y00479693D01*
X00611682D01*
X00613681Y00483692D02*
X00609683Y00479693D01*
X00611682D02*
X00609683Y00481692D01*
X00605684Y00489690D02*
X00603685Y00491689D01*
X00599686D01*
X00597687Y00489690D01*
Y00487690D01*
X00599686Y00485691D01*
X00597687Y00483692D01*
Y00481692D01*
X00599686Y00479693D01*
X00603685D01*
X00605684Y00481692D01*
Y00483692D01*
X00603685Y00485691D01*
X00605684Y00487690D01*
Y00489690D01*
X00603685Y00485691D02*
X00599686D01*
X00868280Y00415596D02*
X00860283D01*
X00858284Y00417595D01*
Y00421594D01*
X00860283Y00423593D01*
X00868280D01*
X00870280Y00421594D01*
Y00417595D01*
X00866281Y00419594D02*
X00870280Y00415596D01*
Y00417595D02*
X00868280Y00415596D01*
Y00411597D02*
X00870280Y00409598D01*
Y00405599D01*
X00868280Y00403599D01*
X00860283D01*
X00858284Y00405599D01*
Y00409598D01*
X00860283Y00411597D01*
X00862282D01*
X00864282Y00409598D01*
Y00403599D01*
X00810581Y00408496D02*
X00802583D01*
X00800584Y00410495D01*
Y00414494D01*
X00802583Y00416493D01*
X00810581D01*
X00812580Y00414494D01*
Y00410495D01*
X00808581Y00412494D02*
X00812580Y00408496D01*
Y00410495D02*
X00810581Y00408496D01*
X00812580Y00404497D02*
Y00400498D01*
Y00402497D01*
X00800584D01*
X00802583Y00404497D01*
Y00394500D02*
X00800584Y00392501D01*
Y00388502D01*
X00802583Y00386503D01*
X00810581D01*
X00812580Y00388502D01*
Y00392501D01*
X00810581Y00394500D01*
X00802583D01*
X00811183Y00318392D02*
Y00326390D01*
X00813182Y00328389D01*
X00817181D01*
X00819180Y00326390D01*
Y00318392D01*
X00817181Y00316393D01*
X00813182D01*
X00815181Y00320392D02*
X00811183Y00316393D01*
X00813182D02*
X00811183Y00318392D01*
X00807184Y00316393D02*
X00803185D01*
X00805184D01*
Y00328389D01*
X00807184Y00326390D01*
X00797187Y00316393D02*
X00793188D01*
X00795188D01*
Y00328389D01*
X00797187Y00326390D01*
X00535380Y00688493D02*
X00535363Y00700489D01*
X00529365Y00700480D01*
X00527368Y00698478D01*
X00527374Y00694480D01*
X00529376Y00692483D01*
X00535374Y00692492D01*
X00531376Y00692486D02*
X00527383Y00688482D01*
X00523384Y00688476D02*
X00519385Y00688470D01*
X00521385Y00688473D01*
X00521367Y00700469D01*
X00523370Y00698473D01*
X00437481Y00316393D02*
Y00328389D01*
X00431483D01*
X00429484Y00326390D01*
Y00322391D01*
X00431483Y00320392D01*
X00437481D01*
X00433482D02*
X00429484Y00316393D01*
X00417487D02*
X00425485D01*
X00417487Y00324390D01*
Y00326390D01*
X00419487Y00328389D01*
X00423486D01*
X00425485Y00326390D01*
X00431280Y00359593D02*
Y00371589D01*
X00425282D01*
X00423283Y00369590D01*
Y00365591D01*
X00425282Y00363592D01*
X00431280D01*
X00427281D02*
X00423283Y00359593D01*
X00419284Y00369590D02*
X00417285Y00371589D01*
X00413286D01*
X00411287Y00369590D01*
Y00367590D01*
X00413286Y00365591D01*
X00415285D01*
X00413286D01*
X00411287Y00363592D01*
Y00361592D01*
X00413286Y00359593D01*
X00417285D01*
X00419284Y00361592D01*
X00490306Y00403293D02*
X00478310D01*
Y00397295D01*
X00480309Y00395295D01*
X00484308D01*
X00486307Y00397295D01*
Y00403293D01*
Y00399294D02*
X00490306Y00395295D01*
Y00385299D02*
X00478310D01*
X00484308Y00391297D01*
Y00383299D01*
X00505680Y00403293D02*
X00493684D01*
Y00397295D01*
X00495683Y00395295D01*
X00499682D01*
X00501681Y00397295D01*
Y00403293D01*
Y00399294D02*
X00505680Y00395295D01*
X00493684Y00383299D02*
Y00391297D01*
X00499682D01*
X00497683Y00387298D01*
Y00385299D01*
X00499682Y00383299D01*
X00503681D01*
X00505680Y00385299D01*
Y00389297D01*
X00503681Y00391297D01*
X00647580Y00416493D02*
Y00428489D01*
X00641582D01*
X00639583Y00426490D01*
Y00422491D01*
X00641582Y00420492D01*
X00647580D01*
X00643581D02*
X00639583Y00416493D01*
X00627587Y00428489D02*
X00631585Y00426490D01*
X00635584Y00422491D01*
Y00418492D01*
X00633585Y00416493D01*
X00629586D01*
X00627587Y00418492D01*
Y00420492D01*
X00629586Y00422491D01*
X00635584D01*
X00473780Y00541893D02*
Y00553889D01*
X00467782D01*
X00465783Y00551890D01*
Y00547891D01*
X00467782Y00545892D01*
X00473780D01*
X00469781D02*
X00465783Y00541893D01*
X00461784Y00553889D02*
X00453787D01*
Y00551890D01*
X00461784Y00543892D01*
Y00541893D01*
X00555180Y00580093D02*
X00543184D01*
Y00574095D01*
X00545183Y00572096D01*
X00549182D01*
X00551181Y00574095D01*
Y00580093D01*
Y00576094D02*
X00555180Y00572096D01*
X00545183Y00568097D02*
X00543184Y00566097D01*
Y00562099D01*
X00545183Y00560099D01*
X00547183D01*
X00549182Y00562099D01*
X00551181Y00560099D01*
X00553181D01*
X00555180Y00562099D01*
Y00566097D01*
X00553181Y00568097D01*
X00551181D01*
X00549182Y00566097D01*
X00547183Y00568097D01*
X00545183D01*
X00549182Y00566097D02*
Y00562099D01*
X00387880Y00442893D02*
X00375884D01*
Y00436895D01*
X00377883Y00434896D01*
X00381882D01*
X00383881Y00436895D01*
Y00442893D01*
Y00438894D02*
X00387880Y00434896D01*
X00385881Y00430897D02*
X00387880Y00428898D01*
Y00424899D01*
X00385881Y00422900D01*
X00377883D01*
X00375884Y00424899D01*
Y00428898D01*
X00377883Y00430897D01*
X00379883D01*
X00381882Y00428898D01*
Y00422900D01*
X00711280Y00556608D02*
Y00568604D01*
X00705282D01*
X00703283Y00566604D01*
Y00562606D01*
X00705282Y00560606D01*
X00711280D01*
X00707281D02*
X00703283Y00556608D01*
X00699284D02*
X00695285D01*
X00697284D01*
Y00568604D01*
X00699284Y00566604D01*
X00689287D02*
X00687288Y00568604D01*
X00683289D01*
X00681290Y00566604D01*
Y00558607D01*
X00683289Y00556608D01*
X00687288D01*
X00689287Y00558607D01*
Y00566604D01*
X00431280Y00393393D02*
Y00405389D01*
X00425282D01*
X00423283Y00403390D01*
Y00399391D01*
X00425282Y00397392D01*
X00431280D01*
X00427281D02*
X00423283Y00393393D01*
X00419284D02*
X00415285D01*
X00417285D01*
Y00405389D01*
X00419284Y00403390D01*
X00409287Y00393393D02*
X00405288D01*
X00407288D01*
Y00405389D01*
X00409287Y00403390D01*
X00409980Y00552354D02*
X00397984D01*
Y00546356D01*
X00399983Y00544357D01*
X00403982D01*
X00405981Y00546356D01*
Y00552354D01*
Y00548356D02*
X00409980Y00544357D01*
Y00540358D02*
Y00536360D01*
Y00538359D01*
X00397984D01*
X00399983Y00540358D01*
X00409980Y00522364D02*
Y00530362D01*
X00401983Y00522364D01*
X00399983D01*
X00397984Y00524363D01*
Y00528362D01*
X00399983Y00530362D01*
X00410180Y00465993D02*
X00398184D01*
Y00459995D01*
X00400183Y00457996D01*
X00404182D01*
X00406181Y00459995D01*
Y00465993D01*
Y00461994D02*
X00410180Y00457996D01*
Y00453997D02*
Y00449998D01*
Y00451997D01*
X00398184D01*
X00400183Y00453997D01*
Y00444000D02*
X00398184Y00442001D01*
Y00438002D01*
X00400183Y00436003D01*
X00402183D01*
X00404182Y00438002D01*
Y00440001D01*
Y00438002D01*
X00406181Y00436003D01*
X00408181D01*
X00410180Y00438002D01*
Y00442001D01*
X00408181Y00444000D01*
X00444980Y00466593D02*
X00432984D01*
Y00460595D01*
X00434983Y00458596D01*
X00438982D01*
X00440981Y00460595D01*
Y00466593D01*
Y00462594D02*
X00444980Y00458596D01*
Y00454597D02*
Y00450598D01*
Y00452598D01*
X00432984D01*
X00434983Y00454597D01*
X00444980Y00438602D02*
X00432984D01*
X00438982Y00444600D01*
Y00436603D01*
X00511280Y00469293D02*
X00499284D01*
Y00463295D01*
X00501283Y00461295D01*
X00505282D01*
X00507281Y00463295D01*
Y00469293D01*
Y00465294D02*
X00511280Y00461295D01*
Y00457296D02*
Y00453298D01*
Y00455297D01*
X00499284D01*
X00501283Y00457296D01*
X00499284Y00447300D02*
Y00439302D01*
X00501283D01*
X00509281Y00447300D01*
X00511280D01*
X00553680Y00466593D02*
X00541684D01*
Y00460595D01*
X00543683Y00458596D01*
X00547682D01*
X00549681Y00460595D01*
Y00466593D01*
Y00462594D02*
X00553680Y00458596D01*
Y00454597D02*
Y00450598D01*
Y00452598D01*
X00541684D01*
X00543683Y00454597D01*
Y00444600D02*
X00541684Y00442601D01*
Y00438602D01*
X00543683Y00436603D01*
X00545683D01*
X00547682Y00438602D01*
X00549681Y00436603D01*
X00551681D01*
X00553680Y00438602D01*
Y00442601D01*
X00551681Y00444600D01*
X00549681D01*
X00547682Y00442601D01*
X00545683Y00444600D01*
X00543683D01*
X00547682Y00442601D02*
Y00438602D01*
X00594080Y00469293D02*
X00582084D01*
Y00463295D01*
X00584083Y00461296D01*
X00588082D01*
X00590081Y00463295D01*
Y00469293D01*
Y00465294D02*
X00594080Y00461296D01*
Y00457297D02*
Y00453298D01*
Y00455298D01*
X00582084D01*
X00584083Y00457297D01*
X00592081Y00447300D02*
X00594080Y00445301D01*
Y00441302D01*
X00592081Y00439303D01*
X00584083D01*
X00582084Y00441302D01*
Y00445301D01*
X00584083Y00447300D01*
X00586083D01*
X00588082Y00445301D01*
Y00439303D01*
X00852880Y00446193D02*
Y00458189D01*
X00846882D01*
X00844883Y00456190D01*
Y00452191D01*
X00846882Y00450192D01*
X00852880D01*
X00848881D02*
X00844883Y00446193D01*
X00832887D02*
X00840884D01*
X00832887Y00454190D01*
Y00456190D01*
X00834886Y00458189D01*
X00838885D01*
X00840884Y00456190D01*
X00828888Y00446193D02*
X00824889D01*
X00826888D01*
Y00458189D01*
X00828888Y00456190D01*
X00767280Y00358429D02*
X00755284D01*
Y00352431D01*
X00757283Y00350431D01*
X00761282D01*
X00763281Y00352431D01*
Y00358429D01*
Y00354430D02*
X00767280Y00350431D01*
Y00338435D02*
Y00346433D01*
X00759283Y00338435D01*
X00757283D01*
X00755284Y00340434D01*
Y00344433D01*
X00757283Y00346433D01*
X00767280Y00326439D02*
Y00334436D01*
X00759283Y00326439D01*
X00757283D01*
X00755284Y00328438D01*
Y00332437D01*
X00757283Y00334436D01*
X00854480Y00639693D02*
Y00651689D01*
X00848482D01*
X00846483Y00649690D01*
Y00645691D01*
X00848482Y00643692D01*
X00854480D01*
X00850481D02*
X00846483Y00639693D01*
X00834486D02*
X00842484D01*
X00834486Y00647690D01*
Y00649690D01*
X00836486Y00651689D01*
X00840484D01*
X00842484Y00649690D01*
X00830488D02*
X00828488Y00651689D01*
X00824490D01*
X00822490Y00649690D01*
Y00647690D01*
X00824490Y00645691D01*
X00826489D01*
X00824490D01*
X00822490Y00643692D01*
Y00641692D01*
X00824490Y00639693D01*
X00828488D01*
X00830488Y00641692D01*
X00852880Y00693393D02*
Y00705389D01*
X00846882D01*
X00844883Y00703390D01*
Y00699391D01*
X00846882Y00697392D01*
X00852880D01*
X00848881D02*
X00844883Y00693393D01*
X00832887D02*
X00840884D01*
X00832887Y00701390D01*
Y00703390D01*
X00834886Y00705389D01*
X00838885D01*
X00840884Y00703390D01*
X00822890Y00693393D02*
Y00705389D01*
X00828888Y00699391D01*
X00820890D01*
X00484325Y00686486D02*
X00484538Y00676492D01*
X00482581Y00674451D01*
X00478583Y00674365D01*
X00476542Y00676322D01*
X00476329Y00686316D01*
X00464591Y00674068D02*
X00472587Y00674238D01*
X00464421Y00682063D01*
X00464378Y00684062D01*
X00466335Y00686104D01*
X00470333Y00686189D01*
X00472374Y00684232D01*
X00602080Y00550589D02*
Y00540592D01*
X00600081Y00538593D01*
X00596082D01*
X00594083Y00540592D01*
Y00550589D01*
X00590084Y00548590D02*
X00588084Y00550589D01*
X00584086D01*
X00582086Y00548590D01*
Y00546590D01*
X00584086Y00544591D01*
X00586085D01*
X00584086D01*
X00582086Y00542592D01*
Y00540592D01*
X00584086Y00538593D01*
X00588084D01*
X00590084Y00540592D01*
X00727756Y00540692D02*
X00717759D01*
X00715759Y00542692D01*
Y00546690D01*
X00717759Y00548690D01*
X00727756D01*
Y00560686D02*
Y00552689D01*
X00721758D01*
X00723757Y00556687D01*
Y00558687D01*
X00721758Y00560686D01*
X00717759D01*
X00715759Y00558687D01*
Y00554688D01*
X00717759Y00552689D01*
X00854480Y00511889D02*
Y00501892D01*
X00852481Y00499893D01*
X00848482D01*
X00846483Y00501892D01*
Y00511889D01*
X00842484Y00509890D02*
X00840484Y00511889D01*
X00836486D01*
X00834486Y00509890D01*
Y00507890D01*
X00836486Y00505891D01*
X00834486Y00503892D01*
Y00501892D01*
X00836486Y00499893D01*
X00840484D01*
X00842484Y00501892D01*
Y00503892D01*
X00840484Y00505891D01*
X00842484Y00507890D01*
Y00509890D01*
X00840484Y00505891D02*
X00836486D01*
M02*
