G04*
G04 #@! TF.GenerationSoftware,Altium Limited,Altium Designer,18.1.6 (161)*
G04*
G04 Layer_Physical_Order=2*
G04 Layer_Color=16711680*
%FSAX44Y44*%
%MOMM*%
G71*
G01*
G75*
%ADD14C,0.2000*%
%ADD39C,0.5000*%
%ADD67C,1.4500*%
%ADD68C,1.5240*%
%ADD69C,1.4000*%
%ADD70C,1.0000*%
%ADD71C,0.5000*%
G36*
X00587510Y00003059D02*
X00003059D01*
X00003059Y00397941D01*
X00587510D01*
X00587510Y00003059D01*
D02*
G37*
%LPC*%
G36*
X00472568Y00357198D02*
X00470187Y00356885D01*
X00467969Y00355966D01*
X00466064Y00354504D01*
X00464602Y00352599D01*
X00463752Y00350549D01*
X00455984D01*
X00455134Y00352599D01*
X00453672Y00354504D01*
X00451767Y00355966D01*
X00449549Y00356885D01*
X00447168Y00357198D01*
X00444787Y00356885D01*
X00442569Y00355966D01*
X00440664Y00354504D01*
X00439202Y00352599D01*
X00438283Y00350381D01*
X00437969Y00348000D01*
X00438283Y00345619D01*
X00439202Y00343400D01*
X00440664Y00341495D01*
X00442569Y00340033D01*
X00444787Y00339115D01*
X00447168Y00338801D01*
X00449549Y00339115D01*
X00451767Y00340033D01*
X00453672Y00341495D01*
X00455134Y00343400D01*
X00455984Y00345451D01*
X00463752D01*
X00464602Y00343400D01*
X00466064Y00341495D01*
X00467969Y00340033D01*
X00468451Y00339834D01*
Y00329370D01*
X00467722Y00329067D01*
X00466364Y00328026D01*
X00465322Y00326668D01*
X00464667Y00325087D01*
X00464444Y00323390D01*
X00464667Y00321693D01*
X00465322Y00320112D01*
X00466364Y00318754D01*
X00467722Y00317712D01*
X00469303Y00317057D01*
X00471000Y00316834D01*
X00472697Y00317057D01*
X00474278Y00317712D01*
X00475636Y00318754D01*
X00476678Y00320112D01*
X00477333Y00321693D01*
X00477556Y00323390D01*
X00477333Y00325087D01*
X00476678Y00326668D01*
X00475636Y00328026D01*
X00474278Y00329067D01*
X00473549Y00329370D01*
Y00338930D01*
X00474949Y00339115D01*
X00477167Y00340033D01*
X00479072Y00341495D01*
X00480534Y00343400D01*
X00481453Y00345619D01*
X00481767Y00348000D01*
X00481453Y00350381D01*
X00480534Y00352599D01*
X00479072Y00354504D01*
X00477167Y00355966D01*
X00474949Y00356885D01*
X00472568Y00357198D01*
D02*
G37*
G36*
X00421768D02*
X00419387Y00356885D01*
X00417169Y00355966D01*
X00415264Y00354504D01*
X00413802Y00352599D01*
X00412952Y00350549D01*
X00405184D01*
X00404334Y00352599D01*
X00402873Y00354504D01*
X00400967Y00355966D01*
X00398749Y00356885D01*
X00396368Y00357198D01*
X00393987Y00356885D01*
X00391769Y00355966D01*
X00389864Y00354504D01*
X00388402Y00352599D01*
X00387483Y00350381D01*
X00387169Y00348000D01*
X00387483Y00345619D01*
X00388402Y00343400D01*
X00389864Y00341495D01*
X00391769Y00340033D01*
X00393987Y00339115D01*
X00396368Y00338801D01*
X00398749Y00339115D01*
X00400967Y00340033D01*
X00402873Y00341495D01*
X00404334Y00343400D01*
X00405184Y00345451D01*
X00412952D01*
X00413802Y00343400D01*
X00415264Y00341495D01*
X00417169Y00340033D01*
X00419387Y00339115D01*
X00421768Y00338801D01*
X00424149Y00339115D01*
X00426367Y00340033D01*
X00428273Y00341495D01*
X00429734Y00343400D01*
X00430653Y00345619D01*
X00430967Y00348000D01*
X00430653Y00350381D01*
X00429734Y00352599D01*
X00428273Y00354504D01*
X00426367Y00355966D01*
X00424149Y00356885D01*
X00421768Y00357198D01*
D02*
G37*
G36*
X00370968D02*
X00368587Y00356885D01*
X00366369Y00355966D01*
X00364464Y00354504D01*
X00363002Y00352599D01*
X00362152Y00350549D01*
X00354384D01*
X00353534Y00352599D01*
X00352072Y00354504D01*
X00350167Y00355966D01*
X00347949Y00356885D01*
X00345568Y00357198D01*
X00343187Y00356885D01*
X00340969Y00355966D01*
X00339064Y00354504D01*
X00337602Y00352599D01*
X00336683Y00350381D01*
X00336369Y00348000D01*
X00336683Y00345619D01*
X00337602Y00343400D01*
X00339064Y00341495D01*
X00340969Y00340033D01*
X00343187Y00339115D01*
X00345568Y00338801D01*
X00347949Y00339115D01*
X00350167Y00340033D01*
X00352072Y00341495D01*
X00353534Y00343400D01*
X00354384Y00345451D01*
X00362152D01*
X00363002Y00343400D01*
X00364464Y00341495D01*
X00366369Y00340033D01*
X00368587Y00339115D01*
X00370968Y00338801D01*
X00373349Y00339115D01*
X00375567Y00340033D01*
X00377472Y00341495D01*
X00378934Y00343400D01*
X00379853Y00345619D01*
X00380167Y00348000D01*
X00379853Y00350381D01*
X00378934Y00352599D01*
X00377472Y00354504D01*
X00375567Y00355966D01*
X00373349Y00356885D01*
X00370968Y00357198D01*
D02*
G37*
G36*
X00269368D02*
X00266987Y00356885D01*
X00264769Y00355966D01*
X00262864Y00354504D01*
X00261402Y00352599D01*
X00260552Y00350549D01*
X00252784D01*
X00251934Y00352599D01*
X00250473Y00354504D01*
X00248567Y00355966D01*
X00246349Y00356885D01*
X00243968Y00357198D01*
X00241587Y00356885D01*
X00239369Y00355966D01*
X00237464Y00354504D01*
X00236002Y00352599D01*
X00235083Y00350381D01*
X00234769Y00348000D01*
X00235083Y00345619D01*
X00236002Y00343400D01*
X00237464Y00341495D01*
X00239369Y00340033D01*
X00241587Y00339115D01*
X00243968Y00338801D01*
X00246349Y00339115D01*
X00248567Y00340033D01*
X00250473Y00341495D01*
X00251934Y00343400D01*
X00252784Y00345451D01*
X00260552D01*
X00261402Y00343400D01*
X00262864Y00341495D01*
X00264769Y00340033D01*
X00266987Y00339115D01*
X00269368Y00338801D01*
X00271749Y00339115D01*
X00273799Y00339964D01*
X00283381Y00330382D01*
X00282892Y00329210D01*
X00189587Y00329786D01*
X00175804Y00343569D01*
X00176653Y00345619D01*
X00176967Y00348000D01*
X00176653Y00350381D01*
X00175734Y00352599D01*
X00174272Y00354504D01*
X00172367Y00355966D01*
X00170149Y00356885D01*
X00167768Y00357198D01*
X00165387Y00356885D01*
X00163169Y00355966D01*
X00161264Y00354504D01*
X00159802Y00352599D01*
X00158952Y00350549D01*
X00151184D01*
X00150334Y00352599D01*
X00148872Y00354504D01*
X00146967Y00355966D01*
X00144749Y00356885D01*
X00142368Y00357198D01*
X00139987Y00356885D01*
X00137769Y00355966D01*
X00135864Y00354504D01*
X00134402Y00352599D01*
X00133483Y00350381D01*
X00133169Y00348000D01*
X00133483Y00345619D01*
X00134402Y00343400D01*
X00135864Y00341495D01*
X00137769Y00340033D01*
X00139987Y00339115D01*
X00142368Y00338801D01*
X00144749Y00339115D01*
X00146967Y00340033D01*
X00148872Y00341495D01*
X00150334Y00343400D01*
X00151184Y00345451D01*
X00158952D01*
X00159802Y00343400D01*
X00161264Y00341495D01*
X00163169Y00340033D01*
X00165387Y00339115D01*
X00167768Y00338801D01*
X00170149Y00339115D01*
X00172199Y00339964D01*
X00186722Y00325441D01*
X00187130Y00325168D01*
X00187534Y00324895D01*
X00187542Y00324893D01*
X00187549Y00324889D01*
X00188027Y00324794D01*
X00188508Y00324695D01*
X00435737Y00323168D01*
Y00308480D01*
X00434467Y00308355D01*
X00434355Y00308918D01*
X00433802Y00309745D01*
X00429745Y00313802D01*
X00428918Y00314355D01*
X00427943Y00314549D01*
X00192056D01*
X00177802Y00328802D01*
X00176975Y00329355D01*
X00176000Y00329549D01*
X00139024D01*
X00125004Y00343569D01*
X00125853Y00345619D01*
X00126167Y00348000D01*
X00125853Y00350381D01*
X00124934Y00352599D01*
X00123472Y00354504D01*
X00121567Y00355966D01*
X00119349Y00356885D01*
X00116968Y00357198D01*
X00114587Y00356885D01*
X00112369Y00355966D01*
X00110464Y00354504D01*
X00109002Y00352599D01*
X00108152Y00350549D01*
X00100384D01*
X00099534Y00352599D01*
X00098073Y00354504D01*
X00096167Y00355966D01*
X00093949Y00356885D01*
X00091568Y00357198D01*
X00089187Y00356885D01*
X00086969Y00355966D01*
X00085064Y00354504D01*
X00083602Y00352599D01*
X00082683Y00350381D01*
X00082369Y00348000D01*
X00082683Y00345619D01*
X00083602Y00343400D01*
X00085064Y00341495D01*
X00086969Y00340033D01*
X00089187Y00339115D01*
X00091568Y00338801D01*
X00093949Y00339115D01*
X00096167Y00340033D01*
X00098073Y00341495D01*
X00099534Y00343400D01*
X00100384Y00345451D01*
X00108152D01*
X00109002Y00343400D01*
X00110464Y00341495D01*
X00112369Y00340033D01*
X00114587Y00339115D01*
X00116968Y00338801D01*
X00119349Y00339115D01*
X00121399Y00339964D01*
X00136165Y00325198D01*
X00136992Y00324645D01*
X00137968Y00324451D01*
X00174944D01*
X00189198Y00310198D01*
X00190025Y00309645D01*
X00191000Y00309451D01*
X00426887D01*
X00428453Y00307885D01*
X00428200Y00306342D01*
X00427364Y00305701D01*
X00426322Y00304343D01*
X00425667Y00302762D01*
X00425444Y00301065D01*
X00425667Y00299368D01*
X00426322Y00297787D01*
X00427364Y00296429D01*
X00428722Y00295387D01*
X00430303Y00294732D01*
X00432000Y00294509D01*
X00433697Y00294732D01*
X00434467Y00295051D01*
X00435737Y00294203D01*
Y00276266D01*
X00435008Y00275963D01*
X00433650Y00274922D01*
X00432608Y00273564D01*
X00431954Y00271983D01*
X00431730Y00270286D01*
X00431954Y00268589D01*
X00432608Y00267008D01*
X00433650Y00265650D01*
X00435008Y00264608D01*
X00436589Y00263953D01*
X00438286Y00263730D01*
X00439983Y00263953D01*
X00441564Y00264608D01*
X00442922Y00265650D01*
X00443964Y00267008D01*
X00444619Y00268589D01*
X00444842Y00270286D01*
X00444619Y00271983D01*
X00443964Y00273564D01*
X00442922Y00274922D01*
X00441564Y00275963D01*
X00440835Y00276266D01*
Y00294275D01*
X00442303Y00295742D01*
X00442855Y00296569D01*
X00443049Y00297544D01*
Y00304586D01*
X00442855Y00305561D01*
X00442303Y00306388D01*
X00440835Y00307856D01*
Y00325701D01*
X00440740Y00326178D01*
X00440647Y00326662D01*
X00440643Y00326669D01*
X00440641Y00326677D01*
X00440370Y00327083D01*
X00440305Y00327181D01*
X00440695Y00328230D01*
X00440873Y00328451D01*
X00446770D01*
X00473787Y00301434D01*
X00473485Y00300705D01*
X00473262Y00299008D01*
X00473485Y00297311D01*
X00474141Y00295730D01*
X00475182Y00294372D01*
X00476540Y00293330D01*
X00478121Y00292675D01*
X00479818Y00292452D01*
X00481515Y00292675D01*
X00483096Y00293330D01*
X00484454Y00294372D01*
X00485496Y00295730D01*
X00486151Y00297311D01*
X00486374Y00299008D01*
X00486151Y00300705D01*
X00485496Y00302286D01*
X00484454Y00303644D01*
X00483096Y00304685D01*
X00481515Y00305340D01*
X00479818Y00305564D01*
X00478121Y00305340D01*
X00477392Y00305039D01*
X00449628Y00332802D01*
X00448802Y00333355D01*
X00447826Y00333549D01*
X00287424D01*
X00277404Y00343569D01*
X00278253Y00345619D01*
X00278567Y00348000D01*
X00278253Y00350381D01*
X00277334Y00352599D01*
X00275872Y00354504D01*
X00273967Y00355966D01*
X00271749Y00356885D01*
X00269368Y00357198D01*
D02*
G37*
G36*
X00218568D02*
X00216187Y00356885D01*
X00213969Y00355966D01*
X00212064Y00354504D01*
X00210602Y00352599D01*
X00209752Y00350549D01*
X00201984D01*
X00201134Y00352599D01*
X00199673Y00354504D01*
X00197767Y00355966D01*
X00195549Y00356885D01*
X00193168Y00357198D01*
X00190787Y00356885D01*
X00188569Y00355966D01*
X00186664Y00354504D01*
X00185202Y00352599D01*
X00184283Y00350381D01*
X00183969Y00348000D01*
X00184283Y00345619D01*
X00185202Y00343400D01*
X00186664Y00341495D01*
X00188569Y00340033D01*
X00190787Y00339115D01*
X00193168Y00338801D01*
X00195549Y00339115D01*
X00197767Y00340033D01*
X00199673Y00341495D01*
X00201134Y00343400D01*
X00201984Y00345451D01*
X00209752D01*
X00210602Y00343400D01*
X00212064Y00341495D01*
X00213969Y00340033D01*
X00216187Y00339115D01*
X00218568Y00338801D01*
X00220949Y00339115D01*
X00223167Y00340033D01*
X00225072Y00341495D01*
X00226534Y00343400D01*
X00227453Y00345619D01*
X00227767Y00348000D01*
X00227453Y00350381D01*
X00226534Y00352599D01*
X00225072Y00354504D01*
X00223167Y00355966D01*
X00220949Y00356885D01*
X00218568Y00357198D01*
D02*
G37*
G36*
X00524638Y00358080D02*
Y00349270D01*
X00533448D01*
X00533266Y00350652D01*
X00532243Y00353124D01*
X00530614Y00355246D01*
X00528492Y00356875D01*
X00526020Y00357898D01*
X00524638Y00358080D01*
D02*
G37*
G36*
X00296038D02*
Y00349270D01*
X00304848D01*
X00304667Y00350652D01*
X00303643Y00353124D01*
X00302014Y00355246D01*
X00299892Y00356875D01*
X00297420Y00357898D01*
X00296038Y00358080D01*
D02*
G37*
G36*
X00067438D02*
Y00349270D01*
X00076248D01*
X00076066Y00350652D01*
X00075043Y00353124D01*
X00073414Y00355246D01*
X00071292Y00356875D01*
X00068820Y00357898D01*
X00067438Y00358080D01*
D02*
G37*
G36*
X00499238D02*
Y00349270D01*
X00508049D01*
X00507867Y00350652D01*
X00506843Y00353124D01*
X00505214Y00355246D01*
X00503092Y00356875D01*
X00500620Y00357898D01*
X00499238Y00358080D01*
D02*
G37*
G36*
X00522098D02*
X00520716Y00357898D01*
X00518244Y00356875D01*
X00516122Y00355246D01*
X00514493Y00353124D01*
X00513470Y00350652D01*
X00513288Y00349270D01*
X00522098D01*
Y00358080D01*
D02*
G37*
G36*
X00293498D02*
X00292116Y00357898D01*
X00289644Y00356875D01*
X00287522Y00355246D01*
X00285893Y00353124D01*
X00284869Y00350652D01*
X00284688Y00349270D01*
X00293498D01*
Y00358080D01*
D02*
G37*
G36*
X00064898D02*
X00063516Y00357898D01*
X00061044Y00356875D01*
X00058922Y00355246D01*
X00057293Y00353124D01*
X00056269Y00350652D01*
X00056087Y00349270D01*
X00064898D01*
Y00358080D01*
D02*
G37*
G36*
X00496698D02*
X00495316Y00357898D01*
X00492844Y00356875D01*
X00490722Y00355246D01*
X00489093Y00353124D01*
X00488069Y00350652D01*
X00487887Y00349270D01*
X00496698D01*
Y00358080D01*
D02*
G37*
G36*
X00574168Y00357198D02*
X00571787Y00356885D01*
X00569569Y00355966D01*
X00567664Y00354504D01*
X00566202Y00352599D01*
X00565283Y00350381D01*
X00564969Y00348000D01*
X00565283Y00345619D01*
X00566202Y00343400D01*
X00567664Y00341495D01*
X00569569Y00340033D01*
X00571787Y00339115D01*
X00574168Y00338801D01*
X00576549Y00339115D01*
X00578767Y00340033D01*
X00580672Y00341495D01*
X00582134Y00343400D01*
X00583053Y00345619D01*
X00583367Y00348000D01*
X00583053Y00350381D01*
X00582134Y00352599D01*
X00580672Y00354504D01*
X00578767Y00355966D01*
X00576549Y00356885D01*
X00574168Y00357198D01*
D02*
G37*
G36*
X00155000Y00391556D02*
X00153303Y00391333D01*
X00151722Y00390678D01*
X00150364Y00389636D01*
X00149322Y00388278D01*
X00148667Y00386697D01*
X00148444Y00385000D01*
X00148667Y00383303D01*
X00149322Y00381722D01*
X00150364Y00380364D01*
X00151722Y00379322D01*
X00153303Y00378667D01*
X00155000Y00378444D01*
X00156697Y00378667D01*
X00158278Y00379322D01*
X00159636Y00380364D01*
X00160678Y00381722D01*
X00160980Y00382451D01*
X00503768D01*
X00504744Y00382645D01*
X00505570Y00383198D01*
X00507768Y00385395D01*
X00540732Y00352431D01*
X00539883Y00350381D01*
X00539569Y00348000D01*
X00539883Y00345619D01*
X00540732Y00343569D01*
X00535198Y00338034D01*
X00534645Y00337207D01*
X00534451Y00336232D01*
Y00319619D01*
X00533722Y00319317D01*
X00532364Y00318276D01*
X00531322Y00316918D01*
X00530667Y00315337D01*
X00530444Y00313640D01*
X00530667Y00311943D01*
X00530970Y00311214D01*
X00529444Y00309688D01*
X00509514D01*
X00508539Y00309494D01*
X00507712Y00308942D01*
X00503479Y00304709D01*
X00500544D01*
X00499569Y00304515D01*
X00498742Y00303963D01*
X00454328Y00259549D01*
X00425667D01*
X00424692Y00259355D01*
X00423865Y00258802D01*
X00411612Y00246549D01*
X00378548D01*
Y00248020D01*
X00379277Y00248322D01*
X00380635Y00249364D01*
X00381677Y00250721D01*
X00382332Y00252303D01*
X00382555Y00254000D01*
X00382332Y00255696D01*
X00381677Y00257278D01*
X00380635Y00258635D01*
X00379798Y00259278D01*
X00380229Y00260548D01*
X00384591D01*
X00385439Y00259278D01*
X00385261Y00258847D01*
X00385037Y00257150D01*
X00385261Y00255453D01*
X00385916Y00253872D01*
X00386958Y00252514D01*
X00388316Y00251472D01*
X00389897Y00250817D01*
X00391594Y00250594D01*
X00393290Y00250817D01*
X00394871Y00251472D01*
X00396229Y00252514D01*
X00397271Y00253872D01*
X00397926Y00255453D01*
X00398149Y00257150D01*
X00397926Y00258847D01*
X00397271Y00260428D01*
X00396229Y00261786D01*
X00394871Y00262827D01*
X00393290Y00263482D01*
X00392718Y00263558D01*
X00391377Y00264899D01*
X00390550Y00265452D01*
X00389574Y00265646D01*
X00372146D01*
X00371171Y00265452D01*
X00370344Y00264899D01*
X00359522Y00254077D01*
X00358969Y00253250D01*
X00358775Y00252275D01*
Y00216523D01*
X00225801Y00083549D01*
X00154168D01*
X00153192Y00083355D01*
X00152365Y00082802D01*
X00119102Y00049539D01*
X00118749Y00049685D01*
X00116368Y00049998D01*
X00113987Y00049685D01*
X00111769Y00048766D01*
X00109864Y00047304D01*
X00108670Y00045749D01*
X00098666D01*
X00097473Y00047304D01*
X00095568Y00048766D01*
X00093349Y00049685D01*
X00090968Y00049998D01*
X00088587Y00049685D01*
X00086369Y00048766D01*
X00084464Y00047304D01*
X00083002Y00045399D01*
X00082083Y00043181D01*
X00081770Y00040800D01*
X00082083Y00038419D01*
X00083002Y00036200D01*
X00084464Y00034295D01*
X00086369Y00032833D01*
X00088587Y00031915D01*
X00090968Y00031601D01*
X00093349Y00031915D01*
X00095568Y00032833D01*
X00097473Y00034295D01*
X00098934Y00036200D01*
X00099853Y00038419D01*
X00100147Y00040651D01*
X00107189D01*
X00107483Y00038419D01*
X00108402Y00036200D01*
X00109864Y00034295D01*
X00111769Y00032833D01*
X00113987Y00031915D01*
X00116368Y00031601D01*
X00118749Y00031915D01*
X00120968Y00032833D01*
X00122873Y00034295D01*
X00124334Y00036200D01*
X00125253Y00038419D01*
X00125567Y00040800D01*
X00125253Y00043181D01*
X00124334Y00045399D01*
X00123396Y00046623D01*
X00155224Y00078451D01*
X00226857D01*
X00227833Y00078645D01*
X00228659Y00079197D01*
X00357491Y00208029D01*
X00358694Y00207436D01*
X00358578Y00206555D01*
X00358801Y00204858D01*
X00359456Y00203277D01*
X00360498Y00201919D01*
X00361856Y00200877D01*
X00363437Y00200222D01*
X00365134Y00199999D01*
X00366831Y00200222D01*
X00368412Y00200877D01*
X00369770Y00201919D01*
X00370812Y00203277D01*
X00371114Y00204006D01*
X00483461D01*
X00524588Y00162880D01*
X00524286Y00162151D01*
X00524062Y00160454D01*
X00524286Y00158757D01*
X00524940Y00157176D01*
X00525982Y00155818D01*
X00527340Y00154776D01*
X00528921Y00154121D01*
X00530618Y00153898D01*
X00532315Y00154121D01*
X00533896Y00154776D01*
X00535254Y00155818D01*
X00536296Y00157176D01*
X00536951Y00158757D01*
X00537174Y00160454D01*
X00536951Y00162151D01*
X00536296Y00163732D01*
X00535254Y00165090D01*
X00533896Y00166131D01*
X00532315Y00166786D01*
X00530618Y00167010D01*
X00528921Y00166786D01*
X00528192Y00166485D01*
X00486320Y00208357D01*
X00485493Y00208910D01*
X00484517Y00209104D01*
X00371114D01*
X00370812Y00209833D01*
X00369770Y00211191D01*
X00368412Y00212232D01*
X00366831Y00212887D01*
X00365134Y00213111D01*
X00364202Y00212988D01*
X00363466Y00214172D01*
X00363679Y00214491D01*
X00363873Y00215467D01*
Y00251219D01*
X00368391Y00255737D01*
X00369594Y00255144D01*
X00369443Y00254000D01*
X00369667Y00252303D01*
X00370322Y00250721D01*
X00371363Y00249364D01*
X00372721Y00248322D01*
X00373450Y00248020D01*
Y00243700D01*
X00373644Y00242724D01*
X00374197Y00241897D01*
X00375024Y00241345D01*
X00375999Y00241151D01*
X00376975Y00241345D01*
X00377134Y00241451D01*
X00412668D01*
X00413643Y00241645D01*
X00414470Y00242198D01*
X00426723Y00254451D01*
X00455384D01*
X00456359Y00254645D01*
X00457186Y00255198D01*
X00501600Y00299611D01*
X00504535D01*
X00505510Y00299805D01*
X00506337Y00300358D01*
X00510303Y00304324D01*
X00511291Y00304215D01*
X00511845Y00303004D01*
X00511414Y00302442D01*
X00510654Y00300608D01*
X00510562Y00299910D01*
X00525438D01*
X00525346Y00300608D01*
X00524586Y00302442D01*
X00523912Y00303321D01*
X00524538Y00304591D01*
X00530500D01*
X00531475Y00304785D01*
X00532302Y00305337D01*
X00534574Y00307609D01*
X00535303Y00307307D01*
X00537000Y00307084D01*
X00538697Y00307307D01*
X00540278Y00307962D01*
X00541636Y00309004D01*
X00542678Y00310362D01*
X00543333Y00311943D01*
X00543556Y00313640D01*
X00543333Y00315337D01*
X00542678Y00316918D01*
X00541636Y00318276D01*
X00540278Y00319317D01*
X00539549Y00319619D01*
Y00335176D01*
X00544337Y00339964D01*
X00546387Y00339115D01*
X00548768Y00338801D01*
X00551149Y00339115D01*
X00553367Y00340033D01*
X00555272Y00341495D01*
X00556734Y00343400D01*
X00557653Y00345619D01*
X00557967Y00348000D01*
X00557653Y00350381D01*
X00556734Y00352599D01*
X00555272Y00354504D01*
X00553367Y00355966D01*
X00551149Y00356885D01*
X00548768Y00357198D01*
X00546387Y00356885D01*
X00544337Y00356036D01*
X00509570Y00390802D01*
X00508744Y00391355D01*
X00507768Y00391549D01*
X00506792Y00391355D01*
X00505966Y00390802D01*
X00502712Y00387549D01*
X00160980D01*
X00160678Y00388278D01*
X00159636Y00389636D01*
X00158278Y00390678D01*
X00156697Y00391333D01*
X00155000Y00391556D01*
D02*
G37*
G36*
X00071914Y00395556D02*
X00070218Y00395333D01*
X00068636Y00394678D01*
X00067279Y00393636D01*
X00066237Y00392278D01*
X00065582Y00390697D01*
X00065358Y00389000D01*
X00065582Y00387303D01*
X00066237Y00385722D01*
X00067279Y00384364D01*
X00068636Y00383323D01*
X00070218Y00382668D01*
X00071914Y00382444D01*
X00073611Y00382668D01*
X00075192Y00383323D01*
X00076550Y00384364D01*
X00077604Y00384433D01*
X00092839Y00369198D01*
X00093666Y00368645D01*
X00094642Y00368451D01*
X00315944D01*
X00317619Y00366776D01*
Y00356815D01*
X00315569Y00355966D01*
X00313664Y00354504D01*
X00312202Y00352599D01*
X00311283Y00350381D01*
X00310969Y00348000D01*
X00311283Y00345619D01*
X00312202Y00343400D01*
X00313664Y00341495D01*
X00315569Y00340033D01*
X00317787Y00339115D01*
X00320168Y00338801D01*
X00322549Y00339115D01*
X00324767Y00340033D01*
X00326673Y00341495D01*
X00328134Y00343400D01*
X00329053Y00345619D01*
X00329367Y00348000D01*
X00329053Y00350381D01*
X00328134Y00352599D01*
X00326673Y00354504D01*
X00324767Y00355966D01*
X00322717Y00356815D01*
Y00367832D01*
X00322523Y00368807D01*
X00321970Y00369634D01*
X00318802Y00372802D01*
X00317976Y00373355D01*
X00317000Y00373549D01*
X00095698D01*
X00078444Y00390803D01*
X00078111Y00391025D01*
X00077592Y00392278D01*
X00076550Y00393636D01*
X00075192Y00394678D01*
X00073611Y00395333D01*
X00071914Y00395556D01*
D02*
G37*
G36*
X00533448Y00346730D02*
X00524638D01*
Y00337919D01*
X00526020Y00338101D01*
X00528492Y00339125D01*
X00530614Y00340754D01*
X00532243Y00342876D01*
X00533266Y00345348D01*
X00533448Y00346730D01*
D02*
G37*
G36*
X00508049D02*
X00499238D01*
Y00337919D01*
X00500620Y00338101D01*
X00503092Y00339125D01*
X00505214Y00340754D01*
X00506843Y00342876D01*
X00507867Y00345348D01*
X00508049Y00346730D01*
D02*
G37*
G36*
X00304848D02*
X00296038D01*
Y00337919D01*
X00297420Y00338101D01*
X00299892Y00339125D01*
X00302014Y00340754D01*
X00303643Y00342876D01*
X00304667Y00345348D01*
X00304848Y00346730D01*
D02*
G37*
G36*
X00076248D02*
X00067438D01*
Y00337919D01*
X00068820Y00338101D01*
X00071292Y00339125D01*
X00073414Y00340754D01*
X00075043Y00342876D01*
X00076066Y00345348D01*
X00076248Y00346730D01*
D02*
G37*
G36*
X00522098D02*
X00513288D01*
X00513470Y00345348D01*
X00514493Y00342876D01*
X00516122Y00340754D01*
X00518244Y00339125D01*
X00520716Y00338101D01*
X00522098Y00337919D01*
Y00346730D01*
D02*
G37*
G36*
X00496698D02*
X00487887D01*
X00488069Y00345348D01*
X00489093Y00342876D01*
X00490722Y00340754D01*
X00492844Y00339125D01*
X00495316Y00338101D01*
X00496698Y00337919D01*
Y00346730D01*
D02*
G37*
G36*
X00293498D02*
X00284688D01*
X00284869Y00345348D01*
X00285893Y00342876D01*
X00287522Y00340754D01*
X00289644Y00339125D01*
X00292116Y00338101D01*
X00293498Y00337919D01*
Y00346730D01*
D02*
G37*
G36*
X00064898D02*
X00056087D01*
X00056269Y00345348D01*
X00057293Y00342876D01*
X00058922Y00340754D01*
X00061044Y00339125D01*
X00063516Y00338101D01*
X00064898Y00337919D01*
Y00346730D01*
D02*
G37*
G36*
X00052550Y00330760D02*
X00050331Y00330468D01*
X00048263Y00329611D01*
X00046488Y00328249D01*
X00045125Y00326473D01*
X00044269Y00324406D01*
X00043977Y00322187D01*
X00044269Y00319968D01*
X00045125Y00317900D01*
X00046488Y00316124D01*
X00048263Y00314762D01*
X00050331Y00313905D01*
X00052550Y00313613D01*
X00054769Y00313905D01*
X00056837Y00314762D01*
X00058612Y00316124D01*
X00059975Y00317900D01*
X00060831Y00319968D01*
X00061123Y00322187D01*
X00060831Y00324406D01*
X00059975Y00326473D01*
X00058612Y00328249D01*
X00056837Y00329611D01*
X00054769Y00330468D01*
X00052550Y00330760D01*
D02*
G37*
G36*
X00222753Y00307621D02*
X00221056Y00307398D01*
X00219475Y00306743D01*
X00218117Y00305701D01*
X00217075Y00304343D01*
X00216773Y00303614D01*
X00162778D01*
X00161802Y00303420D01*
X00160975Y00302868D01*
X00156066Y00297958D01*
X00155283Y00298114D01*
X00140980D01*
X00140678Y00298843D01*
X00139636Y00300201D01*
X00138278Y00301243D01*
X00136697Y00301898D01*
X00135000Y00302121D01*
X00133303Y00301898D01*
X00131722Y00301243D01*
X00130364Y00300201D01*
X00129322Y00298843D01*
X00128667Y00297262D01*
X00128444Y00295565D01*
X00128667Y00293868D01*
X00129322Y00292287D01*
X00130364Y00290929D01*
X00131722Y00289887D01*
X00133303Y00289232D01*
X00135000Y00289009D01*
X00136697Y00289232D01*
X00138278Y00289887D01*
X00139636Y00290929D01*
X00140678Y00292287D01*
X00140980Y00293016D01*
X00154227D01*
X00154478Y00292765D01*
X00155305Y00292213D01*
X00156280Y00292019D01*
X00157256Y00292213D01*
X00158083Y00292765D01*
X00158083Y00292765D01*
X00163834Y00298516D01*
X00216773D01*
X00217075Y00297787D01*
X00218117Y00296429D01*
X00219475Y00295387D01*
X00221056Y00294732D01*
X00222753Y00294509D01*
X00224450Y00294732D01*
X00226031Y00295387D01*
X00227389Y00296429D01*
X00228431Y00297787D01*
X00229086Y00299368D01*
X00229309Y00301065D01*
X00229086Y00302762D01*
X00228431Y00304343D01*
X00227389Y00305701D01*
X00226031Y00306743D01*
X00224450Y00307398D01*
X00222753Y00307621D01*
D02*
G37*
G36*
X00525438Y00297370D02*
X00519270D01*
Y00291202D01*
X00519968Y00291294D01*
X00521802Y00292053D01*
X00523378Y00293262D01*
X00524586Y00294837D01*
X00525346Y00296671D01*
X00525438Y00297370D01*
D02*
G37*
G36*
X00516730D02*
X00510562D01*
X00510654Y00296671D01*
X00511414Y00294837D01*
X00512622Y00293262D01*
X00514198Y00292053D01*
X00516032Y00291294D01*
X00516730Y00291202D01*
Y00297370D01*
D02*
G37*
G36*
X00052550Y00305360D02*
X00050331Y00305068D01*
X00048263Y00304211D01*
X00046488Y00302849D01*
X00045125Y00301073D01*
X00044269Y00299006D01*
X00043977Y00296786D01*
X00044269Y00294568D01*
X00045125Y00292500D01*
X00046488Y00290724D01*
X00048263Y00289362D01*
X00050331Y00288505D01*
X00052550Y00288213D01*
X00054769Y00288505D01*
X00056837Y00289362D01*
X00058612Y00290724D01*
X00059975Y00292500D01*
X00060831Y00294568D01*
X00061123Y00296786D01*
X00060831Y00299006D01*
X00059975Y00301073D01*
X00058612Y00302849D01*
X00056837Y00304211D01*
X00054769Y00305068D01*
X00052550Y00305360D01*
D02*
G37*
G36*
X00304999Y00285555D02*
X00303302Y00285332D01*
X00301721Y00284677D01*
X00300364Y00283635D01*
X00299322Y00282278D01*
X00299020Y00281548D01*
X00283522D01*
X00282546Y00281354D01*
X00281719Y00280802D01*
X00265943Y00265026D01*
X00247567D01*
X00247265Y00265755D01*
X00246223Y00267112D01*
X00244865Y00268154D01*
X00243284Y00268809D01*
X00241587Y00269033D01*
X00239890Y00268809D01*
X00238309Y00268154D01*
X00236952Y00267112D01*
X00235910Y00265755D01*
X00235255Y00264173D01*
X00235031Y00262477D01*
X00235255Y00260780D01*
X00235910Y00259198D01*
X00236952Y00257841D01*
X00238309Y00256799D01*
X00239890Y00256144D01*
X00241587Y00255921D01*
X00243284Y00256144D01*
X00244865Y00256799D01*
X00246223Y00257841D01*
X00247265Y00259198D01*
X00247567Y00259928D01*
X00267278D01*
X00268253Y00260122D01*
X00269081Y00260674D01*
X00269633Y00261501D01*
X00269634Y00261507D01*
X00284578Y00276451D01*
X00299020D01*
X00299322Y00275721D01*
X00300364Y00274364D01*
X00301721Y00273322D01*
X00303302Y00272667D01*
X00304999Y00272443D01*
X00306696Y00272667D01*
X00308277Y00273322D01*
X00309635Y00274364D01*
X00310677Y00275721D01*
X00311332Y00277303D01*
X00311556Y00278999D01*
X00311332Y00280696D01*
X00310677Y00282278D01*
X00309635Y00283635D01*
X00308277Y00284677D01*
X00306696Y00285332D01*
X00304999Y00285555D01*
D02*
G37*
G36*
X00306999Y00256555D02*
X00305303Y00256332D01*
X00303722Y00255677D01*
X00302364Y00254635D01*
X00301322Y00253277D01*
X00300667Y00251696D01*
X00300443Y00249999D01*
X00299871Y00249347D01*
X00289712D01*
X00288737Y00249153D01*
X00287910Y00248600D01*
X00287358Y00247773D01*
X00287163Y00246798D01*
Y00199768D01*
X00275269Y00187873D01*
X00156262D01*
X00155960Y00188603D01*
X00154918Y00189960D01*
X00153561Y00191002D01*
X00151980Y00191657D01*
X00150283Y00191881D01*
X00148586Y00191657D01*
X00147005Y00191002D01*
X00145647Y00189960D01*
X00144605Y00188603D01*
X00143950Y00187021D01*
X00143727Y00185324D01*
X00143950Y00183628D01*
X00144605Y00182047D01*
X00145647Y00180689D01*
X00147005Y00179647D01*
X00148586Y00178992D01*
X00150283Y00178768D01*
X00151980Y00178992D01*
X00153561Y00179647D01*
X00154918Y00180689D01*
X00155960Y00182047D01*
X00156262Y00182775D01*
X00276325D01*
X00277300Y00182970D01*
X00278127Y00183522D01*
X00291515Y00196910D01*
X00292067Y00197737D01*
X00292261Y00198712D01*
Y00244249D01*
X00302356D01*
X00303332Y00244443D01*
X00303456Y00244526D01*
X00303722Y00244322D01*
X00305303Y00243667D01*
X00306999Y00243443D01*
X00308696Y00243667D01*
X00310278Y00244322D01*
X00311635Y00245364D01*
X00312677Y00246721D01*
X00313332Y00248302D01*
X00313556Y00249999D01*
X00313332Y00251696D01*
X00312677Y00253277D01*
X00311635Y00254635D01*
X00310278Y00255677D01*
X00308696Y00256332D01*
X00306999Y00256555D01*
D02*
G37*
G36*
X00347608Y00255402D02*
X00345911Y00255179D01*
X00344330Y00254524D01*
X00342972Y00253482D01*
X00341930Y00252124D01*
X00341275Y00250543D01*
X00341052Y00248846D01*
X00341275Y00247149D01*
X00341930Y00245568D01*
X00342620Y00244669D01*
X00325447Y00227496D01*
X00324384Y00226801D01*
X00323765Y00227214D01*
X00323061Y00227685D01*
X00321500Y00227995D01*
X00319939Y00227685D01*
X00318616Y00226801D01*
X00317732Y00225478D01*
X00317422Y00223917D01*
X00317732Y00222356D01*
X00318616Y00221033D01*
X00319939Y00220149D01*
X00321500Y00219839D01*
X00323061Y00220149D01*
X00323181Y00220230D01*
X00324451Y00219551D01*
Y00217283D01*
X00323181Y00216605D01*
X00323061Y00216685D01*
X00321500Y00216996D01*
X00319939Y00216685D01*
X00318616Y00215801D01*
X00317732Y00214478D01*
X00317422Y00212917D01*
X00317732Y00211356D01*
X00318092Y00210819D01*
X00317413Y00209549D01*
X00314588D01*
X00313909Y00210819D01*
X00314268Y00211356D01*
X00314578Y00212917D01*
X00314268Y00214478D01*
X00313384Y00215801D01*
X00312061Y00216685D01*
X00310500Y00216996D01*
X00308939Y00216685D01*
X00307616Y00215801D01*
X00306732Y00214478D01*
X00306422Y00212917D01*
X00306732Y00211356D01*
X00307092Y00210819D01*
X00307091Y00210619D01*
X00306492Y00209430D01*
X00306113Y00209355D01*
X00305286Y00208802D01*
X00215033Y00118549D01*
X00089548D01*
X00089246Y00119278D01*
X00088204Y00120636D01*
X00086846Y00121678D01*
X00085265Y00122332D01*
X00083568Y00122556D01*
X00081871Y00122332D01*
X00080290Y00121678D01*
X00078932Y00120636D01*
X00077890Y00119278D01*
X00077235Y00117697D01*
X00077012Y00116000D01*
X00077235Y00114303D01*
X00077890Y00112722D01*
X00078932Y00111364D01*
X00080290Y00110322D01*
X00081871Y00109667D01*
X00083568Y00109444D01*
X00085265Y00109667D01*
X00086846Y00110322D01*
X00088204Y00111364D01*
X00089246Y00112722D01*
X00089548Y00113451D01*
X00216089D01*
X00217064Y00113645D01*
X00217891Y00114197D01*
X00308144Y00204451D01*
X00327000D01*
X00327976Y00204645D01*
X00328802Y00205198D01*
X00329355Y00206024D01*
X00329549Y00207000D01*
Y00224388D01*
X00347469Y00242308D01*
X00347608Y00242290D01*
X00349305Y00242513D01*
X00350886Y00243168D01*
X00352244Y00244210D01*
X00353286Y00245568D01*
X00353941Y00247149D01*
X00354164Y00248846D01*
X00353941Y00250543D01*
X00353286Y00252124D01*
X00352244Y00253482D01*
X00350886Y00254524D01*
X00349305Y00255179D01*
X00347608Y00255402D01*
D02*
G37*
G36*
X00052550Y00279960D02*
X00050331Y00279668D01*
X00048263Y00278811D01*
X00046488Y00277449D01*
X00045125Y00275673D01*
X00044269Y00273605D01*
X00043977Y00271387D01*
X00044269Y00269168D01*
X00045125Y00267100D01*
X00046488Y00265324D01*
X00048263Y00263962D01*
X00050331Y00263105D01*
X00052550Y00262813D01*
X00054769Y00263105D01*
X00056507Y00263825D01*
X00065287Y00255044D01*
X00066114Y00254492D01*
X00067090Y00254298D01*
X00139098D01*
X00158198Y00235198D01*
X00159024Y00234645D01*
X00160000Y00234451D01*
X00173789D01*
X00174091Y00233722D01*
X00175133Y00232364D01*
X00176491Y00231322D01*
X00178072Y00230667D01*
X00179769Y00230444D01*
X00181466Y00230667D01*
X00183047Y00231322D01*
X00184405Y00232364D01*
X00185446Y00233722D01*
X00186101Y00235303D01*
X00186325Y00237000D01*
X00186101Y00238697D01*
X00185446Y00240278D01*
X00184405Y00241636D01*
X00183047Y00242678D01*
X00181466Y00243333D01*
X00179769Y00243556D01*
X00178072Y00243333D01*
X00176491Y00242678D01*
X00175133Y00241636D01*
X00174091Y00240278D01*
X00173789Y00239549D01*
X00161056D01*
X00141956Y00258649D01*
X00141129Y00259202D01*
X00140153Y00259396D01*
X00068146D01*
X00060111Y00267430D01*
X00060831Y00269168D01*
X00061123Y00271387D01*
X00060831Y00273605D01*
X00059975Y00275673D01*
X00058612Y00277449D01*
X00056837Y00278811D01*
X00054769Y00279668D01*
X00052550Y00279960D01*
D02*
G37*
G36*
X00310500Y00227995D02*
X00308939Y00227685D01*
X00307616Y00226801D01*
X00306732Y00225478D01*
X00306422Y00223917D01*
X00306732Y00222356D01*
X00307616Y00221033D01*
X00308939Y00220149D01*
X00310500Y00219839D01*
X00312061Y00220149D01*
X00313384Y00221033D01*
X00314268Y00222356D01*
X00314578Y00223917D01*
X00314268Y00225478D01*
X00313384Y00226801D01*
X00312061Y00227685D01*
X00310500Y00227995D01*
D02*
G37*
G36*
X00258568Y00242199D02*
X00256187Y00241885D01*
X00253969Y00240966D01*
X00252064Y00239504D01*
X00250602Y00237599D01*
X00249683Y00235381D01*
X00249369Y00233000D01*
X00249683Y00230619D01*
X00250602Y00228401D01*
X00252064Y00226495D01*
X00253969Y00225034D01*
X00256187Y00224115D01*
X00257651Y00223922D01*
Y00216000D01*
X00257845Y00215025D01*
X00258397Y00214198D01*
X00264163Y00208433D01*
X00263539Y00207399D01*
X00263461Y00207338D01*
X00261802Y00207556D01*
X00260105Y00207333D01*
X00258524Y00206678D01*
X00257166Y00205636D01*
X00256124Y00204278D01*
X00255822Y00203549D01*
X00139060D01*
X00138656Y00203468D01*
X00137409Y00203985D01*
X00135712Y00204208D01*
X00134015Y00203985D01*
X00132434Y00203330D01*
X00131076Y00202288D01*
X00130035Y00200930D01*
X00129380Y00199349D01*
X00129156Y00197652D01*
X00129380Y00195955D01*
X00130035Y00194374D01*
X00131076Y00193016D01*
X00132434Y00191974D01*
X00134015Y00191320D01*
X00135712Y00191096D01*
X00137409Y00191320D01*
X00138990Y00191974D01*
X00140348Y00193016D01*
X00141390Y00194374D01*
X00142045Y00195955D01*
X00142268Y00197652D01*
X00142969Y00198451D01*
X00255822D01*
X00256124Y00197722D01*
X00257166Y00196364D01*
X00258524Y00195322D01*
X00260105Y00194667D01*
X00261802Y00194444D01*
X00263499Y00194667D01*
X00265080Y00195322D01*
X00266438Y00196364D01*
X00267480Y00197722D01*
X00268135Y00199303D01*
X00268358Y00201000D01*
X00268140Y00202659D01*
X00268201Y00202737D01*
X00269235Y00203361D01*
X00270886Y00201709D01*
X00271071Y00200303D01*
X00271726Y00198722D01*
X00272768Y00197364D01*
X00274126Y00196322D01*
X00275707Y00195667D01*
X00277404Y00195444D01*
X00279101Y00195667D01*
X00280682Y00196322D01*
X00282040Y00197364D01*
X00283082Y00198722D01*
X00283737Y00200303D01*
X00283960Y00202000D01*
X00283737Y00203697D01*
X00283082Y00205278D01*
X00282040Y00206636D01*
X00280682Y00207678D01*
X00279101Y00208333D01*
X00277404Y00208556D01*
X00275707Y00208333D01*
X00274126Y00207678D01*
X00272995Y00206810D01*
X00262749Y00217056D01*
Y00224860D01*
X00263167Y00225034D01*
X00265073Y00226495D01*
X00266534Y00228401D01*
X00267453Y00230619D01*
X00267767Y00233000D01*
X00267453Y00235381D01*
X00266534Y00237599D01*
X00265073Y00239504D01*
X00263167Y00240966D01*
X00260949Y00241885D01*
X00258568Y00242199D01*
D02*
G37*
G36*
X00020000Y00187008D02*
X00011000Y00187008D01*
X00010761Y00186910D01*
X00009303Y00186718D01*
X00007722Y00186063D01*
X00006364Y00185021D01*
X00005322Y00183663D01*
X00004667Y00182082D01*
X00004475Y00180624D01*
X00004376Y00180385D01*
Y00167385D01*
X00004852Y00166237D01*
X00006000Y00165761D01*
X00025000D01*
X00026148Y00166237D01*
X00026624Y00167385D01*
Y00180385D01*
X00026525Y00180624D01*
X00026333Y00182082D01*
X00025678Y00183663D01*
X00024636Y00185021D01*
X00023278Y00186063D01*
X00021697Y00186718D01*
X00020239Y00186910D01*
X00020000Y00187008D01*
D02*
G37*
G36*
X00042500Y00178210D02*
X00040216Y00177910D01*
X00038087Y00177028D01*
X00036260Y00175625D01*
X00034857Y00173798D01*
X00033975Y00171669D01*
X00033675Y00169385D01*
X00033975Y00167101D01*
X00034857Y00164972D01*
X00036260Y00163144D01*
X00038087Y00161742D01*
X00040216Y00160860D01*
X00042500Y00160559D01*
X00044784Y00160860D01*
X00046913Y00161742D01*
X00048741Y00163144D01*
X00050143Y00164972D01*
X00051025Y00167101D01*
X00051326Y00169385D01*
X00051025Y00171669D01*
X00050143Y00173798D01*
X00048741Y00175625D01*
X00046913Y00177028D01*
X00044784Y00177910D01*
X00042500Y00178210D01*
D02*
G37*
G36*
X00356498Y00199649D02*
X00354801Y00199426D01*
X00353220Y00198771D01*
X00351862Y00197729D01*
X00350820Y00196371D01*
X00350165Y00194790D01*
X00349942Y00193093D01*
X00350165Y00191396D01*
X00350820Y00189815D01*
X00351862Y00188457D01*
X00353220Y00187415D01*
X00354801Y00186760D01*
X00356498Y00186537D01*
X00358195Y00186760D01*
X00359776Y00187415D01*
X00361134Y00188457D01*
X00362176Y00189815D01*
X00362478Y00190544D01*
X00430776D01*
X00487123Y00134197D01*
X00487950Y00133645D01*
X00488925Y00133451D01*
X00537000D01*
X00537302Y00132722D01*
X00538344Y00131364D01*
X00539702Y00130322D01*
X00541283Y00129667D01*
X00542980Y00129444D01*
X00544677Y00129667D01*
X00546258Y00130322D01*
X00547616Y00131364D01*
X00548658Y00132722D01*
X00549313Y00134303D01*
X00549536Y00136000D01*
X00549313Y00137697D01*
X00548658Y00139278D01*
X00547616Y00140636D01*
X00546258Y00141678D01*
X00544677Y00142332D01*
X00542980Y00142556D01*
X00541283Y00142332D01*
X00539702Y00141678D01*
X00538344Y00140636D01*
X00537302Y00139278D01*
X00537000Y00138549D01*
X00489981D01*
X00433634Y00194895D01*
X00432808Y00195448D01*
X00431832Y00195642D01*
X00362478D01*
X00362176Y00196371D01*
X00361134Y00197729D01*
X00359776Y00198771D01*
X00358195Y00199426D01*
X00356498Y00199649D01*
D02*
G37*
G36*
X00157256Y00164556D02*
X00155559Y00164333D01*
X00153977Y00163678D01*
X00152620Y00162636D01*
X00151578Y00161278D01*
X00150923Y00159697D01*
X00150700Y00158000D01*
X00150923Y00156303D01*
X00151578Y00154722D01*
X00152620Y00153364D01*
X00153977Y00152322D01*
X00155559Y00151667D01*
X00157256Y00151444D01*
X00158952Y00151667D01*
X00159682Y00151969D01*
X00176735Y00134916D01*
X00176667Y00134753D01*
X00176444Y00133056D01*
X00176667Y00131359D01*
X00177322Y00129778D01*
X00178364Y00128420D01*
X00179722Y00127378D01*
X00181303Y00126723D01*
X00183000Y00126500D01*
X00184697Y00126723D01*
X00186278Y00127378D01*
X00187636Y00128420D01*
X00188678Y00129778D01*
X00189333Y00131359D01*
X00189556Y00133056D01*
X00189333Y00134753D01*
X00188678Y00136334D01*
X00187636Y00137692D01*
X00186278Y00138734D01*
X00184697Y00139389D01*
X00183000Y00139612D01*
X00181303Y00139389D01*
X00180008Y00138852D01*
X00163286Y00155574D01*
X00163588Y00156303D01*
X00163812Y00158000D01*
X00163588Y00159697D01*
X00162933Y00161278D01*
X00161891Y00162636D01*
X00160534Y00163678D01*
X00158952Y00164333D01*
X00157256Y00164556D01*
D02*
G37*
G36*
X00389515Y00179219D02*
X00375000D01*
X00374025Y00179025D01*
X00373198Y00178472D01*
X00260275Y00065549D01*
X00212368D01*
X00211393Y00065355D01*
X00210566Y00064802D01*
X00195302Y00049539D01*
X00194949Y00049685D01*
X00192568Y00049998D01*
X00190187Y00049685D01*
X00187969Y00048766D01*
X00186064Y00047304D01*
X00184870Y00045749D01*
X00174866D01*
X00173673Y00047304D01*
X00171768Y00048766D01*
X00169549Y00049685D01*
X00167168Y00049998D01*
X00164787Y00049685D01*
X00162569Y00048766D01*
X00160664Y00047304D01*
X00159202Y00045399D01*
X00158283Y00043181D01*
X00157970Y00040800D01*
X00158283Y00038419D01*
X00159202Y00036200D01*
X00160664Y00034295D01*
X00162569Y00032833D01*
X00164787Y00031915D01*
X00167168Y00031601D01*
X00169549Y00031915D01*
X00171768Y00032833D01*
X00173673Y00034295D01*
X00175134Y00036200D01*
X00176053Y00038419D01*
X00176347Y00040651D01*
X00183389D01*
X00183683Y00038419D01*
X00184602Y00036200D01*
X00186064Y00034295D01*
X00187969Y00032833D01*
X00190187Y00031915D01*
X00192568Y00031601D01*
X00194949Y00031915D01*
X00197167Y00032833D01*
X00199073Y00034295D01*
X00200534Y00036200D01*
X00201453Y00038419D01*
X00201767Y00040800D01*
X00201453Y00043181D01*
X00200534Y00045399D01*
X00199596Y00046623D01*
X00213424Y00060451D01*
X00261330D01*
X00262306Y00060645D01*
X00263133Y00061198D01*
X00281034Y00079099D01*
X00282237Y00078506D01*
X00282124Y00077650D01*
X00282348Y00075953D01*
X00282649Y00075224D01*
X00253198Y00045772D01*
X00252801Y00045178D01*
X00251916Y00045103D01*
X00251412Y00045212D01*
X00251334Y00045399D01*
X00249873Y00047304D01*
X00247967Y00048766D01*
X00245749Y00049685D01*
X00243368Y00049998D01*
X00240987Y00049685D01*
X00238769Y00048766D01*
X00236864Y00047304D01*
X00235670Y00045749D01*
X00225666D01*
X00224473Y00047304D01*
X00222568Y00048766D01*
X00220349Y00049685D01*
X00217968Y00049998D01*
X00215587Y00049685D01*
X00213369Y00048766D01*
X00211464Y00047304D01*
X00210002Y00045399D01*
X00209083Y00043181D01*
X00208769Y00040800D01*
X00209083Y00038419D01*
X00210002Y00036200D01*
X00211464Y00034295D01*
X00213369Y00032833D01*
X00215587Y00031915D01*
X00217968Y00031601D01*
X00220349Y00031915D01*
X00222568Y00032833D01*
X00224473Y00034295D01*
X00225934Y00036200D01*
X00226853Y00038419D01*
X00227147Y00040651D01*
X00234189D01*
X00234483Y00038419D01*
X00235402Y00036200D01*
X00236864Y00034295D01*
X00238769Y00032833D01*
X00240987Y00031915D01*
X00243368Y00031601D01*
X00245749Y00031915D01*
X00247967Y00032833D01*
X00249191Y00033772D01*
X00262488Y00020475D01*
X00263315Y00019923D01*
X00264290Y00019729D01*
X00328265D01*
X00328321Y00019303D01*
X00328976Y00017722D01*
X00330018Y00016364D01*
X00331376Y00015322D01*
X00332957Y00014667D01*
X00334654Y00014444D01*
X00336351Y00014667D01*
X00337932Y00015322D01*
X00339290Y00016364D01*
X00340332Y00017722D01*
X00340987Y00019303D01*
X00341210Y00021000D01*
X00341055Y00022181D01*
X00341906Y00023451D01*
X00530968D01*
X00531944Y00023645D01*
X00532771Y00024197D01*
X00542345Y00033772D01*
X00543569Y00032833D01*
X00545787Y00031915D01*
X00548168Y00031601D01*
X00550549Y00031915D01*
X00552767Y00032833D01*
X00554673Y00034295D01*
X00556134Y00036200D01*
X00557053Y00038419D01*
X00557347Y00040651D01*
X00564389D01*
X00564683Y00038419D01*
X00565602Y00036200D01*
X00567064Y00034295D01*
X00568969Y00032833D01*
X00571187Y00031915D01*
X00573568Y00031601D01*
X00575949Y00031915D01*
X00578167Y00032833D01*
X00580073Y00034295D01*
X00581534Y00036200D01*
X00582453Y00038419D01*
X00582767Y00040800D01*
X00582453Y00043181D01*
X00581534Y00045399D01*
X00580073Y00047304D01*
X00578167Y00048766D01*
X00575949Y00049685D01*
X00573568Y00049998D01*
X00571187Y00049685D01*
X00568969Y00048766D01*
X00567064Y00047304D01*
X00565870Y00045749D01*
X00555866D01*
X00554673Y00047304D01*
X00552767Y00048766D01*
X00550549Y00049685D01*
X00548168Y00049998D01*
X00545787Y00049685D01*
X00543569Y00048766D01*
X00541664Y00047304D01*
X00540202Y00045399D01*
X00539283Y00043181D01*
X00538969Y00040800D01*
X00539283Y00038419D01*
X00539429Y00038066D01*
X00529912Y00028549D01*
X00341317D01*
X00339563Y00030302D01*
X00338736Y00030855D01*
X00337761Y00031049D01*
X00331548D01*
X00330572Y00030855D01*
X00329745Y00030302D01*
X00327992Y00028549D01*
X00266710D01*
X00263446Y00031812D01*
X00264169Y00032833D01*
X00266387Y00031915D01*
X00268768Y00031601D01*
X00271149Y00031915D01*
X00273368Y00032833D01*
X00275273Y00034295D01*
X00276734Y00036200D01*
X00277653Y00038419D01*
X00277947Y00040651D01*
X00279856D01*
X00280832Y00040845D01*
X00281659Y00041398D01*
X00284238Y00043977D01*
X00285315Y00043257D01*
X00285283Y00043181D01*
X00284970Y00040800D01*
X00285283Y00038419D01*
X00286202Y00036200D01*
X00287664Y00034295D01*
X00289569Y00032833D01*
X00291787Y00031915D01*
X00294168Y00031601D01*
X00296549Y00031915D01*
X00298768Y00032833D01*
X00300673Y00034295D01*
X00302134Y00036200D01*
X00303053Y00038419D01*
X00303347Y00040651D01*
X00310389D01*
X00310683Y00038419D01*
X00311602Y00036200D01*
X00313064Y00034295D01*
X00314969Y00032833D01*
X00317187Y00031915D01*
X00319568Y00031601D01*
X00321949Y00031915D01*
X00324168Y00032833D01*
X00326073Y00034295D01*
X00327534Y00036200D01*
X00328453Y00038419D01*
X00328747Y00040651D01*
X00330656D01*
X00331632Y00040845D01*
X00332459Y00041398D01*
X00335038Y00043977D01*
X00336115Y00043257D01*
X00336083Y00043181D01*
X00335770Y00040800D01*
X00336083Y00038419D01*
X00337002Y00036200D01*
X00338464Y00034295D01*
X00340369Y00032833D01*
X00342587Y00031915D01*
X00344968Y00031601D01*
X00347349Y00031915D01*
X00349567Y00032833D01*
X00351473Y00034295D01*
X00352934Y00036200D01*
X00353853Y00038419D01*
X00354167Y00040800D01*
X00353853Y00043181D01*
X00352934Y00045399D01*
X00351996Y00046623D01*
X00360916Y00055543D01*
X00479310D01*
X00480286Y00055737D01*
X00481113Y00056289D01*
X00507039Y00082216D01*
X00507303Y00082107D01*
X00509000Y00081883D01*
X00510697Y00082107D01*
X00512278Y00082762D01*
X00513636Y00083804D01*
X00514678Y00085161D01*
X00515332Y00086742D01*
X00515556Y00088439D01*
X00515332Y00090136D01*
X00514678Y00091717D01*
X00513636Y00093075D01*
X00512278Y00094117D01*
X00510697Y00094772D01*
X00509000Y00094995D01*
X00507303Y00094772D01*
X00505722Y00094117D01*
X00504364Y00093075D01*
X00503322Y00091717D01*
X00502667Y00090136D01*
X00502444Y00088439D01*
X00502667Y00086742D01*
X00503162Y00085548D01*
X00478254Y00060641D01*
X00472905D01*
X00472419Y00061814D01*
X00499771Y00089165D01*
X00499771Y00089165D01*
X00500323Y00089992D01*
X00500517Y00090968D01*
X00500323Y00091943D01*
X00499771Y00092770D01*
X00487368Y00105173D01*
X00486541Y00105725D01*
X00485565Y00105919D01*
X00484590Y00105725D01*
X00483763Y00105173D01*
X00483039Y00104449D01*
X00482567Y00104355D01*
X00482369Y00104223D01*
X00439980D01*
X00439678Y00104952D01*
X00439369Y00105355D01*
X00439995Y00106625D01*
X00445084D01*
X00446059Y00106819D01*
X00446886Y00107371D01*
X00469826Y00130311D01*
X00470535Y00130017D01*
X00472232Y00129794D01*
X00473929Y00130017D01*
X00475510Y00130672D01*
X00476868Y00131714D01*
X00477910Y00133072D01*
X00478565Y00134653D01*
X00478788Y00136350D01*
X00478565Y00138047D01*
X00477910Y00139628D01*
X00476868Y00140986D01*
X00475510Y00142028D01*
X00473929Y00142683D01*
X00472232Y00142906D01*
X00470535Y00142683D01*
X00468954Y00142028D01*
X00468330Y00141549D01*
X00443349D01*
X00443047Y00142278D01*
X00442005Y00143636D01*
X00440648Y00144678D01*
X00439066Y00145333D01*
X00437369Y00145556D01*
X00435673Y00145333D01*
X00434091Y00144678D01*
X00432734Y00143636D01*
X00431692Y00142278D01*
X00431037Y00140697D01*
X00430813Y00139000D01*
X00431037Y00137303D01*
X00431692Y00135722D01*
X00432734Y00134364D01*
X00434091Y00133322D01*
X00435673Y00132667D01*
X00437369Y00132444D01*
X00439066Y00132667D01*
X00440648Y00133322D01*
X00442005Y00134364D01*
X00443047Y00135722D01*
X00443349Y00136451D01*
X00465587D01*
X00465676Y00136350D01*
X00465899Y00134653D01*
X00466210Y00133904D01*
X00444028Y00111723D01*
X00434939D01*
X00434939Y00111723D01*
X00428726D01*
X00427750Y00111529D01*
X00426923Y00110976D01*
X00422530Y00106583D01*
X00421977Y00105756D01*
X00421920Y00105470D01*
X00421548Y00105301D01*
X00420575Y00105218D01*
X00419737Y00106309D01*
X00418380Y00107351D01*
X00416798Y00108006D01*
X00415102Y00108230D01*
X00413405Y00108006D01*
X00411824Y00107351D01*
X00410466Y00106309D01*
X00409424Y00104952D01*
X00408769Y00103371D01*
X00408545Y00101674D01*
X00408769Y00099977D01*
X00409424Y00098396D01*
X00410466Y00097038D01*
X00411824Y00095996D01*
X00412553Y00095694D01*
Y00093779D01*
X00411379Y00093293D01*
X00386519Y00118154D01*
X00386802Y00118437D01*
X00387355Y00119264D01*
X00387549Y00120240D01*
X00387355Y00121215D01*
X00386802Y00122042D01*
X00386605Y00122240D01*
X00386802Y00122437D01*
X00387355Y00123264D01*
X00387549Y00124240D01*
Y00155020D01*
X00388278Y00155322D01*
X00389636Y00156364D01*
X00390678Y00157722D01*
X00391333Y00159303D01*
X00391556Y00161000D01*
X00391333Y00162697D01*
X00390678Y00164278D01*
X00389636Y00165636D01*
X00388278Y00166678D01*
X00386697Y00167333D01*
X00385000Y00167556D01*
X00383303Y00167333D01*
X00381722Y00166678D01*
X00380364Y00165636D01*
X00379322Y00164278D01*
X00378667Y00162697D01*
X00378444Y00161000D01*
X00378667Y00159303D01*
X00379322Y00157722D01*
X00380364Y00156364D01*
X00381722Y00155322D01*
X00382451Y00155020D01*
Y00125295D01*
X00381198Y00124042D01*
X00380645Y00123215D01*
X00380451Y00122240D01*
X00380645Y00121264D01*
X00381198Y00120437D01*
X00381395Y00120240D01*
X00381112Y00119956D01*
X00380559Y00119129D01*
X00380365Y00118154D01*
X00380559Y00117178D01*
X00381112Y00116351D01*
X00413429Y00084034D01*
X00397036Y00067641D01*
X00301748D01*
X00300773Y00067447D01*
X00299946Y00066894D01*
X00278801Y00045749D01*
X00276466D01*
X00275273Y00047304D01*
X00273368Y00048766D01*
X00271149Y00049685D01*
X00268768Y00049998D01*
X00266387Y00049685D01*
X00265924Y00049493D01*
X00265205Y00050570D01*
X00286254Y00071619D01*
X00286983Y00071317D01*
X00288680Y00071094D01*
X00290377Y00071317D01*
X00291958Y00071972D01*
X00293316Y00073014D01*
X00294358Y00074372D01*
X00295013Y00075953D01*
X00295236Y00077650D01*
X00295013Y00079347D01*
X00294358Y00080928D01*
X00293316Y00082286D01*
X00291958Y00083328D01*
X00290377Y00083982D01*
X00288680Y00084206D01*
X00287824Y00084093D01*
X00287231Y00085296D01*
X00376056Y00174121D01*
X00388460D01*
X00396798Y00165782D01*
Y00127837D01*
X00396654Y00127778D01*
X00395296Y00126736D01*
X00394254Y00125378D01*
X00393600Y00123797D01*
X00393376Y00122100D01*
X00393600Y00120403D01*
X00394254Y00118822D01*
X00395296Y00117464D01*
X00396654Y00116422D01*
X00398235Y00115767D01*
X00399932Y00115544D01*
X00401629Y00115767D01*
X00403210Y00116422D01*
X00404568Y00117464D01*
X00405610Y00118822D01*
X00406265Y00120403D01*
X00406488Y00122100D01*
X00406265Y00123797D01*
X00405610Y00125378D01*
X00404568Y00126736D01*
X00403210Y00127778D01*
X00401896Y00128322D01*
Y00166838D01*
X00401702Y00167814D01*
X00401149Y00168641D01*
X00391318Y00178472D01*
X00390491Y00179025D01*
X00389515Y00179219D01*
D02*
G37*
G36*
X00042500Y00128210D02*
X00040216Y00127910D01*
X00038087Y00127028D01*
X00036260Y00125625D01*
X00034857Y00123798D01*
X00033975Y00121669D01*
X00033675Y00119385D01*
X00033975Y00117101D01*
X00034857Y00114972D01*
X00036260Y00113144D01*
X00038087Y00111742D01*
X00040216Y00110860D01*
X00042500Y00110559D01*
X00044784Y00110860D01*
X00046913Y00111742D01*
X00048741Y00113144D01*
X00050143Y00114972D01*
X00051025Y00117101D01*
X00051326Y00119385D01*
X00051025Y00121669D01*
X00050143Y00123798D01*
X00048741Y00125625D01*
X00046913Y00127028D01*
X00044784Y00127910D01*
X00042500Y00128210D01*
D02*
G37*
G36*
X00025000Y00123008D02*
X00006000D01*
X00004852Y00122533D01*
X00004376Y00121385D01*
Y00108385D01*
X00004476Y00108146D01*
X00004667Y00106688D01*
X00005322Y00105107D01*
X00006364Y00103749D01*
X00007722Y00102707D01*
X00009303Y00102052D01*
X00010761Y00101860D01*
X00011000Y00101761D01*
X00020001Y00101762D01*
X00020239Y00101860D01*
X00021697Y00102052D01*
X00023278Y00102707D01*
X00024636Y00103749D01*
X00025678Y00105107D01*
X00026333Y00106688D01*
X00026525Y00108146D01*
X00026624Y00108385D01*
Y00121385D01*
X00026148Y00122533D01*
X00025000Y00123008D01*
D02*
G37*
G36*
X00061840Y00218271D02*
X00060144Y00218047D01*
X00058562Y00217392D01*
X00057205Y00216350D01*
X00056163Y00214993D01*
X00055508Y00213411D01*
X00055284Y00211715D01*
X00055508Y00210018D01*
X00056163Y00208437D01*
X00057205Y00207079D01*
X00058562Y00206037D01*
X00059292Y00205735D01*
Y00110891D01*
X00043431Y00095030D01*
X00042702Y00095332D01*
X00041005Y00095556D01*
X00039309Y00095332D01*
X00037727Y00094677D01*
X00036370Y00093636D01*
X00035328Y00092278D01*
X00034673Y00090697D01*
X00034449Y00089000D01*
X00034673Y00087303D01*
X00035328Y00085722D01*
X00036370Y00084364D01*
X00037727Y00083322D01*
X00039309Y00082667D01*
X00041005Y00082444D01*
X00042702Y00082667D01*
X00044283Y00083322D01*
X00045641Y00084364D01*
X00046683Y00085722D01*
X00047338Y00087303D01*
X00047561Y00089000D01*
X00047338Y00090697D01*
X00047036Y00091426D01*
X00063643Y00108032D01*
X00064195Y00108859D01*
X00064389Y00109835D01*
Y00205735D01*
X00065118Y00206037D01*
X00066476Y00207079D01*
X00067518Y00208437D01*
X00068173Y00210018D01*
X00068397Y00211715D01*
X00068173Y00213411D01*
X00067518Y00214993D01*
X00066476Y00216350D01*
X00065118Y00217392D01*
X00063537Y00218047D01*
X00061840Y00218271D01*
D02*
G37*
G36*
X00018772Y00093629D02*
Y00084818D01*
X00027583D01*
X00027401Y00086201D01*
X00026377Y00088672D01*
X00024748Y00090795D01*
X00022626Y00092423D01*
X00020155Y00093447D01*
X00018772Y00093629D01*
D02*
G37*
G36*
X00016232Y00093629D02*
X00014850Y00093447D01*
X00012378Y00092423D01*
X00010256Y00090795D01*
X00008627Y00088672D01*
X00007604Y00086201D01*
X00007422Y00084818D01*
X00016232D01*
Y00093629D01*
D02*
G37*
G36*
Y00082278D02*
X00007422D01*
X00007604Y00080896D01*
X00008627Y00078425D01*
X00010256Y00076302D01*
X00012378Y00074674D01*
X00014850Y00073650D01*
X00016232Y00073468D01*
Y00082278D01*
D02*
G37*
G36*
X00027583D02*
X00018772D01*
Y00073468D01*
X00020155Y00073650D01*
X00022626Y00074674D01*
X00024748Y00076302D01*
X00026377Y00078425D01*
X00027401Y00080896D01*
X00027583Y00082278D01*
D02*
G37*
G36*
X00017502Y00067347D02*
X00015121Y00067034D01*
X00012903Y00066115D01*
X00010998Y00064653D01*
X00009536Y00062748D01*
X00008617Y00060529D01*
X00008303Y00058149D01*
X00008617Y00055768D01*
X00009536Y00053549D01*
X00010998Y00051644D01*
X00012903Y00050182D01*
X00015121Y00049263D01*
X00017502Y00048950D01*
X00019883Y00049263D01*
X00022102Y00050182D01*
X00024007Y00051644D01*
X00025468Y00053549D01*
X00026387Y00055768D01*
X00026701Y00058149D01*
X00026387Y00060529D01*
X00025468Y00062748D01*
X00024007Y00064653D01*
X00022102Y00066115D01*
X00019883Y00067034D01*
X00017502Y00067347D01*
D02*
G37*
G36*
X00522768Y00049998D02*
X00520387Y00049685D01*
X00518169Y00048766D01*
X00516264Y00047304D01*
X00515070Y00045749D01*
X00505066D01*
X00503873Y00047304D01*
X00501968Y00048766D01*
X00499749Y00049685D01*
X00497368Y00049998D01*
X00494987Y00049685D01*
X00492769Y00048766D01*
X00490864Y00047304D01*
X00489402Y00045399D01*
X00488483Y00043181D01*
X00488170Y00040800D01*
X00488483Y00038419D01*
X00489402Y00036200D01*
X00490864Y00034295D01*
X00492769Y00032833D01*
X00494987Y00031915D01*
X00497368Y00031601D01*
X00499749Y00031915D01*
X00501968Y00032833D01*
X00503873Y00034295D01*
X00505334Y00036200D01*
X00506253Y00038419D01*
X00506547Y00040651D01*
X00513589D01*
X00513883Y00038419D01*
X00514802Y00036200D01*
X00516264Y00034295D01*
X00518169Y00032833D01*
X00520387Y00031915D01*
X00522768Y00031601D01*
X00525149Y00031915D01*
X00527368Y00032833D01*
X00529273Y00034295D01*
X00530734Y00036200D01*
X00531653Y00038419D01*
X00531967Y00040800D01*
X00531653Y00043181D01*
X00530734Y00045399D01*
X00529273Y00047304D01*
X00527368Y00048766D01*
X00525149Y00049685D01*
X00522768Y00049998D01*
D02*
G37*
G36*
X00471968D02*
X00469587Y00049685D01*
X00467369Y00048766D01*
X00465464Y00047304D01*
X00464270Y00045749D01*
X00454266D01*
X00453073Y00047304D01*
X00451167Y00048766D01*
X00448949Y00049685D01*
X00446568Y00049998D01*
X00444187Y00049685D01*
X00441969Y00048766D01*
X00440064Y00047304D01*
X00438602Y00045399D01*
X00437683Y00043181D01*
X00437369Y00040800D01*
X00437683Y00038419D01*
X00438602Y00036200D01*
X00440064Y00034295D01*
X00441969Y00032833D01*
X00444187Y00031915D01*
X00446568Y00031601D01*
X00448949Y00031915D01*
X00451167Y00032833D01*
X00453073Y00034295D01*
X00454534Y00036200D01*
X00455453Y00038419D01*
X00455747Y00040651D01*
X00462789D01*
X00463083Y00038419D01*
X00464002Y00036200D01*
X00465464Y00034295D01*
X00467369Y00032833D01*
X00469587Y00031915D01*
X00471968Y00031601D01*
X00474349Y00031915D01*
X00476567Y00032833D01*
X00478473Y00034295D01*
X00479934Y00036200D01*
X00480853Y00038419D01*
X00481167Y00040800D01*
X00480853Y00043181D01*
X00479934Y00045399D01*
X00478473Y00047304D01*
X00476567Y00048766D01*
X00474349Y00049685D01*
X00471968Y00049998D01*
D02*
G37*
G36*
X00397038Y00050880D02*
Y00042070D01*
X00405849D01*
X00405667Y00043452D01*
X00404643Y00045924D01*
X00403014Y00048046D01*
X00400892Y00049675D01*
X00398420Y00050698D01*
X00397038Y00050880D01*
D02*
G37*
G36*
X00066838D02*
Y00042070D01*
X00075649D01*
X00075467Y00043452D01*
X00074443Y00045924D01*
X00072814Y00048046D01*
X00070692Y00049675D01*
X00068220Y00050698D01*
X00066838Y00050880D01*
D02*
G37*
G36*
X00422438D02*
Y00042070D01*
X00431249D01*
X00431067Y00043452D01*
X00430043Y00045924D01*
X00428414Y00048046D01*
X00426292Y00049675D01*
X00423820Y00050698D01*
X00422438Y00050880D01*
D02*
G37*
G36*
X00371638D02*
Y00042070D01*
X00380449D01*
X00380267Y00043452D01*
X00379243Y00045924D01*
X00377614Y00048046D01*
X00375492Y00049675D01*
X00373020Y00050698D01*
X00371638Y00050880D01*
D02*
G37*
G36*
X00394498Y00050880D02*
X00393116Y00050698D01*
X00390644Y00049675D01*
X00388522Y00048046D01*
X00386893Y00045924D01*
X00385870Y00043452D01*
X00385688Y00042070D01*
X00394498D01*
Y00050880D01*
D02*
G37*
G36*
X00064298D02*
X00062916Y00050698D01*
X00060444Y00049675D01*
X00058322Y00048046D01*
X00056693Y00045924D01*
X00055670Y00043452D01*
X00055488Y00042070D01*
X00064298D01*
Y00050880D01*
D02*
G37*
G36*
X00419898D02*
X00418516Y00050698D01*
X00416044Y00049675D01*
X00413922Y00048046D01*
X00412293Y00045924D01*
X00411270Y00043452D01*
X00411088Y00042070D01*
X00419898D01*
Y00050880D01*
D02*
G37*
G36*
X00369098D02*
X00367716Y00050698D01*
X00365244Y00049675D01*
X00363122Y00048046D01*
X00361493Y00045924D01*
X00360470Y00043452D01*
X00360288Y00042070D01*
X00369098D01*
Y00050880D01*
D02*
G37*
G36*
X00141768Y00049998D02*
X00139387Y00049685D01*
X00137169Y00048766D01*
X00135264Y00047304D01*
X00133802Y00045399D01*
X00132883Y00043181D01*
X00132570Y00040800D01*
X00132883Y00038419D01*
X00133802Y00036200D01*
X00135264Y00034295D01*
X00137169Y00032833D01*
X00139387Y00031915D01*
X00141768Y00031601D01*
X00144149Y00031915D01*
X00146368Y00032833D01*
X00148273Y00034295D01*
X00149734Y00036200D01*
X00150653Y00038419D01*
X00150967Y00040800D01*
X00150653Y00043181D01*
X00149734Y00045399D01*
X00148273Y00047304D01*
X00146368Y00048766D01*
X00144149Y00049685D01*
X00141768Y00049998D01*
D02*
G37*
G36*
X00431249Y00039530D02*
X00422438D01*
Y00030719D01*
X00423820Y00030901D01*
X00426292Y00031925D01*
X00428414Y00033554D01*
X00430043Y00035676D01*
X00431067Y00038147D01*
X00431249Y00039530D01*
D02*
G37*
G36*
X00405849D02*
X00397038D01*
Y00030719D01*
X00398420Y00030901D01*
X00400892Y00031925D01*
X00403014Y00033554D01*
X00404643Y00035676D01*
X00405667Y00038147D01*
X00405849Y00039530D01*
D02*
G37*
G36*
X00380449D02*
X00371638D01*
Y00030719D01*
X00373020Y00030901D01*
X00375492Y00031925D01*
X00377614Y00033554D01*
X00379243Y00035676D01*
X00380267Y00038147D01*
X00380449Y00039530D01*
D02*
G37*
G36*
X00075649D02*
X00066838D01*
Y00030719D01*
X00068220Y00030901D01*
X00070692Y00031925D01*
X00072814Y00033554D01*
X00074443Y00035676D01*
X00075467Y00038147D01*
X00075649Y00039530D01*
D02*
G37*
G36*
X00419898D02*
X00411088D01*
X00411270Y00038147D01*
X00412293Y00035676D01*
X00413922Y00033554D01*
X00416044Y00031925D01*
X00418516Y00030901D01*
X00419898Y00030719D01*
Y00039530D01*
D02*
G37*
G36*
X00394498D02*
X00385688D01*
X00385870Y00038147D01*
X00386893Y00035676D01*
X00388522Y00033554D01*
X00390644Y00031925D01*
X00393116Y00030901D01*
X00394498Y00030719D01*
Y00039530D01*
D02*
G37*
G36*
X00369098D02*
X00360288D01*
X00360470Y00038147D01*
X00361493Y00035676D01*
X00363122Y00033554D01*
X00365244Y00031925D01*
X00367716Y00030901D01*
X00369098Y00030719D01*
Y00039530D01*
D02*
G37*
G36*
X00064298D02*
X00055488D01*
X00055670Y00038147D01*
X00056693Y00035676D01*
X00058322Y00033554D01*
X00060444Y00031925D01*
X00062916Y00030901D01*
X00064298Y00030719D01*
Y00039530D01*
D02*
G37*
%LPD*%
G36*
X00020000Y00180385D02*
X00011000D01*
Y00185385D01*
X00020000Y00185385D01*
Y00180385D01*
D02*
G37*
G36*
X00025000Y00167385D02*
X00006000D01*
Y00180385D01*
X00025000D01*
Y00167385D01*
D02*
G37*
G36*
Y00108385D02*
X00006000D01*
Y00121385D01*
X00025000D01*
Y00108385D01*
D02*
G37*
G36*
X00020000Y00103385D02*
X00011000Y00103385D01*
Y00108385D01*
X00020000D01*
Y00103385D01*
D02*
G37*
D14*
X00509514Y00307140D02*
X00530500D01*
X00504535Y00302160D02*
X00509514Y00307140D01*
X00500544Y00302160D02*
X00504535D01*
X00385000Y00124240D02*
Y00161000D01*
X00383000Y00122240D02*
X00385000Y00124240D01*
X00383000Y00122240D02*
X00385000Y00120240D01*
X00382914Y00118154D02*
X00385000Y00120240D01*
X00412668Y00244000D02*
X00425667Y00257000D01*
X00375999Y00243700D02*
Y00254000D01*
Y00243700D02*
X00376299Y00244000D01*
X00412668D01*
X00391594Y00257150D02*
Y00259768D01*
X00392248Y00260423D01*
X00389574Y00263097D02*
X00392248Y00260423D01*
X00182200Y00133056D02*
X00183000D01*
X00157256Y00158000D02*
X00182200Y00133056D01*
X00083568Y00116000D02*
X00216089D01*
X00307089Y00207000D01*
X00140153Y00256847D02*
X00160000Y00237000D01*
X00179769D01*
X00469582Y00139000D02*
X00472232Y00136350D01*
X00437369Y00139000D02*
X00469582D01*
X00425667Y00257000D02*
X00455384D01*
X00500544Y00302160D01*
X00277404Y00201966D02*
Y00202000D01*
X00275819Y00200381D02*
X00277404Y00201966D01*
X00289712Y00198712D02*
Y00246798D01*
X00276325Y00185324D02*
X00289712Y00198712D01*
X00150283Y00185324D02*
X00276325D01*
X00135000Y00295565D02*
X00155283D01*
X00156280Y00294568D01*
X00162778Y00301065D01*
X00222753D01*
X00176000Y00327000D02*
X00191000Y00312000D01*
X00432000Y00301065D02*
Y00307943D01*
X00427943Y00312000D02*
X00432000Y00307943D01*
X00191000Y00312000D02*
X00427943D01*
X00116968Y00348000D02*
X00137968Y00327000D01*
X00176000D01*
X00139060Y00201000D02*
X00261802D01*
X00135712Y00197652D02*
X00139060Y00201000D01*
X00464513Y00093983D02*
X00472232Y00086264D01*
X00434939Y00109174D02*
X00434939Y00109174D01*
X00428916Y00093983D02*
X00464513D01*
X00428726Y00109174D02*
X00434939D01*
X00424332Y00098567D02*
X00428916Y00093983D01*
X00424332Y00104780D02*
X00428726Y00109174D01*
X00424332Y00098567D02*
Y00104780D01*
X00431832Y00101674D02*
X00483216D01*
X00483542Y00102000D01*
X00483869Y00101674D01*
X00434939Y00109174D02*
X00445084D01*
X00485565Y00103371D02*
X00497968Y00090968D01*
X00483869Y00101674D02*
X00485565Y00103371D01*
X00445084Y00109174D02*
X00472232Y00136322D01*
X00415102Y00091898D02*
Y00101674D01*
Y00091898D02*
X00420000Y00087000D01*
X00417034Y00084034D02*
X00420000Y00087000D01*
X00472232Y00136322D02*
Y00136350D01*
X00468592Y00061592D02*
X00497968Y00090968D01*
X00471968Y00086000D02*
X00472232Y00086264D01*
X00530500Y00307140D02*
X00537000Y00313640D01*
X00071914Y00389000D02*
X00076642D01*
X00094642Y00371000D01*
X00155000Y00385000D02*
X00503768D01*
X00507768Y00389000D01*
X00479310Y00058092D02*
X00509658Y00088439D01*
X00509000D02*
X00509658D01*
X00264290Y00022278D02*
X00333376D01*
X00334654Y00021000D01*
X00340261Y00026000D02*
X00530968D01*
X00337761Y00028500D02*
X00340261Y00026000D01*
X00331548Y00028500D02*
X00337761D01*
X00329047Y00026000D02*
X00331548Y00028500D01*
X00265654Y00026000D02*
X00329047D01*
X00241587Y00262477D02*
X00267278D01*
Y00262756D01*
X00283522Y00278999D01*
X00304999D01*
X00305558Y00249999D02*
X00306999D01*
X00488925Y00136000D02*
X00542980D01*
X00431832Y00193093D02*
X00488925Y00136000D01*
X00356498Y00193093D02*
X00431832D01*
X00261330Y00063000D02*
X00375000Y00176670D01*
X00212368Y00063000D02*
X00261330D01*
X00192568Y00043200D02*
X00212368Y00063000D01*
X00398092Y00065092D02*
X00417034Y00084034D01*
X00382914Y00118154D02*
X00417034Y00084034D01*
X00301748Y00065092D02*
X00398092D01*
X00279856Y00043200D02*
X00301748Y00065092D01*
X00268768Y00043200D02*
X00279856D01*
X00349048Y00061592D02*
X00468592D01*
X00330656Y00043200D02*
X00349048Y00061592D01*
X00319568Y00043200D02*
X00330656D01*
X00399347Y00122685D02*
Y00166838D01*
X00389515Y00176670D02*
X00399347Y00166838D01*
X00375000Y00176670D02*
X00389515D01*
X00372146Y00263097D02*
X00389574D01*
X00361324Y00252275D02*
X00372146Y00263097D01*
X00052550Y00271387D02*
X00067090Y00256847D01*
X00140153D01*
X00041005Y00089000D02*
X00061840Y00109835D01*
Y00211715D01*
X00471000Y00323390D02*
Y00346432D01*
X00472568Y00348000D01*
X00320168D02*
Y00367832D01*
X00317000Y00371000D02*
X00320168Y00367832D01*
X00094642Y00371000D02*
X00317000D01*
X00438286Y00306800D02*
Y00325701D01*
Y00306800D02*
X00440500Y00304586D01*
Y00297544D02*
Y00304586D01*
X00438286Y00295330D02*
X00440500Y00297544D01*
X00438286Y00270286D02*
Y00295330D01*
X00307089Y00207000D02*
X00327000D01*
X00255000Y00043970D02*
X00288680Y00077650D01*
X00255000Y00036654D02*
Y00043970D01*
Y00036654D02*
X00265654Y00026000D01*
X00530968D02*
X00548168Y00043200D01*
X00243368D02*
X00264290Y00022278D01*
X00537000Y00336232D02*
X00548768Y00348000D01*
X00537000Y00313640D02*
Y00336232D01*
X00447826Y00331000D02*
X00479818Y00299008D01*
X00286368Y00331000D02*
X00447826D01*
X00269368Y00348000D02*
X00286368Y00331000D01*
X00188524Y00327244D02*
X00438286Y00325701D01*
X00167768Y00348000D02*
X00188524Y00327244D01*
X00507768Y00389000D02*
X00548768Y00348000D01*
X00361324Y00215467D02*
Y00252275D01*
X00226857Y00081000D02*
X00361324Y00215467D01*
X00154168Y00081000D02*
X00226857D01*
X00258568Y00233000D02*
X00260200Y00231368D01*
Y00216000D02*
Y00231368D01*
X00302356Y00246798D02*
X00305558Y00249999D01*
X00289712Y00246798D02*
X00302356D01*
X00327000Y00225444D02*
X00347608Y00246052D01*
X00327000Y00207000D02*
Y00225444D01*
X00548168Y00043200D02*
X00573568D01*
X00345568Y00348000D02*
X00370968D01*
X00347608Y00246052D02*
Y00248846D01*
X00260200Y00216000D02*
X00275819Y00200381D01*
X00447168Y00348000D02*
X00472568D01*
X00446568Y00043200D02*
X00471968D01*
X00396368Y00348000D02*
X00421768D01*
X00497368Y00043200D02*
X00522768D01*
X00484517Y00206555D02*
X00530618Y00160454D01*
X00365134Y00206555D02*
X00484517D01*
X00243968Y00348000D02*
X00269368D01*
X00193168D02*
X00218568D01*
X00359860Y00058092D02*
X00479310D01*
X00344968Y00043200D02*
X00359860Y00058092D01*
X00167168Y00043200D02*
X00192568D01*
X00142368Y00348000D02*
X00167768D01*
X00090968Y00043200D02*
X00116368D01*
X00091568Y00348000D02*
X00116968D01*
X00294168Y00043200D02*
X00319568D01*
X00217968D02*
X00243368D01*
X00116368D02*
X00154168Y00081000D01*
D39*
X00013500Y00180385D02*
G03*
X00013500Y00180385I-00002500J00000000D01*
G01*
X00022500D02*
G03*
X00022500Y00180385I-00002500J00000000D01*
G01*
X00022500Y00108385D02*
G03*
X00022500Y00108385I-00002500J00000000D01*
G01*
X00013500D02*
G03*
X00013500Y00108385I-00002500J00000000D01*
G01*
D67*
X00042500Y00119385D02*
D03*
Y00169385D02*
D03*
D68*
X00167168Y00040800D02*
D03*
X00141768D02*
D03*
X00065568D02*
D03*
X00116368D02*
D03*
X00090968D02*
D03*
X00243368D02*
D03*
X00268768D02*
D03*
X00217968D02*
D03*
X00192568D02*
D03*
X00294168D02*
D03*
X00319568D02*
D03*
X00370368D02*
D03*
X00344968D02*
D03*
X00548168D02*
D03*
X00573568D02*
D03*
X00522768D02*
D03*
X00497368D02*
D03*
X00395768D02*
D03*
X00421168D02*
D03*
X00471968D02*
D03*
X00446568D02*
D03*
X00167768Y00348000D02*
D03*
X00142368D02*
D03*
X00066168D02*
D03*
X00116968D02*
D03*
X00091568D02*
D03*
X00243968D02*
D03*
X00269368D02*
D03*
X00218568D02*
D03*
X00193168D02*
D03*
X00294768D02*
D03*
X00320168D02*
D03*
X00370968D02*
D03*
X00345568D02*
D03*
X00548768D02*
D03*
X00574168D02*
D03*
X00523368D02*
D03*
X00497968D02*
D03*
X00396368D02*
D03*
X00421768D02*
D03*
X00472568D02*
D03*
X00447168D02*
D03*
X00258568Y00233000D02*
D03*
X00017502Y00083549D02*
D03*
Y00058149D02*
D03*
D69*
X00052550Y00322187D02*
D03*
Y00271387D02*
D03*
Y00296786D02*
D03*
D70*
X00385000Y00161000D02*
D03*
X00375999Y00254000D02*
D03*
X00391594Y00257150D02*
D03*
X00183000Y00133056D02*
D03*
X00157256Y00158000D02*
D03*
X00179769Y00237000D02*
D03*
X00437369Y00139000D02*
D03*
X00277404Y00202000D02*
D03*
X00135000Y00295565D02*
D03*
X00222753Y00301065D02*
D03*
X00432000D02*
D03*
X00261802Y00201000D02*
D03*
X00434000Y00101674D02*
D03*
X00415102Y00101674D02*
D03*
X00471968Y00086000D02*
D03*
X00472232Y00136350D02*
D03*
X00518000Y00298640D02*
D03*
X00071914Y00389000D02*
D03*
X00155000Y00385000D02*
D03*
X00509000Y00088439D02*
D03*
X00334654Y00021000D02*
D03*
X00304999Y00278999D02*
D03*
X00241587Y00262477D02*
D03*
X00306999Y00249999D02*
D03*
X00061840Y00211715D02*
D03*
X00041005Y00089000D02*
D03*
X00471000Y00323390D02*
D03*
X00438286Y00270286D02*
D03*
X00542980Y00136000D02*
D03*
X00537000Y00313640D02*
D03*
X00083568Y00116000D02*
D03*
X00347608Y00248846D02*
D03*
X00356498Y00193093D02*
D03*
X00530618Y00160454D02*
D03*
X00365134Y00206555D02*
D03*
X00479818Y00299008D02*
D03*
X00399932Y00122100D02*
D03*
X00135712Y00197652D02*
D03*
X00288680Y00077650D02*
D03*
X00150283Y00185324D02*
D03*
D71*
X00310500Y00212917D02*
D03*
Y00223917D02*
D03*
X00321500Y00212917D02*
D03*
Y00223917D02*
D03*
M02*
