M48
;Layer_Color=9474304
;FILE_FORMAT=4:4
METRIC
;TYPE=PLATED
T1F00S00C0.3000
T2F00S00C0.9000
T3F00S00C1.0000
%
T01
X01088000Y00682000
X01023000Y00920000
T02
X01193400Y00615350
X01250650Y00615550
X01145000Y00614850
X01093000
X01048000
X01000000Y00615550
X00956000Y00614600
X00894000Y00614850
X00833000Y00614600
X00769000
X00780000Y01017200
X00831000
X00883000Y01017000
X00934000Y01017200
X00989000
X01037000Y01017000
X01087000
X01137000Y01017200
X01189000
X01242000Y01017000
T03
X01199850Y00656000
X01225250
X01250650
X01174450
X01149050
X01123650
X01098250
X01072850
X01047450
X01022050
X00996650
X00971250
X00945850
X00920450
X00895050
X00869650
X00844250
X00818850
X00793450
X00768050
X00742650
Y00963150
X00768050
X00793450
X00818850
X00844250
X00869650
X00895050
X00920450
X00945850
X00971250
X00996650
X01022050
X01047450
X01072850
X01098250
X01123650
X01149050
X01174450
X01199850
X01225250
X01250650
M30
