G04*
G04 #@! TF.GenerationSoftware,Altium Limited,Altium Designer,18.1.6 (161)*
G04*
G04 Layer_Physical_Order=1*
G04 Layer_Color=255*
%FSAX44Y44*%
%MOMM*%
G71*
G01*
G75*
%ADD11C,0.1000*%
%ADD14C,0.2000*%
%ADD17R,1.3500X0.4000*%
%ADD18R,1.9000X1.5000*%
%ADD19R,1.5500X1.3000*%
%ADD20R,1.0000X0.9500*%
%ADD21R,0.9500X1.0000*%
%ADD22R,4.0000X4.0000*%
%ADD23R,0.8000X0.3000*%
%ADD24R,2.5500X2.5500*%
%ADD25O,0.8500X0.3000*%
%ADD26O,0.3000X0.8500*%
%ADD27R,0.6500X1.3500*%
%ADD28R,0.5500X1.0000*%
%ADD29R,2.1500X3.2500*%
%ADD30R,2.1500X1.0000*%
%ADD31R,0.5500X0.5500*%
%ADD32R,0.5500X0.5500*%
%ADD33R,0.8000X0.6000*%
%ADD34R,1.8000X7.5000*%
%ADD35R,0.4500X0.5900*%
%ADD36R,0.8000X0.8000*%
%ADD37R,0.8500X0.8500*%
%ADD38R,0.8500X0.8500*%
%ADD39C,0.5000*%
%ADD68C,0.4000*%
%ADD69C,1.4500*%
%ADD70C,1.5240*%
%ADD71C,1.4000*%
%ADD72C,1.0000*%
%ADD73C,1.2000*%
%ADD74C,0.5000*%
G36*
X00587510Y00324370D02*
X00583313D01*
Y00317580D01*
X00582043D01*
Y00316310D01*
X00575253D01*
Y00310878D01*
X00574528D01*
Y00305358D01*
X00581318D01*
Y00304088D01*
X00582588D01*
Y00297298D01*
X00587510D01*
Y00293040D01*
X00582688D01*
Y00285750D01*
Y00278460D01*
X00587510D01*
X00587510Y00121540D01*
X00582688D01*
Y00114250D01*
Y00106960D01*
X00587510D01*
Y00003059D01*
X00003059D01*
X00003059Y00397941D01*
X00031576D01*
X00032560Y00397250D01*
X00032560Y00396671D01*
Y00380750D01*
X00042060D01*
Y00385432D01*
X00066460D01*
X00067279Y00384364D01*
X00068636Y00383323D01*
X00070218Y00382668D01*
X00071914Y00382444D01*
X00073611Y00382668D01*
X00075192Y00383323D01*
X00076550Y00384364D01*
X00077592Y00385722D01*
X00078247Y00387303D01*
X00078471Y00389000D01*
X00078247Y00390697D01*
X00077592Y00392278D01*
X00076550Y00393636D01*
X00075192Y00394678D01*
X00073611Y00395333D01*
X00071914Y00395556D01*
X00070218Y00395333D01*
X00068636Y00394678D01*
X00067279Y00393636D01*
X00066460Y00392569D01*
X00042060D01*
X00042060Y00397250D01*
X00043044Y00397941D01*
X00587510D01*
Y00324370D01*
D02*
G37*
%LPC*%
G36*
X00155000Y00391556D02*
X00153303Y00391333D01*
X00151722Y00390678D01*
X00150364Y00389636D01*
X00149322Y00388278D01*
X00148667Y00386697D01*
X00148444Y00385000D01*
X00148667Y00383303D01*
X00149322Y00381722D01*
X00150364Y00380364D01*
X00151722Y00379322D01*
X00152451Y00379020D01*
Y00350653D01*
X00151253Y00350381D01*
X00150334Y00352599D01*
X00148872Y00354504D01*
X00146967Y00355966D01*
X00144749Y00356885D01*
X00142368Y00357198D01*
X00139987Y00356885D01*
X00137769Y00355966D01*
X00135864Y00354504D01*
X00134402Y00352599D01*
X00133483Y00350381D01*
X00133169Y00348000D01*
X00133483Y00345619D01*
X00134402Y00343400D01*
X00135864Y00341495D01*
X00137769Y00340033D01*
X00139987Y00339115D01*
X00142368Y00338801D01*
X00144749Y00339115D01*
X00146967Y00340033D01*
X00148872Y00341495D01*
X00150334Y00343400D01*
X00151253Y00345619D01*
X00152451Y00345347D01*
Y00331886D01*
X00144492D01*
Y00315887D01*
X00161202D01*
Y00312907D01*
X00166722D01*
Y00318426D01*
X00162992D01*
Y00321338D01*
X00164742D01*
X00164988Y00321386D01*
X00173742D01*
Y00332887D01*
X00162242D01*
Y00331886D01*
X00157549D01*
Y00346020D01*
X00158819Y00346104D01*
X00158883Y00345619D01*
X00159802Y00343400D01*
X00161264Y00341495D01*
X00163169Y00340033D01*
X00165387Y00339115D01*
X00167768Y00338801D01*
X00170149Y00339115D01*
X00172367Y00340033D01*
X00174272Y00341495D01*
X00175734Y00343400D01*
X00176653Y00345619D01*
X00176967Y00348000D01*
X00176653Y00350381D01*
X00175734Y00352599D01*
X00174272Y00354504D01*
X00172367Y00355966D01*
X00170149Y00356885D01*
X00167768Y00357198D01*
X00165387Y00356885D01*
X00163169Y00355966D01*
X00161264Y00354504D01*
X00159802Y00352599D01*
X00158883Y00350381D01*
X00158819Y00349896D01*
X00157549Y00349979D01*
Y00379020D01*
X00158278Y00379322D01*
X00159636Y00380364D01*
X00160678Y00381722D01*
X00161333Y00383303D01*
X00161556Y00385000D01*
X00161333Y00386697D01*
X00160678Y00388278D01*
X00159636Y00389636D01*
X00158278Y00390678D01*
X00156697Y00391333D01*
X00155000Y00391556D01*
D02*
G37*
G36*
X00524638Y00358080D02*
Y00349270D01*
X00533448D01*
X00533266Y00350652D01*
X00532243Y00353124D01*
X00530614Y00355246D01*
X00528492Y00356875D01*
X00526020Y00357898D01*
X00524638Y00358080D01*
D02*
G37*
G36*
X00296038D02*
Y00349270D01*
X00304848D01*
X00304667Y00350652D01*
X00303643Y00353124D01*
X00302014Y00355246D01*
X00299892Y00356875D01*
X00297420Y00357898D01*
X00296038Y00358080D01*
D02*
G37*
G36*
X00067438D02*
Y00349270D01*
X00076248D01*
X00076066Y00350652D01*
X00075043Y00353124D01*
X00073414Y00355246D01*
X00071292Y00356875D01*
X00068820Y00357898D01*
X00067438Y00358080D01*
D02*
G37*
G36*
X00499238D02*
Y00349270D01*
X00508049D01*
X00507867Y00350652D01*
X00506843Y00353124D01*
X00505214Y00355246D01*
X00503092Y00356875D01*
X00500620Y00357898D01*
X00499238Y00358080D01*
D02*
G37*
G36*
X00522098D02*
X00520716Y00357898D01*
X00518244Y00356875D01*
X00516122Y00355246D01*
X00514493Y00353124D01*
X00513470Y00350652D01*
X00513288Y00349270D01*
X00522098D01*
Y00358080D01*
D02*
G37*
G36*
X00293498D02*
X00292116Y00357898D01*
X00289644Y00356875D01*
X00287522Y00355246D01*
X00285893Y00353124D01*
X00284869Y00350652D01*
X00284688Y00349270D01*
X00293498D01*
Y00358080D01*
D02*
G37*
G36*
X00064898D02*
X00063516Y00357898D01*
X00061044Y00356875D01*
X00058922Y00355246D01*
X00057293Y00353124D01*
X00056269Y00350652D01*
X00056087Y00349270D01*
X00064898D01*
Y00358080D01*
D02*
G37*
G36*
X00548768Y00357198D02*
X00546387Y00356885D01*
X00544169Y00355966D01*
X00542264Y00354504D01*
X00540802Y00352599D01*
X00539883Y00350381D01*
X00539569Y00348000D01*
X00539883Y00345619D01*
X00540802Y00343400D01*
X00542264Y00341495D01*
X00544169Y00340033D01*
X00546387Y00339115D01*
X00548768Y00338801D01*
X00551149Y00339115D01*
X00553367Y00340033D01*
X00555272Y00341495D01*
X00556734Y00343400D01*
X00557653Y00345619D01*
X00557967Y00348000D01*
X00557653Y00350381D01*
X00556734Y00352599D01*
X00555272Y00354504D01*
X00553367Y00355966D01*
X00551149Y00356885D01*
X00548768Y00357198D01*
D02*
G37*
G36*
X00269368D02*
X00266987Y00356885D01*
X00264769Y00355966D01*
X00262864Y00354504D01*
X00261402Y00352599D01*
X00260483Y00350381D01*
X00260169Y00348000D01*
X00260483Y00345619D01*
X00261402Y00343400D01*
X00262864Y00341495D01*
X00264769Y00340033D01*
X00266987Y00339115D01*
X00269368Y00338801D01*
X00271749Y00339115D01*
X00273967Y00340033D01*
X00275872Y00341495D01*
X00277334Y00343400D01*
X00278253Y00345619D01*
X00278567Y00348000D01*
X00278253Y00350381D01*
X00277334Y00352599D01*
X00275872Y00354504D01*
X00273967Y00355966D01*
X00271749Y00356885D01*
X00269368Y00357198D01*
D02*
G37*
G36*
X00243968D02*
X00241587Y00356885D01*
X00239369Y00355966D01*
X00237464Y00354504D01*
X00236002Y00352599D01*
X00235083Y00350381D01*
X00234769Y00348000D01*
X00235083Y00345619D01*
X00236002Y00343400D01*
X00237464Y00341495D01*
X00239369Y00340033D01*
X00241587Y00339115D01*
X00243968Y00338801D01*
X00246349Y00339115D01*
X00248567Y00340033D01*
X00250473Y00341495D01*
X00251934Y00343400D01*
X00252853Y00345619D01*
X00253167Y00348000D01*
X00252853Y00350381D01*
X00251934Y00352599D01*
X00250473Y00354504D01*
X00248567Y00355966D01*
X00246349Y00356885D01*
X00243968Y00357198D01*
D02*
G37*
G36*
X00193168D02*
X00190787Y00356885D01*
X00188569Y00355966D01*
X00186664Y00354504D01*
X00185202Y00352599D01*
X00184283Y00350381D01*
X00183969Y00348000D01*
X00184283Y00345619D01*
X00185202Y00343400D01*
X00186664Y00341495D01*
X00188569Y00340033D01*
X00190787Y00339115D01*
X00193168Y00338801D01*
X00195549Y00339115D01*
X00197767Y00340033D01*
X00199673Y00341495D01*
X00201134Y00343400D01*
X00202053Y00345619D01*
X00202367Y00348000D01*
X00202053Y00350381D01*
X00201134Y00352599D01*
X00199673Y00354504D01*
X00197767Y00355966D01*
X00195549Y00356885D01*
X00193168Y00357198D01*
D02*
G37*
G36*
X00116968D02*
X00114587Y00356885D01*
X00112369Y00355966D01*
X00110464Y00354504D01*
X00109002Y00352599D01*
X00108083Y00350381D01*
X00107769Y00348000D01*
X00108083Y00345619D01*
X00109002Y00343400D01*
X00110464Y00341495D01*
X00112369Y00340033D01*
X00114587Y00339115D01*
X00116968Y00338801D01*
X00119349Y00339115D01*
X00121567Y00340033D01*
X00123472Y00341495D01*
X00124934Y00343400D01*
X00125853Y00345619D01*
X00126167Y00348000D01*
X00125853Y00350381D01*
X00124934Y00352599D01*
X00123472Y00354504D01*
X00121567Y00355966D01*
X00119349Y00356885D01*
X00116968Y00357198D01*
D02*
G37*
G36*
X00091568D02*
X00089187Y00356885D01*
X00086969Y00355966D01*
X00085064Y00354504D01*
X00083602Y00352599D01*
X00082683Y00350381D01*
X00082369Y00348000D01*
X00082683Y00345619D01*
X00083602Y00343400D01*
X00085064Y00341495D01*
X00086969Y00340033D01*
X00089187Y00339115D01*
X00091568Y00338801D01*
X00093949Y00339115D01*
X00096167Y00340033D01*
X00098073Y00341495D01*
X00099534Y00343400D01*
X00100453Y00345619D01*
X00100767Y00348000D01*
X00100453Y00350381D01*
X00099534Y00352599D01*
X00098073Y00354504D01*
X00096167Y00355966D01*
X00093949Y00356885D01*
X00091568Y00357198D01*
D02*
G37*
G36*
X00533448Y00346730D02*
X00524638D01*
Y00337919D01*
X00526020Y00338101D01*
X00528492Y00339125D01*
X00530614Y00340754D01*
X00532243Y00342876D01*
X00533266Y00345348D01*
X00533448Y00346730D01*
D02*
G37*
G36*
X00508049D02*
X00499238D01*
Y00337919D01*
X00500620Y00338101D01*
X00503092Y00339125D01*
X00505214Y00340754D01*
X00506843Y00342876D01*
X00507867Y00345348D01*
X00508049Y00346730D01*
D02*
G37*
G36*
X00304848D02*
X00296038D01*
Y00337919D01*
X00297420Y00338101D01*
X00299892Y00339125D01*
X00302014Y00340754D01*
X00303643Y00342876D01*
X00304667Y00345348D01*
X00304848Y00346730D01*
D02*
G37*
G36*
X00076248D02*
X00067438D01*
Y00337919D01*
X00068820Y00338101D01*
X00071292Y00339125D01*
X00073414Y00340754D01*
X00075043Y00342876D01*
X00076066Y00345348D01*
X00076248Y00346730D01*
D02*
G37*
G36*
X00522098D02*
X00513288D01*
X00513470Y00345348D01*
X00514493Y00342876D01*
X00516122Y00340754D01*
X00518244Y00339125D01*
X00520716Y00338101D01*
X00522098Y00337919D01*
Y00346730D01*
D02*
G37*
G36*
X00293498D02*
X00284688D01*
X00284869Y00345348D01*
X00285893Y00342876D01*
X00287522Y00340754D01*
X00289644Y00339125D01*
X00292116Y00338101D01*
X00293498Y00337919D01*
Y00346730D01*
D02*
G37*
G36*
X00064898D02*
X00056087D01*
X00056269Y00345348D01*
X00057293Y00342876D01*
X00058922Y00340754D01*
X00061044Y00339125D01*
X00063516Y00338101D01*
X00064898Y00337919D01*
Y00346730D01*
D02*
G37*
G36*
X00084532Y00332926D02*
X00075512D01*
Y00325157D01*
X00084532D01*
Y00332926D01*
D02*
G37*
G36*
X00072972D02*
X00063952D01*
Y00325157D01*
X00072972D01*
Y00332926D01*
D02*
G37*
G36*
X00580773Y00324370D02*
X00575253D01*
Y00318850D01*
X00580773D01*
Y00324370D01*
D02*
G37*
G36*
X00084532Y00322617D02*
X00075512D01*
Y00314847D01*
X00084532D01*
Y00322617D01*
D02*
G37*
G36*
X00072972D02*
X00063952D01*
Y00314847D01*
X00072972D01*
Y00322617D01*
D02*
G37*
G36*
X00052550Y00330760D02*
X00050331Y00330468D01*
X00048263Y00329611D01*
X00046488Y00328249D01*
X00045125Y00326473D01*
X00044269Y00324406D01*
X00043977Y00322187D01*
X00044269Y00319968D01*
X00045125Y00317900D01*
X00046488Y00316124D01*
X00048263Y00314762D01*
X00050331Y00313905D01*
X00052550Y00313613D01*
X00054769Y00313905D01*
X00056837Y00314762D01*
X00058612Y00316124D01*
X00059975Y00317900D01*
X00060831Y00319968D01*
X00061123Y00322187D01*
X00060831Y00324406D01*
X00059975Y00326473D01*
X00058612Y00328249D01*
X00056837Y00329611D01*
X00054769Y00330468D01*
X00052550Y00330760D01*
D02*
G37*
G36*
X00335608Y00319580D02*
X00323588D01*
Y00313310D01*
X00335608D01*
Y00319580D01*
D02*
G37*
G36*
X00321048D02*
X00309028D01*
Y00313310D01*
X00321048D01*
Y00319580D01*
D02*
G37*
G36*
X00174782Y00318426D02*
X00169262D01*
Y00312907D01*
X00174782D01*
Y00318426D01*
D02*
G37*
G36*
X00345311Y00379549D02*
X00235000D01*
X00234024Y00379355D01*
X00233197Y00378802D01*
X00216766Y00362370D01*
X00216213Y00361544D01*
X00216019Y00360568D01*
Y00356815D01*
X00213969Y00355966D01*
X00212064Y00354504D01*
X00210602Y00352599D01*
X00209683Y00350381D01*
X00209369Y00348000D01*
X00209683Y00345619D01*
X00210602Y00343400D01*
X00212064Y00341495D01*
X00213969Y00340033D01*
X00216187Y00339115D01*
X00218568Y00338801D01*
X00220949Y00339115D01*
X00223167Y00340033D01*
X00225072Y00341495D01*
X00226534Y00343400D01*
X00227453Y00345619D01*
X00227767Y00348000D01*
X00227453Y00350381D01*
X00226534Y00352599D01*
X00225072Y00354504D01*
X00223167Y00355966D01*
X00221117Y00356815D01*
Y00359512D01*
X00236056Y00374451D01*
X00344255D01*
X00358267Y00360439D01*
Y00334800D01*
X00358461Y00333825D01*
X00359014Y00332998D01*
X00367752Y00324259D01*
X00368579Y00323707D01*
X00369554Y00323513D01*
X00418688D01*
X00433496Y00308705D01*
X00432903Y00307502D01*
X00432000Y00307621D01*
X00430303Y00307398D01*
X00428722Y00306743D01*
X00427364Y00305701D01*
X00426322Y00304343D01*
X00425798Y00303078D01*
X00424528Y00303330D01*
Y00307260D01*
X00419008D01*
Y00300470D01*
X00417738D01*
Y00299200D01*
X00410948D01*
Y00293680D01*
X00412163D01*
X00412967Y00292410D01*
X00412773Y00292000D01*
X00409818D01*
Y00279500D01*
X00426469D01*
Y00273100D01*
X00426663Y00272124D01*
X00427216Y00271297D01*
X00430030Y00268483D01*
X00430857Y00267931D01*
X00431832Y00267737D01*
X00432306D01*
X00432608Y00267008D01*
X00433650Y00265650D01*
X00435008Y00264608D01*
X00436589Y00263953D01*
X00438286Y00263730D01*
X00439983Y00263953D01*
X00441564Y00264608D01*
X00442922Y00265650D01*
X00443964Y00267008D01*
X00444619Y00268589D01*
X00444842Y00270286D01*
X00444619Y00271983D01*
X00443964Y00273564D01*
X00442922Y00274922D01*
X00441564Y00275963D01*
X00439983Y00276618D01*
X00438286Y00276842D01*
X00436589Y00276618D01*
X00435008Y00275963D01*
X00433650Y00274922D01*
X00433553Y00274795D01*
X00432066Y00274655D01*
X00431567Y00275104D01*
Y00279500D01*
X00565150D01*
Y00272596D01*
X00562162Y00269608D01*
X00486889D01*
X00485523Y00269337D01*
X00484366Y00268563D01*
X00469926Y00254123D01*
X00469152Y00252966D01*
X00468881Y00251600D01*
Y00141971D01*
X00467596Y00140986D01*
X00466554Y00139628D01*
X00465899Y00138047D01*
X00465676Y00136350D01*
X00465899Y00134653D01*
X00466554Y00133072D01*
X00467596Y00131714D01*
X00468954Y00130672D01*
X00470535Y00130017D01*
X00472232Y00129794D01*
X00473929Y00130017D01*
X00475510Y00130672D01*
X00476868Y00131714D01*
X00477910Y00133072D01*
X00478565Y00134653D01*
X00478788Y00136350D01*
X00478565Y00138047D01*
X00477910Y00139628D01*
X00476868Y00140986D01*
X00476018Y00141638D01*
Y00250122D01*
X00488367Y00262471D01*
X00563640D01*
X00565005Y00262743D01*
X00566163Y00263517D01*
X00571241Y00268595D01*
X00572015Y00269753D01*
X00572287Y00271118D01*
Y00279500D01*
X00573878D01*
Y00278460D01*
X00580148D01*
Y00285750D01*
Y00293040D01*
X00573878D01*
Y00292000D01*
X00572287D01*
Y00292100D01*
X00572015Y00293466D01*
X00571241Y00294623D01*
X00569387Y00296478D01*
Y00298338D01*
X00571568D01*
Y00309838D01*
X00569112D01*
Y00311830D01*
X00572293D01*
Y00323330D01*
X00570112D01*
Y00325297D01*
X00576691Y00331877D01*
X00577465Y00333034D01*
X00577737Y00334400D01*
Y00339607D01*
X00578767Y00340033D01*
X00580672Y00341495D01*
X00582134Y00343400D01*
X00583053Y00345619D01*
X00583367Y00348000D01*
X00583053Y00350381D01*
X00582134Y00352599D01*
X00580672Y00354504D01*
X00578767Y00355966D01*
X00576549Y00356885D01*
X00574168Y00357198D01*
X00571787Y00356885D01*
X00569569Y00355966D01*
X00567664Y00354504D01*
X00566202Y00352599D01*
X00565283Y00350381D01*
X00564969Y00348000D01*
X00565283Y00345619D01*
X00566202Y00343400D01*
X00567664Y00341495D01*
X00569569Y00340033D01*
X00570599Y00339607D01*
Y00335878D01*
X00564020Y00329299D01*
X00563246Y00328141D01*
X00563212Y00327969D01*
X00559878D01*
X00557284Y00330563D01*
X00556126Y00331337D01*
X00554760Y00331608D01*
X00524500D01*
X00523134Y00331337D01*
X00522690Y00331040D01*
X00519000D01*
Y00325589D01*
X00514000D01*
X00513024Y00325395D01*
X00512197Y00324842D01*
X00506598Y00319242D01*
X00506045Y00318415D01*
X00505851Y00317440D01*
Y00315296D01*
X00502144Y00311589D01*
X00500040D01*
Y00311770D01*
X00493500D01*
Y00314310D01*
X00500040D01*
Y00317080D01*
X00499000D01*
Y00331040D01*
X00496049D01*
Y00332504D01*
X00495855Y00333480D01*
X00495302Y00334307D01*
X00491218Y00338391D01*
X00491274Y00338729D01*
X00492651Y00339273D01*
X00492844Y00339125D01*
X00495316Y00338101D01*
X00496698Y00337919D01*
Y00348000D01*
Y00358080D01*
X00495316Y00357898D01*
X00492844Y00356875D01*
X00491667Y00355971D01*
X00491248Y00356031D01*
X00490320Y00356539D01*
X00490203Y00357127D01*
X00489650Y00357954D01*
X00482802Y00364802D01*
X00481976Y00365355D01*
X00481000Y00365549D01*
X00374200D01*
X00373224Y00365355D01*
X00372398Y00364802D01*
X00369166Y00361570D01*
X00368613Y00360743D01*
X00368419Y00359768D01*
Y00356815D01*
X00366369Y00355966D01*
X00364635Y00354636D01*
X00363365Y00354948D01*
Y00361495D01*
X00363171Y00362470D01*
X00362619Y00363297D01*
X00347113Y00378802D01*
X00346287Y00379355D01*
X00345311Y00379549D01*
D02*
G37*
G36*
X00174782Y00310367D02*
X00169262D01*
Y00304846D01*
X00174782D01*
Y00310367D01*
D02*
G37*
G36*
X00166722D02*
X00161202D01*
Y00304846D01*
X00166722D01*
Y00310367D01*
D02*
G37*
G36*
X00320168Y00357198D02*
X00317787Y00356885D01*
X00315569Y00355966D01*
X00313664Y00354504D01*
X00312202Y00352599D01*
X00311283Y00350381D01*
X00310969Y00348000D01*
X00311283Y00345619D01*
X00312202Y00343400D01*
X00313664Y00341495D01*
X00315569Y00340033D01*
X00315984Y00339861D01*
X00316187Y00338433D01*
X00309322Y00331569D01*
X00300168D01*
X00298803Y00331297D01*
X00297645Y00330523D01*
X00271755Y00304634D01*
X00228208D01*
X00227389Y00305701D01*
X00226031Y00306743D01*
X00224450Y00307398D01*
X00222753Y00307621D01*
X00221056Y00307398D01*
X00219475Y00306743D01*
X00218117Y00305701D01*
X00217075Y00304343D01*
X00216420Y00302762D01*
X00216197Y00301065D01*
X00216420Y00299368D01*
X00217075Y00297787D01*
X00218117Y00296429D01*
X00219475Y00295387D01*
X00221056Y00294732D01*
X00222753Y00294509D01*
X00224450Y00294732D01*
X00226031Y00295387D01*
X00227389Y00296429D01*
X00228208Y00297497D01*
X00273233D01*
X00274599Y00297768D01*
X00275757Y00298542D01*
X00301646Y00324431D01*
X00310800D01*
X00312166Y00324703D01*
X00313323Y00325477D01*
X00322691Y00334845D01*
X00323465Y00336002D01*
X00323737Y00337368D01*
Y00339607D01*
X00324767Y00340033D01*
X00326673Y00341495D01*
X00328134Y00343400D01*
X00329053Y00345619D01*
X00329367Y00348000D01*
X00329053Y00350381D01*
X00328134Y00352599D01*
X00326673Y00354504D01*
X00324767Y00355966D01*
X00322549Y00356885D01*
X00320168Y00357198D01*
D02*
G37*
G36*
X00335608Y00310770D02*
X00323588D01*
Y00304500D01*
X00335608D01*
Y00310770D01*
D02*
G37*
G36*
X00321048D02*
X00309028D01*
Y00304500D01*
X00321048D01*
Y00310770D01*
D02*
G37*
G36*
X00416468Y00307260D02*
X00410948D01*
Y00301740D01*
X00416468D01*
Y00307260D01*
D02*
G37*
G36*
X00201838Y00301855D02*
X00197818D01*
Y00297835D01*
X00201838D01*
Y00301855D01*
D02*
G37*
G36*
X00580048Y00302818D02*
X00574528D01*
Y00297298D01*
X00580048D01*
Y00302818D01*
D02*
G37*
G36*
X00345568Y00357198D02*
X00343187Y00356885D01*
X00340969Y00355966D01*
X00339064Y00354504D01*
X00337602Y00352599D01*
X00336683Y00350381D01*
X00336369Y00348000D01*
X00336683Y00345619D01*
X00337602Y00343400D01*
X00339064Y00341495D01*
X00340969Y00340033D01*
X00343019Y00339184D01*
Y00307306D01*
X00337259Y00301545D01*
X00309875D01*
X00308899Y00301351D01*
X00308072Y00300799D01*
X00304531Y00297257D01*
X00303978Y00296430D01*
X00303784Y00295455D01*
Y00285396D01*
X00303302Y00285332D01*
X00301721Y00284677D01*
X00300364Y00283635D01*
X00299322Y00282278D01*
X00298667Y00280696D01*
X00298443Y00278999D01*
X00298667Y00277303D01*
X00299322Y00275721D01*
X00300119Y00274682D01*
Y00271080D01*
X00296918D01*
Y00259580D01*
X00296918D01*
X00297214Y00258865D01*
X00296443Y00257887D01*
X00295135Y00257627D01*
X00293977Y00256853D01*
X00293203Y00255696D01*
X00292932Y00254330D01*
Y00241986D01*
X00287818D01*
X00286452Y00241714D01*
X00285295Y00240940D01*
X00282659Y00238305D01*
X00279366D01*
X00278347Y00239324D01*
Y00248976D01*
X00280528D01*
Y00258540D01*
X00285898D01*
Y00265330D01*
Y00272120D01*
X00281568D01*
Y00277017D01*
X00276048D01*
Y00270226D01*
Y00263437D01*
X00280378D01*
Y00260476D01*
X00269028D01*
Y00258295D01*
X00264018D01*
Y00260476D01*
X00252518D01*
Y00248976D01*
X00264018D01*
Y00251158D01*
X00269028D01*
Y00248976D01*
X00271210D01*
Y00237846D01*
X00271481Y00236480D01*
X00272255Y00235322D01*
X00274318Y00233259D01*
Y00230075D01*
X00274318Y00229805D01*
Y00228805D01*
X00274318Y00228535D01*
Y00227104D01*
X00268068D01*
X00266604Y00228568D01*
X00267453Y00230619D01*
X00267767Y00233000D01*
X00267453Y00235381D01*
X00266534Y00237599D01*
X00265073Y00239504D01*
X00263167Y00240966D01*
X00260949Y00241885D01*
X00258568Y00242199D01*
X00256187Y00241885D01*
X00253969Y00240966D01*
X00252064Y00239504D01*
X00250602Y00237599D01*
X00249683Y00235381D01*
X00249369Y00233000D01*
X00249683Y00230619D01*
X00250602Y00228401D01*
X00252064Y00226495D01*
X00253969Y00225034D01*
X00256187Y00224115D01*
X00258568Y00223801D01*
X00260949Y00224115D01*
X00262999Y00224964D01*
X00265210Y00222753D01*
X00266037Y00222200D01*
X00267012Y00222006D01*
X00274318D01*
Y00220305D01*
X00281617D01*
X00282143Y00219035D01*
X00281257Y00218149D01*
X00276402D01*
X00275427Y00217955D01*
X00274600Y00217402D01*
X00264228Y00207031D01*
X00263499Y00207333D01*
X00261802Y00207556D01*
X00260105Y00207333D01*
X00258524Y00206678D01*
X00257166Y00205636D01*
X00256124Y00204278D01*
X00255469Y00202697D01*
X00255246Y00201000D01*
X00255469Y00199303D01*
X00256124Y00197722D01*
X00257166Y00196364D01*
X00258524Y00195322D01*
X00260105Y00194667D01*
X00261802Y00194444D01*
X00263499Y00194667D01*
X00265080Y00195322D01*
X00266438Y00196364D01*
X00267480Y00197722D01*
X00268135Y00199303D01*
X00268358Y00201000D01*
X00268135Y00202697D01*
X00267833Y00203426D01*
X00271332Y00206925D01*
X00271396Y00206934D01*
X00271960Y00206295D01*
X00272165Y00205850D01*
X00271726Y00205278D01*
X00271071Y00203697D01*
X00270848Y00202000D01*
X00271071Y00200303D01*
X00271726Y00198722D01*
X00272768Y00197364D01*
X00274126Y00196322D01*
X00275707Y00195667D01*
X00277404Y00195444D01*
X00279101Y00195667D01*
X00280682Y00196322D01*
X00282040Y00197364D01*
X00283082Y00198722D01*
X00283737Y00200303D01*
X00283960Y00202000D01*
X00283760Y00203518D01*
X00289771Y00209529D01*
X00291269Y00209230D01*
X00291587Y00208754D01*
Y00208080D01*
X00290924Y00207088D01*
X00290691Y00205917D01*
X00290924Y00204747D01*
X00291587Y00203754D01*
X00292580Y00203091D01*
X00293750Y00202858D01*
X00299250D01*
X00299389Y00202886D01*
X00300469Y00201806D01*
X00300441Y00201667D01*
Y00196167D01*
X00300674Y00194997D01*
X00301337Y00194004D01*
X00302330Y00193341D01*
X00303500Y00193108D01*
X00304671Y00193341D01*
X00305663Y00194004D01*
X00306337D01*
X00307330Y00193341D01*
X00308500Y00193108D01*
X00309644Y00193336D01*
X00309671Y00193341D01*
X00310914Y00192645D01*
Y00191600D01*
X00311108Y00190625D01*
X00311660Y00189798D01*
X00313938Y00187520D01*
X00313412Y00186250D01*
X00313318D01*
Y00177750D01*
X00321778D01*
Y00176710D01*
X00325798D01*
Y00182000D01*
Y00187290D01*
X00321778D01*
Y00186250D01*
X00320117D01*
Y00187495D01*
X00319923Y00188470D01*
X00319370Y00189297D01*
X00316925Y00191742D01*
X00316987Y00192159D01*
X00318412Y00193126D01*
X00318500Y00193108D01*
X00319671Y00193341D01*
X00320663Y00194004D01*
X00321337D01*
X00322330Y00193341D01*
X00323500Y00193108D01*
X00324671Y00193341D01*
X00325663Y00194004D01*
X00326337D01*
X00327330Y00193341D01*
X00328500Y00193108D01*
X00329671Y00193341D01*
X00330663Y00194004D01*
X00331326Y00194997D01*
X00331559Y00196167D01*
Y00200677D01*
X00332052Y00201243D01*
X00332829Y00201556D01*
X00332985Y00201464D01*
X00333145Y00200661D01*
X00333698Y00199834D01*
X00354306Y00179225D01*
X00355844Y00177688D01*
Y00173565D01*
X00346393D01*
Y00171614D01*
X00342112D01*
Y00173315D01*
X00333612D01*
Y00173315D01*
X00332612D01*
Y00173315D01*
X00324112D01*
Y00165953D01*
X00323063Y00165140D01*
X00321793Y00165497D01*
Y00166685D01*
X00313293D01*
Y00158185D01*
X00313293D01*
Y00157185D01*
X00313293D01*
Y00148685D01*
X00314994D01*
Y00147309D01*
X00315188Y00146334D01*
X00315740Y00145507D01*
X00318598Y00142649D01*
X00319424Y00142097D01*
X00320400Y00141903D01*
X00357133D01*
X00358109Y00142097D01*
X00358936Y00142649D01*
X00367195Y00150909D01*
X00367747Y00151736D01*
X00367942Y00152711D01*
Y00155065D01*
X00377592D01*
Y00158451D01*
X00379020D01*
X00379322Y00157722D01*
X00380364Y00156364D01*
X00381722Y00155322D01*
X00383303Y00154667D01*
X00385000Y00154444D01*
X00386697Y00154667D01*
X00388278Y00155322D01*
X00389636Y00156364D01*
X00390678Y00157722D01*
X00391181Y00158937D01*
X00392451Y00158684D01*
Y00148808D01*
X00384026Y00140382D01*
X00383473Y00139555D01*
X00383279Y00138580D01*
Y00133056D01*
X00331398Y00081174D01*
X00330845Y00080347D01*
X00330651Y00079372D01*
Y00036693D01*
X00317506Y00023549D01*
X00165024D01*
X00150507Y00038066D01*
X00150653Y00038419D01*
X00150967Y00040800D01*
X00150653Y00043181D01*
X00149734Y00045399D01*
X00148273Y00047304D01*
X00146368Y00048766D01*
X00144149Y00049685D01*
X00141768Y00049998D01*
X00139387Y00049685D01*
X00137169Y00048766D01*
X00135264Y00047304D01*
X00133802Y00045399D01*
X00132883Y00043181D01*
X00132570Y00040800D01*
X00132883Y00038419D01*
X00133802Y00036200D01*
X00135264Y00034295D01*
X00137169Y00032833D01*
X00139387Y00031915D01*
X00141768Y00031601D01*
X00144149Y00031915D01*
X00146368Y00032833D01*
X00147591Y00033772D01*
X00162166Y00019197D01*
X00162993Y00018645D01*
X00163968Y00018451D01*
X00318562D01*
X00319538Y00018645D01*
X00320364Y00019197D01*
X00335002Y00033835D01*
X00335555Y00034662D01*
X00335749Y00035638D01*
Y00035907D01*
X00336947Y00036188D01*
X00337019Y00036178D01*
X00338464Y00034295D01*
X00340369Y00032833D01*
X00342587Y00031915D01*
X00344968Y00031601D01*
X00347349Y00031915D01*
X00349567Y00032833D01*
X00351473Y00034295D01*
X00352934Y00036200D01*
X00353853Y00038419D01*
X00354167Y00040800D01*
X00353853Y00043181D01*
X00352934Y00045399D01*
X00351473Y00047304D01*
X00349567Y00048766D01*
X00347349Y00049685D01*
X00344968Y00049998D01*
X00342587Y00049685D01*
X00340369Y00048766D01*
X00338464Y00047304D01*
X00337019Y00045422D01*
X00336947Y00045412D01*
X00335749Y00045693D01*
Y00078316D01*
X00354221Y00096788D01*
X00355451Y00096222D01*
Y00035856D01*
X00343144Y00023549D01*
X00340634D01*
X00340332Y00024278D01*
X00339290Y00025636D01*
X00337932Y00026678D01*
X00336351Y00027333D01*
X00334654Y00027556D01*
X00332957Y00027333D01*
X00331376Y00026678D01*
X00330018Y00025636D01*
X00328976Y00024278D01*
X00328321Y00022697D01*
X00328098Y00021000D01*
X00328321Y00019303D01*
X00328976Y00017722D01*
X00330018Y00016364D01*
X00331376Y00015322D01*
X00332957Y00014667D01*
X00334654Y00014444D01*
X00336351Y00014667D01*
X00337932Y00015322D01*
X00339290Y00016364D01*
X00340332Y00017722D01*
X00340634Y00018451D01*
X00344200D01*
X00345176Y00018645D01*
X00346002Y00019198D01*
X00359802Y00032998D01*
X00360355Y00033825D01*
X00360549Y00034800D01*
Y00034821D01*
X00361819Y00035252D01*
X00363122Y00033554D01*
X00365244Y00031925D01*
X00367716Y00030901D01*
X00369098Y00030719D01*
Y00040800D01*
Y00050880D01*
X00367716Y00050698D01*
X00365244Y00049675D01*
X00363122Y00048046D01*
X00361819Y00046348D01*
X00360549Y00046779D01*
Y00095636D01*
X00395370Y00130457D01*
X00395923Y00131284D01*
X00396117Y00132260D01*
Y00135684D01*
X00398395Y00137962D01*
X00399568Y00137476D01*
Y00136350D01*
X00412068D01*
Y00149050D01*
Y00153001D01*
X00415035D01*
X00416139Y00151896D01*
Y00132544D01*
X00414544Y00130949D01*
X00406232D01*
X00405257Y00130755D01*
X00404430Y00130202D01*
X00402358Y00128131D01*
X00401629Y00128433D01*
X00399932Y00128656D01*
X00398235Y00128433D01*
X00396654Y00127778D01*
X00395296Y00126736D01*
X00394254Y00125378D01*
X00393600Y00123797D01*
X00393376Y00122100D01*
X00393600Y00120403D01*
X00394254Y00118822D01*
X00395296Y00117464D01*
X00396654Y00116422D01*
X00398235Y00115767D01*
X00399932Y00115544D01*
X00401629Y00115767D01*
X00403210Y00116422D01*
X00404568Y00117464D01*
X00405610Y00118822D01*
X00406265Y00120403D01*
X00406488Y00122100D01*
X00406265Y00123797D01*
X00405963Y00124526D01*
X00407288Y00125851D01*
X00415600D01*
X00416576Y00126045D01*
X00417402Y00126598D01*
X00420491Y00129686D01*
X00421043Y00130513D01*
X00421237Y00131488D01*
Y00152952D01*
X00421043Y00153927D01*
X00420491Y00154754D01*
X00417893Y00157352D01*
X00417066Y00157905D01*
X00416091Y00158099D01*
X00412068D01*
Y00161750D01*
Y00174450D01*
Y00187150D01*
Y00199850D01*
Y00212550D01*
Y00225250D01*
Y00237950D01*
Y00249610D01*
X00413108D01*
Y00255880D01*
X00405818D01*
Y00257150D01*
X00404548D01*
Y00264690D01*
X00398528D01*
Y00260712D01*
X00397313Y00260437D01*
X00397258Y00260445D01*
X00396229Y00261786D01*
X00394871Y00262827D01*
X00393290Y00263482D01*
X00391594Y00263706D01*
X00389897Y00263482D01*
X00388316Y00262827D01*
X00387408Y00262131D01*
X00386136Y00262113D01*
X00385731Y00262274D01*
X00381545Y00266460D01*
X00380718Y00267013D01*
X00379742Y00267207D01*
X00370258D01*
X00369282Y00267013D01*
X00368455Y00266460D01*
X00361398Y00259402D01*
X00360845Y00258575D01*
X00360651Y00257600D01*
Y00248583D01*
X00350217Y00238149D01*
X00331873D01*
X00331559Y00238463D01*
Y00240667D01*
X00331326Y00241838D01*
X00330663Y00242830D01*
X00329671Y00243493D01*
X00328500Y00243726D01*
X00327330Y00243493D01*
X00326736Y00243096D01*
X00326413Y00243580D01*
X00325076Y00244473D01*
X00324532Y00244581D01*
X00324657Y00245851D01*
X00341813D01*
X00341930Y00245568D01*
X00342972Y00244210D01*
X00344330Y00243168D01*
X00345911Y00242513D01*
X00347608Y00242290D01*
X00349305Y00242513D01*
X00350886Y00243168D01*
X00352244Y00244210D01*
X00353286Y00245568D01*
X00353941Y00247149D01*
X00354164Y00248846D01*
X00353941Y00250543D01*
X00353286Y00252124D01*
X00352244Y00253482D01*
X00350886Y00254524D01*
X00349305Y00255179D01*
X00347608Y00255402D01*
X00345911Y00255179D01*
X00344330Y00254524D01*
X00342972Y00253482D01*
X00341930Y00252124D01*
X00341444Y00250949D01*
X00322500D01*
X00321525Y00250755D01*
X00320698Y00250202D01*
X00316698Y00246202D01*
X00316562Y00245999D01*
X00316008Y00245852D01*
X00315048Y00245872D01*
X00313123Y00247796D01*
X00313332Y00248302D01*
X00313556Y00249999D01*
X00313332Y00251696D01*
X00312677Y00253277D01*
X00311635Y00254635D01*
X00311524Y00254721D01*
X00311955Y00255991D01*
X00336055D01*
X00337174Y00255243D01*
X00338540Y00254971D01*
X00339905Y00255243D01*
X00341063Y00256017D01*
X00345323Y00260277D01*
X00346097Y00261434D01*
X00346369Y00262800D01*
Y00274800D01*
X00346097Y00276166D01*
X00345323Y00277323D01*
X00342623Y00280023D01*
X00341466Y00280797D01*
X00340100Y00281068D01*
X00329250D01*
X00329115Y00281270D01*
X00329794Y00282540D01*
X00334568D01*
Y00285471D01*
X00345360D01*
X00345449Y00285257D01*
X00346651Y00283691D01*
X00348218Y00282489D01*
X00350042Y00281733D01*
X00352000Y00281475D01*
X00353958Y00281733D01*
X00355782Y00282489D01*
X00357349Y00283691D01*
X00358551Y00285257D01*
X00358640Y00285471D01*
X00368568D01*
Y00271290D01*
X00393068D01*
Y00277281D01*
X00397522D01*
X00404327Y00270477D01*
X00405484Y00269703D01*
X00406850Y00269431D01*
X00412212D01*
X00425627Y00256017D01*
X00426784Y00255243D01*
X00426947Y00255210D01*
X00433636Y00248522D01*
Y00144328D01*
X00432734Y00143636D01*
X00431692Y00142278D01*
X00431037Y00140697D01*
X00430813Y00139000D01*
X00431037Y00137303D01*
X00431692Y00135722D01*
X00432734Y00134364D01*
X00434091Y00133322D01*
X00435673Y00132667D01*
X00437369Y00132444D01*
X00439066Y00132667D01*
X00440648Y00133322D01*
X00442005Y00134364D01*
X00443047Y00135722D01*
X00443702Y00137303D01*
X00443926Y00139000D01*
X00443702Y00140697D01*
X00443047Y00142278D01*
X00442005Y00143636D01*
X00440773Y00144581D01*
Y00250000D01*
X00440501Y00251366D01*
X00439728Y00252523D01*
X00431188Y00261063D01*
X00430030Y00261837D01*
X00429867Y00261869D01*
X00416213Y00275523D01*
X00415055Y00276297D01*
X00413690Y00276569D01*
X00408328D01*
X00401523Y00283373D01*
X00400366Y00284147D01*
X00399000Y00284418D01*
X00393068D01*
Y00296243D01*
X00393726Y00296901D01*
X00396488D01*
Y00294720D01*
X00407988D01*
Y00306220D01*
X00396488D01*
Y00304038D01*
X00393068D01*
Y00306790D01*
X00368568D01*
Y00292608D01*
X00358640D01*
X00358551Y00292822D01*
X00357349Y00294389D01*
X00355782Y00295591D01*
X00353958Y00296347D01*
X00352000Y00296604D01*
X00350042Y00296347D01*
X00348218Y00295591D01*
X00346651Y00294389D01*
X00345449Y00292822D01*
X00345360Y00292608D01*
X00334568D01*
Y00295540D01*
X00335443Y00296447D01*
X00338315D01*
X00339290Y00296641D01*
X00340117Y00297194D01*
X00347370Y00304447D01*
X00347923Y00305274D01*
X00348117Y00306250D01*
Y00339184D01*
X00350167Y00340033D01*
X00352072Y00341495D01*
X00353534Y00343400D01*
X00354453Y00345619D01*
X00354767Y00348000D01*
X00354453Y00350381D01*
X00353534Y00352599D01*
X00352072Y00354504D01*
X00350167Y00355966D01*
X00347949Y00356885D01*
X00345568Y00357198D01*
D02*
G37*
G36*
X00201838Y00295295D02*
X00197818D01*
Y00291275D01*
X00201838D01*
Y00295295D01*
D02*
G37*
G36*
X00195278Y00301855D02*
X00191258D01*
Y00300815D01*
X00182798D01*
Y00294920D01*
X00179943Y00292065D01*
X00172048D01*
Y00281496D01*
X00172008Y00281488D01*
X00171181Y00280936D01*
X00167198Y00276952D01*
X00166645Y00276126D01*
X00166451Y00275150D01*
Y00273327D01*
X00164262Y00271138D01*
X00162992Y00271664D01*
X00162992Y00271769D01*
X00162992Y00271769D01*
X00162992Y00271835D01*
Y00286887D01*
X00144492D01*
Y00270887D01*
X00162044Y00270886D01*
X00162110D01*
X00162110D01*
X00162215Y00270886D01*
X00162300Y00270681D01*
X00162741Y00269617D01*
X00160331Y00267207D01*
X00115930D01*
X00114955Y00267013D01*
X00114128Y00266460D01*
X00091060Y00243393D01*
X00090508Y00242566D01*
X00090314Y00241590D01*
Y00223992D01*
X00068441Y00202119D01*
X00047486D01*
X00025802Y00223802D01*
X00024976Y00224355D01*
X00024000Y00224549D01*
X00021050D01*
Y00230674D01*
X00011550D01*
Y00214174D01*
X00021050D01*
Y00219451D01*
X00022944D01*
X00044628Y00197767D01*
X00045455Y00197215D01*
X00046430Y00197021D01*
X00069497D01*
X00070472Y00197215D01*
X00071299Y00197767D01*
X00094665Y00221133D01*
X00095218Y00221960D01*
X00095412Y00222936D01*
Y00240534D01*
X00116986Y00262109D01*
X00161387D01*
X00162362Y00262303D01*
X00163189Y00262855D01*
X00170778Y00270444D01*
X00170882Y00270441D01*
X00172048Y00270047D01*
Y00265065D01*
X00175249D01*
Y00260770D01*
X00175443Y00259795D01*
X00175996Y00258968D01*
X00185852Y00249111D01*
X00186679Y00248559D01*
X00187655Y00248365D01*
X00189699D01*
X00189878Y00248329D01*
X00217664D01*
X00218640Y00248523D01*
X00219467Y00249075D01*
X00219721Y00249329D01*
X00220273Y00250156D01*
X00220467Y00251132D01*
Y00251914D01*
X00222168D01*
Y00263823D01*
X00226368D01*
Y00251914D01*
X00228069D01*
Y00223863D01*
X00228263Y00222888D01*
X00228816Y00222061D01*
X00240318Y00210559D01*
Y00205704D01*
X00239278D01*
Y00201684D01*
X00244568D01*
Y00200413D01*
X00245838D01*
Y00195124D01*
X00247269D01*
Y00193615D01*
X00247463Y00192640D01*
X00248016Y00191813D01*
X00257914Y00181914D01*
X00258741Y00181362D01*
X00259717Y00181168D01*
X00280028D01*
X00286451Y00174744D01*
Y00168000D01*
X00278500D01*
Y00090000D01*
X00286451D01*
Y00083762D01*
X00285402Y00083328D01*
X00284044Y00082286D01*
X00283002Y00080928D01*
X00282348Y00079347D01*
X00282124Y00077650D01*
X00282348Y00075953D01*
X00283002Y00074372D01*
X00284044Y00073014D01*
X00285402Y00071972D01*
X00286983Y00071317D01*
X00288680Y00071094D01*
X00290377Y00071317D01*
X00291958Y00071972D01*
X00293316Y00073014D01*
X00294358Y00074372D01*
X00295013Y00075953D01*
X00295236Y00077650D01*
X00295013Y00079347D01*
X00294358Y00080928D01*
X00293316Y00082286D01*
X00291958Y00083328D01*
X00291549Y00083497D01*
Y00090000D01*
X00299500D01*
Y00168000D01*
X00291549D01*
Y00175800D01*
X00291355Y00176775D01*
X00290802Y00177602D01*
X00282886Y00185519D01*
X00282059Y00186071D01*
X00281083Y00186266D01*
X00260772D01*
X00252367Y00194671D01*
Y00213699D01*
X00252173Y00214675D01*
X00251621Y00215502D01*
X00243549Y00223573D01*
Y00256254D01*
X00244865Y00256799D01*
X00246223Y00257841D01*
X00247265Y00259198D01*
X00247920Y00260780D01*
X00248143Y00262477D01*
X00247920Y00264173D01*
X00247265Y00265755D01*
X00246223Y00267112D01*
X00244865Y00268154D01*
X00243314Y00268797D01*
X00238602Y00273508D01*
X00237775Y00274061D01*
X00236800Y00274255D01*
X00229338D01*
Y00277295D01*
X00222548D01*
X00215758D01*
Y00275256D01*
X00214488Y00274730D01*
X00212798Y00276420D01*
Y00284315D01*
X00201298D01*
Y00281682D01*
X00199048D01*
Y00283383D01*
X00190548D01*
Y00281682D01*
X00183548D01*
Y00288460D01*
X00187403Y00292315D01*
X00191258D01*
Y00291275D01*
X00195278D01*
Y00296565D01*
Y00301855D01*
D02*
G37*
G36*
X00135000Y00302121D02*
X00133303Y00301898D01*
X00131722Y00301243D01*
X00130364Y00300201D01*
X00129322Y00298843D01*
X00128667Y00297262D01*
X00128444Y00295565D01*
X00128619Y00294231D01*
X00080981Y00246593D01*
X00080207Y00245435D01*
X00079936Y00244069D01*
Y00232297D01*
X00065057Y00217418D01*
X00063537Y00218047D01*
X00061840Y00218271D01*
X00060144Y00218047D01*
X00058562Y00217392D01*
X00057205Y00216350D01*
X00056163Y00214993D01*
X00055508Y00213411D01*
X00055284Y00211715D01*
X00055508Y00210018D01*
X00056163Y00208437D01*
X00057205Y00207079D01*
X00058562Y00206037D01*
X00060144Y00205382D01*
X00061840Y00205159D01*
X00063537Y00205382D01*
X00065118Y00206037D01*
X00066476Y00207079D01*
X00067518Y00208437D01*
X00068173Y00210018D01*
X00068237Y00210505D01*
X00086027Y00228295D01*
X00086801Y00229453D01*
X00087073Y00230819D01*
Y00242591D01*
X00133666Y00289185D01*
X00135000Y00289009D01*
X00136697Y00289232D01*
X00138278Y00289887D01*
X00139636Y00290929D01*
X00140678Y00292287D01*
X00141333Y00293868D01*
X00141556Y00295565D01*
X00141333Y00297262D01*
X00140678Y00298843D01*
X00139636Y00300201D01*
X00138278Y00301243D01*
X00136697Y00301898D01*
X00135000Y00302121D01*
D02*
G37*
G36*
X00042060Y00373250D02*
X00032560D01*
Y00356750D01*
X00034761D01*
Y00312027D01*
X00034955Y00311051D01*
X00035508Y00310224D01*
X00044989Y00300743D01*
X00044269Y00299006D01*
X00043977Y00296786D01*
X00044269Y00294568D01*
X00045125Y00292500D01*
X00046488Y00290724D01*
X00048263Y00289362D01*
X00050331Y00288505D01*
X00052550Y00288213D01*
X00054769Y00288505D01*
X00056837Y00289362D01*
X00058612Y00290724D01*
X00059975Y00292500D01*
X00060831Y00294568D01*
X00061123Y00296786D01*
X00060831Y00299006D01*
X00059975Y00301073D01*
X00058612Y00302849D01*
X00056837Y00304211D01*
X00054769Y00305068D01*
X00052550Y00305360D01*
X00050331Y00305068D01*
X00048593Y00304348D01*
X00039859Y00313082D01*
Y00356750D01*
X00042060D01*
Y00373250D01*
D02*
G37*
G36*
X00229338Y00285355D02*
X00223818D01*
Y00279835D01*
X00229338D01*
Y00285355D01*
D02*
G37*
G36*
X00221278D02*
X00215758D01*
Y00279835D01*
X00221278D01*
Y00285355D01*
D02*
G37*
G36*
X00273508Y00277017D02*
X00267988D01*
Y00271497D01*
X00273508D01*
Y00277017D01*
D02*
G37*
G36*
X00265058D02*
X00259538D01*
Y00271497D01*
X00265058D01*
Y00277017D01*
D02*
G37*
G36*
X00256998D02*
X00251478D01*
Y00271497D01*
X00256998D01*
Y00277017D01*
D02*
G37*
G36*
X00083492Y00286887D02*
X00064992D01*
Y00270887D01*
X00083492D01*
Y00286887D01*
D02*
G37*
G36*
X00293958Y00272120D02*
X00288438D01*
Y00266600D01*
X00293958D01*
Y00272120D01*
D02*
G37*
G36*
X00273508Y00268957D02*
X00267988D01*
Y00263437D01*
X00273508D01*
Y00268957D01*
D02*
G37*
G36*
X00265058D02*
X00259538D01*
Y00263437D01*
X00265058D01*
Y00268957D01*
D02*
G37*
G36*
X00256998D02*
X00251478D01*
Y00263437D01*
X00256998D01*
Y00268957D01*
D02*
G37*
G36*
X00052550Y00279960D02*
X00050331Y00279668D01*
X00048263Y00278811D01*
X00046488Y00277449D01*
X00045125Y00275673D01*
X00044269Y00273605D01*
X00043977Y00271387D01*
X00044269Y00269168D01*
X00045125Y00267100D01*
X00046488Y00265324D01*
X00048263Y00263962D01*
X00050331Y00263105D01*
X00052550Y00262813D01*
X00054769Y00263105D01*
X00056837Y00263962D01*
X00058612Y00265324D01*
X00059975Y00267100D01*
X00060831Y00269168D01*
X00061123Y00271387D01*
X00060831Y00273605D01*
X00059975Y00275673D01*
X00058612Y00277449D01*
X00056837Y00278811D01*
X00054769Y00279668D01*
X00052550Y00279960D01*
D02*
G37*
G36*
X00293958Y00264060D02*
X00288438D01*
Y00258540D01*
X00293958D01*
Y00264060D01*
D02*
G37*
G36*
X00413108Y00264690D02*
X00407088D01*
Y00258420D01*
X00413108D01*
Y00264690D01*
D02*
G37*
G36*
X00099600Y00290765D02*
X00097642Y00290507D01*
X00095818Y00289751D01*
X00094251Y00288549D01*
X00093049Y00286982D01*
X00092293Y00285158D01*
X00092035Y00283200D01*
X00092293Y00281242D01*
X00093049Y00279418D01*
X00094251Y00277851D01*
X00094996Y00277279D01*
X00095131Y00275618D01*
X00071286Y00251772D01*
X00034649D01*
X00033284Y00251501D01*
X00032126Y00250727D01*
X00030287Y00248888D01*
X00029513Y00247730D01*
X00029242Y00246365D01*
Y00243555D01*
X00028560D01*
Y00235325D01*
X00028560Y00235055D01*
Y00234055D01*
X00028560Y00233785D01*
Y00225555D01*
X00037060D01*
Y00227256D01*
X00038000D01*
X00038976Y00227450D01*
X00039803Y00228003D01*
X00039980Y00228180D01*
X00041250Y00227654D01*
Y00226305D01*
X00052250D01*
Y00237305D01*
X00041250D01*
Y00234354D01*
X00040000D01*
X00039025Y00234160D01*
X00038330Y00233696D01*
X00037297Y00233957D01*
X00037060Y00234055D01*
Y00235055D01*
X00037060Y00235325D01*
Y00243555D01*
X00037060D01*
X00037518Y00244635D01*
X00072764D01*
X00074130Y00244907D01*
X00075287Y00245681D01*
X00102123Y00272516D01*
X00102897Y00273674D01*
X00103169Y00275040D01*
Y00276560D01*
X00103382Y00276649D01*
X00104949Y00277851D01*
X00106151Y00279418D01*
X00106907Y00281242D01*
X00107165Y00283200D01*
X00106907Y00285158D01*
X00106151Y00286982D01*
X00104949Y00288549D01*
X00103382Y00289751D01*
X00101558Y00290507D01*
X00099600Y00290765D01*
D02*
G37*
G36*
X00168782Y00238287D02*
X00165262D01*
Y00234067D01*
X00168782D01*
Y00238287D01*
D02*
G37*
G36*
X00162722D02*
X00159202D01*
Y00234067D01*
X00162722D01*
Y00238287D01*
D02*
G37*
G36*
X00069790Y00238345D02*
X00064520D01*
Y00233075D01*
X00069790D01*
Y00238345D01*
D02*
G37*
G36*
X00061980D02*
X00056710D01*
Y00233075D01*
X00061980D01*
Y00238345D01*
D02*
G37*
G36*
X00168782Y00231527D02*
X00165262D01*
Y00227307D01*
X00168782D01*
Y00231527D01*
D02*
G37*
G36*
X00162722D02*
X00159202D01*
Y00227307D01*
X00162722D01*
Y00231527D01*
D02*
G37*
G36*
X00069790Y00230535D02*
X00064520D01*
Y00225265D01*
X00069790D01*
Y00230535D01*
D02*
G37*
G36*
X00061980D02*
X00056710D01*
Y00225265D01*
X00061980D01*
Y00230535D01*
D02*
G37*
G36*
X00112358Y00221005D02*
X00107838D01*
Y00212985D01*
X00112358D01*
Y00221005D01*
D02*
G37*
G36*
X00105298D02*
X00100778D01*
Y00212985D01*
X00105298D01*
Y00221005D01*
D02*
G37*
G36*
X00235908Y00209454D02*
X00231888D01*
Y00203183D01*
X00235908D01*
Y00209454D01*
D02*
G37*
G36*
X00229348D02*
X00225328D01*
Y00203183D01*
X00229348D01*
Y00209454D01*
D02*
G37*
G36*
X00112358Y00210445D02*
X00107838D01*
Y00202425D01*
X00112358D01*
Y00210445D01*
D02*
G37*
G36*
X00105298D02*
X00100778D01*
Y00202425D01*
X00105298D01*
Y00210445D01*
D02*
G37*
G36*
X00530108Y00222540D02*
X00508838D01*
Y00201270D01*
X00530108D01*
Y00222540D01*
D02*
G37*
G36*
X00506298D02*
X00485028D01*
Y00201270D01*
X00506298D01*
Y00222540D01*
D02*
G37*
G36*
X00179769Y00237356D02*
X00178072Y00237133D01*
X00176491Y00236478D01*
X00175133Y00235436D01*
X00174091Y00234078D01*
X00173436Y00232497D01*
X00173213Y00230800D01*
X00173436Y00229103D01*
X00174091Y00227522D01*
X00175133Y00226164D01*
X00176491Y00225122D01*
X00178072Y00224467D01*
X00179769Y00224244D01*
X00181466Y00224467D01*
X00183047Y00225122D01*
X00184405Y00226164D01*
X00185446Y00227522D01*
X00185748Y00228251D01*
X00187814D01*
X00202669Y00213396D01*
Y00208414D01*
X00200968D01*
Y00195414D01*
X00200968Y00195413D01*
X00200968D01*
X00200315Y00194437D01*
X00199943Y00194065D01*
X00192048D01*
Y00182565D01*
X00203548D01*
Y00190460D01*
X00207021Y00193933D01*
X00207573Y00194760D01*
X00207703Y00195413D01*
X00209468D01*
Y00208414D01*
X00207767D01*
Y00214452D01*
X00207573Y00215427D01*
X00207021Y00216254D01*
X00190672Y00232602D01*
X00189845Y00233155D01*
X00188870Y00233349D01*
X00185748D01*
X00185446Y00234078D01*
X00184405Y00235436D01*
X00183047Y00236478D01*
X00181466Y00237133D01*
X00179769Y00237356D01*
D02*
G37*
G36*
X00196768Y00208414D02*
X00188268D01*
Y00204463D01*
X00186344D01*
X00185368Y00204268D01*
X00184541Y00203716D01*
X00178682Y00197857D01*
X00178130Y00197030D01*
X00177936Y00196054D01*
Y00161000D01*
X00178130Y00160025D01*
X00178682Y00159198D01*
X00181117Y00156763D01*
X00181944Y00156210D01*
X00182919Y00156016D01*
X00184548D01*
Y00152815D01*
X00196048D01*
Y00164315D01*
X00184548D01*
Y00163600D01*
X00183278Y00162921D01*
X00183033Y00163084D01*
Y00194998D01*
X00186998Y00198963D01*
X00188268Y00198437D01*
Y00195413D01*
X00196768D01*
Y00208414D01*
D02*
G37*
G36*
X00243298Y00199144D02*
X00239278D01*
Y00195124D01*
X00243298D01*
Y00199144D01*
D02*
G37*
G36*
X00235908Y00200643D02*
X00231888D01*
Y00194373D01*
X00235908D01*
Y00200643D01*
D02*
G37*
G36*
X00229348D02*
X00225328D01*
Y00194373D01*
X00229348D01*
Y00200643D01*
D02*
G37*
G36*
X00332358Y00187290D02*
X00328338D01*
Y00183270D01*
X00332358D01*
Y00187290D01*
D02*
G37*
G36*
X00530108Y00198730D02*
X00508838D01*
Y00177460D01*
X00530108D01*
Y00198730D01*
D02*
G37*
G36*
X00506298D02*
X00485028D01*
Y00177460D01*
X00506298D01*
Y00198730D01*
D02*
G37*
G36*
X00332358Y00180730D02*
X00328338D01*
Y00176710D01*
X00332358D01*
Y00180730D01*
D02*
G37*
G36*
X00204588Y00179605D02*
X00199068D01*
Y00174085D01*
X00204588D01*
Y00179605D01*
D02*
G37*
G36*
X00196528D02*
X00191008D01*
Y00174085D01*
X00196528D01*
Y00179605D01*
D02*
G37*
G36*
X00130350Y00177910D02*
X00126330D01*
Y00173890D01*
X00130350D01*
Y00177910D01*
D02*
G37*
G36*
X00204588Y00171545D02*
X00199068D01*
Y00166025D01*
X00204588D01*
Y00171545D01*
D02*
G37*
G36*
X00196528D02*
X00191008D01*
Y00166025D01*
X00196528D01*
Y00171545D01*
D02*
G37*
G36*
X00020000Y00187008D02*
X00011000Y00187008D01*
X00010761Y00186910D01*
X00009303Y00186718D01*
X00007722Y00186063D01*
X00006364Y00185021D01*
X00005322Y00183663D01*
X00004667Y00182082D01*
X00004475Y00180624D01*
X00004376Y00180385D01*
Y00167385D01*
X00004852Y00166237D01*
X00006000Y00165761D01*
X00025000D01*
X00026148Y00166237D01*
X00026624Y00167385D01*
Y00180385D01*
X00026525Y00180624D01*
X00026333Y00182082D01*
X00025678Y00183663D01*
X00024636Y00185021D01*
X00023278Y00186063D01*
X00021697Y00186718D01*
X00020239Y00186910D01*
X00020000Y00187008D01*
D02*
G37*
G36*
X00111318Y00243965D02*
X00101818D01*
Y00227465D01*
X00111318D01*
Y00230714D01*
X00112588Y00231240D01*
X00115780Y00228048D01*
Y00200951D01*
X00108358Y00193529D01*
X00101747D01*
X00100381Y00193257D01*
X00099223Y00192484D01*
X00092863Y00186123D01*
X00085077Y00178337D01*
X00084303Y00177180D01*
X00084031Y00175814D01*
Y00165188D01*
X00079797Y00160954D01*
X00065409D01*
Y00178800D01*
X00065137Y00180166D01*
X00064364Y00181323D01*
X00054497Y00191190D01*
X00053339Y00191964D01*
X00051974Y00192236D01*
X00034126D01*
X00025414Y00200948D01*
X00024256Y00201721D01*
X00022891Y00201993D01*
X00021050D01*
Y00206674D01*
X00011550D01*
Y00190175D01*
X00021050D01*
Y00193422D01*
X00022320Y00193948D01*
X00030125Y00186144D01*
X00031282Y00185370D01*
X00032648Y00185098D01*
X00050495D01*
X00058272Y00177322D01*
Y00160954D01*
X00047972D01*
X00047541Y00162223D01*
X00048741Y00163144D01*
X00050143Y00164972D01*
X00051025Y00167101D01*
X00051326Y00169385D01*
X00051025Y00171669D01*
X00050143Y00173798D01*
X00048741Y00175625D01*
X00046913Y00177028D01*
X00044784Y00177910D01*
X00042500Y00178210D01*
X00040216Y00177910D01*
X00038087Y00177028D01*
X00036260Y00175625D01*
X00034857Y00173798D01*
X00033975Y00171669D01*
X00033675Y00169385D01*
X00033975Y00167101D01*
X00034857Y00164972D01*
X00036260Y00163144D01*
X00037549Y00162155D01*
X00037118Y00160885D01*
X00034250D01*
Y00153885D01*
Y00147385D01*
Y00135925D01*
X00033210D01*
Y00132655D01*
X00042500D01*
X00051790D01*
Y00135925D01*
X00050750D01*
Y00141836D01*
X00054127D01*
X00077537Y00118426D01*
X00077235Y00117697D01*
X00077012Y00116000D01*
X00077235Y00114303D01*
X00077890Y00112722D01*
X00078932Y00111364D01*
X00080290Y00110322D01*
X00081871Y00109667D01*
X00083568Y00109444D01*
X00085265Y00109667D01*
X00086846Y00110322D01*
X00088204Y00111364D01*
X00089246Y00112722D01*
X00089548Y00113451D01*
X00096510D01*
Y00107220D01*
X00106010D01*
Y00123439D01*
X00106010Y00123720D01*
X00106687Y00124709D01*
X00107050D01*
Y00132730D01*
X00101260D01*
X00095470D01*
Y00124709D01*
X00095834D01*
X00096510Y00123720D01*
X00096510Y00123439D01*
Y00118549D01*
X00089548D01*
X00089246Y00119278D01*
X00088204Y00120636D01*
X00086846Y00121678D01*
X00085265Y00122332D01*
X00083568Y00122556D01*
X00081871Y00122332D01*
X00081142Y00122030D01*
X00056985Y00146187D01*
X00056158Y00146740D01*
X00055183Y00146934D01*
X00050750D01*
Y00148336D01*
X00087685D01*
X00088660Y00148530D01*
X00089487Y00149082D01*
X00095240Y00154836D01*
X00096510Y00154309D01*
Y00149749D01*
X00106010D01*
Y00155450D01*
X00106399D01*
X00107375Y00155644D01*
X00108202Y00156197D01*
X00115498Y00163493D01*
X00119028D01*
Y00159270D01*
X00125818D01*
X00132608D01*
Y00164110D01*
X00132802Y00164239D01*
X00147857Y00179294D01*
X00148586Y00178992D01*
X00150283Y00178768D01*
X00151980Y00178992D01*
X00153561Y00179647D01*
X00154918Y00180689D01*
X00155960Y00182047D01*
X00156615Y00183628D01*
X00156839Y00185324D01*
X00156615Y00187021D01*
X00155960Y00188603D01*
X00154918Y00189960D01*
X00153561Y00191002D01*
X00151980Y00191657D01*
X00150283Y00191881D01*
X00148586Y00191657D01*
X00147005Y00191002D01*
X00145647Y00189960D01*
X00144605Y00188603D01*
X00143950Y00187021D01*
X00143727Y00185324D01*
X00143950Y00183628D01*
X00144252Y00182899D01*
X00131523Y00170170D01*
X00130350Y00170656D01*
Y00171350D01*
X00125060D01*
Y00172620D01*
X00123790D01*
Y00177910D01*
X00121371D01*
X00120845Y00179180D01*
X00133286Y00191621D01*
X00134015Y00191320D01*
X00135712Y00191096D01*
X00137409Y00191320D01*
X00138990Y00191974D01*
X00140348Y00193016D01*
X00141390Y00194374D01*
X00142045Y00195955D01*
X00142268Y00197652D01*
X00142045Y00199349D01*
X00141390Y00200930D01*
X00140348Y00202288D01*
X00138990Y00203330D01*
X00137409Y00203985D01*
X00135712Y00204208D01*
X00134015Y00203985D01*
X00132434Y00203330D01*
X00131076Y00202288D01*
X00130035Y00200930D01*
X00129380Y00199349D01*
X00129156Y00197652D01*
X00129380Y00195955D01*
X00129682Y00195226D01*
X00113758Y00179303D01*
X00113205Y00178476D01*
X00113011Y00177500D01*
Y00176870D01*
X00111310D01*
Y00176870D01*
X00110260D01*
Y00176870D01*
X00101760D01*
Y00176870D01*
X00100760D01*
Y00176870D01*
X00095362D01*
X00094876Y00178043D01*
X00103225Y00186392D01*
X00109836D01*
X00111201Y00186663D01*
X00112359Y00187437D01*
X00121872Y00196950D01*
X00122646Y00198108D01*
X00122917Y00199473D01*
Y00229526D01*
X00122646Y00230892D01*
X00121872Y00232050D01*
X00115684Y00238238D01*
X00114526Y00239011D01*
X00113160Y00239283D01*
X00111318D01*
Y00243965D01*
D02*
G37*
G36*
X00157256Y00164556D02*
X00155559Y00164333D01*
X00153977Y00163678D01*
X00152620Y00162636D01*
X00151578Y00161278D01*
X00151276Y00160549D01*
X00147068D01*
Y00163750D01*
X00135568D01*
Y00152250D01*
X00147068D01*
Y00155451D01*
X00151276D01*
X00151578Y00154722D01*
X00152620Y00153364D01*
X00153977Y00152322D01*
X00155559Y00151667D01*
X00157256Y00151444D01*
X00158952Y00151667D01*
X00160534Y00152322D01*
X00161891Y00153364D01*
X00162933Y00154722D01*
X00163588Y00156303D01*
X00163812Y00158000D01*
X00163588Y00159697D01*
X00162933Y00161278D01*
X00161891Y00162636D01*
X00160534Y00163678D01*
X00158952Y00164333D01*
X00157256Y00164556D01*
D02*
G37*
G36*
X00132608Y00156730D02*
X00127088D01*
Y00151210D01*
X00132608D01*
Y00156730D01*
D02*
G37*
G36*
X00124548D02*
X00119028D01*
Y00151210D01*
X00124548D01*
Y00156730D01*
D02*
G37*
G36*
X00026500Y00163385D02*
X00004500D01*
Y00145385D01*
X00026500D01*
Y00163385D01*
D02*
G37*
G36*
X00132532Y00149605D02*
X00123512D01*
Y00141835D01*
X00132532D01*
Y00149605D01*
D02*
G37*
G36*
X00120972D02*
X00111952D01*
Y00141835D01*
X00120972D01*
Y00149605D01*
D02*
G37*
G36*
X00107050Y00143289D02*
X00102530D01*
Y00135269D01*
X00107050D01*
Y00143289D01*
D02*
G37*
G36*
X00099990D02*
X00095470D01*
Y00135269D01*
X00099990D01*
Y00143289D01*
D02*
G37*
G36*
X00210992Y00148565D02*
X00192492D01*
Y00143114D01*
X00187000D01*
X00186025Y00142920D01*
X00185198Y00142367D01*
X00182358Y00139527D01*
X00181303Y00139389D01*
X00179722Y00138734D01*
X00178364Y00137692D01*
X00177322Y00136334D01*
X00176667Y00134753D01*
X00176444Y00133056D01*
X00176667Y00131359D01*
X00177322Y00129778D01*
X00178364Y00128420D01*
X00179722Y00127378D01*
X00180451Y00127076D01*
Y00077650D01*
X00180646Y00076674D01*
X00181198Y00075847D01*
X00184848Y00072197D01*
X00185675Y00071645D01*
X00186650Y00071451D01*
X00236912D01*
X00261740Y00046623D01*
X00260802Y00045399D01*
X00259883Y00043181D01*
X00259569Y00040800D01*
X00259883Y00038419D01*
X00260802Y00036200D01*
X00262264Y00034295D01*
X00264169Y00032833D01*
X00266387Y00031915D01*
X00268768Y00031601D01*
X00271149Y00031915D01*
X00273368Y00032833D01*
X00275273Y00034295D01*
X00276734Y00036200D01*
X00277653Y00038419D01*
X00277967Y00040800D01*
X00277653Y00043181D01*
X00276734Y00045399D01*
X00275273Y00047304D01*
X00273368Y00048766D01*
X00271149Y00049685D01*
X00268768Y00049998D01*
X00266387Y00049685D01*
X00266034Y00049539D01*
X00239770Y00075802D01*
X00238944Y00076355D01*
X00237968Y00076549D01*
X00187706D01*
X00185549Y00078706D01*
Y00127076D01*
X00186278Y00127378D01*
X00187636Y00128420D01*
X00188678Y00129778D01*
X00189333Y00131359D01*
X00189556Y00133056D01*
X00189333Y00134753D01*
X00188678Y00136334D01*
X00188362Y00136746D01*
X00188988Y00138016D01*
X00192492D01*
Y00132565D01*
X00210992D01*
Y00148565D01*
D02*
G37*
G36*
X00132532Y00139295D02*
X00123512D01*
Y00131525D01*
X00132532D01*
Y00139295D01*
D02*
G37*
G36*
X00120972D02*
X00111952D01*
Y00131525D01*
X00120972D01*
Y00139295D01*
D02*
G37*
G36*
X00026500Y00143385D02*
X00004500D01*
Y00125385D01*
X00026500D01*
Y00143385D01*
D02*
G37*
G36*
X00051790Y00130115D02*
X00042500D01*
X00033210D01*
Y00126845D01*
X00035873D01*
X00036151Y00126026D01*
X00036221Y00125575D01*
X00034857Y00123798D01*
X00033975Y00121669D01*
X00033675Y00119385D01*
X00033975Y00117101D01*
X00034857Y00114972D01*
X00036260Y00113144D01*
X00038087Y00111742D01*
X00040216Y00110860D01*
X00042500Y00110559D01*
X00044784Y00110860D01*
X00046913Y00111742D01*
X00048741Y00113144D01*
X00050143Y00114972D01*
X00051025Y00117101D01*
X00051326Y00119385D01*
X00051025Y00121669D01*
X00050143Y00123798D01*
X00048780Y00125575D01*
X00048849Y00126026D01*
X00049127Y00126845D01*
X00051790D01*
Y00130115D01*
D02*
G37*
G36*
X00530618Y00167010D02*
X00528921Y00166786D01*
X00527340Y00166131D01*
X00525982Y00165090D01*
X00524940Y00163732D01*
X00524286Y00162151D01*
X00524062Y00160454D01*
X00524286Y00158757D01*
X00524940Y00157176D01*
X00525982Y00155818D01*
X00527340Y00154776D01*
X00528069Y00154474D01*
Y00120500D01*
X00409818D01*
Y00108366D01*
X00409818Y00108000D01*
X00408906Y00107135D01*
X00408886Y00107133D01*
X00407304Y00106478D01*
X00405947Y00105436D01*
X00404905Y00104078D01*
X00404250Y00102497D01*
X00404026Y00100800D01*
X00404250Y00099103D01*
X00404905Y00097522D01*
X00405947Y00096164D01*
X00407304Y00095122D01*
X00408886Y00094467D01*
X00410583Y00094244D01*
X00412279Y00094467D01*
X00413861Y00095122D01*
X00415218Y00096164D01*
X00416260Y00097522D01*
X00416915Y00099103D01*
X00417138Y00100800D01*
X00416915Y00102497D01*
X00416613Y00103226D01*
X00418120Y00104733D01*
X00418673Y00105560D01*
X00418867Y00106536D01*
Y00108000D01*
X00426469D01*
Y00106000D01*
X00426663Y00105024D01*
X00427216Y00104198D01*
X00427777Y00103636D01*
X00427667Y00103371D01*
X00427444Y00101674D01*
X00427667Y00099977D01*
X00428322Y00098396D01*
X00429364Y00097038D01*
X00430722Y00095996D01*
X00432303Y00095341D01*
X00434000Y00095118D01*
X00435697Y00095341D01*
X00437278Y00095996D01*
X00438636Y00097038D01*
X00439678Y00098396D01*
X00440333Y00099977D01*
X00440556Y00101674D01*
X00440333Y00103371D01*
X00439678Y00104952D01*
X00438636Y00106309D01*
X00438088Y00106730D01*
X00438519Y00108000D01*
X00506990D01*
X00507476Y00106826D01*
X00507197Y00106548D01*
X00506645Y00105722D01*
X00506451Y00104746D01*
Y00094419D01*
X00505722Y00094117D01*
X00504364Y00093075D01*
X00503322Y00091717D01*
X00502667Y00090136D01*
X00502444Y00088439D01*
X00502667Y00086742D01*
X00503322Y00085161D01*
X00504364Y00083804D01*
X00505722Y00082762D01*
X00507303Y00082107D01*
X00509000Y00081883D01*
X00510697Y00082107D01*
X00512278Y00082762D01*
X00513636Y00083804D01*
X00514678Y00085161D01*
X00515332Y00086742D01*
X00515556Y00088439D01*
X00515332Y00090136D01*
X00514678Y00091717D01*
X00513636Y00093075D01*
X00512278Y00094117D01*
X00511549Y00094419D01*
Y00103690D01*
X00514520Y00106662D01*
X00515073Y00107489D01*
X00515150Y00107877D01*
X00515273Y00108000D01*
X00549844D01*
X00550330Y00106826D01*
X00539281Y00095778D01*
X00538108Y00096264D01*
Y00099040D01*
X00532838D01*
Y00095000D01*
X00531568D01*
Y00093730D01*
X00525028D01*
Y00090960D01*
X00526068D01*
Y00083568D01*
X00522047D01*
X00520681Y00083297D01*
X00519523Y00082523D01*
X00516522Y00079522D01*
X00486834D01*
X00478048Y00088308D01*
X00477646Y00089278D01*
X00476604Y00090636D01*
X00475246Y00091678D01*
X00473665Y00092333D01*
X00471968Y00092556D01*
X00470271Y00092333D01*
X00468690Y00091678D01*
X00467332Y00090636D01*
X00466290Y00089278D01*
X00465635Y00087697D01*
X00465412Y00086000D01*
X00465635Y00084303D01*
X00466290Y00082722D01*
X00467332Y00081364D01*
X00468690Y00080322D01*
X00470271Y00079667D01*
X00471968Y00079444D01*
X00473665Y00079667D01*
X00475246Y00080322D01*
X00475639Y00080624D01*
X00482832Y00073430D01*
X00483990Y00072656D01*
X00485356Y00072384D01*
X00518000D01*
X00519366Y00072656D01*
X00520523Y00073430D01*
X00523525Y00076431D01*
X00531568D01*
X00532934Y00076703D01*
X00533378Y00077000D01*
X00534719D01*
X00535205Y00075826D01*
X00526878Y00067499D01*
X00493718D01*
X00492743Y00067305D01*
X00491916Y00066752D01*
X00474702Y00049539D01*
X00474349Y00049685D01*
X00471968Y00049998D01*
X00469587Y00049685D01*
X00467369Y00048766D01*
X00465464Y00047304D01*
X00464002Y00045399D01*
X00463083Y00043181D01*
X00462770Y00040800D01*
X00463083Y00038419D01*
X00464002Y00036200D01*
X00465464Y00034295D01*
X00467369Y00032833D01*
X00469587Y00031915D01*
X00471968Y00031601D01*
X00474349Y00031915D01*
X00476567Y00032833D01*
X00478473Y00034295D01*
X00479934Y00036200D01*
X00480853Y00038419D01*
X00481167Y00040800D01*
X00480853Y00043181D01*
X00479934Y00045399D01*
X00478996Y00046623D01*
X00494774Y00062401D01*
X00527933D01*
X00528909Y00062595D01*
X00529736Y00063147D01*
X00546250Y00079662D01*
X00547520Y00079136D01*
Y00071557D01*
X00525502Y00049539D01*
X00525149Y00049685D01*
X00522768Y00049998D01*
X00520387Y00049685D01*
X00518169Y00048766D01*
X00516264Y00047304D01*
X00514802Y00045399D01*
X00513883Y00043181D01*
X00513569Y00040800D01*
X00513883Y00038419D01*
X00514802Y00036200D01*
X00516264Y00034295D01*
X00518169Y00032833D01*
X00520387Y00031915D01*
X00522768Y00031601D01*
X00525149Y00031915D01*
X00527368Y00032833D01*
X00529273Y00034295D01*
X00530734Y00036200D01*
X00531653Y00038419D01*
X00531967Y00040800D01*
X00531653Y00043181D01*
X00530734Y00045399D01*
X00529796Y00046623D01*
X00551871Y00068699D01*
X00552424Y00069525D01*
X00552618Y00070501D01*
Y00079125D01*
X00555798Y00082305D01*
X00557068Y00082099D01*
Y00077000D01*
X00568068D01*
Y00077000D01*
X00569338Y00077178D01*
X00571019Y00075497D01*
Y00049615D01*
X00568969Y00048766D01*
X00567064Y00047304D01*
X00565602Y00045399D01*
X00564683Y00043181D01*
X00564370Y00040800D01*
X00564683Y00038419D01*
X00565602Y00036200D01*
X00567064Y00034295D01*
X00568969Y00032833D01*
X00571187Y00031915D01*
X00573568Y00031601D01*
X00575949Y00031915D01*
X00578167Y00032833D01*
X00580073Y00034295D01*
X00581534Y00036200D01*
X00582453Y00038419D01*
X00582767Y00040800D01*
X00582453Y00043181D01*
X00581534Y00045399D01*
X00580073Y00047304D01*
X00578167Y00048766D01*
X00576117Y00049615D01*
Y00076553D01*
X00575923Y00077528D01*
X00575370Y00078355D01*
X00571924Y00081802D01*
X00571097Y00082355D01*
X00570121Y00082549D01*
X00568068D01*
Y00090960D01*
X00569108D01*
Y00093730D01*
X00562568D01*
Y00096270D01*
X00569108D01*
Y00099040D01*
X00565241D01*
X00564715Y00100310D01*
X00570521Y00106116D01*
X00571073Y00106943D01*
X00571267Y00107918D01*
Y00108000D01*
X00573878D01*
Y00106960D01*
X00580148D01*
Y00114250D01*
Y00121540D01*
X00573878D01*
Y00120500D01*
X00545529D01*
Y00130020D01*
X00546258Y00130322D01*
X00547616Y00131364D01*
X00548658Y00132722D01*
X00549313Y00134303D01*
X00549536Y00136000D01*
X00549313Y00137697D01*
X00548658Y00139278D01*
X00547616Y00140636D01*
X00546258Y00141678D01*
X00544677Y00142332D01*
X00542980Y00142556D01*
X00541283Y00142332D01*
X00539702Y00141678D01*
X00538344Y00140636D01*
X00537302Y00139278D01*
X00536647Y00137697D01*
X00536424Y00136000D01*
X00536647Y00134303D01*
X00537302Y00132722D01*
X00538344Y00131364D01*
X00539702Y00130322D01*
X00540431Y00130020D01*
Y00120500D01*
X00533167D01*
Y00154474D01*
X00533896Y00154776D01*
X00535254Y00155818D01*
X00536296Y00157176D01*
X00536951Y00158757D01*
X00537174Y00160454D01*
X00536951Y00162151D01*
X00536296Y00163732D01*
X00535254Y00165090D01*
X00533896Y00166131D01*
X00532315Y00166786D01*
X00530618Y00167010D01*
D02*
G37*
G36*
X00025000Y00123008D02*
X00006000D01*
X00004852Y00122533D01*
X00004376Y00121385D01*
Y00108385D01*
X00004476Y00108146D01*
X00004667Y00106688D01*
X00005322Y00105107D01*
X00006364Y00103749D01*
X00007722Y00102707D01*
X00009303Y00102052D01*
X00010761Y00101860D01*
X00011000Y00101761D01*
X00020001Y00101762D01*
X00020239Y00101860D01*
X00021697Y00102052D01*
X00023278Y00102707D01*
X00024636Y00103749D01*
X00025678Y00105107D01*
X00026333Y00106688D01*
X00026525Y00108146D01*
X00026624Y00108385D01*
Y00121385D01*
X00026148Y00122533D01*
X00025000Y00123008D01*
D02*
G37*
G36*
X00530298Y00099040D02*
X00525028D01*
Y00096270D01*
X00530298D01*
Y00099040D01*
D02*
G37*
G36*
X00107050Y00100760D02*
X00102530D01*
Y00092740D01*
X00107050D01*
Y00100760D01*
D02*
G37*
G36*
X00099990D02*
X00095470D01*
Y00092740D01*
X00099990D01*
Y00100760D01*
D02*
G37*
G36*
X00167742Y00258347D02*
X00160242D01*
Y00249447D01*
X00167742D01*
Y00251377D01*
X00170663D01*
X00181843Y00240198D01*
X00182670Y00239645D01*
X00183645Y00239451D01*
X00189559D01*
X00215369Y00213641D01*
Y00208414D01*
X00213668D01*
Y00195413D01*
X00215369D01*
Y00171741D01*
X00207943Y00164315D01*
X00200048D01*
Y00152815D01*
X00207943D01*
X00210397Y00150361D01*
X00211224Y00149808D01*
X00212200Y00149614D01*
X00222500D01*
Y00090000D01*
X00243500D01*
Y00168000D01*
X00222500D01*
Y00154712D01*
X00213256D01*
X00211548Y00156420D01*
Y00160711D01*
X00219721Y00168883D01*
X00220273Y00169710D01*
X00220467Y00170686D01*
Y00195413D01*
X00222168D01*
Y00208414D01*
X00220467D01*
Y00214697D01*
X00220273Y00215672D01*
X00219721Y00216499D01*
X00192418Y00243802D01*
X00191591Y00244355D01*
X00190615Y00244549D01*
X00184701D01*
X00173522Y00255728D01*
X00172695Y00256281D01*
X00171719Y00256475D01*
X00167742D01*
Y00258347D01*
D02*
G37*
G36*
X00210992Y00103565D02*
X00192492D01*
Y00087565D01*
X00210992D01*
Y00103565D01*
D02*
G37*
G36*
X00131492D02*
X00112992D01*
Y00087565D01*
X00131492D01*
Y00103565D01*
D02*
G37*
G36*
X00018772Y00093629D02*
Y00084818D01*
X00027583D01*
X00027401Y00086201D01*
X00026377Y00088672D01*
X00024748Y00090795D01*
X00022626Y00092423D01*
X00020155Y00093447D01*
X00018772Y00093629D01*
D02*
G37*
G36*
X00016232Y00093629D02*
X00014850Y00093447D01*
X00012378Y00092423D01*
X00010256Y00090795D01*
X00008627Y00088672D01*
X00007604Y00086201D01*
X00007422Y00084818D01*
X00016232D01*
Y00093629D01*
D02*
G37*
G36*
X00107050Y00090200D02*
X00102530D01*
Y00082180D01*
X00107050D01*
Y00090200D01*
D02*
G37*
G36*
X00099990D02*
X00095470D01*
Y00082180D01*
X00099990D01*
Y00090200D01*
D02*
G37*
G36*
X00016232Y00082278D02*
X00007422D01*
X00007604Y00080896D01*
X00008627Y00078425D01*
X00010256Y00076302D01*
X00012378Y00074674D01*
X00014850Y00073650D01*
X00016232Y00073468D01*
Y00082278D01*
D02*
G37*
G36*
X00027583D02*
X00018772D01*
Y00073468D01*
X00020155Y00073650D01*
X00022626Y00074674D01*
X00024748Y00076302D01*
X00026377Y00078425D01*
X00027401Y00080896D01*
X00027583Y00082278D01*
D02*
G37*
G36*
X00041005Y00095556D02*
X00039309Y00095332D01*
X00037727Y00094677D01*
X00036370Y00093636D01*
X00035328Y00092278D01*
X00034673Y00090697D01*
X00034449Y00089000D01*
X00034673Y00087303D01*
X00035328Y00085722D01*
X00036370Y00084364D01*
X00037437Y00083545D01*
Y00073684D01*
X00026645Y00062891D01*
X00025137Y00063180D01*
X00024007Y00064653D01*
X00022102Y00066115D01*
X00019883Y00067034D01*
X00017502Y00067347D01*
X00015121Y00067034D01*
X00012903Y00066115D01*
X00010998Y00064653D01*
X00009536Y00062748D01*
X00008617Y00060529D01*
X00008303Y00058149D01*
X00008617Y00055768D01*
X00009536Y00053549D01*
X00010998Y00051644D01*
X00012903Y00050182D01*
X00015121Y00049263D01*
X00017502Y00048950D01*
X00019883Y00049263D01*
X00022102Y00050182D01*
X00024007Y00051644D01*
X00025468Y00053549D01*
X00025895Y00054580D01*
X00026949D01*
X00028314Y00054852D01*
X00029472Y00055625D01*
X00043529Y00069682D01*
X00044302Y00070840D01*
X00044574Y00072205D01*
Y00083545D01*
X00045641Y00084364D01*
X00046683Y00085722D01*
X00047338Y00087303D01*
X00047561Y00089000D01*
X00047338Y00090697D01*
X00046683Y00092278D01*
X00045641Y00093636D01*
X00044283Y00094677D01*
X00042702Y00095332D01*
X00041005Y00095556D01*
D02*
G37*
G36*
X00397038Y00050880D02*
Y00042070D01*
X00405849D01*
X00405667Y00043452D01*
X00404643Y00045924D01*
X00403014Y00048046D01*
X00400892Y00049675D01*
X00398420Y00050698D01*
X00397038Y00050880D01*
D02*
G37*
G36*
X00066838D02*
Y00042070D01*
X00075649D01*
X00075467Y00043452D01*
X00074443Y00045924D01*
X00072814Y00048046D01*
X00070692Y00049675D01*
X00068220Y00050698D01*
X00066838Y00050880D01*
D02*
G37*
G36*
X00422438D02*
Y00042070D01*
X00431249D01*
X00431067Y00043452D01*
X00430043Y00045924D01*
X00428414Y00048046D01*
X00426292Y00049675D01*
X00423820Y00050698D01*
X00422438Y00050880D01*
D02*
G37*
G36*
X00371638D02*
Y00042070D01*
X00380449D01*
X00380267Y00043452D01*
X00379243Y00045924D01*
X00377614Y00048046D01*
X00375492Y00049675D01*
X00373020Y00050698D01*
X00371638Y00050880D01*
D02*
G37*
G36*
X00394498Y00050880D02*
X00393116Y00050698D01*
X00390644Y00049675D01*
X00388522Y00048046D01*
X00386893Y00045924D01*
X00385870Y00043452D01*
X00385688Y00042070D01*
X00394498D01*
Y00050880D01*
D02*
G37*
G36*
X00064298D02*
X00062916Y00050698D01*
X00060444Y00049675D01*
X00058322Y00048046D01*
X00056693Y00045924D01*
X00055670Y00043452D01*
X00055488Y00042070D01*
X00064298D01*
Y00050880D01*
D02*
G37*
G36*
X00419898D02*
X00418516Y00050698D01*
X00416044Y00049675D01*
X00413922Y00048046D01*
X00412293Y00045924D01*
X00411270Y00043452D01*
X00411088Y00042070D01*
X00419898D01*
Y00050880D01*
D02*
G37*
G36*
X00548168Y00049998D02*
X00545787Y00049685D01*
X00543569Y00048766D01*
X00541664Y00047304D01*
X00540202Y00045399D01*
X00539283Y00043181D01*
X00538969Y00040800D01*
X00539283Y00038419D01*
X00540202Y00036200D01*
X00541664Y00034295D01*
X00543569Y00032833D01*
X00545787Y00031915D01*
X00548168Y00031601D01*
X00550549Y00031915D01*
X00552767Y00032833D01*
X00554673Y00034295D01*
X00556134Y00036200D01*
X00557053Y00038419D01*
X00557367Y00040800D01*
X00557053Y00043181D01*
X00556134Y00045399D01*
X00554673Y00047304D01*
X00552767Y00048766D01*
X00550549Y00049685D01*
X00548168Y00049998D01*
D02*
G37*
G36*
X00497368D02*
X00494987Y00049685D01*
X00492769Y00048766D01*
X00490864Y00047304D01*
X00489402Y00045399D01*
X00488483Y00043181D01*
X00488170Y00040800D01*
X00488483Y00038419D01*
X00489402Y00036200D01*
X00490864Y00034295D01*
X00492769Y00032833D01*
X00494987Y00031915D01*
X00497368Y00031601D01*
X00499749Y00031915D01*
X00501968Y00032833D01*
X00503873Y00034295D01*
X00505334Y00036200D01*
X00506253Y00038419D01*
X00506567Y00040800D01*
X00506253Y00043181D01*
X00505334Y00045399D01*
X00503873Y00047304D01*
X00501968Y00048766D01*
X00499749Y00049685D01*
X00497368Y00049998D01*
D02*
G37*
G36*
X00446568D02*
X00444187Y00049685D01*
X00441969Y00048766D01*
X00440064Y00047304D01*
X00438602Y00045399D01*
X00437683Y00043181D01*
X00437369Y00040800D01*
X00437683Y00038419D01*
X00438602Y00036200D01*
X00440064Y00034295D01*
X00441969Y00032833D01*
X00444187Y00031915D01*
X00446568Y00031601D01*
X00448949Y00031915D01*
X00451167Y00032833D01*
X00453073Y00034295D01*
X00454534Y00036200D01*
X00455453Y00038419D01*
X00455767Y00040800D01*
X00455453Y00043181D01*
X00454534Y00045399D01*
X00453073Y00047304D01*
X00451167Y00048766D01*
X00448949Y00049685D01*
X00446568Y00049998D01*
D02*
G37*
G36*
X00319568D02*
X00317187Y00049685D01*
X00314969Y00048766D01*
X00313064Y00047304D01*
X00311602Y00045399D01*
X00310683Y00043181D01*
X00310369Y00040800D01*
X00310683Y00038419D01*
X00311602Y00036200D01*
X00313064Y00034295D01*
X00314969Y00032833D01*
X00317187Y00031915D01*
X00319568Y00031601D01*
X00321949Y00031915D01*
X00324168Y00032833D01*
X00326073Y00034295D01*
X00327534Y00036200D01*
X00328453Y00038419D01*
X00328767Y00040800D01*
X00328453Y00043181D01*
X00327534Y00045399D01*
X00326073Y00047304D01*
X00324168Y00048766D01*
X00321949Y00049685D01*
X00319568Y00049998D01*
D02*
G37*
G36*
X00294168D02*
X00291787Y00049685D01*
X00289569Y00048766D01*
X00287664Y00047304D01*
X00286202Y00045399D01*
X00285283Y00043181D01*
X00284970Y00040800D01*
X00285283Y00038419D01*
X00286202Y00036200D01*
X00287664Y00034295D01*
X00289569Y00032833D01*
X00291787Y00031915D01*
X00294168Y00031601D01*
X00296549Y00031915D01*
X00298768Y00032833D01*
X00300673Y00034295D01*
X00302134Y00036200D01*
X00303053Y00038419D01*
X00303367Y00040800D01*
X00303053Y00043181D01*
X00302134Y00045399D01*
X00300673Y00047304D01*
X00298768Y00048766D01*
X00296549Y00049685D01*
X00294168Y00049998D01*
D02*
G37*
G36*
X00243368D02*
X00240987Y00049685D01*
X00238769Y00048766D01*
X00236864Y00047304D01*
X00235402Y00045399D01*
X00234483Y00043181D01*
X00234170Y00040800D01*
X00234483Y00038419D01*
X00235402Y00036200D01*
X00236864Y00034295D01*
X00238769Y00032833D01*
X00240987Y00031915D01*
X00243368Y00031601D01*
X00245749Y00031915D01*
X00247967Y00032833D01*
X00249873Y00034295D01*
X00251334Y00036200D01*
X00252253Y00038419D01*
X00252567Y00040800D01*
X00252253Y00043181D01*
X00251334Y00045399D01*
X00249873Y00047304D01*
X00247967Y00048766D01*
X00245749Y00049685D01*
X00243368Y00049998D01*
D02*
G37*
G36*
X00217968D02*
X00215587Y00049685D01*
X00213369Y00048766D01*
X00211464Y00047304D01*
X00210002Y00045399D01*
X00209083Y00043181D01*
X00208769Y00040800D01*
X00209083Y00038419D01*
X00210002Y00036200D01*
X00211464Y00034295D01*
X00213369Y00032833D01*
X00215587Y00031915D01*
X00217968Y00031601D01*
X00220349Y00031915D01*
X00222568Y00032833D01*
X00224473Y00034295D01*
X00225934Y00036200D01*
X00226853Y00038419D01*
X00227167Y00040800D01*
X00226853Y00043181D01*
X00225934Y00045399D01*
X00224473Y00047304D01*
X00222568Y00048766D01*
X00220349Y00049685D01*
X00217968Y00049998D01*
D02*
G37*
G36*
X00192568D02*
X00190187Y00049685D01*
X00187969Y00048766D01*
X00186064Y00047304D01*
X00184602Y00045399D01*
X00183683Y00043181D01*
X00183370Y00040800D01*
X00183683Y00038419D01*
X00184602Y00036200D01*
X00186064Y00034295D01*
X00187969Y00032833D01*
X00190187Y00031915D01*
X00192568Y00031601D01*
X00194949Y00031915D01*
X00197167Y00032833D01*
X00199073Y00034295D01*
X00200534Y00036200D01*
X00201453Y00038419D01*
X00201767Y00040800D01*
X00201453Y00043181D01*
X00200534Y00045399D01*
X00199073Y00047304D01*
X00197167Y00048766D01*
X00194949Y00049685D01*
X00192568Y00049998D01*
D02*
G37*
G36*
X00167168D02*
X00164787Y00049685D01*
X00162569Y00048766D01*
X00160664Y00047304D01*
X00159202Y00045399D01*
X00158283Y00043181D01*
X00157970Y00040800D01*
X00158283Y00038419D01*
X00159202Y00036200D01*
X00160664Y00034295D01*
X00162569Y00032833D01*
X00164787Y00031915D01*
X00167168Y00031601D01*
X00169549Y00031915D01*
X00171768Y00032833D01*
X00173673Y00034295D01*
X00175134Y00036200D01*
X00176053Y00038419D01*
X00176367Y00040800D01*
X00176053Y00043181D01*
X00175134Y00045399D01*
X00173673Y00047304D01*
X00171768Y00048766D01*
X00169549Y00049685D01*
X00167168Y00049998D01*
D02*
G37*
G36*
X00116368D02*
X00113987Y00049685D01*
X00111769Y00048766D01*
X00109864Y00047304D01*
X00108402Y00045399D01*
X00107483Y00043181D01*
X00107170Y00040800D01*
X00107483Y00038419D01*
X00108402Y00036200D01*
X00109864Y00034295D01*
X00111769Y00032833D01*
X00113987Y00031915D01*
X00116368Y00031601D01*
X00118749Y00031915D01*
X00120968Y00032833D01*
X00122873Y00034295D01*
X00124334Y00036200D01*
X00125253Y00038419D01*
X00125567Y00040800D01*
X00125253Y00043181D01*
X00124334Y00045399D01*
X00122873Y00047304D01*
X00120968Y00048766D01*
X00118749Y00049685D01*
X00116368Y00049998D01*
D02*
G37*
G36*
X00090968D02*
X00088587Y00049685D01*
X00086369Y00048766D01*
X00084464Y00047304D01*
X00083002Y00045399D01*
X00082083Y00043181D01*
X00081770Y00040800D01*
X00082083Y00038419D01*
X00083002Y00036200D01*
X00084464Y00034295D01*
X00086369Y00032833D01*
X00088587Y00031915D01*
X00090968Y00031601D01*
X00093349Y00031915D01*
X00095568Y00032833D01*
X00097473Y00034295D01*
X00098934Y00036200D01*
X00099853Y00038419D01*
X00100167Y00040800D01*
X00099853Y00043181D01*
X00098934Y00045399D01*
X00097473Y00047304D01*
X00095568Y00048766D01*
X00093349Y00049685D01*
X00090968Y00049998D01*
D02*
G37*
G36*
X00431249Y00039530D02*
X00422438D01*
Y00030719D01*
X00423820Y00030901D01*
X00426292Y00031925D01*
X00428414Y00033554D01*
X00430043Y00035676D01*
X00431067Y00038147D01*
X00431249Y00039530D01*
D02*
G37*
G36*
X00405849D02*
X00397038D01*
Y00030719D01*
X00398420Y00030901D01*
X00400892Y00031925D01*
X00403014Y00033554D01*
X00404643Y00035676D01*
X00405667Y00038147D01*
X00405849Y00039530D01*
D02*
G37*
G36*
X00380449D02*
X00371638D01*
Y00030719D01*
X00373020Y00030901D01*
X00375492Y00031925D01*
X00377614Y00033554D01*
X00379243Y00035676D01*
X00380267Y00038147D01*
X00380449Y00039530D01*
D02*
G37*
G36*
X00075649D02*
X00066838D01*
Y00030719D01*
X00068220Y00030901D01*
X00070692Y00031925D01*
X00072814Y00033554D01*
X00074443Y00035676D01*
X00075467Y00038147D01*
X00075649Y00039530D01*
D02*
G37*
G36*
X00419898D02*
X00411088D01*
X00411270Y00038147D01*
X00412293Y00035676D01*
X00413922Y00033554D01*
X00416044Y00031925D01*
X00418516Y00030901D01*
X00419898Y00030719D01*
Y00039530D01*
D02*
G37*
G36*
X00394498D02*
X00385688D01*
X00385870Y00038147D01*
X00386893Y00035676D01*
X00388522Y00033554D01*
X00390644Y00031925D01*
X00393116Y00030901D01*
X00394498Y00030719D01*
Y00039530D01*
D02*
G37*
G36*
X00064298D02*
X00055488D01*
X00055670Y00038147D01*
X00056693Y00035676D01*
X00058322Y00033554D01*
X00060444Y00031925D01*
X00062916Y00030901D01*
X00064298Y00030719D01*
Y00039530D01*
D02*
G37*
G36*
X00052744Y00029935D02*
X00005117D01*
Y00007700D01*
X00052744D01*
Y00029935D01*
D02*
G37*
%LPD*%
G36*
X00517210Y00314310D02*
X00524500D01*
Y00313040D01*
X00525770D01*
Y00309000D01*
X00531040D01*
X00531040Y00309000D01*
Y00309000D01*
X00532310Y00309075D01*
X00532364Y00309004D01*
X00533722Y00307962D01*
X00535303Y00307307D01*
X00537000Y00307084D01*
X00538697Y00307307D01*
X00540278Y00307962D01*
X00541636Y00309004D01*
X00542678Y00310362D01*
X00542828Y00310725D01*
X00544098Y00310472D01*
Y00309410D01*
X00552598D01*
X00553051Y00308327D01*
Y00304807D01*
X00551958Y00304380D01*
X00551958Y00304380D01*
Y00304380D01*
X00551958Y00304380D01*
X00540458D01*
Y00292880D01*
X00539553Y00292000D01*
X00537498D01*
Y00297360D01*
X00530708D01*
Y00298630D01*
X00529438D01*
Y00305420D01*
X00523918D01*
Y00305203D01*
X00522648Y00304577D01*
X00521802Y00305226D01*
X00519968Y00305986D01*
X00519270Y00306077D01*
Y00298640D01*
X00518000D01*
Y00297370D01*
X00510562D01*
X00510654Y00296671D01*
X00511414Y00294837D01*
X00512622Y00293262D01*
X00512181Y00292000D01*
X00483203D01*
X00482951Y00293270D01*
X00483096Y00293330D01*
X00484454Y00294372D01*
X00485496Y00295730D01*
X00486151Y00297311D01*
X00486374Y00299008D01*
X00486151Y00300705D01*
X00485730Y00301721D01*
X00486404Y00302910D01*
X00486522Y00302991D01*
X00507914D01*
X00508890Y00303185D01*
X00509717Y00303738D01*
X00514790Y00308810D01*
X00515342Y00309637D01*
X00515536Y00310613D01*
Y00313371D01*
X00516690Y00314525D01*
X00517210Y00314310D01*
D02*
G37*
%LPC*%
G36*
X00523230Y00311770D02*
X00517960D01*
Y00309000D01*
X00523230D01*
Y00311770D01*
D02*
G37*
G36*
X00516730Y00306077D02*
X00516032Y00305986D01*
X00514198Y00305226D01*
X00512622Y00304017D01*
X00511414Y00302442D01*
X00510654Y00300608D01*
X00510562Y00299910D01*
X00516730D01*
Y00306077D01*
D02*
G37*
G36*
X00537498Y00305420D02*
X00531978D01*
Y00299900D01*
X00537498D01*
Y00305420D01*
D02*
G37*
%LPD*%
G36*
X00020000Y00180385D02*
X00011000D01*
Y00185385D01*
X00020000Y00185385D01*
Y00180385D01*
D02*
G37*
G36*
X00025000Y00167385D02*
X00006000D01*
Y00180385D01*
X00025000D01*
Y00167385D01*
D02*
G37*
G36*
Y00108385D02*
X00006000D01*
Y00121385D01*
X00025000D01*
Y00108385D01*
D02*
G37*
G36*
X00020000Y00103385D02*
X00011000Y00103385D01*
Y00108385D01*
X00020000D01*
Y00103385D01*
D02*
G37*
D11*
X00000000Y00000000D02*
Y00400800D01*
X00590568D01*
X00590568Y00400800D01*
Y00000000D02*
Y00400800D01*
X00000000Y00000000D02*
X00590568D01*
D14*
X00186344Y00201914D02*
X00192518D01*
X00180484Y00196054D02*
X00186344Y00201914D01*
X00180484Y00161000D02*
Y00196054D01*
Y00161000D02*
X00182919Y00158565D01*
X00190298D01*
X00217918Y00170686D02*
Y00214697D01*
X00163992Y00253926D02*
X00171719D01*
X00190615Y00242000D02*
X00217918Y00214697D01*
X00183645Y00242000D02*
X00190615D01*
X00171719Y00253926D02*
X00183645Y00242000D01*
X00188870Y00230800D02*
X00205218Y00214452D01*
X00179769Y00230800D02*
X00188870D01*
X00321500Y00223917D02*
X00323500Y00225917D01*
Y00237917D01*
X00325350Y00244900D02*
X00325663D01*
X00323500Y00243051D02*
X00325350Y00244900D01*
X00323500Y00237917D02*
Y00243051D01*
X00141768Y00043200D02*
X00163968Y00021000D01*
X00328500Y00237917D02*
X00330817Y00235600D01*
X00318500Y00237917D02*
Y00244400D01*
X00347162Y00248400D02*
X00347608Y00248846D01*
X00322500Y00248400D02*
X00347162D01*
X00318500Y00244400D02*
X00322500Y00248400D01*
X00300710Y00258540D02*
X00338540D01*
X00296500Y00254330D02*
X00300710Y00258540D01*
X00304999Y00278999D02*
X00306333Y00280333D01*
X00302668Y00276668D02*
X00304999Y00278999D01*
X00306333Y00280333D02*
Y00295455D01*
X00309875Y00298996D01*
X00302668Y00266040D02*
X00322318D01*
X00302668Y00265330D02*
Y00276668D01*
X00302668Y00265330D02*
Y00266040D01*
X00306999Y00249999D02*
X00307315D01*
X00370258Y00264658D02*
X00379742D01*
X00363200Y00257600D02*
X00370258Y00264658D01*
X00363200Y00247528D02*
Y00257600D01*
X00307315Y00249999D02*
X00313463Y00243851D01*
X00360816Y00334800D02*
Y00361495D01*
X00213907Y00271706D02*
X00236800D01*
X00241587Y00266919D01*
X00241000Y00222517D02*
Y00262477D01*
X00241587D02*
Y00266919D01*
X00172983Y00279133D02*
X00206480D01*
X00092863Y00241590D02*
X00115930Y00264658D01*
X00092863Y00222936D02*
Y00241590D01*
X00069497Y00199570D02*
X00092863Y00222936D01*
X00046430Y00199570D02*
X00069497D01*
X00087600Y00172800D02*
X00087780Y00172620D01*
X00096510D01*
X00392219Y00257150D02*
X00405369Y00244000D01*
X00410583Y00100800D02*
X00416318Y00106536D01*
Y00114250D01*
X00040000Y00231805D02*
X00046750D01*
X00038000Y00229805D02*
X00040000Y00231805D01*
X00032810Y00229805D02*
X00038000D01*
X00363778Y00207911D02*
Y00215709D01*
Y00207911D02*
X00365134Y00206555D01*
X00354679Y00161316D02*
X00358393Y00165029D01*
X00332120Y00161316D02*
X00354679D01*
X00356065Y00150065D02*
X00361893Y00155893D01*
X00351893Y00150065D02*
X00356065D01*
X00356109Y00181028D02*
X00358393Y00178744D01*
Y00165029D02*
Y00178744D01*
X00365393Y00167824D02*
X00383874Y00186306D01*
X00365393Y00152711D02*
Y00167824D01*
X00361893Y00169437D02*
X00377135Y00184679D01*
X00361893Y00155893D02*
Y00169437D01*
X00357133Y00144452D02*
X00365393Y00152711D01*
X00328362Y00165074D02*
X00332120Y00161316D01*
X00328362Y00165074D02*
Y00169065D01*
X00351273Y00235600D02*
X00363200Y00247528D01*
X00330817Y00235600D02*
X00351273D01*
X00338315Y00298996D02*
X00345568Y00306250D01*
X00309875Y00298996D02*
X00338315D01*
X00454418Y00285750D02*
Y00304004D01*
X00461422Y00311008D01*
X00416318Y00285750D02*
Y00292788D01*
X00416318Y00285750D02*
X00416318Y00285750D01*
X00399932Y00122100D02*
X00406232Y00128400D01*
X00415600D01*
X00418688Y00131488D01*
Y00152952D01*
X00416091Y00155550D02*
X00418688Y00152952D01*
X00405818Y00155550D02*
X00416091D01*
X00115930Y00264658D02*
X00161387D01*
X00282313Y00215600D02*
X00285764Y00219052D01*
X00276402Y00215600D02*
X00282313D01*
X00261802Y00201000D02*
X00276402Y00215600D01*
X00287818Y00225917D02*
X00296500D01*
X00285764Y00219052D02*
Y00223863D01*
X00287818Y00225917D01*
X00335500Y00201636D02*
X00356109Y00181028D01*
X00335500Y00201636D02*
Y00205917D01*
X00346272Y00220400D02*
Y00223715D01*
X00342903Y00219221D02*
X00345093D01*
X00346272Y00220400D01*
X00341022Y00217341D02*
X00342903Y00219221D01*
X00341022Y00216634D02*
Y00217341D01*
X00340305Y00215917D02*
X00341022Y00216634D01*
X00335500Y00215917D02*
X00340305D01*
X00342487Y00228965D02*
X00372315D01*
X00384500Y00245213D02*
Y00253637D01*
Y00245213D02*
X00396978Y00232735D01*
X00384094Y00254043D02*
Y00260306D01*
Y00254043D02*
X00384500Y00253637D01*
X00379742Y00264658D02*
X00384094Y00260306D01*
X00114442Y00166042D02*
X00131000D01*
X00106399Y00157999D02*
X00114442Y00166042D01*
X00101260Y00157999D02*
X00106399D01*
X00094799D02*
X00101260D01*
X00087685Y00150885D02*
X00094799Y00157999D01*
X00042500Y00150885D02*
X00087685D01*
X00024000Y00222000D02*
X00046430Y00199570D01*
X00016725Y00222000D02*
X00024000D01*
X00016300Y00222425D02*
X00016725Y00222000D01*
X00169000Y00272271D02*
Y00275150D01*
X00161387Y00264658D02*
X00169000Y00272271D01*
X00249818Y00193615D02*
X00259717Y00183717D01*
X00289000Y00129000D02*
Y00175800D01*
X00259717Y00183717D02*
X00281083D01*
X00289000Y00175800D01*
X00313463Y00191600D02*
Y00199516D01*
X00317568Y00182000D02*
Y00187495D01*
X00313463Y00191600D02*
X00317568Y00187495D01*
X00335135Y00150065D02*
X00351893D01*
X00322765Y00162435D02*
X00335135Y00150065D01*
X00317543Y00162435D02*
X00322765D01*
X00320400Y00144452D02*
X00357133D01*
X00317543Y00147309D02*
X00320400Y00144452D01*
X00317543Y00147309D02*
Y00152935D01*
X00333200Y00079372D02*
X00385828Y00132000D01*
X00163968Y00021000D02*
X00318562D01*
X00333200Y00035638D02*
Y00079372D01*
X00318562Y00021000D02*
X00333200Y00035638D01*
X00358000Y00096692D02*
X00393568Y00132260D01*
X00358000Y00034800D02*
Y00096692D01*
X00344200Y00021000D02*
X00358000Y00034800D01*
X00334654Y00021000D02*
X00344200D01*
X00429018Y00106000D02*
Y00114250D01*
Y00106000D02*
X00433344Y00101674D01*
X00434000D01*
X00531568Y00090000D02*
X00537108D01*
X00531568Y00085000D02*
X00541140D01*
X00557600Y00101460D01*
X00568718Y00107918D02*
Y00114250D01*
X00557600Y00101460D02*
X00562260D01*
X00568718Y00107918D01*
X00527933Y00064950D02*
X00552983Y00090000D01*
X00562568D01*
X00550069Y00080181D02*
X00554888Y00085000D01*
X00562568D01*
X00573568Y00040800D02*
Y00076553D01*
X00570121Y00080000D02*
X00573568Y00076553D01*
X00562568Y00080000D02*
X00570121D01*
X00551030Y00298630D02*
X00552208D01*
X00546208D02*
X00551030D01*
X00552208D02*
X00556018Y00294820D01*
X00551030Y00298630D02*
X00555600Y00303200D01*
Y00310848D01*
X00552788Y00313660D02*
X00555600Y00310848D01*
X00548348Y00313660D02*
X00552788D01*
X00537000Y00313640D02*
X00548328D01*
X00548348Y00313660D01*
X00507914Y00305540D02*
X00512987Y00310613D01*
X00516600Y00318040D02*
X00524500D01*
X00512987Y00310613D02*
Y00314427D01*
X00516600Y00318040D01*
X00486757Y00309040D02*
X00503200D01*
X00514000Y00323040D02*
X00524500D01*
X00503200Y00309040D02*
X00508400Y00314240D01*
Y00317440D01*
X00514000Y00323040D01*
X00477468Y00332158D02*
X00486586Y00323040D01*
X00493500D01*
X00369554Y00326062D02*
X00419744D01*
X00360816Y00334800D02*
X00369554Y00326062D01*
X00370968Y00359768D02*
X00374200Y00363000D01*
X00370968Y00348000D02*
Y00359768D01*
X00218568Y00360568D02*
X00235000Y00377000D01*
X00218568Y00348000D02*
Y00360568D01*
X00524500Y00298640D02*
X00530698D01*
X00518000D02*
X00524500D01*
X00581418Y00285750D02*
Y00315140D01*
X00530698Y00298640D02*
X00530708Y00298630D01*
X00372092Y00159565D02*
X00373527Y00161000D01*
X00385000D01*
X00524500Y00298640D02*
Y00313040D01*
X00375999Y00248268D02*
Y00254000D01*
X00391594Y00257150D02*
X00392219D01*
X00375999Y00248268D02*
X00381000Y00243267D01*
Y00234055D02*
Y00243267D01*
Y00234055D02*
X00386356Y00228700D01*
X00405369Y00244000D02*
X00405818Y00244450D01*
X00125060Y00172620D02*
X00125818Y00171862D01*
X00183000Y00077650D02*
Y00136565D01*
X00205798Y00158565D02*
X00212200Y00152163D01*
X00205798Y00158565D02*
X00217918Y00170686D01*
X00212200Y00152163D02*
X00232568D01*
X00141318Y00158000D02*
X00157256D01*
X00187655Y00250914D02*
X00189843D01*
X00177798Y00260770D02*
X00187655Y00250914D01*
X00189843D02*
X00189878Y00250878D01*
X00217664D01*
X00177798Y00260770D02*
Y00270815D01*
X00277404Y00202000D02*
X00278638D01*
X00289713Y00213075D01*
X00432000Y00300472D02*
Y00301065D01*
X00419744Y00326062D02*
X00441718Y00304088D01*
X00429018Y00273100D02*
Y00285749D01*
Y00273100D02*
X00431832Y00270286D01*
X00438286D01*
X00155000Y00327145D02*
Y00385000D01*
Y00327145D02*
X00156000Y00326145D01*
X00512718Y00109050D02*
X00517918Y00114250D01*
X00509000Y00104746D02*
X00512718Y00108464D01*
X00509000Y00088439D02*
Y00104746D01*
X00512718Y00108464D02*
Y00109050D01*
X00396978Y00224664D02*
Y00232735D01*
X00395000Y00193650D02*
Y00222686D01*
X00396978Y00224664D01*
X00395000Y00147752D02*
Y00193650D01*
X00385828Y00138580D02*
X00395000Y00147752D01*
X00385828Y00132000D02*
Y00138580D01*
X00183000Y00136565D02*
X00187000Y00140565D01*
X00289000Y00077970D02*
Y00129000D01*
X00206480Y00279133D02*
X00207048Y00278565D01*
X00207048Y00278565D02*
X00207048D01*
X00207048D02*
X00207048Y00278565D01*
X00169000Y00275150D02*
X00172983Y00279133D01*
X00055183Y00144385D02*
X00083568Y00116000D01*
X00042500Y00144385D02*
X00055183D01*
X00493500Y00328040D02*
Y00332504D01*
X00487848Y00338156D02*
X00493500Y00332504D01*
X00487848Y00338156D02*
Y00356152D01*
X00481000Y00363000D02*
X00487848Y00356152D01*
X00374200Y00363000D02*
X00481000D01*
X00467118Y00305000D02*
X00469626Y00307508D01*
X00467118Y00285750D02*
Y00305000D01*
X00469626Y00307508D02*
X00483339D01*
X00476350Y00318040D02*
X00493500D01*
X00471000Y00323390D02*
X00476350Y00318040D01*
X00437610Y00332158D02*
X00477468D01*
X00461422Y00311008D02*
X00484789D01*
X00486757Y00309040D01*
X00485307Y00305540D02*
X00507914D01*
X00483339Y00307508D02*
X00485307Y00305540D01*
X00037310Y00312027D02*
X00052550Y00296786D01*
X00037310Y00312027D02*
Y00365000D01*
X00424570Y00293042D02*
X00432000Y00300472D01*
X00550069Y00070501D02*
Y00080181D01*
X00522768Y00043200D02*
X00550069Y00070501D01*
X00542980Y00114588D02*
Y00136000D01*
Y00114588D02*
X00543318Y00114250D01*
X00345311Y00377000D02*
X00360816Y00361495D01*
X00235000Y00377000D02*
X00345311D01*
X00153742Y00323887D02*
X00156000Y00326145D01*
X00249818Y00193615D02*
Y00213699D01*
X00341023Y00227501D02*
X00342487Y00228965D01*
X00341023Y00225917D02*
Y00227501D01*
X00335500Y00225917D02*
X00341023D01*
X00343635Y00210917D02*
X00346273Y00213555D01*
X00335500Y00210917D02*
X00343635D01*
X00313463Y00238516D02*
Y00243851D01*
X00292056Y00220516D02*
X00296463D01*
X00289713Y00213075D02*
Y00218173D01*
X00292056Y00220516D01*
X00296463D02*
Y00221516D01*
X00230618Y00223863D02*
Y00258414D01*
Y00266118D01*
X00194798Y00269634D02*
X00198060Y00266372D01*
X00217918Y00251132D02*
Y00258414D01*
X00177798Y00286315D02*
X00187048Y00295565D01*
X00197798Y00188315D02*
X00205218Y00195735D01*
X00207048Y00278565D02*
X00213907Y00271706D01*
X00370214Y00214556D02*
X00373634Y00211136D01*
Y00198046D02*
Y00211136D01*
X00355772Y00213555D02*
X00356498Y00212829D01*
X00530618Y00114250D02*
Y00160454D01*
X00355772Y00223715D02*
X00363778Y00215709D01*
X00441718Y00285749D02*
Y00304088D01*
X00556018Y00108910D02*
Y00114250D01*
X00399678Y00142850D02*
X00405818D01*
X00393568Y00132260D02*
Y00136739D01*
X00377135Y00184679D02*
Y00224145D01*
X00370278Y00238200D02*
X00383874Y00224604D01*
Y00186306D02*
Y00224604D01*
X00101260Y00115470D02*
Y00119052D01*
X00278568Y00224555D02*
X00278958Y00224945D01*
X00100730Y00116000D02*
X00101260Y00115470D01*
X00241000Y00222517D02*
X00249818Y00213699D01*
X00187000Y00140565D02*
X00201742D01*
X00356109Y00181028D02*
X00356617D01*
X00106010Y00172620D02*
X00115560D01*
X00230618Y00223863D02*
X00244568Y00209914D01*
X00230364Y00266372D02*
X00230618Y00266118D01*
X00198060Y00266372D02*
X00230364D01*
X00163992Y00253897D02*
Y00253926D01*
X00217664Y00250878D02*
X00217918Y00251132D01*
X00187048Y00295565D02*
Y00296565D01*
X00205218Y00195735D02*
Y00214452D01*
X00083568Y00116000D02*
X00100730D01*
X00356617Y00181028D02*
X00373634Y00198046D01*
X00370214Y00219200D02*
X00370278D01*
X00493718Y00064950D02*
X00527933D01*
X00471968Y00043200D02*
X00493718Y00064950D01*
X00421768Y00348000D02*
X00437610Y00332158D01*
X00164742Y00323887D02*
X00167992Y00327137D01*
X00153742Y00323887D02*
X00164742D01*
X00556018Y00285749D02*
Y00294820D01*
X00356498Y00193093D02*
Y00212829D01*
X00337863Y00169065D02*
X00351893D01*
X00479818Y00285749D02*
Y00299008D01*
X00537108Y00090000D02*
X00556018Y00108910D01*
X00416318Y00292788D02*
X00416572Y00293042D01*
X00424570D01*
X00393568Y00136739D02*
X00399678Y00142850D01*
X00372315Y00228965D02*
X00377135Y00224145D01*
X00395000Y00193650D02*
X00405818D01*
X00115560Y00172620D02*
Y00177500D01*
X00288680Y00077650D02*
X00289000Y00077970D01*
X00345568Y00306250D02*
Y00348000D01*
X00258568Y00233000D02*
X00267012Y00224555D01*
X00386356Y00228700D02*
X00390478D01*
X00183000Y00077650D02*
X00186650Y00074000D01*
X00237968D01*
X00268768Y00043200D01*
X00115560Y00177500D02*
X00135712Y00197652D01*
X00131000Y00166042D02*
X00150283Y00185324D01*
X00267012Y00224555D02*
X00278568D01*
X00278569D01*
X00370214Y00214556D02*
Y00219200D01*
X00008617Y00026435D02*
X00018774D01*
X00013695D01*
Y00011200D01*
X00031470Y00026435D02*
X00026391D01*
X00023852Y00023896D01*
Y00013739D01*
X00026391Y00011200D01*
X00031470D01*
X00034009Y00013739D01*
Y00023896D01*
X00031470Y00026435D01*
X00039087Y00011200D02*
Y00026435D01*
X00046705D01*
X00049244Y00023896D01*
Y00018817D01*
X00046705Y00016278D01*
X00039087D01*
D17*
X00042500Y00157385D02*
D03*
Y00150885D02*
D03*
Y00144385D02*
D03*
Y00137885D02*
D03*
Y00131385D02*
D03*
D18*
X00015500Y00154385D02*
D03*
Y00134385D02*
D03*
D19*
X00153742Y00278887D02*
D03*
Y00323887D02*
D03*
X00074242Y00278887D02*
D03*
Y00323887D02*
D03*
X00122242Y00140565D02*
D03*
Y00095565D02*
D03*
X00201742Y00140565D02*
D03*
Y00095565D02*
D03*
D20*
X00581418Y00285750D02*
D03*
X00568718D02*
D03*
X00556018D02*
D03*
X00543318D02*
D03*
X00530618D02*
D03*
X00517918D02*
D03*
X00505218D02*
D03*
X00492518D02*
D03*
X00479818D02*
D03*
X00467118D02*
D03*
X00454418D02*
D03*
X00441718D02*
D03*
X00429018D02*
D03*
X00416318D02*
D03*
Y00114250D02*
D03*
X00429018D02*
D03*
X00441718D02*
D03*
X00454418D02*
D03*
X00467118D02*
D03*
X00479818D02*
D03*
X00492518D02*
D03*
X00505218D02*
D03*
X00517918D02*
D03*
X00530618D02*
D03*
X00543318D02*
D03*
X00556018D02*
D03*
X00568718D02*
D03*
X00581418D02*
D03*
D21*
X00405818Y00257150D02*
D03*
Y00244450D02*
D03*
Y00231750D02*
D03*
Y00219050D02*
D03*
Y00206350D02*
D03*
Y00193650D02*
D03*
Y00180950D02*
D03*
Y00168250D02*
D03*
Y00155550D02*
D03*
Y00142850D02*
D03*
D22*
X00507568Y00200000D02*
D03*
D23*
X00562568Y00080000D02*
D03*
Y00085000D02*
D03*
Y00090000D02*
D03*
Y00095000D02*
D03*
X00531568Y00080000D02*
D03*
Y00085000D02*
D03*
Y00090000D02*
D03*
Y00095000D02*
D03*
X00524500Y00313040D02*
D03*
Y00318040D02*
D03*
Y00323040D02*
D03*
Y00328040D02*
D03*
X00493500Y00313040D02*
D03*
Y00318040D02*
D03*
Y00323040D02*
D03*
Y00328040D02*
D03*
D24*
X00316000Y00218417D02*
D03*
D25*
X00335500Y00230917D02*
D03*
Y00225917D02*
D03*
Y00220917D02*
D03*
Y00215917D02*
D03*
Y00210917D02*
D03*
Y00205917D02*
D03*
X00296500D02*
D03*
Y00210917D02*
D03*
Y00215917D02*
D03*
Y00220917D02*
D03*
Y00225917D02*
D03*
Y00230917D02*
D03*
D26*
X00328500Y00198917D02*
D03*
X00323500D02*
D03*
X00318500D02*
D03*
X00313500D02*
D03*
X00308500D02*
D03*
X00303500D02*
D03*
Y00237917D02*
D03*
X00308500D02*
D03*
X00313500D02*
D03*
X00318500D02*
D03*
X00323500D02*
D03*
X00328500D02*
D03*
D27*
X00037310Y00389000D02*
D03*
Y00365000D02*
D03*
X00106568Y00211715D02*
D03*
Y00235714D02*
D03*
X00101260Y00091470D02*
D03*
Y00115470D02*
D03*
Y00133999D02*
D03*
Y00157999D02*
D03*
X00016300Y00198424D02*
D03*
Y00222425D02*
D03*
D28*
X00192518Y00201914D02*
D03*
X00205218D02*
D03*
X00217918D02*
D03*
X00230618D02*
D03*
X00192518Y00258414D02*
D03*
X00205218D02*
D03*
X00217918D02*
D03*
X00230618D02*
D03*
D29*
X00380818Y00289040D02*
D03*
D30*
X00322318Y00266040D02*
D03*
Y00289040D02*
D03*
Y00312040D02*
D03*
D31*
X00125060Y00172620D02*
D03*
X00115560D02*
D03*
X00096510D02*
D03*
X00106010D02*
D03*
X00327068Y00182000D02*
D03*
X00317568D02*
D03*
X00328362Y00169065D02*
D03*
X00337862D02*
D03*
X00355772Y00223715D02*
D03*
X00346272D02*
D03*
X00355772Y00213555D02*
D03*
X00346272D02*
D03*
X00196548Y00296565D02*
D03*
X00187048D02*
D03*
D32*
X00278568Y00234055D02*
D03*
Y00224555D02*
D03*
X00317543Y00162435D02*
D03*
Y00152935D02*
D03*
X00548348Y00313660D02*
D03*
Y00323160D02*
D03*
X00244568Y00200413D02*
D03*
Y00209914D02*
D03*
X00194798Y00269633D02*
D03*
Y00279133D02*
D03*
X00032810Y00229805D02*
D03*
Y00239305D02*
D03*
D33*
X00390478Y00228700D02*
D03*
X00370278Y00219200D02*
D03*
Y00238200D02*
D03*
X00351893Y00169065D02*
D03*
Y00150065D02*
D03*
X00372092Y00159565D02*
D03*
D34*
X00233000Y00129000D02*
D03*
X00289000D02*
D03*
D35*
X00163992Y00232797D02*
D03*
Y00253897D02*
D03*
D36*
X00063250Y00231805D02*
D03*
X00046750D02*
D03*
D37*
X00566543Y00317580D02*
D03*
X00582043D02*
D03*
X00565818Y00304088D02*
D03*
X00581318D02*
D03*
X00141318Y00158000D02*
D03*
X00125818D02*
D03*
X00546208Y00298630D02*
D03*
X00530708D02*
D03*
X00205798Y00158565D02*
D03*
X00190298D02*
D03*
X00207048Y00278565D02*
D03*
X00222548D02*
D03*
X00402238Y00300470D02*
D03*
X00417738D02*
D03*
X00302668Y00265330D02*
D03*
X00287168D02*
D03*
D38*
X00258268Y00254727D02*
D03*
Y00270226D02*
D03*
X00274778Y00254727D02*
D03*
Y00270226D02*
D03*
X00167992Y00327136D02*
D03*
Y00311637D02*
D03*
X00177798Y00270815D02*
D03*
Y00286315D02*
D03*
X00197798Y00188315D02*
D03*
Y00172815D02*
D03*
D39*
X00013500Y00180385D02*
G03*
X00013500Y00180385I-00002500J00000000D01*
G01*
X00022500D02*
G03*
X00022500Y00180385I-00002500J00000000D01*
G01*
X00022500Y00108385D02*
G03*
X00022500Y00108385I-00002500J00000000D01*
G01*
X00013500D02*
G03*
X00013500Y00108385I-00002500J00000000D01*
G01*
D68*
X00565543Y00304363D02*
Y00319580D01*
X00472449Y00136350D02*
Y00251600D01*
X00274778Y00237846D02*
X00278624Y00234000D01*
X00099600Y00275040D02*
Y00283200D01*
X00072764Y00248204D02*
X00099600Y00275040D01*
X00034649Y00248204D02*
X00072764D01*
X00352000Y00289040D02*
X00380818D01*
X00322318Y00289040D02*
X00352000D01*
X00342800Y00262800D02*
Y00274800D01*
X00338540Y00258540D02*
X00342800Y00262800D01*
X00340100Y00277500D02*
X00342800Y00274800D01*
X00322318Y00282000D02*
Y00289040D01*
X00310800Y00328000D02*
X00320168Y00337368D01*
X00300168Y00328000D02*
X00310800D01*
X00320168Y00337368D02*
Y00348000D01*
X00273233Y00301065D02*
X00300168Y00328000D01*
X00326818Y00277500D02*
X00340100D01*
X00322318Y00282000D02*
X00326818Y00277500D01*
X00322318Y00289040D02*
Y00289040D01*
X00083504Y00230819D02*
Y00244069D01*
X00064400Y00211715D02*
X00083504Y00230819D01*
X00061840Y00211715D02*
X00064400D01*
X00106568Y00235714D02*
X00113160D01*
X00119349Y00229526D01*
Y00199473D02*
Y00229526D01*
X00109836Y00189960D02*
X00119349Y00199473D01*
X00101747Y00189960D02*
X00109836D01*
X00095386Y00183600D02*
X00101747Y00189960D01*
X00087600Y00172800D02*
Y00175814D01*
Y00163710D02*
Y00172800D01*
X00081275Y00157385D02*
X00087600Y00163710D01*
Y00175814D02*
X00095386Y00183600D01*
X00032810Y00246365D02*
X00034649Y00248204D01*
X00032810Y00239305D02*
Y00246365D01*
X00574168Y00334400D02*
Y00348000D01*
X00566543Y00324257D02*
Y00326775D01*
X00574168Y00334400D01*
X00041005Y00072205D02*
Y00089000D01*
X00026949Y00058149D02*
X00041005Y00072205D01*
X00017502Y00058149D02*
X00026949D01*
X00061840Y00157385D02*
X00064800D01*
X00042500D02*
X00061840D01*
Y00178800D01*
X00051974Y00188667D02*
X00061840Y00178800D01*
X00032648Y00188667D02*
X00051974D01*
X00064800Y00157385D02*
X00064800Y00157385D01*
X00081275D01*
X00083504Y00244069D02*
X00135000Y00295565D01*
X00485356Y00075953D02*
X00518000D01*
X00522047Y00080000D02*
X00531568D01*
X00518000Y00075953D02*
X00522047Y00080000D01*
X00568718Y00271118D02*
Y00285750D01*
X00472449Y00251600D02*
X00486889Y00266040D01*
X00563640D01*
X00568718Y00271118D01*
X00548000Y00328040D02*
X00554760D01*
X00524500D02*
X00548000D01*
X00548348Y00327692D01*
Y00323160D02*
Y00327692D01*
X00558400Y00324400D02*
X00566400D01*
X00566543Y00324257D01*
Y00317580D02*
Y00324257D01*
X00554760Y00328040D02*
X00558400Y00324400D01*
X00222753Y00301065D02*
X00273233D01*
X00565543Y00304363D02*
X00565818Y00304088D01*
Y00295000D02*
Y00304088D01*
Y00295000D02*
X00568718Y00292100D01*
Y00285750D02*
Y00292100D01*
X00437204Y00139165D02*
X00437369Y00139000D01*
X00437204Y00139165D02*
Y00250000D01*
X00428665Y00258540D02*
X00437204Y00250000D01*
X00428150Y00258540D02*
X00428665D01*
X00413690Y00273000D02*
X00428150Y00258540D01*
X00406850Y00273000D02*
X00413690D01*
X00399000Y00280850D02*
X00406850Y00273000D01*
X00380818Y00289040D02*
X00392248Y00300470D01*
X00475309Y00086000D02*
X00485356Y00075953D01*
X00471968Y00086000D02*
X00475309D01*
X00380818Y00289040D02*
X00389008Y00280850D01*
X00380818Y00289040D02*
X00380818D01*
X00389008Y00280850D02*
X00399000D01*
X00037310Y00389000D02*
X00071914D01*
X00278624Y00234000D02*
X00283401D01*
X00287818Y00238417D01*
X00296500D01*
X00303500Y00237917D02*
X00308500D01*
X00297000D02*
X00303500D01*
X00296500Y00238417D02*
Y00254330D01*
Y00230917D02*
Y00238417D01*
X00297000Y00237917D01*
X00022891Y00198424D02*
X00032648Y00188667D01*
X00016300Y00198424D02*
X00022891D01*
X00258268Y00254726D02*
X00274778D01*
X00392248Y00300470D02*
X00402238D01*
X00274778Y00237846D02*
Y00254726D01*
D69*
X00042500Y00119385D02*
D03*
Y00169385D02*
D03*
D70*
X00167168Y00040800D02*
D03*
X00141768D02*
D03*
X00065568D02*
D03*
X00116368D02*
D03*
X00090968D02*
D03*
X00243368D02*
D03*
X00268768D02*
D03*
X00217968D02*
D03*
X00192568D02*
D03*
X00294168D02*
D03*
X00319568D02*
D03*
X00370368D02*
D03*
X00344968D02*
D03*
X00548168D02*
D03*
X00573568D02*
D03*
X00522768D02*
D03*
X00497368D02*
D03*
X00395768D02*
D03*
X00421168D02*
D03*
X00471968D02*
D03*
X00446568D02*
D03*
X00167768Y00348000D02*
D03*
X00142368D02*
D03*
X00066168D02*
D03*
X00116968D02*
D03*
X00091568D02*
D03*
X00243968D02*
D03*
X00269368D02*
D03*
X00218568D02*
D03*
X00193168D02*
D03*
X00294768D02*
D03*
X00320168D02*
D03*
X00370968D02*
D03*
X00345568D02*
D03*
X00548768D02*
D03*
X00574168D02*
D03*
X00523368D02*
D03*
X00497968D02*
D03*
X00396368D02*
D03*
X00421768D02*
D03*
X00472568D02*
D03*
X00447168D02*
D03*
X00258568Y00233000D02*
D03*
X00017502Y00083549D02*
D03*
Y00058149D02*
D03*
D71*
X00052550Y00322187D02*
D03*
Y00271387D02*
D03*
Y00296786D02*
D03*
D72*
X00179769Y00230800D02*
D03*
X00304999Y00278999D02*
D03*
X00306999Y00249999D02*
D03*
X00410583Y00100800D02*
D03*
X00385000Y00161000D02*
D03*
X00375999Y00254000D02*
D03*
X00391594Y00257150D02*
D03*
X00183000Y00133056D02*
D03*
X00157256Y00158000D02*
D03*
X00437369Y00139000D02*
D03*
X00277404Y00202000D02*
D03*
X00135000Y00295565D02*
D03*
X00222753Y00301065D02*
D03*
X00432000D02*
D03*
X00261802Y00201000D02*
D03*
X00434000Y00101674D02*
D03*
X00471968Y00086000D02*
D03*
X00472232Y00136350D02*
D03*
X00518000Y00298640D02*
D03*
X00071914Y00389000D02*
D03*
X00155000Y00385000D02*
D03*
X00509000Y00088439D02*
D03*
X00334654Y00021000D02*
D03*
X00241587Y00262477D02*
D03*
X00061840Y00211715D02*
D03*
X00041005Y00089000D02*
D03*
X00471000Y00323390D02*
D03*
X00438286Y00270286D02*
D03*
X00542980Y00136000D02*
D03*
X00537000Y00313640D02*
D03*
X00083568Y00116000D02*
D03*
X00347608Y00248846D02*
D03*
X00356498Y00193093D02*
D03*
X00530618Y00160454D02*
D03*
X00365134Y00206555D02*
D03*
X00479818Y00299008D02*
D03*
X00399932Y00122100D02*
D03*
X00135712Y00197652D02*
D03*
X00288680Y00077650D02*
D03*
X00150283Y00185324D02*
D03*
D73*
X00099600Y00283200D02*
D03*
X00352000Y00289040D02*
D03*
D74*
X00310500Y00212917D02*
D03*
Y00223917D02*
D03*
X00321500Y00212917D02*
D03*
Y00223917D02*
D03*
M02*
