G04*
G04 #@! TF.GenerationSoftware,Altium Limited,Altium Designer,18.1.6 (161)*
G04*
G04 Layer_Color=16711935*
%FSAX44Y44*%
%MOMM*%
G71*
G01*
G75*
%ADD11C,0.1000*%
%ADD12C,0.6000*%
%ADD62C,1.5500*%
%ADD63C,1.6240*%
%ADD64C,1.5000*%
%ADD65C,1.1000*%
%ADD66C,1.3000*%
%ADD67C,0.6000*%
G36*
X00025098Y00121878D02*
X00025192Y00121849D01*
X00025279Y00121803D01*
X00025355Y00121740D01*
X00025418Y00121664D01*
X00025464Y00121577D01*
X00025493Y00121483D01*
X00025503Y00121385D01*
Y00108385D01*
X00025493Y00108287D01*
X00025464Y00108193D01*
X00025418Y00108106D01*
X00025355Y00108030D01*
X00025279Y00107967D01*
X00025192Y00107921D01*
X00025098Y00107892D01*
X00025000Y00107882D01*
X00020503D01*
Y00103385D01*
X00020493Y00103287D01*
X00020465Y00103193D01*
X00020418Y00103106D01*
X00020356Y00103030D01*
X00020280Y00102967D01*
X00020193Y00102921D01*
X00020098Y00102892D01*
X00020000Y00102883D01*
X00011000Y00102882D01*
X00011000D01*
D01*
X00010902Y00102892D01*
X00010808Y00102921D01*
X00010721Y00102967D01*
X00010645Y00103030D01*
X00010582Y00103106D01*
X00010536Y00103193D01*
X00010507Y00103287D01*
X00010498Y00103385D01*
Y00103385D01*
D01*
Y00107882D01*
X00006000D01*
X00005902Y00107892D01*
X00005808Y00107921D01*
X00005721Y00107967D01*
X00005645Y00108030D01*
X00005582Y00108106D01*
X00005536Y00108193D01*
X00005507Y00108287D01*
X00005498Y00108385D01*
Y00121385D01*
X00005507Y00121483D01*
X00005536Y00121577D01*
X00005582Y00121664D01*
X00005645Y00121740D01*
X00005721Y00121803D01*
X00005808Y00121849D01*
X00005902Y00121878D01*
X00006000Y00121887D01*
X00025000D01*
X00025098Y00121878D01*
D02*
G37*
G36*
X00020098Y00185878D02*
X00020192Y00185849D01*
X00020279Y00185803D01*
X00020355Y00185740D01*
X00020418Y00185664D01*
X00020464Y00185577D01*
X00020493Y00185483D01*
X00020503Y00185385D01*
Y00185385D01*
D01*
Y00180887D01*
X00025000D01*
X00025098Y00180878D01*
X00025192Y00180849D01*
X00025279Y00180803D01*
X00025355Y00180740D01*
X00025418Y00180664D01*
X00025464Y00180577D01*
X00025493Y00180483D01*
X00025503Y00180385D01*
Y00167385D01*
X00025493Y00167287D01*
X00025464Y00167193D01*
X00025418Y00167106D01*
X00025355Y00167030D01*
X00025279Y00166967D01*
X00025192Y00166921D01*
X00025098Y00166892D01*
X00025000Y00166882D01*
X00006000D01*
X00005902Y00166892D01*
X00005808Y00166921D01*
X00005721Y00166967D01*
X00005645Y00167030D01*
X00005582Y00167106D01*
X00005536Y00167193D01*
X00005507Y00167287D01*
X00005498Y00167385D01*
Y00180385D01*
X00005507Y00180483D01*
X00005536Y00180577D01*
X00005582Y00180664D01*
X00005645Y00180740D01*
X00005721Y00180803D01*
X00005808Y00180849D01*
X00005902Y00180878D01*
X00006000Y00180887D01*
X00010497D01*
Y00185385D01*
X00010507Y00185483D01*
X00010536Y00185577D01*
X00010582Y00185664D01*
X00010645Y00185740D01*
X00010721Y00185802D01*
X00010808Y00185849D01*
X00010902Y00185877D01*
X00011000Y00185887D01*
X00020000Y00185887D01*
X00020000D01*
D01*
X00020098Y00185878D01*
D02*
G37*
D11*
X00000000Y00000000D02*
Y00400800D01*
X00590568D01*
X00590568Y00400800D01*
Y00000000D02*
Y00400800D01*
X00000000Y00000000D02*
X00590568D01*
D12*
X00013500Y00180385D02*
G03*
X00013500Y00180385I-00002500J00000000D01*
G01*
X00022500D02*
G03*
X00022500Y00180385I-00002500J00000000D01*
G01*
X00022500Y00108385D02*
G03*
X00022500Y00108385I-00002500J00000000D01*
G01*
X00013500D02*
G03*
X00013500Y00108385I-00002500J00000000D01*
G01*
D62*
X00042500Y00119385D02*
D03*
Y00169385D02*
D03*
D63*
X00167168Y00040800D02*
D03*
X00141768D02*
D03*
X00065568D02*
D03*
X00116368D02*
D03*
X00090968D02*
D03*
X00243368D02*
D03*
X00268768D02*
D03*
X00217968D02*
D03*
X00192568D02*
D03*
X00294168D02*
D03*
X00319568D02*
D03*
X00370368D02*
D03*
X00344968D02*
D03*
X00548168D02*
D03*
X00573568D02*
D03*
X00522768D02*
D03*
X00497368D02*
D03*
X00395768D02*
D03*
X00421168D02*
D03*
X00471968D02*
D03*
X00446568D02*
D03*
X00167768Y00348000D02*
D03*
X00142368D02*
D03*
X00066168D02*
D03*
X00116968D02*
D03*
X00091568D02*
D03*
X00243968D02*
D03*
X00269368D02*
D03*
X00218568D02*
D03*
X00193168D02*
D03*
X00294768D02*
D03*
X00320168D02*
D03*
X00370968D02*
D03*
X00345568D02*
D03*
X00548768D02*
D03*
X00574168D02*
D03*
X00523368D02*
D03*
X00497968D02*
D03*
X00396368D02*
D03*
X00421768D02*
D03*
X00472568D02*
D03*
X00447168D02*
D03*
X00258568Y00233000D02*
D03*
X00017502Y00083549D02*
D03*
Y00058149D02*
D03*
D64*
X00052550Y00322187D02*
D03*
Y00271387D02*
D03*
Y00296786D02*
D03*
D65*
X00179769Y00230800D02*
D03*
X00304999Y00278999D02*
D03*
X00306999Y00249999D02*
D03*
X00410583Y00100800D02*
D03*
X00385000Y00161000D02*
D03*
X00375999Y00254000D02*
D03*
X00391594Y00257150D02*
D03*
X00183000Y00133056D02*
D03*
X00157256Y00158000D02*
D03*
X00437369Y00139000D02*
D03*
X00277404Y00202000D02*
D03*
X00135000Y00295565D02*
D03*
X00222753Y00301065D02*
D03*
X00432000D02*
D03*
X00261802Y00201000D02*
D03*
X00434000Y00101674D02*
D03*
X00471968Y00086000D02*
D03*
X00472232Y00136350D02*
D03*
X00518000Y00298640D02*
D03*
X00071914Y00389000D02*
D03*
X00155000Y00385000D02*
D03*
X00509000Y00088439D02*
D03*
X00334654Y00021000D02*
D03*
X00241587Y00262477D02*
D03*
X00061840Y00211715D02*
D03*
X00041005Y00089000D02*
D03*
X00471000Y00323390D02*
D03*
X00438286Y00270286D02*
D03*
X00542980Y00136000D02*
D03*
X00537000Y00313640D02*
D03*
X00083568Y00116000D02*
D03*
X00347608Y00248846D02*
D03*
X00356498Y00193093D02*
D03*
X00530618Y00160454D02*
D03*
X00365134Y00206555D02*
D03*
X00479818Y00299008D02*
D03*
X00399932Y00122100D02*
D03*
X00135712Y00197652D02*
D03*
X00288680Y00077650D02*
D03*
X00150283Y00185324D02*
D03*
D66*
X00099600Y00283200D02*
D03*
X00352000Y00289040D02*
D03*
D67*
X00310500Y00212917D02*
D03*
Y00223917D02*
D03*
X00321500Y00212917D02*
D03*
Y00223917D02*
D03*
M02*
