M48
;Layer_Color=9474304
;FILE_FORMAT=4:4
METRIC
T10F00S00C2.0000
%
G90
G05
T10
G00X00544922Y00207020
M15
G01X00561507Y00208740
G01X00577941Y00211561
G01X00594149Y00215472
G01X00610061Y00220455
G01X00625605Y00226489
G01X00640712Y00233545
G01X00654823Y00241298
G01X00674913Y00252582
G01X00695307Y00262781
G01X00716167Y00271990
G01X00737445Y00280188
G01X00759091Y00287355
G01X00781057Y00293476
G01X00803290Y00298535
G01X00825742Y00302522
G01X00848358Y00305427
G01X00871087Y00307243
G01X00893878Y00307967
G01X00916917Y00307593
G01X00920062Y00308046
G01X00922906Y00309464
G01X00925161Y00311701
G01X00926601Y00314534
G01X00927080Y00317591
G01X00927080Y00797591
G01X00926575Y00800728
G01X00925112Y00803548
G01X00922838Y00805767
G01X00919982Y00807161
G01X00917119Y00807591
G01X00885237Y00807710
G01X00853368Y00806785
G01X00821546Y00804820
G01X00789806Y00801814
G01X00758181Y00797773
G01X00726705Y00792699
G01X00695412Y00786600
G01X00664335Y00779480
G01X00633507Y00771347
G01X00602962Y00762211
G01X00572732Y00752081
G01X00542849Y00740969
G01X00513346Y00728884
G01X00484253Y00715842
G01X00455603Y00701855
G01X00427425Y00686939
G01X00399611Y00671023
G01X00385833Y00662195
G01X00372662Y00652485
G01X00360642Y00642371
G01X00358566Y00639965
G01X00357350Y00637030
G01X00357080Y00634719
G01X00357080Y00277893
G01X00357585Y00274756
G01X00359048Y00271936
G01X00360646Y00270238
G01X00373426Y00259528
G01X00386891Y00249694
G01X00400982Y00240780
G01X00415636Y00232825
G01X00430788Y00225866
G01X00446370Y00219932
G01X00462313Y00215050
G01X00478547Y00211243
G01X00494998Y00208527
G01X00511593Y00206914
G01X00528260Y00206411
G01X00544922Y00207020
M16
M17
M30
