M48
;Layer_Color=9474304
;FILE_FORMAT=4:4
METRIC
;TYPE=PLATED
T1F00S00C0.3000
T4F00S00C0.7112
T5F00S00C0.8000
T7F00S00C1.0000
T8F00S00C1.0900
T9F00S00C2.5000
%
T01
X00387880Y00358429
X00404280Y00353093
X00400580Y00379098
X00425180Y00379393
X00431280Y00395493
X00446980Y00395593
X00451380Y00379971
X00464526Y00383493
X00489280Y00378093
X00513907Y00378893
X00514180Y00393893
X00528229Y00379971
X00540182Y00357193
X00502680Y00348093
X00466657Y00353615
X00443480Y00350793
X00415032Y00324293
X00591480Y00353793
X00563380Y00389193
X00649080Y00393893
X00703679Y00370293
X00701980Y00325193
X00688530Y00322943
X00706480Y00299893
X00764514Y00322949
X00782236Y00316393
X00633830Y00312493
Y00278593
X00574980Y00244893
X00828379Y00322193
X00842280Y00328193
X00807080Y00363493
X00801658Y00438748
X00810380Y00464171
X00810941Y00480906
X00801402Y00504093
X00868080
X00843880Y00529893
X00856780Y00546493
X00856480Y00563893
X00868780Y00628493
X00856450Y00664391
X00850080Y00700693
X00802180Y00640893
X00794953Y00613693
X00794085Y00590388
X00749880Y00592949
X00736780Y00607293
X00735380Y00636193
X00771382Y00643725
X00767280Y00712093
X00730480Y00710393
X00673580Y00678993
X00685480Y00660993
X00640480Y00683093
X00652280Y00697893
X00600880Y00663593
X00601980Y00640593
X00588180Y00637592
X00576780Y00670393
X00493380Y00665793
X00494126Y00688493
X00513180Y00696493
X00517830Y00632843
X00492558Y00629506
X00485280Y00604393
X00458630Y00610443
X00473780Y00579344
X00428680Y00580093
X00428380Y00593693
X00400080Y00604893
X00403580Y00524893
X00444980Y00521092
X00460980Y00523893
X00475980Y00523593
X00498180Y00523293
X00492880Y00507793
X00462180
X00481148Y00486948
X00478531Y00472644
X00461233Y00445443
X00473780Y00413893
X00514887Y00411193
X00515180Y00429693
X00534180Y00430993
X00520880Y00451300
X00559980Y00460493
X00595980Y00453993
X00613080Y00458493
X00624479Y00469293
X00644279Y00472593
X00659880Y00475793
X00676880Y00466593
X00680480Y00448193
X00719180Y00469818
X00725630Y00545798
X00743779Y00554292
X00757679Y00555792
X00760379Y00540692
X00762880Y00525993
X00677280Y00562048
X00654680Y00571493
X00642920Y00550658
X00644380Y00534193
X00623144Y00552354
X00622980Y00578793
X00602080Y00570893
X00598005Y00586493
X00581780Y00573012
X00563080Y00589193
X00522680Y00578093
X00527064Y00556608
X00532080Y00526793
X00532680Y00508693
X00550280Y00513693
X00551880Y00525993
X00565280Y00518993
X00590302Y00482493
X00617080Y00506992
X00641553Y00491443
X00643980Y00423593
X00617680Y00420693
X00578580Y00432415
X00563066Y00411193
X00541980Y00403293
X00416448Y00398529
X00415680Y00428693
X00402727Y00452793
X00405880Y00476393
X00514460Y00533293
X00607580Y00743793
X00387880Y00526693
X00380280Y00512192
T04
X00877080Y00530393
Y00547893
Y00565393
X00692880Y00517893
Y00499893
X00674880
Y00517893
X00496530Y00654093
T05
X00694662Y00734748
X00743902Y00743431
T07
X00428680Y00312193
Y00337593
X00457280Y00337893
Y00312493
Y00287093
X00711280Y00338693
X00736680
X00895880Y00396993
Y00422393
X00896380Y00453293
Y00478693
X00898080Y00591993
Y00617393
X00897780Y00649093
Y00674493
X00898580Y00703093
Y00728493
X00747080Y00622893
X00721680
X00696280
X00670880
X00645480
X00620080
X00645480Y00648293
X00670880
X00696280
X00721680
Y00597493
X00696280
X00670880
X00645480
X00562210Y00615918
X00544234Y00607151
X00526258Y00598383
X00508282Y00589616
X00490306Y00580849
X00662180Y00453593
T08
X00811580Y00672725
X00836980
Y00723525
X00786180
Y00672725
T09
X00397080Y00287893
X00887080Y00347893
Y00767893
X00397080Y00627893
M30
